<svg width="24" height="24" viewBox="0 0 24 24" fill="none" xmlns="http://www.w3.org/2000/svg">
<path d="M12 8.8C11.7733 8.8 11.5832 8.8768 11.4296 9.0304C11.2765 9.18347 11.2 9.37333 11.2 9.6V12.16L10.48 11.44C10.3333 11.2933 10.1467 11.22 9.92 11.22C9.69333 11.22 9.50667 11.2933 9.36 11.44C9.21333 11.5867 9.14 11.7733 9.14 12C9.14 12.2267 9.21333 12.4133 9.36 12.56L11.44 14.64C11.52 14.72 11.6067 14.7768 11.7 14.8104C11.7933 14.8435 11.8933 14.86 12 14.86C12.1067 14.86 12.2067 14.8435 12.3 14.8104C12.3933 14.7768 12.48 14.72 12.56 14.64L14.64 12.56C14.7867 12.4133 14.86 12.2267 14.86 12C14.86 11.7733 14.7867 11.5867 14.64 11.44C14.4933 11.2933 14.3067 11.22 14.08 11.22C13.8533 11.22 13.6667 11.2933 13.52 11.44L12.8 12.16V9.6C12.8 9.37333 12.7232 9.18347 12.5696 9.0304C12.4165 8.8768 12.2267 8.8 12 8.8ZM12 4C13.1067 4 14.1467 4.21013 15.12 4.6304C16.0933 5.05013 16.94 5.62 17.66 6.34C18.38 7.06 18.9499 7.90667 19.3696 8.88C19.7899 9.85333 20 10.8933 20 12C20 13.1067 19.7899 14.1467 19.3696 15.12C18.9499 16.0933 18.38 16.94 17.66 17.66C16.94 18.38 16.0933 18.9501 15.12 19.3704C14.1467 19.7901 13.1067 20 12 20C10.8933 20 9.85333 19.7901 8.88 19.3704C7.90667 18.9501 7.06 18.38 6.34 17.66C5.62 16.94 5.05013 16.0933 4.6304 15.12C4.21013 14.1467 4 13.1067 4 12C4 10.8933 4.21013 9.85333 4.6304 8.88C5.05013 7.90667 5.62 7.06 6.34 6.34C7.06 5.62 7.90667 5.05013 8.88 4.6304C9.85333 4.21013 10.8933 4 12 4Z" fill="#091E42"/>
</svg>
