<svg width="24" height="24" viewBox="0 0 24 24" fill="none" xmlns="http://www.w3.org/2000/svg">
<path d="M13.7605 4.33963C13.7913 4.27101 13.8355 4.20907 13.8905 4.15734C13.9455 4.10561 14.0103 4.06511 14.0811 4.03814C14.152 4.01118 14.2275 3.99828 14.3034 4.00018C14.3793 4.00209 14.4541 4.01876 14.5235 4.04925C14.6576 4.10869 16.8102 5.12274 18.2541 7.51323C18.9836 8.72506 19.2912 9.96546 19.4172 10.9121C19.4891 11.455 19.5143 12.0031 19.4923 12.5503V12.58V12.5755C19.4923 12.7271 19.4314 12.8725 19.323 12.9797C19.2146 13.0869 19.0676 13.1471 18.9143 13.1471C18.761 13.1471 18.6139 13.0869 18.5055 12.9797C18.3971 12.8725 18.3362 12.7271 18.3362 12.5755V12.5183C18.3536 12.1262 18.4403 10.0535 17.2611 8.09971C16.552 6.93607 15.5631 5.96371 14.3824 5.26907C14.1847 5.15475 14.0634 5.09759 14.0541 5.09416C13.9847 5.06369 13.9221 5.02 13.8698 4.96559C13.8175 4.91118 13.7765 4.84711 13.7492 4.77704C13.722 4.70698 13.7089 4.63228 13.7109 4.55723C13.7128 4.48218 13.7296 4.40824 13.7605 4.33963ZM13.8206 7.09824C13.9104 6.97548 14.0459 6.89302 14.1972 6.86901C14.3486 6.845 14.5033 6.8814 14.6275 6.9702C14.6241 6.96791 14.9004 7.1394 15.2287 7.43892C15.5605 7.73845 15.9686 8.18545 16.2946 8.78451C16.6497 9.44144 16.8597 10.1654 16.9108 10.9086C16.9154 10.9772 16.9166 11.031 16.9177 11.0733V11.1453C16.9177 11.2969 16.8568 11.4423 16.7484 11.5495C16.64 11.6567 16.493 11.7169 16.3397 11.7169C16.1864 11.7169 16.0393 11.6567 15.9309 11.5495C15.8225 11.4423 15.7616 11.2969 15.7616 11.1453V11.1418C15.749 10.496 15.5774 9.86299 15.2618 9.29747C14.9461 8.73196 14.4959 8.25101 13.9501 7.89622C13.8259 7.80735 13.7425 7.67338 13.7183 7.52374C13.694 7.3741 13.7308 7.22105 13.8206 7.09824ZM5.08292 15.0974C4.49313 14.0487 4.34385 12.8127 4.66729 11.656C4.99073 10.4994 5.76098 9.51488 6.81187 8.91478C7.86276 8.31469 9.11008 8.14714 10.2848 8.44828C11.4595 8.74942 12.4674 9.49511 13.0911 10.5245L14.0391 12.1479L16.2426 13.7336C16.3204 13.7896 16.3828 13.8639 16.4242 13.9499C16.4656 14.0358 16.4846 14.1306 16.4795 14.2256C16.4745 14.3207 16.4455 14.413 16.3952 14.4941C16.345 14.5753 16.275 14.6428 16.1917 14.6904L13.2668 16.3596L13.2714 16.363L10.1061 18.1693V18.1659L7.18121 19.835C7.09781 19.8828 7.00365 19.9092 6.90729 19.9118C6.81093 19.9145 6.71543 19.8932 6.62949 19.8501C6.54355 19.8069 6.46989 19.7432 6.41522 19.6646C6.36055 19.5861 6.3266 19.4953 6.31646 19.4005L6.03091 16.722L5.08292 15.0974ZM13.9998 17.2673L10.5338 19.2451C10.8356 19.6201 11.2634 19.8755 11.7395 19.9649C12.2156 20.0543 12.7084 19.9717 13.1281 19.7322C13.5479 19.4927 13.8667 19.1121 14.0267 18.6597C14.1866 18.2074 14.1771 17.7133 13.9998 17.2673Z" fill="#091E42"/>
</svg>
