<svg width="16" height="16" viewBox="0 0 16 16" fill="none" xmlns="http://www.w3.org/2000/svg">
<g id="iconoir:bluetooth-tag-solid">
<path id="Vector" fill-rule="evenodd" clip-rule="evenodd" d="M5.33337 1.5C4.1399 1.5 2.99531 1.97411 2.15139 2.81802C1.30748 3.66193 0.833374 4.80653 0.833374 6V10C0.833374 11.1935 1.30748 12.3381 2.15139 13.182C2.99531 14.0259 4.1399 14.5 5.33337 14.5H10.6667C11.8602 14.5 13.0048 14.0259 13.8487 13.182C14.6926 12.3381 15.1667 11.1935 15.1667 10V6C15.1667 4.80653 14.6926 3.66193 13.8487 2.81802C13.0048 1.97411 11.8602 1.5 10.6667 1.5H5.33337ZM8.26671 3.65533C8.19779 3.583 8.1088 3.53298 8.01119 3.5117C7.91358 3.49043 7.81183 3.49888 7.71907 3.53597C7.62631 3.57306 7.54679 3.63709 7.49076 3.71979C7.43473 3.8025 7.40475 3.9001 7.40471 4V6.938L6.32404 6.01933C6.22299 5.9334 6.09195 5.89113 5.95974 5.90182C5.82752 5.91251 5.70497 5.97529 5.61904 6.07633C5.53311 6.17738 5.49084 6.30843 5.50153 6.44064C5.51222 6.57285 5.57499 6.6954 5.67604 6.78133L7.11071 8L5.67604 9.21933C5.62601 9.26188 5.58484 9.31387 5.5549 9.37232C5.52496 9.43078 5.50682 9.49456 5.50153 9.56003C5.49624 9.62549 5.50389 9.69136 5.52405 9.75387C5.54422 9.81638 5.57649 9.8743 5.61904 9.92433C5.66159 9.97437 5.71357 10.0155 5.77203 10.0455C5.83049 10.0754 5.89427 10.0936 5.95974 10.0988C6.0252 10.1041 6.09107 10.0965 6.15357 10.0763C6.21608 10.0562 6.27401 10.0239 6.32404 9.98133L7.40471 9.062V12C7.40475 12.0999 7.43473 12.1975 7.49076 12.2802C7.54679 12.3629 7.62631 12.4269 7.71907 12.464C7.81183 12.5011 7.91358 12.5096 8.01119 12.4883C8.1088 12.467 8.19779 12.417 8.26671 12.3447L10.362 10.1447C10.4089 10.0954 10.4452 10.0371 10.4688 9.97337C10.4924 9.90961 10.5027 9.84171 10.4992 9.77382C10.4956 9.70593 10.4782 9.63948 10.4481 9.57853C10.418 9.51758 10.3758 9.46341 10.324 9.41933L8.65471 8L10.324 6.58067C10.3758 6.53659 10.418 6.48242 10.4481 6.42147C10.4782 6.36052 10.4956 6.29407 10.4992 6.22618C10.5027 6.15829 10.4924 6.09039 10.4688 6.02663C10.4452 5.96286 10.4089 5.90458 10.362 5.85533L8.26671 3.65533ZM9.27337 9.83867L8.40471 9.1V10.75L9.27337 9.83867ZM8.40471 5.25V6.9L9.27337 6.162L8.40471 5.25Z" fill="#B3B9C4"/>
</g>
</svg>
