<svg width="24" height="24" viewBox="0 0 24 24" fill="none" xmlns="http://www.w3.org/2000/svg">
<path d="M18.4 7.65789C18.864 7.65789 19.24 7.81579 19.536 8.12368C19.84 8.44737 20 8.80263 20 9.23684V17.9211C20 18.3553 19.84 18.7105 19.536 19.0342C19.24 19.3421 18.864 19.5 18.4 19.5H5.6C5.136 19.5 4.76 19.3421 4.464 19.0342C4.16 18.7105 4 18.3553 4 17.9211V9.23684C4 8.80263 4.16 8.44737 4.464 8.12368C4.76 7.81579 5.136 7.65789 5.6 7.65789H8.8V6.07895C8.8 5.62105 8.96 5.25 9.264 4.95789C9.56 4.65789 9.936 4.5 10.4 4.5H13.6C14.064 4.5 14.44 4.65789 14.736 4.95789C15.04 5.25 15.2 5.62105 15.2 6.07895V7.65789H18.4ZM5.6 9.23684V17.9211H18.4V9.23684H5.6ZM13.6 7.65789V6.07895H10.4V7.65789H13.6Z" fill="#091E42"/>
</svg>
