<svg width="25" height="24" viewBox="0 0 25 24" fill="none" xmlns="http://www.w3.org/2000/svg">
<path d="M13.7348 4.25146C14.0633 4.25144 14.386 4.33724 14.6711 4.50036C14.9562 4.66348 15.1937 4.89826 15.3602 5.18144L16.0421 6.34348H17.7772C18.1348 6.34348 18.4889 6.41391 18.8192 6.55075C19.1496 6.68759 19.4498 6.88815 19.7026 7.141C19.9555 7.39384 20.156 7.69401 20.2929 8.02436C20.4297 8.35472 20.5001 8.70879 20.5001 9.06637V17.0256C20.5001 17.3832 20.4297 17.7372 20.2929 18.0676C20.156 18.3979 19.9555 18.6981 19.7026 18.9509C19.4498 19.2038 19.1496 19.4044 18.8192 19.5412C18.4889 19.678 18.1348 19.7485 17.7772 19.7485H6.46678C5.74463 19.7485 5.05205 19.4616 4.54141 18.9509C4.03077 18.4403 3.7439 17.7477 3.7439 17.0256V9.06637C3.7439 8.34421 4.03077 7.65164 4.54141 7.141C5.05205 6.63035 5.74463 6.34348 6.46678 6.34348H8.20943L8.94252 5.15044C9.11107 4.87582 9.34721 4.64899 9.62839 4.49161C9.90956 4.33423 10.2264 4.25155 10.5486 4.25146H13.7348ZM13.7348 5.50818H10.5486C10.4569 5.50826 10.3664 5.52839 10.2833 5.56718C10.2002 5.60597 10.1266 5.66247 10.0677 5.73272L10.0132 5.80812L9.09751 7.29942C9.04136 7.39101 8.96266 7.46668 8.86894 7.51919C8.77521 7.5717 8.66958 7.5993 8.56215 7.59936H6.46762C6.27494 7.59925 6.08413 7.63712 5.90609 7.7108C5.72806 7.78449 5.56629 7.89254 5.43004 8.02879C5.2938 8.16504 5.18574 8.3268 5.11206 8.50484C5.03837 8.68287 5.0005 8.87369 5.00061 9.06637V17.0256C5.00061 17.8349 5.65746 18.4917 6.46678 18.4917H17.7772C18.1661 18.4917 18.539 18.3373 18.814 18.0623C19.0889 17.7874 19.2434 17.4144 19.2434 17.0256V9.06637C19.2434 8.67752 19.0889 8.30459 18.814 8.02963C18.539 7.75467 18.1661 7.6002 17.7772 7.6002H15.6827C15.5732 7.60026 15.4655 7.57168 15.3704 7.5173C15.2754 7.46293 15.1961 7.38464 15.1406 7.29021L14.276 5.81817C14.2206 5.72386 14.1415 5.64565 14.0466 5.59128C13.9517 5.53692 13.8442 5.50827 13.7348 5.50818ZM12.122 8.85691C13.1219 8.85691 14.0809 9.25413 14.7879 9.96117C15.495 10.6682 15.8922 11.6272 15.8922 12.6271C15.8922 13.627 15.495 14.5859 14.7879 15.293C14.0809 16 13.1219 16.3972 12.122 16.3972C11.1221 16.3972 10.1632 16 9.45611 15.293C8.74907 14.5859 8.35186 13.627 8.35186 12.6271C8.35186 11.6272 8.74907 10.6682 9.45611 9.96117C10.1632 9.25413 11.1221 8.85691 12.122 8.85691ZM12.122 10.1136C11.7919 10.1136 11.4651 10.1786 11.1602 10.305C10.8552 10.4313 10.5781 10.6164 10.3447 10.8498C10.1114 11.0832 9.92621 11.3603 9.7999 11.6652C9.67359 11.9702 9.60858 12.297 9.60858 12.6271C9.60858 12.9571 9.67359 13.284 9.7999 13.5889C9.92621 13.8939 10.1114 14.1709 10.3447 14.4043C10.5781 14.6377 10.8552 14.8229 11.1602 14.9492C11.4651 15.0755 11.7919 15.1405 12.122 15.1405C12.7886 15.1405 13.4279 14.8757 13.8993 14.4043C14.3706 13.933 14.6354 13.2937 14.6354 12.6271C14.6354 11.9605 14.3706 11.3212 13.8993 10.8498C13.4279 10.3784 12.7886 10.1136 12.122 10.1136Z" fill="#091E42"/>
</svg>
