<svg width="24" height="24" viewBox="0 0 24 24" fill="none" xmlns="http://www.w3.org/2000/svg">
<path d="M4 6.66667C4 5.95942 4.28095 5.28115 4.78105 4.78105C5.28115 4.28095 5.95942 4 6.66667 4H17.3333C18.0406 4 18.7189 4.28095 19.219 4.78105C19.719 5.28115 20 5.95942 20 6.66667V17.3333C20 18.0406 19.719 18.7189 19.219 19.219C18.7189 19.719 18.0406 20 17.3333 20H6.66667C5.95942 20 5.28115 19.719 4.78105 19.219C4.28095 18.7189 4 18.0406 4 17.3333V6.66667ZM6.66667 5.77778C6.43092 5.77778 6.20483 5.87143 6.03813 6.03813C5.87143 6.20483 5.77778 6.43092 5.77778 6.66667V17.3333C5.77778 17.5691 5.87143 17.7952 6.03813 17.9619C6.20483 18.1286 6.43092 18.2222 6.66667 18.2222H17.3333C17.5691 18.2222 17.7952 18.1286 17.9619 17.9619C18.1286 17.7952 18.2222 17.5691 18.2222 17.3333V6.66667C18.2222 6.43092 18.1286 6.20483 17.9619 6.03813C17.7952 5.87143 17.5691 5.77778 17.3333 5.77778H6.66667ZM12 7.55556C12.2357 7.55556 12.4618 7.64921 12.6285 7.81591C12.7952 7.9826 12.8889 8.2087 12.8889 8.44444V15.5556C12.8889 15.7913 12.7952 16.0174 12.6285 16.1841C12.4618 16.3508 12.2357 16.4444 12 16.4444C11.7643 16.4444 11.5382 16.3508 11.3715 16.1841C11.2048 16.0174 11.1111 15.7913 11.1111 15.5556V8.44444C11.1111 8.2087 11.2048 7.9826 11.3715 7.81591C11.5382 7.64921 11.7643 7.55556 12 7.55556ZM8.44444 10.2222C8.68019 10.2222 8.90628 10.3159 9.07298 10.4826C9.23968 10.6493 9.33333 10.8754 9.33333 11.1111V15.5556C9.33333 15.7913 9.23968 16.0174 9.07298 16.1841C8.90628 16.3508 8.68019 16.4444 8.44444 16.4444C8.2087 16.4444 7.9826 16.3508 7.81591 16.1841C7.64921 16.0174 7.55556 15.7913 7.55556 15.5556V11.1111C7.55556 10.8754 7.64921 10.6493 7.81591 10.4826C7.9826 10.3159 8.2087 10.2222 8.44444 10.2222ZM15.5556 12.8889C15.7913 12.8889 16.0174 12.9825 16.1841 13.1492C16.3508 13.3159 16.4444 13.542 16.4444 13.7778V15.5556C16.4444 15.7913 16.3508 16.0174 16.1841 16.1841C16.0174 16.3508 15.7913 16.4444 15.5556 16.4444C15.3198 16.4444 15.0937 16.3508 14.927 16.1841C14.7603 16.0174 14.6667 15.7913 14.6667 15.5556V13.7778C14.6667 13.542 14.7603 13.3159 14.927 13.1492C15.0937 12.9825 15.3198 12.8889 15.5556 12.8889Z" fill="#091E42"/>
</svg>
