<svg width="20" height="24" viewBox="0 0 24 24" fill="none" xmlns="http://www.w3.org/2000/svg">
<g id="Group 3979">
<path id="Vector" d="M11.8 15.0888C15.1939 15.0888 16.8913 15.0888 17.9452 14.034C19 12.9801 19 11.2827 19 7.88884C19 4.49494 19 2.79754 17.9452 1.74364C16.8913 0.688843 15.1939 0.688843 11.8 0.688843H8.2C4.8061 0.688843 3.1087 0.688843 2.0548 1.74364C1 2.79754 1 4.49494 1 7.88884C1 11.2827 1 12.9801 2.0548 14.034C2.6425 14.6226 3.43 14.8827 4.6 14.997" stroke="#091E42" stroke-linecap="round" stroke-linejoin="round"/>
<path id="Vector_2" d="M11.7976 15.0889C10.6852 15.0889 9.45938 15.5389 8.34068 16.1194C6.54248 17.0527 5.64338 17.5198 5.20058 17.2219C4.75778 16.9249 4.84148 16.0024 5.00978 14.1583L5.04758 13.7389" stroke="#091E42" stroke-linecap="round"/>
<path id="Vector_3" d="M6 6.08884C6 5.86793 6.17909 5.68884 6.4 5.68884H13.6C13.8209 5.68884 14 5.86793 14 6.08884C14 6.30976 13.8209 6.48884 13.6 6.48884H6.4C6.17909 6.48884 6 6.30976 6 6.08884ZM6 9.68884C6 9.46793 6.17909 9.28884 6.4 9.28884H10.9C11.1209 9.28884 11.3 9.46793 11.3 9.68884C11.3 9.90976 11.1209 10.0888 10.9 10.0888H6.4C6.17909 10.0888 6 9.90976 6 9.68884Z" fill="#091E42" stroke="#091E42"/>
</g>
</svg>
