<svg width="24" height="24" viewBox="0 0 24 24" fill="none" xmlns="http://www.w3.org/2000/svg">
<path d="M12 20C14.1217 20 16.1566 19.1571 17.6569 17.6569C19.1571 16.1566 20 14.1217 20 12C20 9.87827 19.1571 7.84344 17.6569 6.34315C16.1566 4.84285 14.1217 4 12 4C9.87827 4 7.84344 4.84285 6.34315 6.34315C4.84285 7.84344 4 9.87827 4 12C4 14.1217 4.84285 16.1566 6.34315 17.6569C7.84344 19.1571 9.87827 20 12 20ZM19 12C19 13.8565 18.2625 15.637 16.9497 16.9497C15.637 18.2625 13.8565 19 12 19C10.1435 19 8.36301 18.2625 7.05025 16.9497C5.7375 15.637 5 13.8565 5 12C5 10.1435 5.7375 8.36301 7.05025 7.05025C8.36301 5.7375 10.1435 5 12 5C13.8565 5 15.637 5.7375 16.9497 7.05025C18.2625 8.36301 19 10.1435 19 12Z" fill="#091E42"/>
<path d="M12.1137 8.47091C12.1137 8.34602 12.055 8.22624 11.9506 8.13793C11.8461 8.04961 11.7045 8 11.5568 8C11.4091 8 11.2675 8.04961 11.1631 8.13793C11.0587 8.22624 11 8.34602 11 8.47091V13.651C11 13.734 11.026 13.8155 11.0753 13.8873C11.1246 13.9591 11.1954 14.0185 11.2806 14.0597L15.1784 15.9434C15.3063 16.0018 15.4562 16.0157 15.596 15.9819C15.7358 15.9482 15.8545 15.8695 15.9266 15.7627C15.9988 15.656 16.0187 15.5296 15.9821 15.4106C15.9455 15.2916 15.8553 15.1894 15.7308 15.1259L12.1137 13.3778V8.47091Z" fill="#091E42"/>
</svg>
