<svg width="20" height="19" viewBox="0 0 20 19" fill="none" xmlns="http://www.w3.org/2000/svg">
<mask id="mask0_10331_62769" style="mask-type:alpha" maskUnits="userSpaceOnUse" x="0" y="0" width="20" height="19">
<rect x="0.917603" y="0.189087" width="18.6218" height="18.6218" fill="#D9D9D9"/>
</mask>
<g mask="url(#mask0_10331_62769)">
<path d="M9.66895 11.3716C9.40603 11.3716 9.18564 11.2827 9.00778 11.1049C8.82993 10.927 8.741 10.7066 8.741 10.4437V6.7319C8.741 6.46898 8.82993 6.2486 9.00778 6.07074C9.18564 5.89288 9.40603 5.80396 9.66895 5.80396H12.4528C12.7157 5.80396 12.9361 5.89288 13.114 6.07074C13.2918 6.2486 13.3807 6.46898 13.3807 6.7319V10.4437C13.3807 10.7066 13.2918 10.927 13.114 11.1049C12.9361 11.2827 12.7157 11.3716 12.4528 11.3716H9.66895ZM10.1329 9.97972H11.9888V7.19588H10.1329V9.97972ZM3.17331 11.3716C2.91039 11.3716 2.69 11.2827 2.51215 11.1049C2.33429 10.927 2.24536 10.7066 2.24536 10.4437V6.7319C2.24536 6.46898 2.33429 6.2486 2.51215 6.07074C2.69 5.89288 2.91039 5.80396 3.17331 5.80396H5.95715C6.22007 5.80396 6.44046 5.89288 6.61832 6.07074C6.79617 6.2486 6.8851 6.46898 6.8851 6.7319V7.65985H5.49318V7.19588H3.63728V9.97972H5.49318V9.51575H6.8851V10.4437C6.8851 10.7066 6.79617 10.927 6.61832 11.1049C6.44046 11.2827 6.22007 11.3716 5.95715 11.3716H3.17331ZM15.2366 14.1555V11.8356C15.2366 11.5727 15.3256 11.3523 15.5034 11.1745C15.6813 10.9966 15.9017 10.9077 16.1646 10.9077H18.0205V9.97972H15.2366V8.5878H18.4845C18.7474 8.5878 18.9678 8.67673 19.1456 8.85458C19.3235 9.03244 19.4124 9.25283 19.4124 9.51575V10.9077C19.4124 11.1706 19.3235 11.391 19.1456 11.5688C18.9678 11.7467 18.7474 11.8356 18.4845 11.8356H16.6286V12.7636H19.4124V14.1555H15.2366Z" fill="#091E42"/>
</g>
</svg>
