<svg width="24" height="24" viewBox="0 0 24 24" fill="none" xmlns="http://www.w3.org/2000/svg">
<path d="M16.1905 9.6H16.9524C17.7607 9.6 18.5358 9.93714 19.1074 10.5373C19.6789 11.1374 20 11.9513 20 12.8C20 13.6487 19.6789 14.4626 19.1074 15.0627C18.5358 15.6629 17.7607 16 16.9524 16H16.1905M16.1905 9.6H4V16.8C4 17.6487 4.32109 18.4626 4.89263 19.0627C5.46417 19.6629 6.23934 20 7.04762 20H13.1429C13.9511 20 14.7263 19.6629 15.2978 19.0627C15.8694 18.4626 16.1905 17.6487 16.1905 16.8V9.6ZM7.04762 4V6.4M10.0952 4V6.4M13.1429 4V6.4" stroke="#091E42" stroke-linecap="round" stroke-linejoin="round"/>
</svg>
