<svg width="25" height="24" viewBox="0 0 25 24" fill="none" xmlns="http://www.w3.org/2000/svg">
<path d="M12.1221 15.577L8.58407 12.038L9.29107 11.319L11.6221 13.65V5H12.6221V13.65L14.9521 11.32L15.6601 12.038L12.1221 15.577ZM6.73707 19C6.27707 19 5.89307 18.846 5.58507 18.538C5.2764 18.2293 5.12207 17.845 5.12207 17.385V14.962H6.12207V17.385C6.12207 17.5383 6.18607 17.6793 6.31407 17.808C6.44274 17.936 6.58374 18 6.73707 18H17.5071C17.6604 18 17.8014 17.936 17.9301 17.808C18.0581 17.6793 18.1221 17.5383 18.1221 17.385V14.962H19.1221V17.385C19.1221 17.845 18.9681 18.229 18.6601 18.537C18.3514 18.8457 17.9671 19 17.5071 19H6.73707Z" fill="#B3B9C4"/>
</svg>
