<svg width="14" height="14" viewBox="0 0 14 14" fill="none" xmlns="http://www.w3.org/2000/svg">
<g id="Vector">
<path id="Vector_2" d="M6.5 12.25V12.75H7.5V12.25H6.5ZM7.5 1.75C7.5 1.47386 7.27614 1.25 7 1.25C6.72386 1.25 6.5 1.47386 6.5 1.75H7.5ZM1.75 5L1.25 5L1.25 6H1.75V5ZM12.25 6C12.5261 6 12.75 5.77614 12.75 5.5C12.75 5.22386 12.5261 5 12.25 5V6ZM6 3.25V2.75H5V3.25H6ZM5 4V4.5H6V4H5ZM9 3.25V2.75H8V3.25H9ZM8 4V4.5H9V4H8ZM9 7V6.5H8V7H9ZM8 9.25V9.75H9V9.25H8ZM6 7V6.5H5V7H6ZM5 9.25V9.75H6V9.25H5ZM2.125 1.5H11.875V0.5H2.125V1.5ZM12.5 2.125V11.875H13.5V2.125H12.5ZM11.875 12.5H2.125V13.5H11.875V12.5ZM1.5 11.875V2.125H0.5V11.875H1.5ZM2.125 12.5C1.77982 12.5 1.5 12.2202 1.5 11.875H0.5C0.5 12.7725 1.22754 13.5 2.125 13.5V12.5ZM12.5 11.875C12.5 12.2202 12.2202 12.5 11.875 12.5V13.5C12.7725 13.5 13.5 12.7725 13.5 11.875H12.5ZM11.875 1.5C12.2202 1.5 12.5 1.77982 12.5 2.125H13.5C13.5 1.22754 12.7725 0.5 11.875 0.5V1.5ZM2.125 0.5C1.22754 0.5 0.5 1.22754 0.5 2.125H1.5C1.5 1.77982 1.77982 1.5 2.125 1.5V0.5ZM7.5 12.25V1.75H6.5V12.25H7.5ZM1.75 6L12.25 6V5L1.75 5V6ZM5 3.25V4H6V3.25H5ZM8 3.25V4H9V3.25H8ZM8 7V9.25H9V7H8ZM5 7V9.25H6V7H5Z" fill="#006BD3"/>
</g>
</svg>
