<svg width="25" height="24" viewBox="0 0 25 24" fill="none" xmlns="http://www.w3.org/2000/svg">
<path d="M12.1221 4.00015C11.0697 3.99363 10.0265 4.1961 9.05296 4.59581C8.07943 4.99553 7.19494 5.58455 6.45078 6.32871C5.70662 7.07287 5.1176 7.95736 4.71788 8.93089C4.31817 9.90442 4.1157 10.9476 4.12222 12C4.1157 13.0524 4.31817 14.0956 4.71788 15.0691C5.1176 16.0426 5.70662 16.9271 6.45078 17.6713C7.19494 18.4155 8.07943 19.0045 9.05296 19.4042C10.0265 19.8039 11.0697 20.0064 12.1221 19.9998C13.1744 20.0064 14.2176 19.8039 15.1912 19.4042C16.1647 19.0045 17.0492 18.4155 17.7934 17.6713C18.5375 16.9271 19.1265 16.0426 19.5263 15.0691C19.926 14.0956 20.1284 13.0524 20.1219 12C20.1284 10.9476 19.926 9.90442 19.5263 8.93089C19.1265 7.95736 18.5375 7.07287 17.7934 6.32871C17.0492 5.58455 16.1647 4.99553 15.1912 4.59581C14.2176 4.1961 13.1744 3.99363 12.1221 4.00015ZM15.2334 15.9999L8.12215 8.8892L9.01127 8.00008L16.122 15.1114L15.2334 15.9999Z" fill="#091E42"/>
</svg>
