<svg width="20" height="22" viewBox="0 0 20 22" fill="none" xmlns="http://www.w3.org/2000/svg">
<g id="Group 5021">
<g id="User">
<mask id="path-1-inside-1_13312_6860" fill="white">
<path fill-rule="evenodd" clip-rule="evenodd" d="M13.8253 9.41552C12.7744 10.4666 11.4883 10.9993 10.0029 10.9993C8.51798 10.9993 7.23199 10.4664 6.18094 9.41569C5.12989 8.36481 4.597 7.07883 4.597 5.59335C4.597 4.10821 5.12989 2.82222 6.18077 1.77134C7.23165 0.720462 8.51747 0.187744 10.0029 0.187744C11.4881 0.187744 12.7741 0.720462 13.8251 1.77117C14.8762 2.82239 15.4089 4.10838 15.4089 5.59335C15.4089 7.07883 14.8762 8.36464 13.8253 9.41552ZM19.2306 17.01C19.3218 17.4794 19.3838 17.9239 19.4144 18.3314C19.4326 18.5713 19.4455 18.3272 19.4528 18.1872C19.4577 18.0948 19.4602 18.0477 19.4602 18.2153C19.4602 19.3074 19.0839 20.1914 18.3417 20.8427C17.6086 21.486 16.6392 21.8121 15.4599 21.8121H4.54038C3.36109 21.8121 2.39133 21.4859 1.65843 20.8427C0.916353 20.1909 0.540039 19.3071 0.540039 18.2154C0.540039 18.0496 0.542418 18.0956 0.547153 18.1871C0.554399 18.3272 0.567164 18.5739 0.58537 18.3319C0.615994 17.9234 0.677934 17.4788 0.769115 17.01C0.86116 16.5371 0.979677 16.0901 1.12138 15.6815C1.2681 15.2588 1.46741 14.8419 1.71362 14.4422C1.96899 14.0275 2.26953 13.6665 2.60639 13.3691C2.95917 13.0578 3.39085 12.8077 3.88949 12.6257C4.38657 12.4441 4.93746 12.352 5.5271 12.352C5.7586 12.352 5.98266 12.4396 6.41451 12.6992C6.68459 12.8615 6.99603 13.0466 7.34016 13.2494C7.63688 13.4239 8.03932 13.5875 8.53588 13.7354C9.02137 13.8801 9.51361 13.9535 9.99961 13.9535C10.4856 13.9535 10.978 13.8801 11.463 13.7354C11.9601 13.5873 12.3625 13.4238 12.6596 13.2492C13.007 13.0445 13.3183 12.8594 13.5844 12.6994C14.0167 12.4398 14.2406 12.3522 14.4721 12.3522C15.0616 12.3522 15.6127 12.4441 16.1099 12.6255C16.6089 12.8079 17.0404 13.0579 17.3928 13.3689C17.7299 13.6662 18.0302 14.0274 18.286 14.4422C18.5323 14.8419 18.7316 15.259 18.8782 15.6813C19.0201 16.09 19.1386 16.5371 19.2306 17.01Z"/>
</mask>
<path fill-rule="evenodd" clip-rule="evenodd" d="M13.8253 9.41552C12.7744 10.4666 11.4883 10.9993 10.0029 10.9993C8.51798 10.9993 7.23199 10.4664 6.18094 9.41569C5.12989 8.36481 4.597 7.07883 4.597 5.59335C4.597 4.10821 5.12989 2.82222 6.18077 1.77134C7.23165 0.720462 8.51747 0.187744 10.0029 0.187744C11.4881 0.187744 12.7741 0.720462 13.8251 1.77117C14.8762 2.82239 15.4089 4.10838 15.4089 5.59335C15.4089 7.07883 14.8762 8.36464 13.8253 9.41552ZM19.2306 17.01C19.3218 17.4794 19.3838 17.9239 19.4144 18.3314C19.4326 18.5713 19.4455 18.3272 19.4528 18.1872C19.4577 18.0948 19.4602 18.0477 19.4602 18.2153C19.4602 19.3074 19.0839 20.1914 18.3417 20.8427C17.6086 21.486 16.6392 21.8121 15.4599 21.8121H4.54038C3.36109 21.8121 2.39133 21.4859 1.65843 20.8427C0.916353 20.1909 0.540039 19.3071 0.540039 18.2154C0.540039 18.0496 0.542418 18.0956 0.547153 18.1871C0.554399 18.3272 0.567164 18.5739 0.58537 18.3319C0.615994 17.9234 0.677934 17.4788 0.769115 17.01C0.86116 16.5371 0.979677 16.0901 1.12138 15.6815C1.2681 15.2588 1.46741 14.8419 1.71362 14.4422C1.96899 14.0275 2.26953 13.6665 2.60639 13.3691C2.95917 13.0578 3.39085 12.8077 3.88949 12.6257C4.38657 12.4441 4.93746 12.352 5.5271 12.352C5.7586 12.352 5.98266 12.4396 6.41451 12.6992C6.68459 12.8615 6.99603 13.0466 7.34016 13.2494C7.63688 13.4239 8.03932 13.5875 8.53588 13.7354C9.02137 13.8801 9.51361 13.9535 9.99961 13.9535C10.4856 13.9535 10.978 13.8801 11.463 13.7354C11.9601 13.5873 12.3625 13.4238 12.6596 13.2492C13.007 13.0445 13.3183 12.8594 13.5844 12.6994C14.0167 12.4398 14.2406 12.3522 14.4721 12.3522C15.0616 12.3522 15.6127 12.4441 16.1099 12.6255C16.6089 12.8079 17.0404 13.0579 17.3928 13.3689C17.7299 13.6662 18.0302 14.0274 18.286 14.4422C18.5323 14.8419 18.7316 15.259 18.8782 15.6813C19.0201 16.09 19.1386 16.5371 19.2306 17.01Z" fill="#D5D9EB"/>
<path d="M13.8253 9.41552L12.4492 8.03944L12.4491 8.03955L13.8253 9.41552ZM6.18094 9.41569L4.80497 10.7919L4.80508 10.792L6.18094 9.41569ZM6.18077 1.77134L4.80469 0.395258V0.395258L6.18077 1.77134ZM13.8251 1.77117L15.2013 0.395199L15.201 0.394863L13.8251 1.77117ZM19.4144 18.3314L17.4738 18.4773L17.4739 18.479L19.4144 18.3314ZM19.2306 17.01L21.141 16.6389L21.1409 16.6382L19.2306 17.01ZM19.4528 18.1872L21.3962 18.2895V18.2894L19.4528 18.1872ZM19.4602 18.2153H21.4063V18.2145L19.4602 18.2153ZM18.3417 20.8427L17.0581 19.3799L17.058 19.38L18.3417 20.8427ZM1.65843 20.8427L0.374166 22.3048L0.374798 22.3054L1.65843 20.8427ZM0.547153 18.1871L2.49063 18.0866L2.49063 18.0866L0.547153 18.1871ZM0.58537 18.3319L2.52596 18.4779L2.526 18.4774L0.58537 18.3319ZM0.769115 17.01L-1.14112 16.6382L-1.14116 16.6384L0.769115 17.01ZM1.12138 15.6815L-0.717083 15.0433L-0.717283 15.0439L1.12138 15.6815ZM1.71362 14.4422L3.37056 15.4629L3.37069 15.4627L1.71362 14.4422ZM2.60639 13.3691L1.31879 11.9098L1.31839 11.9102L2.60639 13.3691ZM3.88949 12.6257L4.55692 14.4537L4.55721 14.4536L3.88949 12.6257ZM6.41451 12.6992L5.41188 14.3672L5.41226 14.3674L6.41451 12.6992ZM7.34016 13.2494L6.35214 14.926L6.35341 14.9268L7.34016 13.2494ZM8.53588 13.7354L9.09181 11.8704L9.09143 11.8703L8.53588 13.7354ZM11.463 13.7354L10.9074 11.8703L10.9065 11.8706L11.463 13.7354ZM12.6596 13.2492L13.6455 14.9271L13.6475 14.9259L12.6596 13.2492ZM13.5844 12.6994L12.5826 11.0309L12.5814 11.0317L13.5844 12.6994ZM16.1099 12.6255L16.778 10.7977L16.7769 10.7973L16.1099 12.6255ZM17.3928 13.3689L16.1053 14.8281L16.1056 14.8284L17.3928 13.3689ZM18.286 14.4422L16.6293 15.4634L16.6293 15.4634L18.286 14.4422ZM18.8782 15.6813L17.0397 16.3193L17.0398 16.3196L18.8782 15.6813ZM10.0029 12.9454C12.0045 12.9454 13.7857 12.2075 15.2015 10.7915L12.4491 8.03955C11.7631 8.72565 10.972 9.05322 10.0029 9.05322V12.9454ZM4.80508 10.792C6.22069 12.2071 8.00141 12.9454 10.0029 12.9454V9.05322C9.03456 9.05322 8.2433 8.72566 7.5568 8.03939L4.80508 10.792ZM2.65093 5.59335C2.65093 7.59531 3.38911 9.37625 4.80497 10.7919L7.55692 8.0395C6.87068 7.35337 6.54308 6.56234 6.54308 5.59335H2.65093ZM4.80469 0.395258C3.38913 1.81081 2.65093 3.59168 2.65093 5.59335H6.54308C6.54308 4.62474 6.87065 3.83363 7.55686 3.14743L4.80469 0.395258ZM10.0029 -1.75833C8.00109 -1.75833 6.22036 -1.02041 4.80469 0.395258L7.55686 3.14743C8.24295 2.46134 9.03384 2.13382 10.0029 2.13382V-1.75833ZM15.201 0.394863C13.7852 -1.02042 12.0045 -1.75833 10.0029 -1.75833V2.13382C10.9717 2.13382 11.7629 2.46134 12.4493 3.14748L15.201 0.394863ZM17.355 5.59335C17.355 3.5919 16.617 1.81109 15.2013 0.395199L12.4489 3.14714C13.1354 3.8337 13.4628 4.62486 13.4628 5.59335H17.355ZM15.2014 10.7916C16.617 9.37594 17.355 7.5952 17.355 5.59335H13.4628C13.4628 6.56245 13.1353 7.35335 12.4492 8.03944L15.2014 10.7916ZM21.355 18.1856C21.3178 17.6905 21.2442 17.17 21.141 16.6389L17.3203 17.3811C17.3995 17.7888 17.4497 18.1573 17.4738 18.4773L21.355 18.1856ZM17.5094 18.085C17.5035 18.198 17.502 18.1948 17.5084 18.147C17.5104 18.1316 17.515 18.098 17.5234 18.0542C17.5287 18.0264 17.5491 17.9182 17.5964 17.7836C17.6182 17.7213 17.6729 17.5737 17.7785 17.4038C17.8457 17.2957 18.1457 16.8187 18.7905 16.5944C19.6713 16.288 20.4031 16.68 20.7557 17.0087C21.0391 17.273 21.1668 17.5532 21.2029 17.6337C21.2929 17.8347 21.3255 18.0042 21.3305 18.0283C21.3422 18.0853 21.3481 18.1286 21.3503 18.1454C21.355 18.1809 21.356 18.199 21.3549 18.1839L17.4739 18.479C17.4773 18.5238 17.4827 18.5867 17.4916 18.6542C17.4959 18.6871 17.5039 18.7431 17.5176 18.81C17.5246 18.844 17.5592 19.0205 17.6512 19.2258C17.6883 19.3085 17.817 19.5902 18.1013 19.8554C18.4548 20.185 19.1876 20.5772 20.0693 20.2705C20.715 20.0459 21.016 19.568 21.0841 19.4585C21.1906 19.2871 21.2461 19.1375 21.2689 19.0726C21.3179 18.933 21.3401 18.8177 21.3471 18.781C21.3571 18.7283 21.3634 18.6841 21.367 18.6566C21.3861 18.5117 21.3948 18.3165 21.3962 18.2895L17.5094 18.085ZM21.4063 18.2145C21.4063 18.1718 21.4061 18.1285 21.4055 18.0922C21.4053 18.0807 21.4046 18.0381 21.4015 17.9887C21.4014 17.9861 21.3964 17.8846 21.3745 17.762C21.3679 17.7252 21.3541 17.6535 21.3287 17.5652C21.314 17.5144 21.2496 17.2853 21.0845 17.0343C20.9824 16.8791 20.2489 15.8691 18.9441 16.2267C18.4496 16.3623 18.1462 16.6517 18.0084 16.8057C17.8611 16.9702 17.7742 17.1241 17.7311 17.2071C17.645 17.373 17.6032 17.5136 17.5891 17.5621C17.5701 17.6275 17.5584 17.681 17.552 17.7118C17.5394 17.7733 17.5324 17.8224 17.5295 17.8435C17.5233 17.8896 17.52 17.9265 17.5188 17.9393C17.5161 17.9704 17.5144 17.9975 17.5137 18.0086C17.5121 18.0347 17.5104 18.0657 17.5094 18.085L21.3962 18.2894C21.3968 18.2775 21.3973 18.2684 21.3977 18.2607C21.3979 18.2569 21.3981 18.2541 21.3982 18.2521C21.3983 18.2499 21.3984 18.2491 21.3984 18.2494C21.3984 18.2495 21.3982 18.2522 21.3979 18.2565C21.3976 18.2602 21.3969 18.2699 21.3958 18.2832C21.395 18.2917 21.392 18.3251 21.3861 18.3687C21.3834 18.3885 21.3766 18.4365 21.3641 18.4973C21.3579 18.5277 21.3462 18.5808 21.3273 18.646C21.3133 18.6942 21.2716 18.8346 21.1855 19.0004C21.1425 19.0833 21.0556 19.2371 20.9084 19.4016C20.7706 19.5555 20.4673 19.8449 19.9728 19.9805C18.668 20.3381 17.9346 19.3281 17.8326 19.173C17.6676 18.9221 17.6032 18.6932 17.5886 18.6426C17.5633 18.5546 17.5495 18.4832 17.543 18.4468C17.5297 18.372 17.5238 18.313 17.5217 18.2915C17.519 18.2634 17.5175 18.2409 17.5167 18.228C17.5152 18.2025 17.5145 18.1834 17.5143 18.1771C17.5141 18.1688 17.514 18.1634 17.514 18.1621C17.5139 18.1613 17.5141 18.1749 17.5142 18.2161L21.4063 18.2145ZM19.6252 22.3055C20.8361 21.2429 21.4063 19.8011 21.4063 18.2153H17.5142C17.5142 18.8138 17.3317 19.1398 17.0581 19.3799L19.6252 22.3055ZM15.4599 23.7582C17.0081 23.7582 18.4665 23.3223 19.6253 22.3054L17.058 19.38C16.7507 19.6497 16.2702 19.8661 15.4599 19.8661V23.7582ZM4.54038 23.7582H15.4599V19.8661H4.54038V23.7582ZM0.374798 22.3054C1.53345 23.3222 2.99216 23.7582 4.54038 23.7582V19.8661C3.73003 19.8661 3.24921 19.6495 2.94205 19.38L0.374798 22.3054ZM-1.40604 18.2154C-1.40604 19.8011 -0.835655 21.2422 0.374166 22.3048L2.94269 19.3805C2.66836 19.1396 2.48612 18.8131 2.48612 18.2154H-1.40604ZM2.49063 18.0866C2.48964 18.0675 2.48808 18.0369 2.48652 18.0113C2.48586 18.0004 2.48421 17.9737 2.48154 17.943C2.48045 17.9305 2.4772 17.8937 2.47102 17.8478C2.46821 17.8269 2.46129 17.7772 2.44849 17.7148C2.44213 17.6837 2.43008 17.6285 2.41035 17.5608C2.39638 17.5129 2.35156 17.3615 2.25646 17.1843C2.20931 17.0965 2.10947 16.9252 1.93634 16.7474C1.76898 16.5754 1.40782 16.2704 0.842314 16.182C-0.477833 15.9756 -1.09951 17.0564 -1.13581 17.1181C-1.27078 17.3476 -1.32465 17.5507 -1.33793 17.6001C-1.35974 17.6813 -1.37171 17.7471 -1.37755 17.7817C-1.39698 17.8969 -1.40148 17.9919 -1.40169 17.9955C-1.40447 18.0428 -1.40512 18.0838 -1.40531 18.0953C-1.40591 18.1307 -1.40604 18.1733 -1.40604 18.2154H2.48612C2.48612 18.1747 2.48629 18.1608 2.48628 18.1611C2.48627 18.1621 2.48618 18.1673 2.48594 18.1751C2.48576 18.1811 2.4852 18.1992 2.48378 18.2235C2.48306 18.2357 2.48169 18.257 2.47926 18.2837C2.47738 18.3043 2.47216 18.3593 2.46036 18.4293C2.45458 18.4635 2.44267 18.529 2.42093 18.61C2.40772 18.6591 2.35392 18.8621 2.21902 19.0914C2.18278 19.153 1.56118 20.2338 0.241107 20.0274C-0.324361 19.939 -0.685483 19.634 -0.85281 19.462C-1.0259 19.2842 -1.12571 19.113 -1.17282 19.0252C-1.26785 18.8482 -1.31259 18.697 -1.32649 18.6493C-1.34613 18.5819 -1.3581 18.527 -1.36439 18.4963C-1.37703 18.4347 -1.3838 18.386 -1.38643 18.3664C-1.39228 18.3229 -1.39518 18.2895 -1.3959 18.2813C-1.39704 18.2681 -1.39772 18.2585 -1.39797 18.2549C-1.39827 18.2506 -1.39843 18.2481 -1.39843 18.248C-1.39845 18.2477 -1.3984 18.2485 -1.39828 18.2506C-1.39816 18.2527 -1.39801 18.2555 -1.39781 18.2592C-1.3974 18.2669 -1.39694 18.2758 -1.39632 18.2877L2.49063 18.0866ZM-1.35522 18.1859C-1.35639 18.2014 -1.35547 18.184 -1.35093 18.1492C-1.34877 18.1326 -1.34297 18.0899 -1.33152 18.0335C-1.32675 18.01 -1.29471 17.8413 -1.20581 17.6411C-1.17061 17.5619 -1.04364 17.2798 -0.759772 17.0137C-0.404492 16.6806 0.337635 16.2832 1.22649 16.6018C1.86947 16.8322 2.16493 17.3127 2.22876 17.4171C2.33189 17.5857 2.38512 17.7318 2.40638 17.7933C2.45235 17.9262 2.47225 18.0329 2.47739 18.0603C2.48547 18.1034 2.48997 18.1364 2.49193 18.1515C2.49796 18.1977 2.49644 18.1989 2.49063 18.0866L-1.39632 18.2877C-1.39489 18.3154 -1.3864 18.51 -1.36763 18.6541C-1.36408 18.6814 -1.35794 18.7251 -1.34818 18.7772C-1.34136 18.8136 -1.31973 18.9274 -1.27201 19.0654C-1.24986 19.1295 -1.19574 19.2776 -1.09171 19.4477C-1.02698 19.5536 -0.730594 20.035 -0.0866908 20.2657C0.803086 20.5846 1.54615 20.187 1.90237 19.853C2.18719 19.586 2.31512 19.3024 2.35129 19.221C2.44211 19.0165 2.47614 18.8408 2.48292 18.8074C2.4964 18.741 2.50426 18.6853 2.50853 18.6526C2.51728 18.5856 2.52258 18.5229 2.52596 18.4779L-1.35522 18.1859ZM-1.14116 16.6384C-1.24444 17.1694 -1.31807 17.6903 -1.35526 18.1864L2.526 18.4774C2.55006 18.1565 2.60031 17.7881 2.67939 17.3815L-1.14116 16.6384ZM-0.717283 15.0439C-0.892244 15.5484 -1.03346 16.0851 -1.14112 16.6382L2.67935 17.3818C2.75578 16.989 2.8516 16.6318 2.96004 16.3191L-0.717283 15.0439ZM0.0566738 13.4216C-0.259971 13.9356 -0.521634 14.4803 -0.717082 15.0433L2.95984 16.3197C3.05783 16.0374 3.1948 15.7482 3.37056 15.4629L0.0566738 13.4216ZM1.31839 11.9102C0.82637 12.3446 0.404515 12.8567 0.0565508 13.4218L3.37069 15.4627C3.53347 15.1984 3.71268 14.9883 3.89439 14.8279L1.31839 11.9102ZM3.22207 10.7976C2.52481 11.0522 1.8755 11.4186 1.31879 11.9098L3.89399 14.8283C4.04284 14.6969 4.25689 14.5633 4.55692 14.4537L3.22207 10.7976ZM5.5271 10.406C4.73551 10.406 3.95577 10.5296 3.22177 10.7977L4.55721 14.4536C4.81737 14.3586 5.13941 14.2981 5.5271 14.2981V10.406ZM7.41714 11.0313C6.96158 10.7575 6.33605 10.406 5.5271 10.406V14.2981C5.45737 14.2981 5.38473 14.291 5.31475 14.2768C5.24789 14.2632 5.20311 14.247 5.18671 14.2406C5.17267 14.2351 5.18196 14.2377 5.22307 14.2593C5.26408 14.2808 5.32428 14.3145 5.41188 14.3672L7.41714 11.0313ZM8.32818 11.5728C7.98756 11.372 7.68102 11.1899 7.41676 11.0311L5.41226 14.3674C5.68817 14.5332 6.00449 14.7211 6.35214 14.926L8.32818 11.5728ZM9.09143 11.8703C8.67788 11.7471 8.43823 11.6375 8.3269 11.572L6.35341 14.9268C6.83554 15.2104 7.40077 15.4279 7.98033 15.6005L9.09143 11.8703ZM9.99961 12.0074C9.7099 12.0074 9.40475 11.9637 9.09181 11.8704L7.97996 15.6004C8.63799 15.7965 9.31732 15.8996 9.99961 15.8996V12.0074ZM10.9065 11.8706C10.5946 11.9637 10.2895 12.0074 9.99961 12.0074V15.8996C10.6818 15.8996 11.3614 15.7966 12.0195 15.6002L10.9065 11.8706ZM11.6737 11.5714C11.5615 11.6373 11.3214 11.747 10.9074 11.8703L12.0186 15.6005C12.5988 15.4277 13.1635 15.2103 13.6455 14.9271L11.6737 11.5714ZM12.5814 11.0317C12.3214 11.188 12.0153 11.3701 11.6716 11.5726L13.6475 14.9259C13.9987 14.719 14.3151 14.5308 14.5873 14.3671L12.5814 11.0317ZM14.4721 10.4061C13.6632 10.4061 13.0377 10.7577 12.5826 11.0309L14.5861 14.3678C14.674 14.3151 14.7344 14.2813 14.7756 14.2597C14.8169 14.2381 14.8264 14.2354 14.8124 14.2408C14.7962 14.2472 14.7514 14.2633 14.6845 14.277C14.6145 14.2912 14.5419 14.2983 14.4721 14.2983V10.4061ZM16.7769 10.7973C16.0428 10.5295 15.2632 10.4061 14.4721 10.4061V14.2983C14.86 14.2983 15.1825 14.3587 15.4429 14.4537L16.7769 10.7973ZM18.6804 11.9097C18.1241 11.4188 17.4751 11.0525 16.778 10.7977L15.4419 14.4533C15.7427 14.5633 15.9567 14.6971 16.1053 14.8281L18.6804 11.9097ZM19.9426 13.4211C19.5949 12.857 19.1734 12.3444 18.6801 11.9094L16.1056 14.8284C16.2864 14.9879 16.4656 15.1977 16.6293 15.4634L19.9426 13.4211ZM20.7167 15.0434C20.5215 14.4806 20.2597 13.9355 19.9426 13.4211L16.6293 15.4634C16.805 15.7483 16.9418 16.0374 17.0397 16.3193L20.7167 15.0434ZM21.1409 16.6382C21.0332 16.0852 20.892 15.5481 20.7166 15.043L17.0398 16.3196C17.1482 16.6318 17.2439 16.9889 17.3204 17.3818L21.1409 16.6382Z" fill="#D5D9EB" mask="url(#path-1-inside-1_13312_6860)"/>
</g>
<rect id="Rectangle 1086" x="11.0772" y="15.077" width="6.84554" height="1.84554" rx="0.922772" fill="#2C3E5D" stroke="#2C3E5D" stroke-width="0.154455"/>
</g>
</svg>
