<svg width="21" height="21" viewBox="0 0 21 21" fill="none" xmlns="http://www.w3.org/2000/svg">
<path d="M10.7285 17.7764C9.03069 17.7764 7.58499 17.1892 6.39141 16.0147C5.19783 14.8403 4.60104 13.4105 4.60104 11.7255C4.60104 10.9213 4.75742 10.1521 5.07018 9.41812C5.38293 8.6841 5.82654 8.03625 6.40099 7.47456L10.7285 3.22363L15.056 7.47456C15.6305 8.03625 16.0741 8.6841 16.3868 9.41812C16.6996 10.1521 16.856 10.9213 16.856 11.7255C16.856 13.4105 16.2592 14.8403 15.0656 16.0147C13.872 17.1892 12.4263 17.7764 10.7285 17.7764ZM6.13291 11.7255H15.3241C15.3241 11.1255 15.2092 10.5543 14.9794 10.0117C14.7497 9.46918 14.4178 8.99366 13.9837 8.58517L10.7285 5.36825L7.47329 8.58517C7.03926 8.99366 6.70736 9.46918 6.47758 10.0117C6.2478 10.5543 6.13291 11.1255 6.13291 11.7255Z" fill="#091E42"/>
</svg>
