<svg width="25" height="24" viewBox="0 0 25 24" fill="none" xmlns="http://www.w3.org/2000/svg">
<path d="M15.1221 8H15.1315" stroke="#091E42" stroke-width="1.4" stroke-linecap="round" stroke-linejoin="round"/>
<path d="M17.1221 4H7.12207C5.46522 4 4.12207 5.34315 4.12207 7V17C4.12207 18.6569 5.46522 20 7.12207 20H17.1221C18.7789 20 20.1221 18.6569 20.1221 17V7C20.1221 5.34315 18.7789 4 17.1221 4Z" stroke="#091E42" stroke-width="1.4" stroke-linecap="round" stroke-linejoin="round"/>
<path d="M4.12207 15.0011L8.12207 11.0011C8.57813 10.5623 9.09546 10.3312 9.62207 10.3312C10.1487 10.3312 10.666 10.5623 11.1221 11.0011L16.1221 16.0011" stroke="#091E42" stroke-width="1.4" stroke-linecap="round" stroke-linejoin="round"/>
<path d="M14.1221 14.0011L15.1221 13.0011C15.5781 12.5623 16.0955 12.3312 16.6221 12.3312C17.1487 12.3312 17.666 12.5623 18.1221 13.0011L20.1221 15.0011" stroke="#091E42" stroke-width="1.4" stroke-linecap="round" stroke-linejoin="round"/>
</svg>
