<svg width="12" height="10" viewBox="0 0 12 10" fill="none" xmlns="http://www.w3.org/2000/svg">
<path d="M10.9091 5.09249L12 4.00435C9.96546 1.97497 7.16182 1.20239 4.52727 1.65941L5.93455 3.06311C7.73455 3.05223 9.54 3.72688 10.9091 5.09249ZM4.36364 8.35691L6 9.98912L7.63636 8.35691C6.73636 7.45375 5.26909 7.45375 4.36364 8.35691ZM9.81818 6.18063C9.22909 5.59304 8.53091 5.1741 7.78909 4.91295L9.43636 6.55604L9.81818 6.18063ZM1.31455 0L0.545455 0.767138L2.20909 2.42655C1.41273 2.82372 0.665455 3.34603 0 4.00435L1.09091 5.09249C1.76182 4.42329 2.53636 3.9173 3.36545 3.57998L4.58727 4.79869C3.70364 5.03264 2.87455 5.4951 2.18182 6.18063L3.27273 7.26877C4.00909 6.53428 4.96909 6.15887 5.94 6.14799L9.80182 10L10.5709 9.23286L1.31455 0Z" fill="#091E42"/>
</svg>
