<svg width="18" height="18" viewBox="0 0 18 18" fill="none" xmlns="http://www.w3.org/2000/svg">
<path d="M16.611 12.0825L12.8706 10.4794C12.7108 10.4113 12.5332 10.397 12.3646 10.4385C12.1959 10.4801 12.0453 10.5753 11.9355 10.7099L10.279 12.7337C7.67938 11.508 5.58726 9.41585 4.36155 6.8162L6.38536 5.15975C6.52017 5.0501 6.61559 4.89952 6.65717 4.73079C6.69875 4.56206 6.68422 4.38439 6.61579 4.22465L5.01277 0.484276C4.93767 0.312088 4.80484 0.171503 4.63718 0.0867607C4.46953 0.00201885 4.27756 -0.0215674 4.09438 0.0200689L0.62117 0.821578C0.44456 0.862361 0.286989 0.961802 0.174173 1.10367C0.0613573 1.24554 -4.06836e-05 1.42146 2.02254e-08 1.60272C2.02254e-08 10.1688 6.94308 17.0986 15.4959 17.0986C15.6772 17.0987 15.8532 17.0373 15.9951 16.9245C16.137 16.8117 16.2365 16.6541 16.2773 16.4774L17.0788 13.0042C17.1202 12.8201 17.0961 12.6274 17.0107 12.4591C16.9253 12.2909 16.784 12.1577 16.611 12.0825Z" fill="#5560F1"/>
</svg>
