<svg width="24" height="24" viewBox="0 0 24 24" fill="none" xmlns="http://www.w3.org/2000/svg">
<path fill-rule="evenodd" clip-rule="evenodd" d="M12 4C7.58182 4 4 7.58182 4 12C4 16.4182 7.58182 20 12 20C16.4182 20 20 16.4182 20 12C20 7.58182 16.4182 4 12 4ZM12.7273 14.9091C12.7273 15.102 12.6507 15.287 12.5143 15.4234C12.3779 15.5597 12.1929 15.6364 12 15.6364C11.8071 15.6364 11.6221 15.5597 11.4857 15.4234C11.3494 15.287 11.2727 15.102 11.2727 14.9091V12.7273H9.09091C8.89802 12.7273 8.71304 12.6507 8.57665 12.5143C8.44026 12.3779 8.36364 12.1929 8.36364 12C8.36364 11.8071 8.44026 11.6221 8.57665 11.4857C8.71304 11.3494 8.89802 11.2727 9.09091 11.2727H11.2727V9.09091C11.2727 8.89802 11.3494 8.71304 11.4857 8.57665C11.6221 8.44026 11.8071 8.36364 12 8.36364C12.1929 8.36364 12.3779 8.44026 12.5143 8.57665C12.6507 8.71304 12.7273 8.89802 12.7273 9.09091V11.2727H14.9091C15.102 11.2727 15.287 11.3494 15.4234 11.4857C15.5597 11.6221 15.6364 11.8071 15.6364 12C15.6364 12.1929 15.5597 12.3779 15.4234 12.5143C15.287 12.6507 15.102 12.7273 14.9091 12.7273H12.7273V14.9091Z" fill="#091E42"/>
</svg>
