<svg width="25" height="24" viewBox="0 0 25 24" fill="none" xmlns="http://www.w3.org/2000/svg">
<path d="M12.1221 4C7.70374 4 4.12207 7.58167 4.12207 12C4.12207 16.4183 7.70374 20 12.1221 20C16.5404 20 20.1221 16.4183 20.1221 12C20.1221 7.58167 16.5404 4 12.1221 4ZM12.853 16.6077H11.3625V15.1793H12.853V16.6077ZM12.853 13.6535V14.1258H11.3625V13.5445C11.3625 11.7886 13.3605 11.5101 13.3605 10.2623C13.3605 9.69368 12.8525 9.25774 12.1865 9.25774C11.4962 9.25774 10.8908 9.76634 10.8908 9.76634L10.0431 8.71171C10.0431 8.71171 10.8781 7.83872 12.3191 7.83872C13.6875 7.83872 14.9585 8.68639 14.9585 10.1153C14.9585 12.1145 12.8519 12.3446 12.8519 13.653L12.853 13.6535Z" fill="#091E42"/>
</svg>
