<svg width="24" height="24" viewBox="0 0 24 24" fill="none" xmlns="http://www.w3.org/2000/svg">
<path d="M20 20H4V18.3847H20V20ZM7.36 16.2039L6.8 16.7693L5.68 15.6386L4.56 16.7693L4 16.2039L5.12 15.0732L4 13.9425L4.56 13.3771L5.68 14.5078L6.8 13.3771L7.36 13.9425L6.24 15.0732L7.36 16.2039ZM15.376 13.8859C15.376 13.4175 14.8 12.8925 13.648 12.2948C12.184 11.5517 11.2 10.946 10.688 10.5018C10.168 10.0495 9.912 9.54871 9.912 8.99142C9.912 7.55376 10.64 6.36648 12.096 5.4215C13.552 4.47653 14.744 4 15.656 4C16.248 4 16.68 4.105 16.944 4.31499C17.2 4.51691 17.344 4.87229 17.344 5.38112C17.344 5.60727 17.248 5.80111 17.048 5.97072C16.856 6.13226 16.696 6.21302 16.592 6.21302C16.504 6.21302 16.344 6.13226 16.104 5.9788L15.64 5.7688C15.264 5.7688 14.512 6.03534 13.368 6.57648C12.232 7.10954 11.664 7.7153 11.664 8.39374C11.664 8.80565 11.856 9.17718 12.256 9.50025C12.656 9.83948 13.368 10.2514 14.4 10.736C15.224 11.1156 15.888 11.5194 16.4 11.9798C16.88 12.416 17.128 12.9329 17.128 13.5386C17.128 14.6209 16.376 15.4851 14.864 16.0989C13.36 16.7208 11.92 17.0278 10.552 17.0278C9.4 17.0278 8.8 16.632 8.8 15.8486C8.8 15.5578 8.952 15.372 9.2 15.2428C9.464 15.1136 9.728 15.049 10 15.049L10.6 15.154L11.176 15.259C11.96 15.259 12.8 15.1297 13.704 14.8632C14.608 14.6047 15.168 14.2736 15.376 13.8859Z" fill="#091E42"/>
</svg>
