<svg width="24" height="24" viewBox="0 0 24 24" fill="none" xmlns="http://www.w3.org/2000/svg">
<path fill-rule="evenodd" clip-rule="evenodd" d="M10.9161 5.8865C12.4465 5.67056 14.0083 5.93504 15.3469 6.63081C15.7732 6.85234 16.2983 6.68641 16.5198 6.2602C16.7413 5.83399 16.5754 5.30889 16.1492 5.08736C14.4832 4.22145 12.5553 3.89851 10.6731 4.16408C8.79081 4.42967 7.04875 5.27077 5.73235 6.5663C4.41463 7.86313 3.59967 9.54162 3.43687 11.3354C3.27401 13.1297 3.77524 14.915 4.8465 16.4018C5.91648 17.8869 7.48932 18.9844 9.30121 19.5335C11.1127 20.0824 13.0708 20.0555 14.8643 19.4565C16.6583 18.8575 18.1957 17.7162 19.2175 16.201C20.2405 14.6839 20.6829 12.8847 20.4614 11.0959C20.4024 10.6192 19.9681 10.2807 19.4914 10.3397C19.0146 10.3987 18.6761 10.833 18.7351 11.3097C18.9036 12.6707 18.5697 14.0502 17.7753 15.2284C16.9795 16.4085 15.7641 17.3222 14.3133 17.8066C12.8622 18.2912 11.2728 18.3133 9.80564 17.8687C8.33885 17.4243 7.09278 16.5438 6.25782 15.385C5.42414 14.2279 5.04536 12.8574 5.16923 11.4926C5.29315 10.1272 5.91493 8.8272 6.95248 7.80609C7.99135 6.78368 9.3859 6.10241 10.9161 5.8865ZM20.3064 7.18527C20.6834 6.81579 20.6895 6.21067 20.32 5.83369C19.9506 5.4567 19.3454 5.45061 18.9685 5.82009L12.051 12.5998L9.64573 10.146C9.27622 9.76903 8.6711 9.76299 8.29414 10.1325C7.91718 10.502 7.91114 11.1071 8.28064 11.4841L10.7731 14.0269C11.4639 14.7316 12.5952 14.7429 13.2999 14.0522L20.3064 7.18527Z" fill="#091E42"/>
</svg>
