<svg width="16" height="16" viewBox="0 0 16 16" fill="none" xmlns="http://www.w3.org/2000/svg">
<path id="Vector" d="M13 0C11.3469 0 10 1.34688 10 3C10 4.65313 11.3469 6 13 6C14.6531 6 16 4.65313 16 3C16 1.34688 14.6531 0 13 0ZM13 4C12.4469 4 12 3.55313 12 3C12 2.44688 12.4469 2 13 2C13.5531 2 14 2.44688 14 3C14 3.55313 13.5531 4 13 4ZM8 3.5C8 1.56563 6.43438 0 4.5 0C2.56563 0 1 1.56563 1 3.5V8.70312C0.384375 9.475 0 10.4375 0 11.5C0 13.9844 2.01562 16 4.5 16C6.98438 16 9 13.9844 9 11.5C9 10.4375 8.61563 9.47188 8 8.70312V3.5ZM4.5 14C3.12188 14 2 12.8781 2 11.5C2 10.7031 2.38125 9.97188 3 9.50625V3.5C3 2.67188 3.67188 2 4.5 2C5.32813 2 6 2.67188 6 3.5V9.50625C6.61875 9.96875 7 10.7031 7 11.5C7 12.8781 5.87813 14 4.5 14ZM5 10.0906V9.5C5 9.225 4.775 9 4.5 9C4.225 9 4 9.225 4 9.5V10.0906C3.41875 10.2969 3 10.8469 3 11.5C3 12.3281 3.67188 13 4.5 13C5.32813 13 6 12.3281 6 11.5C6 10.8469 5.58125 10.2969 5 10.0906Z" fill="#B3B9C4"/>
</svg>
