<svg width="24" height="24" viewBox="0 0 24 24" fill="none" xmlns="http://www.w3.org/2000/svg">
<path d="M14.5027 9.81818C15.1467 9.81818 15.6693 10.3884 15.6693 11.0909V15.9993C15.6693 17.0603 15.283 18.0779 14.5952 18.8282C13.9074 19.5785 12.9746 20 12.002 20C11.0294 20 10.0966 19.5785 9.4088 18.8282C8.72105 18.0779 8.33467 17.0603 8.33467 15.9993V11.0909C8.33467 10.3884 8.85667 9.81818 9.50133 9.81818H14.5027ZM5.16667 9.81818L8.088 9.81673C7.84777 10.1325 7.70313 10.5218 7.674 10.9309L7.66733 11.0909V15.9993C7.66733 16.8233 7.86133 17.5985 8.20067 18.2735C7.74394 18.4908 7.24478 18.5807 6.74824 18.535C6.2517 18.4893 5.77342 18.3094 5.35657 18.0115C4.93972 17.7137 4.59742 17.3073 4.36059 16.829C4.12375 16.3507 3.99982 15.8156 4 15.272V11.0909C4.00018 10.7533 4.12324 10.4296 4.34214 10.1909C4.56104 9.95225 4.85719 9.81818 5.16667 9.81818ZM15.916 9.81673L18.8333 9.81818C19.4773 9.81818 20 10.3884 20 11.0909V15.2727C20.0002 15.8161 19.8764 16.351 19.6397 16.8291C19.403 17.3073 19.0609 17.7136 18.6443 18.0114C18.2277 18.3092 17.7496 18.4892 17.2533 18.5351C16.7569 18.581 16.258 18.4913 15.8013 18.2742L15.8387 18.2C16.1247 17.6087 16.2987 16.9425 16.3307 16.2364L16.336 15.9993V11.0909C16.336 10.6065 16.178 10.1629 15.916 9.81673ZM12 4C12.3064 4 12.6098 4.06584 12.8929 4.19376C13.176 4.32168 13.4332 4.50918 13.6499 4.74555C13.8666 4.98191 14.0385 5.26252 14.1557 5.57135C14.273 5.88018 14.3333 6.21118 14.3333 6.54545C14.3333 6.87973 14.273 7.21073 14.1557 7.51956C14.0385 7.82839 13.8666 8.109 13.6499 8.34536C13.4332 8.58173 13.176 8.76923 12.8929 8.89715C12.6098 9.02507 12.3064 9.09091 12 9.09091C11.3812 9.09091 10.7877 8.82273 10.3501 8.34536C9.9125 7.868 9.66667 7.22055 9.66667 6.54545C9.66667 5.87036 9.9125 5.22291 10.3501 4.74555C10.7877 4.26818 11.3812 4 12 4ZM17.3353 4.72727C17.598 4.72727 17.858 4.78371 18.1007 4.89335C18.3434 5.003 18.5638 5.16371 18.7495 5.36631C18.9353 5.56891 19.0826 5.80943 19.1831 6.07415C19.2836 6.33886 19.3353 6.62257 19.3353 6.90909C19.3353 7.19561 19.2836 7.47933 19.1831 7.74404C19.0826 8.00875 18.9353 8.24927 18.7495 8.45187C18.5638 8.65447 18.3434 8.81518 18.1007 8.92483C17.858 9.03447 17.598 9.09091 17.3353 9.09091C16.8049 9.09091 16.2962 8.86104 15.9211 8.45187C15.546 8.0427 15.3353 7.48775 15.3353 6.90909C15.3353 6.33044 15.546 5.77548 15.9211 5.36631C16.2962 4.95714 16.8049 4.72727 17.3353 4.72727ZM6.66467 4.72727C6.92731 4.72727 7.18738 4.78371 7.43003 4.89335C7.67269 5.003 7.89316 5.16371 8.07888 5.36631C8.2646 5.56891 8.41192 5.80943 8.51243 6.07415C8.61294 6.33886 8.66467 6.62257 8.66467 6.90909C8.66467 7.19561 8.61294 7.47933 8.51243 7.74404C8.41192 8.00875 8.2646 8.24927 8.07888 8.45187C7.89316 8.65447 7.67269 8.81518 7.43003 8.92483C7.18738 9.03447 6.92731 9.09091 6.66467 9.09091C6.13423 9.09091 5.62553 8.86104 5.25045 8.45187C4.87538 8.0427 4.66467 7.48775 4.66467 6.90909C4.66467 6.33044 4.87538 5.77548 5.25045 5.36631C5.62553 4.95714 6.13423 4.72727 6.66467 4.72727Z" fill="#091E42"/>
</svg>
