<svg width="24" height="24" viewBox="0 0 24 24" fill="none" xmlns="http://www.w3.org/2000/svg">
<path d="M19.0312 11.5357H18.5625V9.67858C18.5625 9.4323 18.4637 9.19612 18.2879 9.02198C18.1121 8.84784 17.8736 8.75 17.625 8.75H16.6875V8.28572C16.6875 8.03945 16.5887 7.80326 16.4129 7.62912C16.2371 7.45498 15.9986 7.35715 15.75 7.35715H14.3438C14.0951 7.35715 13.8567 7.45498 13.6808 7.62912C13.505 7.80326 13.4062 8.03945 13.4062 8.28572V11.5357H10.5938V8.28572C10.5938 8.03945 10.495 7.80326 10.3192 7.62912C10.1433 7.45498 9.90489 7.35715 9.65625 7.35715H8.25C8.00136 7.35715 7.7629 7.45498 7.58709 7.62912C7.41127 7.80326 7.3125 8.03945 7.3125 8.28572V8.75H6.375C6.12636 8.75 5.8879 8.84784 5.71209 9.02198C5.53627 9.19612 5.4375 9.4323 5.4375 9.67858V11.5357H4.96875C4.84443 11.5357 4.7252 11.5846 4.63729 11.6717C4.54939 11.7588 4.5 11.8769 4.5 12C4.5 12.1231 4.54939 12.2412 4.63729 12.3283C4.7252 12.4154 4.84443 12.4643 4.96875 12.4643H5.4375V14.3214C5.4375 14.5677 5.53627 14.8039 5.71209 14.978C5.8879 15.1522 6.12636 15.25 6.375 15.25H7.3125V15.7143C7.3125 15.9606 7.41127 16.1967 7.58709 16.3709C7.7629 16.545 8.00136 16.6429 8.25 16.6429H9.65625C9.90489 16.6429 10.1433 16.545 10.3192 16.3709C10.495 16.1967 10.5938 15.9606 10.5938 15.7143V12.4643H13.4062V15.7143C13.4062 15.9606 13.505 16.1967 13.6808 16.3709C13.8567 16.545 14.0951 16.6429 14.3438 16.6429H15.75C15.9986 16.6429 16.2371 16.545 16.4129 16.3709C16.5887 16.1967 16.6875 15.9606 16.6875 15.7143V15.25H17.625C17.8736 15.25 18.1121 15.1522 18.2879 14.978C18.4637 14.8039 18.5625 14.5677 18.5625 14.3214V12.4643H19.0312C19.1556 12.4643 19.2748 12.4154 19.3627 12.3283C19.4506 12.2412 19.5 12.1231 19.5 12C19.5 11.8769 19.4506 11.7588 19.3627 11.6717C19.2748 11.5846 19.1556 11.5357 19.0312 11.5357ZM6.375 14.3214V9.67858H7.3125V14.3214H6.375ZM9.65625 15.7143H8.25V8.28572H9.65625V15.7143ZM15.75 15.7143H14.3438V8.28572H15.75V15.7143ZM17.625 14.3214H16.6875V9.67858H17.625V14.3214Z" fill="#091E42"/>
</svg>
