<svg width="24" height="24" viewBox="0 0 24 24" fill="none" xmlns="http://www.w3.org/2000/svg">
<path d="M15.2 12C15.2 11.7733 15.1232 11.5832 14.9696 11.4296C14.8165 11.2765 14.6267 11.2 14.4 11.2H11.84L12.56 10.48C12.7067 10.3333 12.78 10.1467 12.78 9.92C12.78 9.69333 12.7067 9.50667 12.56 9.36C12.4133 9.21333 12.2267 9.14 12 9.14C11.7733 9.14 11.5867 9.21333 11.44 9.36L9.36 11.44C9.28 11.52 9.2232 11.6067 9.1896 11.7C9.15653 11.7933 9.14 11.8933 9.14 12C9.14 12.1067 9.15653 12.2067 9.1896 12.3C9.2232 12.3933 9.28 12.48 9.36 12.56L11.44 14.64C11.5867 14.7867 11.7733 14.86 12 14.86C12.2267 14.86 12.4133 14.7867 12.56 14.64C12.7067 14.4933 12.78 14.3067 12.78 14.08C12.78 13.8533 12.7067 13.6667 12.56 13.52L11.84 12.8H14.4C14.6267 12.8 14.8165 12.7232 14.9696 12.5696C15.1232 12.4165 15.2 12.2267 15.2 12ZM20 12C20 13.1067 19.7899 14.1467 19.3696 15.12C18.9499 16.0933 18.38 16.94 17.66 17.66C16.94 18.38 16.0933 18.9499 15.12 19.3696C14.1467 19.7899 13.1067 20 12 20C10.8933 20 9.85333 19.7899 8.88 19.3696C7.90667 18.9499 7.06 18.38 6.34 17.66C5.62 16.94 5.04987 16.0933 4.6296 15.12C4.20987 14.1467 4 13.1067 4 12C4 10.8933 4.20987 9.85333 4.6296 8.88C5.04987 7.90667 5.62 7.06 6.34 6.34C7.06 5.62 7.90667 5.05013 8.88 4.6304C9.85333 4.21013 10.8933 4 12 4C13.1067 4 14.1467 4.21013 15.12 4.6304C16.0933 5.05013 16.94 5.62 17.66 6.34C18.38 7.06 18.9499 7.90667 19.3696 8.88C19.7899 9.85333 20 10.8933 20 12Z" fill="#091E42"/>
</svg>
