<svg width="24" height="24" viewBox="0 0 24 24" fill="none" xmlns="http://www.w3.org/2000/svg">
<path d="M12 15.2C12.2267 15.2 12.4168 15.1232 12.5704 14.9696C12.7235 14.8165 12.8 14.6267 12.8 14.4V11.84L13.52 12.56C13.6667 12.7067 13.8533 12.78 14.08 12.78C14.3067 12.78 14.4933 12.7067 14.64 12.56C14.7867 12.4133 14.86 12.2267 14.86 12C14.86 11.7733 14.7867 11.5867 14.64 11.44L12.56 9.36C12.48 9.28 12.3933 9.2232 12.3 9.1896C12.2067 9.15653 12.1067 9.14 12 9.14C11.8933 9.14 11.7933 9.15653 11.7 9.1896C11.6067 9.2232 11.52 9.28 11.44 9.36L9.36 11.44C9.21333 11.5867 9.14 11.7733 9.14 12C9.14 12.2267 9.21333 12.4133 9.36 12.56C9.50667 12.7067 9.69333 12.78 9.92 12.78C10.1467 12.78 10.3333 12.7067 10.48 12.56L11.2 11.84V14.4C11.2 14.6267 11.2768 14.8165 11.4304 14.9696C11.5835 15.1232 11.7733 15.2 12 15.2ZM12 20C10.8933 20 9.85333 19.7899 8.88 19.3696C7.90667 18.9499 7.06 18.38 6.34 17.66C5.62 16.94 5.05013 16.0933 4.6304 15.12C4.21013 14.1467 4 13.1067 4 12C4 10.8933 4.21013 9.85333 4.6304 8.88C5.05013 7.90667 5.62 7.06 6.34 6.34C7.06 5.62 7.90667 5.04987 8.88 4.6296C9.85333 4.20987 10.8933 4 12 4C13.1067 4 14.1467 4.20987 15.12 4.6296C16.0933 5.04987 16.94 5.62 17.66 6.34C18.38 7.06 18.9499 7.90667 19.3696 8.88C19.7899 9.85333 20 10.8933 20 12C20 13.1067 19.7899 14.1467 19.3696 15.12C18.9499 16.0933 18.38 16.94 17.66 17.66C16.94 18.38 16.0933 18.9499 15.12 19.3696C14.1467 19.7899 13.1067 20 12 20Z" fill="#091E42"/>
</svg>
