<svg width="24" height="24" viewBox="0 0 24 24" fill="none" xmlns="http://www.w3.org/2000/svg">
<path d="M8.8 12C8.8 12.2267 8.8768 12.4168 9.0304 12.5704C9.18347 12.7235 9.37333 12.8 9.6 12.8H12.16L11.44 13.52C11.2933 13.6667 11.22 13.8533 11.22 14.08C11.22 14.3067 11.2933 14.4933 11.44 14.64C11.5867 14.7867 11.7733 14.86 12 14.86C12.2267 14.86 12.4133 14.7867 12.56 14.64L14.64 12.56C14.72 12.48 14.7768 12.3933 14.8104 12.3C14.8435 12.2067 14.86 12.1067 14.86 12C14.86 11.8933 14.8435 11.7933 14.8104 11.7C14.7768 11.6067 14.72 11.52 14.64 11.44L12.56 9.36C12.4133 9.21333 12.2267 9.14 12 9.14C11.7733 9.14 11.5867 9.21333 11.44 9.36C11.2933 9.50667 11.22 9.69333 11.22 9.92C11.22 10.1467 11.2933 10.3333 11.44 10.48L12.16 11.2H9.6C9.37333 11.2 9.18347 11.2768 9.0304 11.4304C8.8768 11.5835 8.8 11.7733 8.8 12ZM4 12C4 10.8933 4.21013 9.85333 4.6304 8.88C5.05013 7.90667 5.62 7.06 6.34 6.34C7.06 5.62 7.90667 5.05013 8.88 4.6304C9.85333 4.21013 10.8933 4 12 4C13.1067 4 14.1467 4.21013 15.12 4.6304C16.0933 5.05013 16.94 5.62 17.66 6.34C18.38 7.06 18.9501 7.90667 19.3704 8.88C19.7901 9.85333 20 10.8933 20 12C20 13.1067 19.7901 14.1467 19.3704 15.12C18.9501 16.0933 18.38 16.94 17.66 17.66C16.94 18.38 16.0933 18.9499 15.12 19.3696C14.1467 19.7899 13.1067 20 12 20C10.8933 20 9.85333 19.7899 8.88 19.3696C7.90667 18.9499 7.06 18.38 6.34 17.66C5.62 16.94 5.05013 16.0933 4.6304 15.12C4.21013 14.1467 4 13.1067 4 12Z" fill="#091E42"/>
</svg>
