<svg width="21" height="21" viewBox="0 0 21 21" fill="none" xmlns="http://www.w3.org/2000/svg">
<mask id="mask0_10331_62424" style="mask-type:alpha" maskUnits="userSpaceOnUse" x="0" y="0" width="21" height="21">
<rect x="0.728516" y="0.500122" width="19.9998" height="19.9998" fill="#D9D9D9"/>
</mask>
<g mask="url(#mask0_10331_62424)">
<path d="M10.7284 17.74C9.73895 17.74 8.8038 17.5499 7.92294 17.1699C7.04209 16.7898 6.27286 16.2709 5.61524 15.6133C4.95762 14.9557 4.43876 14.1864 4.05867 13.3056C3.67857 12.4247 3.48853 11.4896 3.48853 10.5001C3.48853 9.49861 3.67857 8.56044 4.05867 7.68562C4.43876 6.81081 4.95762 6.04459 5.61524 5.38697C6.27286 4.72934 7.04209 4.21049 7.92294 3.83039C8.8038 3.4503 9.73895 3.26025 10.7284 3.26025C11.7299 3.26025 12.6681 3.4503 13.5429 3.83039C14.4177 4.21049 15.1839 4.72934 15.8415 5.38697C16.4992 6.04459 17.018 6.81081 17.3981 7.68562C17.7782 8.56044 17.9683 9.49861 17.9683 10.5001C17.9683 11.4896 17.7782 12.4247 17.3981 13.3056C17.018 14.1864 16.4992 14.9557 15.8415 15.6133C15.1839 16.2709 14.4177 16.7898 13.5429 17.1699C12.6681 17.5499 11.7299 17.74 10.7284 17.74ZM10.7284 13.3961C11.4524 13.3961 12.1583 13.5017 12.8461 13.7128C13.5338 13.924 14.1794 14.2287 14.7827 14.6268C15.3378 14.0718 15.7661 13.4413 16.0678 12.7354C16.3695 12.0295 16.5203 11.2844 16.5203 10.5001C16.5203 8.88322 15.9592 7.51368 14.837 6.3915C13.7148 5.26932 12.3453 4.70823 10.7284 4.70823C9.11149 4.70823 7.74195 5.26932 6.61977 6.3915C5.49759 7.51368 4.9365 8.88322 4.9365 10.5001C4.9365 11.2844 5.08431 12.0326 5.37994 12.7445C5.67557 13.4564 6.10694 14.0839 6.67407 14.6268C7.27739 14.2287 7.92294 13.924 8.61073 13.7128C9.29852 13.5017 10.0044 13.3961 10.7284 13.3961ZM10.7284 14.844C10.2337 14.844 9.75101 14.9044 9.28042 15.025C8.80983 15.1457 8.36337 15.3267 7.94104 15.568C8.36337 15.8094 8.80983 15.9904 9.28042 16.111C9.75101 16.2317 10.2337 16.292 10.7284 16.292C11.2231 16.292 11.7058 16.2317 12.1764 16.111C12.647 15.9904 13.0934 15.8094 13.5157 15.568C13.0934 15.3267 12.647 15.1457 12.1764 15.025C11.7058 14.9044 11.2231 14.844 10.7284 14.844ZM7.10846 9.77613C7.31359 9.77613 7.48554 9.70675 7.6243 9.56799C7.76306 9.42923 7.83245 9.25728 7.83245 9.05215C7.83245 8.84702 7.76306 8.67507 7.6243 8.53631C7.48554 8.39754 7.31359 8.32816 7.10846 8.32816C6.90333 8.32816 6.73138 8.39754 6.59262 8.53631C6.45385 8.67507 6.38447 8.84702 6.38447 9.05215C6.38447 9.25728 6.45385 9.42923 6.59262 9.56799C6.73138 9.70675 6.90333 9.77613 7.10846 9.77613ZM9.28042 7.60417C9.48555 7.60417 9.6575 7.53479 9.79626 7.39603C9.93502 7.25726 10.0044 7.08532 10.0044 6.88019C10.0044 6.67506 9.93502 6.50311 9.79626 6.36435C9.6575 6.22558 9.48555 6.1562 9.28042 6.1562C9.07529 6.1562 8.90334 6.22558 8.76458 6.36435C8.62581 6.50311 8.55643 6.67506 8.55643 6.88019C8.55643 7.08532 8.62581 7.25726 8.76458 7.39603C8.90334 7.53479 9.07529 7.60417 9.28042 7.60417ZM14.3483 9.77613C14.5535 9.77613 14.7254 9.70675 14.8642 9.56799C15.0029 9.42923 15.0723 9.25728 15.0723 9.05215C15.0723 8.84702 15.0029 8.67507 14.8642 8.53631C14.7254 8.39754 14.5535 8.32816 14.3483 8.32816C14.1432 8.32816 13.9713 8.39754 13.8325 8.53631C13.6937 8.67507 13.6243 8.84702 13.6243 9.05215C13.6243 9.25728 13.6937 9.42923 13.8325 9.56799C13.9713 9.70675 14.1432 9.77613 14.3483 9.77613ZM10.7284 11.9481C11.1266 11.9481 11.4675 11.8063 11.751 11.5228C12.0346 11.2392 12.1764 10.8983 12.1764 10.5001C12.1764 10.3433 12.1522 10.1894 12.104 10.0386C12.0557 9.88775 11.9833 9.752 11.8868 9.63134L12.8642 7.16978C12.9486 6.97672 12.9516 6.78667 12.8732 6.59964C12.7948 6.41261 12.659 6.27687 12.466 6.1924C12.285 6.10794 12.101 6.10492 11.9139 6.18335C11.7269 6.26178 11.5972 6.39753 11.5248 6.59059L10.5474 9.05215C10.1854 9.11248 9.88374 9.27839 9.64241 9.54989C9.40108 9.82138 9.28042 10.1381 9.28042 10.5001C9.28042 10.8983 9.4222 11.2392 9.70576 11.5228C9.98932 11.8063 10.3302 11.9481 10.7284 11.9481Z" fill="#1C1B1F"/>
</g>
</svg>
