<svg width="24" height="25" viewBox="0 0 24 25" fill="none" xmlns="http://www.w3.org/2000/svg">
<path d="M10.455 5.12187C10.5795 4.82647 10.7931 4.57349 11.0684 4.39536C11.3436 4.21723 11.668 4.12207 12 4.12207C12.332 4.12207 12.6564 4.21723 12.9316 4.39536C13.2069 4.57349 13.4205 4.82647 13.545 5.12187C14.7772 5.44718 15.8642 6.1518 16.6389 7.12752C17.4136 8.10324 17.8332 9.2961 17.8332 10.5229V14.2801L19.3599 16.4783C19.4436 16.5987 19.4917 16.7388 19.499 16.8834C19.5063 17.0281 19.4726 17.1719 19.4014 17.2996C19.3303 17.4273 19.2243 17.534 19.0949 17.6085C18.9655 17.6829 18.8174 17.7222 18.6666 17.7221H14.8875C14.7871 18.3886 14.44 18.998 13.9097 19.4387C13.3794 19.8795 12.7015 20.1221 12 20.1221C11.2985 20.1221 10.6206 19.8795 10.0903 19.4387C9.55999 18.998 9.21288 18.3886 9.11255 17.7221H5.33344C5.18258 17.7222 5.03454 17.6829 4.90511 17.6085C4.77569 17.534 4.66974 17.4273 4.59856 17.2996C4.52739 17.1719 4.49366 17.0281 4.50098 16.8834C4.5083 16.7388 4.55639 16.5987 4.64012 16.4783L6.16676 14.2801V10.5229C6.16676 7.94397 7.9834 5.7714 10.455 5.12187ZM10.8217 17.7221C10.9078 17.9562 11.0673 18.1589 11.2784 18.3023C11.4896 18.4457 11.7418 18.5227 12.0004 18.5227C12.259 18.5227 12.5113 18.4457 12.7224 18.3023C12.9335 18.1589 13.0931 17.9562 13.1791 17.7221H10.8209H10.8217ZM12 6.52332C10.8949 6.52332 9.83516 6.9447 9.05377 7.69477C8.27238 8.44484 7.8334 9.46214 7.8334 10.5229V14.5225C7.83344 14.6805 7.78472 14.835 7.6934 14.9664L6.89092 16.1223H17.1082L16.3058 14.9664C16.2147 14.8349 16.1663 14.6804 16.1666 14.5225V10.5229C16.1666 9.46214 15.7276 8.44484 14.9462 7.69477C14.1648 6.9447 13.1051 6.52332 12 6.52332Z" fill="#091E42"/>
</svg>
