<svg width="14" height="14" viewBox="0 0 14 14" fill="none" xmlns="http://www.w3.org/2000/svg">
<path fill-rule="evenodd" clip-rule="evenodd" d="M2.1462 0.449129C1.67757 -0.0195007 0.917772 -0.0195014 0.449142 0.449127C-0.0194876 0.917756 -0.0194883 1.67755 0.44914 2.14618L5.30256 6.99961L0.449127 11.853C-0.0195016 12.3217 -0.0195006 13.0815 0.449129 13.5501C0.917758 14.0187 1.67756 14.0187 2.14619 13.5501L6.99961 8.69667L11.853 13.5501C12.3217 14.0187 13.0815 14.0187 13.5501 13.5501C14.0187 13.0815 14.0187 12.3217 13.5501 11.853L8.69667 6.99961L13.5501 2.14618C14.0187 1.67755 14.0187 0.917756 13.5501 0.449127C13.0815 -0.0195014 12.3217 -0.0195007 11.853 0.449129L6.99961 5.30255L2.1462 0.449129Z" fill="#091E42"/>
</svg>
