<svg width="28" height="21" viewBox="0 0 28 21" fill="none" xmlns="http://www.w3.org/2000/svg">
<path d="M7 21C5.06545 21 3.41515 20.3131 2.04909 18.9394C0.68303 17.5569 0 15.8725 0 13.8862C0 12.18 0.496364 10.6575 1.48909 9.31875C2.4903 7.98 3.79697 7.12687 5.40909 6.75937C5.94364 4.74687 7.00424 3.11937 8.59091 1.87687C10.1861 0.625625 11.9891 0 14 0C16.4861 0 18.5903 0.8925 20.3127 2.6775C22.0436 4.45375 22.9091 6.62375 22.9091 9.1875C24.377 9.3625 25.5903 10.0188 26.5491 11.1562C27.5164 12.2762 28 13.5887 28 15.0938C28 16.7388 27.4442 18.1344 26.3327 19.2806C25.2212 20.4269 23.8679 21 22.2727 21H15.2727C14.577 21 13.9788 20.7419 13.4782 20.2256C12.9776 19.7181 12.7273 19.1012 12.7273 18.375V11.6156L10.6909 13.65L8.90909 11.8125L14 6.5625L19.0909 11.8125L17.3091 13.65L15.2727 11.6156V18.375H22.2727C23.1636 18.375 23.9145 18.0556 24.5255 17.4169C25.1448 16.7869 25.4545 16.0125 25.4545 15.0938C25.4545 14.175 25.1448 13.4006 24.5255 12.7706C23.9145 12.1319 23.1636 11.8125 22.2727 11.8125H20.3636V9.1875C20.3636 7.37625 19.7442 5.8275 18.5055 4.54125C17.2667 3.26375 15.7648 2.625 14 2.625C12.2436 2.625 10.7418 3.26375 9.49454 4.54125C8.25576 5.8275 7.63636 7.37625 7.63636 9.1875H7C5.7697 9.1875 4.72182 9.63812 3.85636 10.5394C2.98242 11.4319 2.54545 12.5125 2.54545 13.7812C2.54545 15.05 2.98242 16.1437 3.85636 17.0625C4.72182 17.9375 5.7697 18.375 7 18.375H10.1818V21" fill="#338FFB"/>
</svg>
