<svg width="24" height="24" viewBox="0 0 24 24" fill="none" xmlns="http://www.w3.org/2000/svg">
<path d="M14.7002 3.66681H11.4552C9.98522 3.66681 8.82023 3.66681 7.9094 3.79014C6.97107 3.91681 6.2119 4.18347 5.61357 4.7843C5.01441 5.38514 4.74858 6.14763 4.62274 7.08929C4.50024 8.00429 4.50024 9.17345 4.50024 10.6493V15.5143C4.50024 16.7709 5.26691 17.8476 6.35607 18.2992C6.30024 17.5409 6.30024 16.4784 6.30024 15.5934V11.4184C6.30024 10.3509 6.30024 9.43012 6.39857 8.69345C6.5044 7.90346 6.74273 7.14679 7.3544 6.53263C7.96606 5.91847 8.72023 5.6793 9.50689 5.57263C10.2402 5.4743 11.1569 5.4743 12.221 5.4743H14.7794C15.8427 5.4743 16.7577 5.4743 17.4919 5.57263C17.2718 5.01128 16.8878 4.52922 16.3899 4.18927C15.8919 3.84932 15.3031 3.66726 14.7002 3.66681Z" fill="#091E42"/>
<path d="M7.5 11.4973C7.5 9.22565 7.5 8.08982 8.20333 7.38399C8.90583 6.67816 10.0367 6.67816 12.3 6.67816H14.7C16.9625 6.67816 18.0941 6.67816 18.7975 7.38399C19.4999 8.08982 19.4999 9.22565 19.4999 11.4973V15.514C19.4999 17.7856 19.4999 18.9214 18.7975 19.6273C18.0941 20.3331 16.9625 20.3331 14.7 20.3331H12.3C10.0375 20.3331 8.90583 20.3331 8.20333 19.6273C7.5 18.9214 7.5 17.7856 7.5 15.514V11.4973Z" fill="#091E42"/>
</svg>
