<svg width="24" height="24" viewBox="0 0 24 24" fill="none" xmlns="http://www.w3.org/2000/svg">
<path d="M6.51398 2C5.20998 2.129 4.33198 2.419 3.67598 3.076C2.50098 4.253 2.50098 6.148 2.50098 9.939V13.959C2.50098 17.749 2.50098 19.645 3.67598 20.823C4.85098 22.001 6.74298 22 10.526 22H12.533C16.316 22 18.208 22 19.383 20.823C20.45 19.753 20.549 18.106 20.558 14.977" stroke="black" stroke-width="1.5" stroke-linecap="round" stroke-linejoin="round"/>
<path d="M10.526 6.99998L11.529 10.5C12.089 11.61 12.792 11.9 14.539 12C15.928 11.966 16.734 11.802 17.422 11.204C17.891 10.796 18.103 10.181 18.206 9.56898L18.55 7.49998M21.058 5.49998V10.5M8.60096 4.93298C10.188 3.61598 11.602 2.90898 14.535 2.13098C14.8658 2.04362 15.214 2.04535 15.544 2.13598C18.14 2.84998 19.542 3.48398 21.42 4.89398C21.5 4.95398 21.524 5.06598 21.468 5.14898C20.855 6.05098 19.486 6.78198 16.128 8.08398C15.4285 8.35311 14.6534 8.34883 13.957 8.07198C10.381 6.65198 8.73696 5.89198 8.53696 5.10298C8.53046 5.07149 8.53302 5.03881 8.54435 5.00872C8.55568 4.97863 8.57531 4.95237 8.60096 4.93298Z" stroke="black" stroke-width="1.5" stroke-linecap="round" stroke-linejoin="round"/>
</svg>
