<svg width="24" height="24" viewBox="0 0 24 24" fill="none" xmlns="http://www.w3.org/2000/svg">
<path d="M12.6 11C12.2 10.9 11.8 10.7 11.5 10.4C11.2 10.3 11.1 10 11.1 9.8C11.1 9.6 11.2 9.3 11.4 9.2C11.7 9 12 8.8 12.3 8.9C12.9 8.9 13.4 9.2 13.7 9.6L14.6 8.4C14.3 8.1 14 7.9 13.7 7.7C13.4 7.5 13 7.4 12.6 7.4V6H11.4V7.4C10.9 7.5 10.4 7.8 10 8.2C9.6 8.7 9.3 9.3 9.4 9.9C9.4 10.5 9.6 11.1 10 11.5C10.5 12 11.2 12.3 11.8 12.6C12.1 12.7 12.5 12.9 12.8 13.1C13 13.3 13.1 13.6 13.1 13.9C13.1 14.2 13 14.5 12.8 14.8C12.5 15.1 12.1 15.2 11.8 15.2C11.4 15.2 10.9 15.1 10.6 14.8C10.3 14.6 10 14.3 9.8 14L8.8 15.1C9.1 15.5 9.4 15.8 9.8 16.1C10.3 16.4 10.9 16.7 11.5 16.7V18H12.6V16.5C13.2 16.4 13.7 16.1 14.1 15.7C14.6 15.2 14.9 14.4 14.9 13.7C14.9 13.1 14.7 12.4 14.2 12C13.7 11.5 13.2 11.2 12.6 11ZM12 4C7.6 4 4 7.6 4 12C4 16.4 7.6 20 12 20C16.4 20 20 16.4 20 12C20 7.6 16.4 4 12 4ZM12 18.9C8.2 18.9 5.1 15.8 5.1 12C5.1 8.2 8.2 5.1 12 5.1C15.8 5.1 18.9 8.2 18.9 12C18.9 15.8 15.8 18.9 12 18.9Z" fill="#091E42"/>
</svg>
