<svg width="327" height="62" viewBox="0 0 327 62" fill="none" xmlns="http://www.w3.org/2000/svg">
<path fill-rule="evenodd" clip-rule="evenodd" d="M156.03 2.11719H175.889V43.7585H197.354L191.772 60.5945H156.03V2.11719Z" fill="#006BD3"/>
<path fill-rule="evenodd" clip-rule="evenodd" d="M0 2.11719V60.5945H44.8863V43.7585H19.842V38.9876H41.5751V23.7348H19.842V18.9531H44.8863V2.11719H0Z" fill="#006BD3"/>
<path fill-rule="evenodd" clip-rule="evenodd" d="M81.3987 43.7585C73.1984 43.7585 67.1745 39.227 67.1745 31.354C67.1745 23.4775 73.1082 18.9531 81.3987 18.9531H90.4832V2.11719H76.8943C57.0072 2.11719 46.3093 14.5717 46.3093 31.354C46.3093 48.1399 57.101 60.5945 76.9845 60.5945H90.4832V43.7585H81.3987Z" fill="#006BD3"/>
<path fill-rule="evenodd" clip-rule="evenodd" d="M281.57 15.1113V24.0158H287.651C291.4 24.0158 292.839 22.3192 292.839 19.5654C292.839 16.6115 291.339 15.1113 287.651 15.1113H281.57ZM281.603 37.0314V47.311H288.225C292.29 47.311 294.063 45.6287 294.063 42.1676C294.063 38.903 292.385 37.0314 288.225 37.0314H281.603ZM262.196 2.11719H293.562C305.289 2.11719 312.311 8.70356 312.311 17.3651C312.311 24.7016 308.551 28.7127 303.672 30.2843V30.4272C309.248 32.0059 314.207 36.5635 314.207 43.8642C314.207 54.2295 307.134 60.5945 293.442 60.5945H262.196V2.11719Z" fill="#006BD3"/>
<path fill-rule="evenodd" clip-rule="evenodd" d="M227.767 18.2752H227.509L222.147 38.171H233.129L227.767 18.2752ZM260.77 60.5945H239.13L236.979 52.7832H218.249L216.149 60.5945H194.509L213.254 2.11719H242.087L260.77 60.5945Z" fill="#006BD3"/>
<path fill-rule="evenodd" clip-rule="evenodd" d="M125.034 38.0424C124.249 38.3156 123.414 38.4701 122.538 38.4701C122.432 38.4701 122.327 38.4593 122.218 38.4557L108.273 56.397L118.933 37.568C118.362 37.2589 117.839 36.8744 117.37 36.4359L104.076 53.5829L115.415 33.4745C115.138 32.6982 114.978 31.8679 114.978 30.9982C114.978 30.8832 114.993 30.7718 115 30.6604L96.709 16.7552L115.916 27.397C116.21 26.8687 116.574 26.3835 116.981 25.9415L99.62 12.5718L119.99 23.9648C120.786 23.6844 121.644 23.5227 122.538 23.5227C122.658 23.5227 122.774 23.5335 122.887 23.5371L136.828 5.5671L126.201 24.4607C126.739 24.7554 127.23 25.1148 127.677 25.5281L141.029 8.48183L129.679 28.5687C129.944 29.3306 130.097 30.1428 130.097 30.9982C130.097 31.0701 130.086 31.1384 130.082 31.2102L148.108 44.9573L129.152 34.6102C128.85 35.1457 128.483 35.638 128.065 36.0837L145.256 49.1766L125.034 38.0424ZM122.545 0C105.231 0 91.1958 13.8764 91.1958 30.9982C91.1958 48.1236 105.231 62 122.545 62C139.859 62 153.894 48.1236 153.894 30.9982C153.894 13.8764 139.859 0 122.545 0Z" fill="#006BD3"/>
<path fill-rule="evenodd" clip-rule="evenodd" d="M320.746 5.46732H318.97V7.70804H320.646C321.602 7.70804 322.056 7.3577 322.056 6.59863C322.056 5.85051 321.587 5.46732 320.746 5.46732ZM321.399 8.47076L322.89 11.3063H321.853L320.41 8.53645H318.97V11.3063H318.08V4.69H320.797C322.004 4.69 322.942 5.2885 322.942 6.59863C322.942 7.59126 322.34 8.25545 321.399 8.47076ZM320.258 2.87991C317.29 2.87991 315.024 5.0221 315.024 8.10582C315.024 11.1896 317.29 13.3317 320.258 13.3317C323.23 13.3317 325.493 11.1896 325.493 8.10582C325.493 5.0221 323.23 2.87991 320.258 2.87991ZM320.258 14.0945C316.821 14.0945 314.204 11.6713 314.204 8.10582C314.204 4.54038 316.821 2.11719 320.258 2.11719C323.699 2.11719 326.316 4.54038 326.316 8.10582C326.316 11.6713 323.699 14.0945 320.258 14.0945Z" fill="#006BD3"/>
</svg>
