<svg width="24" height="24" viewBox="0 0 24 24" fill="none" xmlns="http://www.w3.org/2000/svg">
<path d="M19.7143 6H4.28571C3.94472 6 3.6177 6.12643 3.37658 6.35147C3.13546 6.57652 3 6.88174 3 7.2V16.8C3 17.1183 3.13546 17.4235 3.37658 17.6485C3.6177 17.8736 3.94472 18 4.28571 18H19.7143C20.0553 18 20.3823 17.8736 20.6234 17.6485C20.8645 17.4235 21 17.1183 21 16.8V7.2C21 6.88174 20.8645 6.57652 20.6234 6.35147C20.3823 6.12643 20.0553 6 19.7143 6ZM18.3 7.2L12 11.268L5.7 7.2H18.3ZM4.28571 16.8V7.746L11.6336 12.492C11.7412 12.5617 11.869 12.599 12 12.599C12.131 12.599 12.2588 12.5617 12.3664 12.492L19.7143 7.746V16.8H4.28571Z" fill="#091E42"/>
</svg>
