<svg width="21" height="16" viewBox="0 0 21 16" fill="none" xmlns="http://www.w3.org/2000/svg">
<path d="M18.9 0H2.1C0.945 0 0.0105 0.9 0.0105 2L0 14C0 15.1 0.945 16 2.1 16H18.9C20.055 16 21 15.1 21 14V2C21 0.9 20.055 0 18.9 0ZM18.48 4.25L11.0565 8.67C10.7205 8.87 10.2795 8.87 9.9435 8.67L2.52 4.25C2.41471 4.19371 2.32252 4.11766 2.24898 4.02645C2.17545 3.93525 2.12212 3.83078 2.0922 3.71937C2.06229 3.60796 2.05643 3.49194 2.07496 3.37831C2.0935 3.26468 2.13605 3.15581 2.20005 3.0583C2.26404 2.96079 2.34814 2.87666 2.44726 2.811C2.54638 2.74533 2.65846 2.69951 2.77672 2.6763C2.89498 2.65309 3.01695 2.65297 3.13525 2.67595C3.25356 2.69893 3.36574 2.74453 3.465 2.81L10.5 7L17.535 2.81C17.6343 2.74453 17.7464 2.69893 17.8647 2.67595C17.9831 2.65297 18.105 2.65309 18.2233 2.6763C18.3415 2.69951 18.4536 2.74533 18.5527 2.811C18.6519 2.87666 18.736 2.96079 18.8 3.0583C18.8639 3.15581 18.9065 3.26468 18.925 3.37831C18.9436 3.49194 18.9377 3.60796 18.9078 3.71937C18.8779 3.83078 18.8245 3.93525 18.751 4.02645C18.6775 4.11766 18.5853 4.19371 18.48 4.25Z" fill="#5560F1"/>
</svg>
