<svg width="24" height="24" viewBox="0 0 24 24" fill="none" xmlns="http://www.w3.org/2000/svg">
<path d="M0 12C0 5.37258 5.37258 0 12 0C18.6274 0 24 5.37258 24 12C24 18.6274 18.6274 24 12 24C5.37258 24 0 18.6274 0 12Z" fill="#FFBDC0"/>
<path d="M12 4.00015C10.9476 3.99363 9.90442 4.1961 8.93089 4.59581C7.95736 4.99553 7.07287 5.58455 6.32871 6.32871C5.58455 7.07287 4.99553 7.95736 4.59581 8.93089C4.1961 9.90442 3.99363 10.9476 4.00015 12C3.99363 13.0524 4.1961 14.0956 4.59581 15.0691C4.99553 16.0426 5.58455 16.9271 6.32871 17.6713C7.07287 18.4155 7.95736 19.0045 8.93089 19.4042C9.90442 19.8039 10.9476 20.0064 12 19.9998C13.0524 20.0064 14.0956 19.8039 15.0691 19.4042C16.0426 19.0045 16.9271 18.4155 17.6713 17.6713C18.4155 16.9271 19.0045 16.0426 19.4042 15.0691C19.8039 14.0956 20.0064 13.0524 19.9998 12C20.0064 10.9476 19.8039 9.90442 19.4042 8.93089C19.0045 7.95736 18.4155 7.07287 17.6713 6.32871C16.9271 5.58455 16.0426 4.99553 15.0691 4.59581C14.0956 4.1961 13.0524 3.99363 12 4.00015ZM15.1114 15.9999L8.00008 8.8892L8.8892 8.00008L15.9999 15.1114L15.1114 15.9999Z" fill="#FF1420"/>
</svg>
