<svg width="25" height="24" viewBox="0 0 25 24" fill="none" xmlns="http://www.w3.org/2000/svg">
<path fill-rule="evenodd" clip-rule="evenodd" d="M9.05296 4.59581C10.0265 4.1961 11.0697 3.99363 12.1221 4.00015C13.1744 3.99363 14.2176 4.1961 15.1912 4.59581C16.1647 4.99553 17.0492 5.58455 17.7934 6.32871C18.5375 7.07287 19.1265 7.95736 19.5263 8.93089C19.926 9.90442 20.1284 10.9476 20.1219 12C20.1284 13.0524 19.926 14.0956 19.5263 15.0691C19.1265 16.0426 18.5375 16.9271 17.7934 17.6713C17.0492 18.4155 16.1647 19.0045 15.1912 19.4042C14.2176 19.8039 13.1744 20.0064 12.1221 19.9998C11.0697 20.0064 10.0265 19.8039 9.05296 19.4042C8.07943 19.0045 7.19494 18.4155 6.45078 17.6713C5.70662 16.9271 5.1176 16.0426 4.71788 15.0691C4.31817 14.0956 4.1157 13.0524 4.12222 12C4.1157 10.9476 4.31817 9.90442 4.71788 8.93089C5.1176 7.95736 5.70662 7.07287 6.45078 6.32871C7.19494 5.58455 8.07943 4.99553 9.05296 4.59581ZM8.31252 17.7014C9.44015 18.4549 10.7659 18.857 12.1221 18.857C13.939 18.8517 15.6801 18.1276 16.9649 16.8428C18.2497 15.558 18.9738 13.817 18.9791 12C18.9791 10.6438 18.5769 9.31808 17.8235 8.19045C17.07 7.06282 15.9991 6.18394 14.7461 5.66495C13.4932 5.14596 12.1145 5.01016 10.7843 5.27474C9.4542 5.53932 8.2324 6.19239 7.27343 7.15136C6.31446 8.11033 5.66139 9.33213 5.39681 10.6623C5.13223 11.9924 5.26803 13.3711 5.78702 14.6241C6.30601 15.877 7.18489 16.9479 8.31252 17.7014ZM9.01069 8.00012L8.12213 8.88868L15.2329 16L16.122 15.1108L9.01069 8.00012Z" fill="#091E42"/>
</svg>
