<svg width="24" height="24" viewBox="0 0 24 24" fill="none" xmlns="http://www.w3.org/2000/svg">
<path d="M4.72727 6.41722L5.65818 5.5L17.8182 17.5756L16.8945 18.5L14.6545 16.2756C13.8182 16.55 12.9309 16.6944 12 16.6944C8.36364 16.6944 5.25818 14.4483 4 11.2778C4.50182 10.0067 5.30182 8.88722 6.32 7.99889L4.72727 6.41722ZM12 9.11111C12.5787 9.11111 13.1336 9.33938 13.5428 9.74571C13.9519 10.152 14.1818 10.7031 14.1818 11.2778C14.1822 11.5237 14.1404 11.768 14.0582 12L11.2727 9.23389C11.5064 9.15227 11.7523 9.11075 12 9.11111ZM12 5.86111C15.6364 5.86111 18.7418 8.10722 20 11.2778C19.4064 12.7751 18.3978 14.0747 17.0909 15.0261L16.0582 13.9933C17.0639 13.3024 17.8751 12.3677 18.4145 11.2778C17.8266 10.0861 16.9138 9.08206 15.7798 8.37986C14.6459 7.67767 13.3363 7.30547 12 7.30556C11.2073 7.30556 10.4291 7.43556 9.70182 7.66667L8.58182 6.56167C9.62909 6.11389 10.7855 5.86111 12 5.86111ZM5.58545 11.2778C6.17341 12.4695 7.08623 13.4735 8.22017 14.1757C9.3541 14.8779 10.6637 15.2501 12 15.25C12.5018 15.25 12.9964 15.1994 13.4545 15.0983L11.7964 13.4444C11.2903 13.3906 10.8181 13.1663 10.4582 12.8089C10.0983 12.4515 9.87243 11.9825 9.81818 11.48L7.34545 9.01722C6.62545 9.63111 6.02182 10.3967 5.58545 11.2778Z" fill="#091E42"/>
</svg>
