<svg width="24" height="24" viewBox="0 0 24 24" fill="none" xmlns="http://www.w3.org/2000/svg">
<path fill-rule="evenodd" clip-rule="evenodd" d="M5.6 12.0008C5.6024 11.9882 5.6136 11.9191 5.676 11.7831C5.7448 11.6331 5.856 11.4445 6.0152 11.2269C6.3336 10.7924 6.8096 10.2903 7.4112 9.81414C8.6216 8.854 10.2496 8.07143 12 8.07143C13.7504 8.07143 15.3784 8.854 16.5888 9.81257C17.1904 10.2887 17.6664 10.7908 17.9848 11.2253C18.1448 11.4429 18.2552 11.6315 18.324 11.7816C18.3864 11.9175 18.3976 11.9866 18.4 11.9992V12C18.3976 12.0126 18.3864 12.0817 18.324 12.2176C18.2296 12.4134 18.116 12.5997 17.9848 12.7739C17.6664 13.2084 17.1904 13.7105 16.5888 14.1866C15.3792 15.146 13.7512 15.9286 12 15.9286C10.2496 15.9286 8.6216 15.146 7.4112 14.1874C6.8096 13.7113 6.3336 13.2092 6.0152 12.7747C5.88393 12.6006 5.77032 12.4143 5.676 12.2184C5.64103 12.1495 5.61548 12.0763 5.6 12.0008ZM12 6.5C9.7736 6.5 7.8016 7.48529 6.4072 8.58921C5.7056 9.14393 5.1272 9.74736 4.7168 10.3076C4.52246 10.5669 4.35497 10.8445 4.2168 11.1365C4.0984 11.395 4 11.6944 4 12C4 12.3049 4.0984 12.6058 4.216 12.8635C4.34 13.1322 4.512 13.4135 4.7168 13.6924C5.1272 14.2526 5.7056 14.8553 6.4072 15.4108C7.8016 16.5147 9.7736 17.5 12 17.5C14.2264 17.5 16.1984 16.5147 17.5928 15.4108C18.2944 14.8561 18.8728 14.2526 19.2832 13.6924C19.4888 13.4127 19.66 13.1322 19.7832 12.8635C19.9016 12.6058 20 12.3056 20 12C20 11.6951 19.9016 11.3942 19.784 11.1365C19.6454 10.8446 19.4776 10.5669 19.2832 10.3076C18.8728 9.74736 18.2944 9.14471 17.5928 8.58921C16.1984 7.48529 14.2264 6.5 12 6.5ZM11.2 12C11.2 11.7916 11.2843 11.5918 11.4343 11.4444C11.5843 11.2971 11.7878 11.2143 12 11.2143C12.2122 11.2143 12.4157 11.2971 12.5657 11.4444C12.7157 11.5918 12.8 11.7916 12.8 12C12.8 12.2084 12.7157 12.4082 12.5657 12.5556C12.4157 12.7029 12.2122 12.7857 12 12.7857C11.7878 12.7857 11.5843 12.7029 11.4343 12.5556C11.2843 12.4082 11.2 12.2084 11.2 12ZM12 9.64286C11.3635 9.64286 10.753 9.8912 10.3029 10.3332C9.85286 10.7753 9.6 11.3748 9.6 12C9.6 12.6252 9.85286 13.2247 10.3029 13.6668C10.753 14.1088 11.3635 14.3571 12 14.3571C12.6365 14.3571 13.247 14.1088 13.6971 13.6668C14.1471 13.2247 14.4 12.6252 14.4 12C14.4 11.3748 14.1471 10.7753 13.6971 10.3332C13.247 9.8912 12.6365 9.64286 12 9.64286Z" fill="#091E42"/>
</svg>
