<svg width="17" height="21" viewBox="0 0 17 21" fill="none" xmlns="http://www.w3.org/2000/svg">
<path d="M4.08309 12.8332C3.92838 12.8332 3.78001 12.7718 3.67061 12.6624C3.56121 12.553 3.49976 12.4046 3.49976 12.2499C3.49976 12.0952 3.56121 11.9468 3.67061 11.8374C3.78001 11.728 3.92838 11.6666 4.08309 11.6666H12.2498C12.4045 11.6666 12.5528 11.728 12.6622 11.8374C12.7716 11.9468 12.8331 12.0952 12.8331 12.2499C12.8331 12.4046 12.7716 12.553 12.6622 12.6624C12.5528 12.7718 12.4045 12.8332 12.2498 12.8332H4.08309ZM4.08309 16.3332C3.92838 16.3332 3.78001 16.2718 3.67061 16.1624C3.56121 16.053 3.49976 15.9046 3.49976 15.7499C3.49976 15.5952 3.56121 15.4468 3.67061 15.3374C3.78001 15.228 3.92838 15.1666 4.08309 15.1666H12.2498C12.4045 15.1666 12.5528 15.228 12.6622 15.3374C12.7716 15.4468 12.8331 15.5952 12.8331 15.7499C12.8331 15.9046 12.7716 16.053 12.6622 16.1624C12.5528 16.2718 12.4045 16.3332 12.2498 16.3332H4.08309Z" fill="#2B7CDA"/>
<path fill-rule="evenodd" clip-rule="evenodd" d="M9.54917 1.63032e-07H1.75C1.28587 1.63032e-07 0.840752 0.184375 0.512563 0.512563C0.184375 0.840752 0 1.28587 0 1.75V19.25C0 19.7141 0.184375 20.1592 0.512563 20.4874C0.840752 20.8156 1.28587 21 1.75 21H14.5833C15.0475 21 15.4926 20.8156 15.8208 20.4874C16.149 20.1592 16.3333 19.7141 16.3333 19.25V7.23567C16.3332 6.79755 16.1688 6.37541 15.8725 6.05267L10.8395 0.567C10.6755 0.388203 10.4761 0.245467 10.2539 0.147857C10.0318 0.0502469 9.7918 -0.000104564 9.54917 1.63032e-07ZM1.16667 1.75C1.16667 1.59529 1.22812 1.44692 1.33752 1.33752C1.44692 1.22812 1.59529 1.16667 1.75 1.16667H9.54917C9.63011 1.16658 9.71019 1.18334 9.7843 1.21587C9.85842 1.24841 9.92495 1.29602 9.97967 1.35567L15.0127 6.84133C15.1116 6.94886 15.1665 7.08958 15.1667 7.23567V19.25C15.1667 19.4047 15.1052 19.5531 14.9958 19.6625C14.8864 19.7719 14.738 19.8333 14.5833 19.8333H1.75C1.59529 19.8333 1.44692 19.7719 1.33752 19.6625C1.22812 19.5531 1.16667 19.4047 1.16667 19.25V1.75Z" fill="#2B7CDA"/>
<path d="M9.33341 7H15.7501C15.9048 7 16.0532 7.06146 16.1626 7.17085C16.272 7.28025 16.3334 7.42862 16.3334 7.58333C16.3334 7.73804 16.272 7.88642 16.1626 7.99581C16.0532 8.10521 15.9048 8.16667 15.7501 8.16667H8.75008C8.59537 8.16667 8.447 8.10521 8.3376 7.99581C8.22821 7.88642 8.16675 7.73804 8.16675 7.58333V0.583333C8.16675 0.428624 8.22821 0.280251 8.3376 0.170854C8.447 0.0614581 8.59537 0 8.75008 0C8.90479 0 9.05316 0.0614581 9.16256 0.170854C9.27196 0.280251 9.33341 0.428624 9.33341 0.583333V7Z" fill="#2B7CDA"/>
</svg>
