<svg width="24" height="24" viewBox="0 0 24 24" fill="none" xmlns="http://www.w3.org/2000/svg">
<path d="M18.4712 12.4355V12V11.5588L19.6012 10.596C19.8095 10.4173 19.9462 10.1726 19.9871 9.90516C20.0281 9.63776 19.9706 9.36488 19.8249 9.13475L18.4358 6.84254C18.3326 6.66849 18.1842 6.52392 18.0055 6.42333C17.8268 6.32275 17.6241 6.2697 17.4176 6.26949C17.2897 6.26854 17.1625 6.28789 17.0409 6.3268L15.6107 6.7967C15.3638 6.63694 15.1062 6.49336 14.8397 6.36691L14.5395 4.92282C14.4857 4.65899 14.3383 4.422 14.1231 4.25333C13.9079 4.08466 13.6386 3.99506 13.3624 4.00021H10.6079C10.3317 3.99506 10.0624 4.08466 9.84723 4.25333C9.63203 4.422 9.48462 4.65899 9.43079 4.92282L9.13063 6.36691C8.8622 6.49333 8.60266 6.6369 8.35372 6.7967L6.95293 6.30388C6.8301 6.27271 6.70289 6.2611 6.57625 6.26949C6.36983 6.2697 6.16709 6.32275 5.98837 6.42333C5.80965 6.52392 5.66124 6.66849 5.55803 6.84254L4.16902 9.13475C4.03164 9.36453 3.98059 9.63368 4.02461 9.89608C4.06863 10.1585 4.20499 10.3978 4.41033 10.5731L5.52272 11.5645V12.4412L4.41033 13.404C4.19919 13.5805 4.0591 13.8241 4.01493 14.0916C3.97075 14.3591 4.02535 14.6332 4.16902 14.8653L5.55803 17.1575C5.66124 17.3315 5.80965 17.4761 5.98837 17.5767C6.16709 17.6772 6.36983 17.7303 6.57625 17.7305C6.70417 17.7315 6.8314 17.7121 6.95293 17.6732L8.38315 17.2033C8.63007 17.3631 8.88765 17.5066 9.15417 17.6331L9.45434 19.0772C9.50816 19.341 9.65557 19.578 9.87077 19.7467C10.086 19.9153 10.3553 20.0049 10.6315 19.9998H13.4095C13.6857 20.0049 13.955 19.9153 14.1702 19.7467C14.3854 19.578 14.5328 19.341 14.5866 19.0772L14.8868 17.6331C15.1552 17.5067 15.4148 17.3631 15.6637 17.2033L17.088 17.6732C17.2096 17.7121 17.3368 17.7315 17.4647 17.7305C17.6711 17.7303 17.8739 17.6772 18.0526 17.5767C18.2313 17.4761 18.3797 17.3315 18.4829 17.1575L19.8249 14.8653C19.9622 14.6355 20.0133 14.3663 19.9693 14.1039C19.9252 13.8415 19.7889 13.6022 19.5836 13.4269L18.4712 12.4355ZM17.4176 16.5844L15.3989 15.9197C14.9263 16.3094 14.3862 16.6141 13.8038 16.8194L13.386 18.8766H10.6079L10.19 16.8423C9.61232 16.6312 9.07513 16.327 8.60092 15.9426L6.57625 16.5844L5.18723 14.2922L6.78813 12.9169C6.67931 12.3237 6.67931 11.7164 6.78813 11.1232L5.18723 9.7078L6.57625 7.41559L8.59503 8.08033C9.06761 7.6906 9.60772 7.38594 10.19 7.18064L10.6079 5.12339H13.386L13.8038 7.15772C14.3816 7.36885 14.9187 7.67298 15.393 8.05741L17.4176 7.41559L18.8066 9.7078L17.2057 11.0831C17.3146 11.6763 17.3146 12.2836 17.2057 12.8768L18.8066 14.2922L17.4176 16.5844Z" fill="#091E42" stroke="#091E42" stroke-width="0.5"/>
<path d="M11.9999 15.9998C11.2088 15.9998 10.4355 15.7652 9.77767 15.3257C9.1199 14.8862 8.60722 14.2615 8.30448 13.5306C8.00173 12.7997 7.92252 11.9955 8.07686 11.2196C8.2312 10.4437 8.61215 9.73094 9.17154 9.17154C9.73094 8.61215 10.4437 8.2312 11.2196 8.07686C11.9955 7.92252 12.7997 8.00173 13.5306 8.30448C14.2615 8.60722 14.8862 9.1199 15.3257 9.77767C15.7652 10.4355 15.9998 11.2088 15.9998 11.9999C16.0051 12.5267 15.9053 13.0492 15.7062 13.5369C15.5071 14.0246 15.2127 14.4677 14.8402 14.8402C14.4677 15.2127 14.0246 15.5071 13.5369 15.7062C13.0492 15.9053 12.5267 16.0051 11.9999 15.9998ZM11.9999 9.3333C11.6475 9.32509 11.297 9.38845 10.9698 9.51956C10.6426 9.65066 10.3453 9.84678 10.096 10.096C9.84678 10.3453 9.65066 10.6426 9.51956 10.9698C9.38845 11.297 9.32509 11.6475 9.3333 11.9999C9.32509 12.3523 9.38845 12.7028 9.51956 13.03C9.65066 13.3572 9.84678 13.6545 10.096 13.9037C10.3453 14.153 10.6426 14.3491 10.9698 14.4802C11.297 14.6113 11.6475 14.6747 11.9999 14.6665C12.3523 14.6747 12.7028 14.6113 13.03 14.4802C13.3572 14.3491 13.6545 14.153 13.9037 13.9037C14.153 13.6545 14.3491 13.3572 14.4802 13.03C14.6113 12.7028 14.6747 12.3523 14.6665 11.9999C14.6747 11.6475 14.6113 11.297 14.4802 10.9698C14.3491 10.6426 14.153 10.3453 13.9037 10.096C13.6545 9.84678 13.3572 9.65066 13.03 9.51956C12.7028 9.38845 12.3523 9.32509 11.9999 9.3333Z" fill="#091E42" stroke="#091E42" stroke-width="0.5"/>
</svg>
