<svg width="25" height="25" viewBox="0 0 25 25" fill="none" xmlns="http://www.w3.org/2000/svg">
<path d="M18.2795 8.20659H16.5619C16.9638 7.63655 17.1186 6.94045 16.9939 6.26411C16.8691 5.58776 16.4745 4.98364 15.8927 4.57828C15.311 4.17293 14.5871 3.99779 13.8728 4.08956C13.1585 4.18132 12.5092 4.53287 12.0609 5.07057C11.6126 4.53287 10.9633 4.18132 10.249 4.08956C9.5347 3.99779 8.81085 4.17293 8.22907 4.57828C7.64728 4.98364 7.25269 5.58776 7.12796 6.26411C7.00322 6.94045 7.15801 7.63655 7.55991 8.20659H5.84235C5.51259 8.20691 5.19644 8.33185 4.96327 8.55401C4.7301 8.77617 4.59896 9.07738 4.59863 9.39156V11.7615C4.59896 12.0757 4.7301 12.3769 4.96327 12.5991C5.19644 12.8212 5.51259 12.9462 5.84235 12.9465V18.8713C5.84267 19.1855 5.97381 19.4867 6.20698 19.7089C6.44015 19.931 6.75631 20.056 7.08606 20.0563H17.0358C17.3655 20.056 17.6817 19.931 17.9148 19.7089C18.148 19.4867 18.2791 19.1855 18.2795 18.8713V12.9465C18.6092 12.9462 18.9254 12.8212 19.1585 12.5991C19.3917 12.3769 19.5229 12.0757 19.5232 11.7615V9.39156C19.5229 9.07738 19.3917 8.77617 19.1585 8.55401C18.9254 8.33185 18.6092 8.20691 18.2795 8.20659ZM12.6828 6.72538C12.6828 6.43242 12.7739 6.14605 12.9448 5.90246C13.1156 5.65888 13.3584 5.46903 13.6425 5.35692C13.9265 5.24481 14.2391 5.21548 14.5407 5.27263C14.8423 5.32978 15.1193 5.47085 15.3367 5.678C15.5541 5.88516 15.7022 6.14908 15.7622 6.43641C15.8222 6.72374 15.7914 7.02156 15.6737 7.29222C15.556 7.56287 15.3568 7.79421 15.1011 7.95696C14.8455 8.11972 14.5449 8.20659 14.2374 8.20659H12.6828V6.72538ZM9.88441 5.24417C10.2966 5.24464 10.6917 5.40084 10.9832 5.67852C11.2746 5.9562 11.4386 6.33268 11.4391 6.72538V8.20659H9.88441C9.47209 8.20659 9.07667 8.05054 8.78511 7.77276C8.49356 7.49497 8.32977 7.11822 8.32977 6.72538C8.32977 6.33254 8.49356 5.95579 8.78511 5.678C9.07667 5.40022 9.47209 5.24417 9.88441 5.24417ZM5.84235 9.39156H11.4391V11.7615H5.84235V9.39156ZM7.08606 12.9465H11.4391V18.8713H7.08606V12.9465ZM17.0364 18.8713H12.6828V12.9465H17.0358L17.0364 18.8713ZM12.6828 11.7615V9.39156H18.2795L18.2801 11.7615H12.6828Z" fill="#091E42"/>
</svg>
