<svg width="24" height="24" viewBox="0 0 24 24" fill="none" xmlns="http://www.w3.org/2000/svg">
<path d="M4 12C4 16.4184 7.5816 20 12 20C16.4184 20 20 16.4184 20 12C20 7.5816 16.4184 4 12 4C7.5816 4 4 7.5816 4 12Z" stroke="#091E42" stroke-linecap="round" stroke-linejoin="round"/>
<path d="M12.8 4.04004C12.8 4.04004 15.2 7.20004 15.2 12C15.2 16.8 12.8 19.96 12.8 19.96M11.2 19.96C11.2 19.96 8.8 16.8 8.8 12C8.8 7.20004 11.2 4.04004 11.2 4.04004M4.504 14.8H19.496M4.504 9.20004H19.496" stroke="#091E42" stroke-linecap="round" stroke-linejoin="round"/>
</svg>
