<svg width="24" height="24" viewBox="0 0 24 24" fill="none" xmlns="http://www.w3.org/2000/svg">
<path d="M10.1429 5.5H6.42857C6.1823 5.5 5.94611 5.59783 5.77197 5.77197C5.59783 5.94611 5.5 6.1823 5.5 6.42857V10.1429C5.5 10.3891 5.59783 10.6253 5.77197 10.7995C5.94611 10.9736 6.1823 11.0714 6.42857 11.0714H10.1429C10.3891 11.0714 10.6253 10.9736 10.7995 10.7995C10.9736 10.6253 11.0714 10.3891 11.0714 10.1429V6.42857C11.0714 6.1823 10.9736 5.94611 10.7995 5.77197C10.6253 5.59783 10.3891 5.5 10.1429 5.5ZM17.5714 5.5H13.8571C13.6109 5.5 13.3747 5.59783 13.2005 5.77197C13.0264 5.94611 12.9286 6.1823 12.9286 6.42857V10.1429C12.9286 10.3891 13.0264 10.6253 13.2005 10.7995C13.3747 10.9736 13.6109 11.0714 13.8571 11.0714H17.5714C17.8177 11.0714 18.0539 10.9736 18.228 10.7995C18.4022 10.6253 18.5 10.3891 18.5 10.1429V6.42857C18.5 6.1823 18.4022 5.94611 18.228 5.77197C18.0539 5.59783 17.8177 5.5 17.5714 5.5ZM17.5714 12.9286H13.8571C13.6109 12.9286 13.3747 13.0264 13.2005 13.2005C13.0264 13.3747 12.9286 13.6109 12.9286 13.8571V17.5714C12.9286 17.8177 13.0264 18.0539 13.2005 18.228C13.3747 18.4022 13.6109 18.5 13.8571 18.5H17.5714C17.8177 18.5 18.0539 18.4022 18.228 18.228C18.4022 18.0539 18.5 17.8177 18.5 17.5714V13.8571C18.5 13.6109 18.4022 13.3747 18.228 13.2005C18.0539 13.0264 17.8177 12.9286 17.5714 12.9286ZM10.1429 12.9286H6.42857C6.1823 12.9286 5.94611 13.0264 5.77197 13.2005C5.59783 13.3747 5.5 13.6109 5.5 13.8571V17.5714C5.5 17.8177 5.59783 18.0539 5.77197 18.228C5.94611 18.4022 6.1823 18.5 6.42857 18.5H10.1429C10.3891 18.5 10.6253 18.4022 10.7995 18.228C10.9736 18.0539 11.0714 17.8177 11.0714 17.5714V13.8571C11.0714 13.6109 10.9736 13.3747 10.7995 13.2005C10.6253 13.0264 10.3891 12.9286 10.1429 12.9286Z" stroke="#B3B9C4"/>
</svg>
