<svg width="24" height="24" viewBox="0 0 24 24" fill="none" xmlns="http://www.w3.org/2000/svg">
<path d="M11.7395 13.6106C11.8182 13.6632 11.9089 13.6897 11.9998 13.6897C12.0907 13.6897 12.1815 13.6633 12.2601 13.6106C12.4205 13.5038 16.1886 10.9713 17.5769 8.42761C17.9203 7.89558 18.1015 7.28117 18.1015 6.64912C18.1015 4.83733 16.6276 3.36383 14.8162 3.36383C13.4839 3.36383 12.4975 4.46917 12 5.04667C11.5024 4.46917 10.516 3.36383 9.18406 3.36383C7.37216 3.36383 5.89844 4.83743 5.89844 6.64912C5.89844 7.28091 6.08001 7.89545 6.42306 8.42761C7.81113 10.9713 11.5795 13.5037 11.7398 13.6106H11.7395ZM9.184 4.30215C10.1225 4.30215 10.9074 5.21539 11.3293 5.70608C11.5915 6.01123 11.7359 6.17947 11.9999 6.17947C12.264 6.17947 12.4084 6.01109 12.6709 5.70608C13.0926 5.21526 13.8776 4.30215 14.8163 4.30215C16.1102 4.30215 17.163 5.3551 17.163 6.64919C17.163 7.10468 17.0306 7.54797 16.7807 7.93033C16.7738 7.94121 16.7669 7.95235 16.7608 7.96375C15.6888 9.9439 12.8717 12.0332 12.0001 12.6491C11.1284 12.0334 8.31159 9.94393 7.23933 7.96375C7.23305 7.95235 7.22652 7.94121 7.21948 7.93033C6.9694 7.54797 6.83712 7.10477 6.83712 6.64919C6.83687 5.35523 7.88968 4.30215 9.18403 4.30215H9.184Z" fill="#091E42"/>
<path d="M19.4275 14.248C18.5691 13.7451 17.8493 14.4909 17.5782 14.7713C17.0067 15.3633 16.3184 15.9486 15.97 16.2361C15.8221 16.1698 15.6588 16.1323 15.487 16.1306C14.4253 16.0735 12.7523 15.882 12.3336 15.6331C11.8836 15.3656 11.5233 15.1044 11.2056 14.8742C10.2924 14.2122 9.57134 13.6897 7.77545 13.6897C7.25479 13.6897 6.79842 13.834 6.35702 13.9738C5.90399 14.1174 5.47591 14.2531 4.95948 14.2531C4.38991 14.2531 3.92689 14.7161 3.92689 15.2857L3.92676 17.9138C3.92676 18.4834 4.38979 18.9464 4.95935 18.9464C5.9411 18.9464 7.47593 18.9969 7.81463 19.1099C8.42504 19.3133 9.85562 20.1616 10.3553 20.4711C10.3617 20.4749 10.3681 20.479 10.3746 20.4825C10.5554 20.5829 10.7604 20.6361 10.9675 20.6361H15.7404C16.2455 20.6361 16.8071 20.1688 17.0019 19.8454C17.6277 18.8069 19.8716 15.9812 19.8943 15.9527C19.9145 15.927 19.9319 15.8994 19.9464 15.8705C20.2371 15.2889 20.0139 14.5912 19.4275 14.2479L19.4275 14.248ZM15.74 19.6971H10.9672C10.9219 19.6971 10.8774 19.6862 10.8376 19.6659C10.6611 19.5567 8.92451 18.4903 8.11138 18.2193C7.50674 18.0178 5.3793 18.0075 4.95931 18.0075C4.90733 18.0075 4.8652 17.9655 4.8652 17.9136L4.86507 15.2855C4.86507 15.2334 4.90733 15.1914 4.95919 15.1914C5.62044 15.1914 6.16234 15.0198 6.63986 14.8687C7.04768 14.7397 7.39985 14.6283 7.77528 14.6283C9.26668 14.6283 9.78914 15.0068 10.6547 15.6341C10.9887 15.876 11.3673 16.1503 11.8534 16.4398C12.0976 16.585 12.502 16.699 12.9554 16.7877C13.93 16.9782 15.1303 17.0517 15.4482 17.0685C15.4562 17.069 15.4645 17.069 15.473 17.069C15.6281 17.069 15.7546 17.1953 15.7546 17.3509C15.7546 17.5062 15.6283 17.6321 15.473 17.6321C15.4647 17.6321 15.4566 17.6326 15.4482 17.633L11.8964 17.8198C11.6135 17.8095 10.946 17.3368 10.5026 17.0233C10.3879 16.9417 10.276 16.8636 10.1658 16.7876C9.92579 16.6216 9.6967 16.4726 9.4871 16.3677C9.2552 16.2512 8.97349 16.3457 8.85761 16.5776C8.74172 16.8094 8.83558 17.0914 9.06748 17.2074C9.30924 17.3281 9.62551 17.5522 9.96049 17.7894C10.6645 18.2881 11.3297 18.759 11.9058 18.759C11.9142 18.759 11.9225 18.7586 11.9307 18.7585L15.4871 18.571C16.1536 18.5637 16.6937 18.0189 16.6937 17.351C16.6937 17.1999 16.6663 17.0552 16.6157 16.9212C16.9922 16.6093 17.6703 16.028 18.2539 15.4241C18.6536 15.01 18.8132 14.9762 18.9537 15.0584C19.0781 15.1315 19.1693 15.274 19.1213 15.417C18.8094 15.8108 16.816 18.3357 16.198 19.3612C16.1157 19.4971 15.8404 19.6865 15.7401 19.6971L15.74 19.6971Z" fill="#091E42"/>
</svg>
