<svg width="16" height="16" viewBox="0 0 16 16" fill="none" xmlns="http://www.w3.org/2000/svg">
<path fill-rule="evenodd" clip-rule="evenodd" d="M2.32145 2.31307C5.43522 -0.79671 10.4977 -0.763889 13.6303 2.36969C16.7646 5.50408 16.7974 10.5692 13.6828 13.683C10.5682 16.7969 5.50415 16.7649 2.36986 13.6305C1.48814 12.7526 0.821948 11.6822 0.423615 10.5034C0.0252821 9.32456 -0.0943471 8.06945 0.0741229 6.83661C0.0962101 6.67481 0.181664 6.52841 0.311686 6.42963C0.441708 6.33084 0.605648 6.28774 0.767439 6.30983C0.929231 6.33192 1.07562 6.41738 1.17441 6.5474C1.27319 6.67743 1.31628 6.84138 1.2942 7.00317C1.15117 8.04796 1.25242 9.11168 1.58997 10.1107C1.92753 11.1097 2.49219 12.0169 3.23958 12.7608C5.90208 15.4226 10.1875 15.4381 12.8131 12.8133C15.4379 10.1876 15.4223 5.90203 12.7606 3.23944C10.0997 0.579306 5.81675 0.562075 3.19118 3.18364L3.8049 3.18611C3.88572 3.18648 3.96566 3.20277 4.04018 3.23405C4.11469 3.26532 4.18232 3.31097 4.2392 3.36838C4.29607 3.42579 4.34108 3.49384 4.37166 3.56865C4.40224 3.64346 4.41778 3.72355 4.4174 3.80437C4.41703 3.88518 4.40073 3.96513 4.36946 4.03965C4.33819 4.11417 4.29254 4.1818 4.23513 4.23868C4.17772 4.29555 4.10968 4.34057 4.03487 4.37114C3.96007 4.40172 3.87997 4.41727 3.79916 4.41689L1.71019 4.40704C1.54797 4.40618 1.39267 4.3413 1.27804 4.22652C1.16341 4.11173 1.09874 3.95633 1.0981 3.79411L1.08743 1.7067C1.087 1.62589 1.10249 1.54578 1.13302 1.47095C1.16355 1.39613 1.20851 1.32804 1.26535 1.27059C1.32219 1.21315 1.38978 1.16745 1.46428 1.13613C1.53877 1.10481 1.61871 1.08846 1.69952 1.08803C1.78033 1.0876 1.86044 1.10309 1.93526 1.13362C2.01009 1.16415 2.07817 1.20911 2.13561 1.26595C2.19306 1.32279 2.23875 1.39039 2.27007 1.46489C2.3014 1.53939 2.31774 1.61933 2.31817 1.70014L2.32145 2.31307ZM7.99926 4.10181C8.16247 4.10181 8.31899 4.16664 8.4344 4.28205C8.5498 4.39746 8.61463 4.55399 8.61463 4.7172V7.74493L10.4862 9.61572C10.545 9.67246 10.5919 9.74034 10.6242 9.81541C10.6565 9.89047 10.6735 9.97121 10.6742 10.0529C10.675 10.1346 10.6594 10.2157 10.6285 10.2913C10.5976 10.367 10.552 10.4357 10.4942 10.4935C10.4365 10.5513 10.3678 10.597 10.2922 10.628C10.2166 10.659 10.1355 10.6746 10.0538 10.6739C9.97212 10.6733 9.89136 10.6563 9.81627 10.6241C9.74117 10.5919 9.67325 10.545 9.61646 10.4863L7.38472 8.25447V4.71802C7.38472 4.55481 7.44955 4.39828 7.56495 4.28287C7.68036 4.16746 7.83688 4.10263 8.00008 4.10263" fill="#091E42"/>
</svg>
