<svg width="24" height="24" viewBox="0 0 24 24" fill="none" xmlns="http://www.w3.org/2000/svg">
<path d="M11.1378 3.82208C11.3787 3.61412 11.6843 3.5 12 3.5C12.3157 3.5 12.6213 3.61412 12.8622 3.82208L19.5289 9.58643C19.6765 9.71397 19.7951 9.87275 19.8765 10.0517C19.9578 10.2307 20 10.4256 20 10.6228V19.1411C20 19.5015 19.8595 19.8472 19.6095 20.102C19.3594 20.3568 19.0203 20.5 18.6667 20.5H13.5556C13.3787 20.5 13.2092 20.4284 13.0842 20.301C12.9591 20.1736 12.8889 20.0008 12.8889 19.8206V14.1586H11.1111V19.8206C11.1111 20.0008 11.0409 20.1736 10.9158 20.301C10.7908 20.4284 10.6213 20.5 10.4444 20.5H5.33333C4.97971 20.5 4.64057 20.3568 4.39052 20.102C4.14048 19.8472 4 19.5015 4 19.1411V10.6228C4 10.2242 4.17244 9.84461 4.47111 9.58643L11.1378 3.82208ZM12 4.85845L5.33333 10.6228V19.1411H9.77778V13.4791C9.77778 13.299 9.84802 13.1261 9.97304 12.9987C10.0981 12.8713 10.2676 12.7997 10.4444 12.7997H13.5556C13.7324 12.7997 13.9019 12.8713 14.027 12.9987C14.152 13.1261 14.2222 13.299 14.2222 13.4791V19.1411H18.6667V10.6228L12 4.85845Z" fill="#091E42"/>
</svg>
