<svg width="24" height="24" viewBox="0 0 24 24" fill="none" xmlns="http://www.w3.org/2000/svg">
<path d="M12.8622 3.82236C12.6213 3.61423 12.3158 3.5 12 3.5C11.6842 3.5 11.3787 3.61423 11.1378 3.82236L4.47111 9.58661C4.32349 9.71415 4.20488 9.87292 4.12353 10.0519C4.04217 10.2309 4.00002 10.4257 4 10.623V19.1411C4 19.5015 4.14048 19.8472 4.39052 20.102C4.64057 20.3568 4.97971 20.5 5.33333 20.5H9.55556C9.73237 20.5 9.90194 20.4284 10.027 20.301C10.152 20.1736 10.2222 20.0008 10.2222 19.8206V14.1587H13.7778V19.8206C13.7778 20.1956 14.0764 20.5 14.4444 20.5H18.6667C19.0203 20.5 19.3594 20.3568 19.6095 20.102C19.8595 19.8472 20 19.5015 20 19.1411V10.623C20 10.4257 19.9578 10.2309 19.8765 10.0519C19.7951 9.87292 19.6765 9.71415 19.5289 9.58661L12.8622 3.82236Z" fill="#091E42"/>
</svg>
