<svg width="24" height="25" viewBox="0 0 24 25" fill="none" xmlns="http://www.w3.org/2000/svg">
<g clip-path="url(#clip0_1896_6859)">
<path d="M11.9991 7.39873C11.7142 7.40023 11.4353 7.31635 11.1974 7.15765C10.9596 6.99896 10.7734 6.77255 10.6624 6.50695L7.98901 0.12207H9.66103C9.85422 0.122548 10.0427 0.182726 10.2012 0.294559C10.3597 0.406391 10.4807 0.564548 10.548 0.747885L12.0083 4.75936L13.4254 0.822983C13.5001 0.617779 13.6351 0.440639 13.8121 0.315347C13.9892 0.190056 14.1999 0.122612 14.4159 0.12207L16.0091 0.12207L13.3296 6.50695C13.219 6.77157 13.0337 6.9973 12.7971 7.15592C12.5605 7.31453 12.2829 7.39899 11.9991 7.39873V7.39873Z" fill="#BBBFFC"/>
<path d="M13.4781 15.8956C13.7438 15.7986 14.0319 15.7826 14.3065 15.8496C14.5812 15.9166 14.8304 16.0637 15.0234 16.2726L19.6979 21.3449L18.1278 21.9237C17.9459 21.9904 17.7482 21.9991 17.5612 21.9488C17.3742 21.8985 17.2069 21.7915 17.0817 21.6421L14.3604 18.3769V22.5683C14.3598 22.7872 14.2929 23.0007 14.1689 23.18C14.0448 23.3592 13.8696 23.4958 13.6666 23.5712L12.1692 24.1219L12.5308 17.1941C12.5456 16.9075 12.6433 16.6316 12.8117 16.4008C12.9801 16.1699 13.2118 15.9942 13.4781 15.8956V15.8956Z" fill="#7D84FF"/>
<path d="M10.5221 15.8956C10.7886 15.994 11.0206 16.1695 11.1893 16.4004C11.358 16.6313 11.4559 16.9073 11.4709 17.1941L11.8309 24.1219L10.2609 23.5446C10.0801 23.476 9.9241 23.3534 9.8137 23.193C9.7033 23.0326 9.64369 22.842 9.64278 22.6465L9.62733 18.3722L6.95397 21.5811C6.81404 21.7477 6.62711 21.867 6.41828 21.9229C6.20945 21.9788 5.98872 21.9688 5.78572 21.894L4.28833 21.3417L8.9644 16.2695C9.15872 16.0587 9.41026 15.9107 9.6874 15.8442C9.96454 15.7776 10.2549 15.7955 10.5221 15.8956V15.8956Z" fill="#7D84FF"/>
<path d="M15.7698 13.9403C15.9118 13.6916 16.1229 13.4907 16.3767 13.3625C16.6306 13.2343 16.916 13.1844 17.1976 13.219L23.9969 14.0623L23.1609 15.5283C23.0642 15.6985 22.9184 15.8348 22.743 15.9187C22.5676 16.0026 22.371 16.0301 22.1797 15.9976L18.0213 15.267L20.6807 18.479C20.8194 18.6468 20.9038 18.8537 20.9226 19.0716C20.9414 19.2896 20.8936 19.5081 20.7858 19.6978L19.99 21.0949L15.8671 15.5517C15.6961 15.3226 15.5957 15.0475 15.5784 14.7609C15.5611 14.4742 15.6276 14.1888 15.7698 13.9403Z" fill="#7D84FF"/>
<path d="M8.2287 13.94C8.37106 14.1884 8.4379 14.4738 8.42086 14.7604C8.40382 15.0471 8.30365 15.3222 8.1329 15.5515L4.01777 21.0947L3.18177 19.6287C3.08534 19.4583 3.04256 19.2621 3.05913 19.0664C3.07569 18.8708 3.15082 18.6849 3.27448 18.5335L5.97721 15.248L1.89917 15.9739C1.68502 16.0131 1.46414 15.9842 1.26687 15.8912C1.06959 15.7982 0.905584 15.6457 0.797373 15.4545L0 14.0621L6.79931 13.2188C7.08121 13.1834 7.36715 13.233 7.62138 13.3613C7.87561 13.4896 8.08686 13.6909 8.2287 13.94V13.94Z" fill="#5560F1"/>
<path d="M16.2256 10.9704C16.1757 10.6876 16.2093 10.3962 16.3223 10.1326C16.4353 9.86903 16.6226 9.64509 16.8607 9.48882L22.6061 5.70734L22.8966 7.37357C22.9296 7.56668 22.9036 7.76538 22.8222 7.94316C22.7407 8.12094 22.6077 8.26935 22.4408 8.36861L18.7923 10.5199L22.8704 11.2505C23.083 11.2888 23.2788 11.3924 23.4314 11.5471C23.5839 11.7019 23.6859 11.9004 23.7234 12.1157L24.0015 13.7037L17.3243 12.1391C17.0479 12.0754 16.7962 11.9306 16.6007 11.7227C16.4053 11.5148 16.2748 11.2531 16.2256 10.9704V10.9704Z" fill="#BBBFFC"/>
<path d="M7.77439 10.9689C7.72585 11.252 7.59583 11.5142 7.40064 11.7226C7.20544 11.9311 6.95378 12.0766 6.67723 12.1408L0 13.7037L0.290516 12.0375C0.323371 11.8437 0.41419 11.6647 0.550708 11.5248C0.687225 11.385 0.862861 11.2908 1.05389 11.2552L5.21074 10.4964L1.6272 8.41405C1.44027 8.30414 1.29106 8.13894 1.19962 7.94063C1.10818 7.74233 1.0789 7.52044 1.1157 7.30479L1.39077 5.7074L7.13927 9.48888C7.37698 9.64519 7.56397 9.8689 7.67692 10.1321C7.78986 10.3953 7.82376 10.6864 7.77439 10.9689V10.9689Z" fill="#5560F1"/>
<path d="M14.8071 8.30617C14.5896 8.12164 14.4306 7.8763 14.3501 7.60082C14.2696 7.32533 14.271 7.03192 14.3543 6.75727L16.3555 0.12207L17.635 1.21725C17.7827 1.3422 17.8896 1.50956 17.9415 1.69727C17.9933 1.88497 17.9878 2.08418 17.9255 2.26862L16.4884 6.29104L20.0735 4.19769C20.2611 4.08882 20.4771 4.04067 20.6926 4.05969C20.908 4.0787 21.1126 4.16398 21.2788 4.30408L22.498 5.34137L16.3926 8.48922C16.1396 8.61931 15.8545 8.67132 15.5727 8.63878C15.2908 8.60623 15.0246 8.49058 14.8071 8.30617V8.30617Z" fill="#BBBFFC"/>
<path d="M9.19297 8.30617C8.97547 8.49058 8.70926 8.60623 8.42739 8.63878C8.14552 8.67132 7.86042 8.61931 7.6075 8.48922L1.50049 5.34137L2.78154 4.25401C2.93027 4.12751 3.11381 4.05035 3.3073 4.033C3.50079 4.01565 3.69487 4.05894 3.86325 4.15701L7.52405 6.28009L6.11011 2.34058C6.03639 2.13529 6.02649 1.91207 6.08174 1.70092C6.13699 1.48976 6.25474 1.30078 6.41917 1.15936L7.64459 0.12207L9.65347 6.75727C9.73546 7.0327 9.73551 7.32648 9.65361 7.60193C9.57172 7.87739 9.41151 8.12232 9.19297 8.30617Z" fill="#5560F1"/>
</g>
<defs>
<clipPath id="clip0_1896_6859">
<rect width="24" height="24" fill="white" transform="translate(0 0.12207)"/>
</clipPath>
</defs>
</svg>
