<svg width="25" height="24" viewBox="0 0 25 24" fill="none" xmlns="http://www.w3.org/2000/svg">
<path d="M12.1221 4C16.5405 4 20.1221 7.5816 20.1221 12C20.1221 16.4184 16.5405 20 12.1221 20C7.70367 20 4.12207 16.4184 4.12207 12C4.12207 7.5816 7.70367 4 12.1221 4ZM12.1141 10.4H11.3221C11.1182 10.4002 10.922 10.4783 10.7738 10.6183C10.6255 10.7583 10.5363 10.9496 10.5243 11.1531C10.5124 11.3567 10.5786 11.5571 10.7095 11.7135C10.8404 11.8698 11.026 11.9703 11.2285 11.9944L11.3221 12V15.992C11.3221 16.408 11.6373 16.752 12.0421 16.7952L12.1301 16.8H12.5221C12.6903 16.8 12.8543 16.747 12.9907 16.6484C13.127 16.5499 13.2289 16.4108 13.2817 16.2511C13.3345 16.0913 13.3356 15.919 13.2848 15.7586C13.234 15.5982 13.134 15.4579 12.9989 15.3576L12.9221 15.3072V11.208C12.9221 10.792 12.6069 10.448 12.2021 10.4048L12.1141 10.4ZM12.1221 8C11.9099 8 11.7064 8.08429 11.5564 8.23431C11.4064 8.38434 11.3221 8.58783 11.3221 8.8C11.3221 9.01217 11.4064 9.21566 11.5564 9.36569C11.7064 9.51571 11.9099 9.6 12.1221 9.6C12.3342 9.6 12.5377 9.51571 12.6878 9.36569C12.8378 9.21566 12.9221 9.01217 12.9221 8.8C12.9221 8.58783 12.8378 8.38434 12.6878 8.23431C12.5377 8.08429 12.3342 8 12.1221 8Z" fill="#091E42"/>
</svg>
