<svg width="24" height="24" viewBox="0 0 24 24" fill="none" xmlns="http://www.w3.org/2000/svg">
<path d="M12 20C7.58214 20 4 16.4179 4 12C4 7.58214 7.58214 4 12 4C16.4179 4 20 7.58214 20 12C20 16.4179 16.4179 20 12 20ZM11.4286 15.8571C11.4286 15.9357 11.4929 16 11.5714 16H12.4286C12.5071 16 12.5714 15.9357 12.5714 15.8571V11C12.5714 10.9214 12.5071 10.8571 12.4286 10.8571H11.5714C11.4929 10.8571 11.4286 10.9214 11.4286 11V15.8571ZM12 8C11.7757 8.00458 11.5621 8.0969 11.4051 8.25714C11.2481 8.41739 11.1602 8.6328 11.1602 8.85714C11.1602 9.08149 11.2481 9.2969 11.4051 9.45714C11.5621 9.61739 11.7757 9.70971 12 9.71428C12.2243 9.70971 12.4379 9.61739 12.5949 9.45714C12.7519 9.2969 12.8398 9.08149 12.8398 8.85714C12.8398 8.6328 12.7519 8.41739 12.5949 8.25714C12.4379 8.0969 12.2243 8.00458 12 8Z" fill="#091E42"/>
</svg>
