<svg width="25" height="24" viewBox="0 0 25 24" fill="none" xmlns="http://www.w3.org/2000/svg">
<path d="M12.1221 4C16.5405 4 20.1221 7.5816 20.1221 12C20.1221 16.4184 16.5405 20 12.1221 20C7.70367 20 4.12207 16.4184 4.12207 12C4.12207 7.5816 7.70367 4 12.1221 4ZM12.1221 5.6C10.4247 5.6 8.79682 6.27428 7.59659 7.47452C6.39635 8.67475 5.72207 10.3026 5.72207 12C5.72207 13.6974 6.39635 15.3253 7.59659 16.5255C8.79682 17.7257 10.4247 18.4 12.1221 18.4C13.8195 18.4 15.4473 17.7257 16.6476 16.5255C17.8478 15.3253 18.5221 13.6974 18.5221 12C18.5221 10.3026 17.8478 8.67475 16.6476 7.47452C15.4473 6.27428 13.8195 5.6 12.1221 5.6ZM12.1141 10.4C12.5605 10.4 12.9221 10.7616 12.9221 11.208V15.3072C13.0746 15.3953 13.1938 15.5312 13.2611 15.6939C13.3285 15.8566 13.3404 16.037 13.2948 16.2071C13.2492 16.3772 13.1488 16.5275 13.0091 16.6347C12.8693 16.7419 12.6982 16.8 12.5221 16.8H12.1301C12.024 16.8 11.9189 16.7791 11.8209 16.7385C11.7228 16.6979 11.6338 16.6384 11.5587 16.5633C11.4837 16.4883 11.4242 16.3992 11.3836 16.3012C11.343 16.2032 11.3221 16.0981 11.3221 15.992V12C11.1099 12 10.9064 11.9157 10.7564 11.7657C10.6064 11.6157 10.5221 11.4122 10.5221 11.2C10.5221 10.9878 10.6064 10.7843 10.7564 10.6343C10.9064 10.4843 11.1099 10.4 11.3221 10.4H12.1141ZM12.1221 8C12.3342 8 12.5377 8.08429 12.6878 8.23431C12.8378 8.38434 12.9221 8.58783 12.9221 8.8C12.9221 9.01217 12.8378 9.21566 12.6878 9.36569C12.5377 9.51571 12.3342 9.6 12.1221 9.6C11.9099 9.6 11.7064 9.51571 11.5564 9.36569C11.4064 9.21566 11.3221 9.01217 11.3221 8.8C11.3221 8.58783 11.4064 8.38434 11.5564 8.23431C11.7064 8.08429 11.9099 8 12.1221 8Z" fill="#091E42"/>
</svg>
