<svg width="25" height="24" viewBox="0 0 25 24" fill="none" xmlns="http://www.w3.org/2000/svg">
<path d="M15.7947 8.32743C15.4571 7.98998 14.9994 7.80042 14.5221 7.80042C14.0448 7.80042 13.587 7.98998 13.2495 8.32743C13.0954 8.48114 13.0953 8.73066 13.2492 8.88454L13.5402 9.17554C13.6941 9.32951 13.9437 9.32965 14.0979 9.17584C14.211 9.06654 14.3626 9.00607 14.5199 9.00743C14.6772 9.0088 14.8277 9.0719 14.939 9.18315C15.0502 9.29439 15.1133 9.44488 15.1147 9.6022C15.116 9.75952 15.0556 9.91108 14.9463 10.0242L12.9705 12.0001L13.8189 12.8485L15.7947 10.8727C16.1321 10.5351 16.3217 10.0773 16.3217 9.60004C16.3217 9.12274 16.1321 8.66499 15.7947 8.32743ZM10.1462 14.8243C10.0331 14.9336 9.88151 14.9941 9.72419 14.9927C9.56687 14.9913 9.41639 14.9282 9.30514 14.817C9.19389 14.7057 9.13079 14.5552 9.12943 14.3979C9.12806 14.2406 9.18854 14.089 9.29783 13.9759L10.8494 12.4243C11.0837 12.19 11.0837 11.8101 10.8494 11.5759C10.6152 11.3416 10.2353 11.3416 10.001 11.5759L8.44942 13.1275C8.27751 13.2935 8.14038 13.4921 8.04604 13.7117C7.9517 13.9314 7.90205 14.1675 7.89997 14.4066C7.89789 14.6456 7.94344 14.8826 8.03394 15.1038C8.12445 15.325 8.25811 15.526 8.42711 15.695C8.59612 15.864 8.7971 15.9977 9.01831 16.0882C9.23953 16.1787 9.47655 16.2242 9.71556 16.2221C9.95456 16.2201 10.1908 16.1704 10.4104 16.0761C10.63 15.9817 10.8286 15.8446 10.9946 15.6727C11.1487 15.519 11.1488 15.2695 10.9949 15.1156L10.7039 14.8246C10.55 14.6706 10.3004 14.6705 10.1462 14.8243ZM10.9946 8.32803C10.6538 8.00809 10.2018 7.83332 9.73438 7.84069C9.26694 7.84806 8.82071 8.037 8.49011 8.36752C8.1595 8.69805 7.97045 9.14424 7.96297 9.61167C7.95549 10.0791 8.13016 10.5311 8.45003 10.8721C8.60373 11.0261 8.85325 11.0262 9.00713 10.8724L9.29813 10.5813C9.4521 10.4274 9.45224 10.1778 9.29843 10.0236C9.18913 9.91048 9.12866 9.75892 9.13002 9.6016C9.13139 9.44428 9.19449 9.29379 9.30574 9.18255C9.41698 9.0713 9.56747 9.0082 9.72479 9.00683C9.88211 9.00547 10.0337 9.06594 10.1468 9.17524L11.6979 10.7273C11.9321 10.9616 12.312 10.9617 12.5463 10.7274C12.7805 10.4932 12.7805 10.1134 12.5462 9.87914L10.9946 8.32803Z" fill="#758195"/>
<path d="M15.7947 13.1275C15.641 12.9735 15.3915 12.9733 15.2376 13.1272L14.9466 13.4182C14.7926 13.5722 14.7925 13.8218 14.9463 13.9759C15.0556 14.0891 15.1161 14.2406 15.1147 14.398C15.1133 14.5553 15.0502 14.7058 14.939 14.817C14.8278 14.9283 14.6773 14.9914 14.5199 14.9927C14.3626 14.9941 14.2111 14.9336 14.0979 14.8243L12.5463 13.2727C12.312 13.0384 11.9322 13.0384 11.6979 13.2727C11.4636 13.507 11.4636 13.8868 11.6979 14.1211L13.2495 15.6727C13.589 16.0006 14.0437 16.182 14.5156 16.1779C14.9876 16.1738 15.439 15.9845 15.7728 15.6508C16.1065 15.3171 16.2958 14.8656 16.2999 14.3936C16.304 13.9217 16.1226 13.467 15.7947 13.1275Z" fill="#758195"/>
<path d="M12.1221 21.0001C12.0158 21.0002 11.9115 20.9721 11.8197 20.9185L4.61962 16.7185C4.52904 16.6657 4.45389 16.59 4.40167 16.499C4.34945 16.4081 4.32199 16.305 4.32202 16.2001V7.80006C4.32199 7.69517 4.34945 7.59212 4.40167 7.50116C4.45389 7.4102 4.52904 7.33451 4.61962 7.28165L11.8197 3.08163C11.9115 3.02807 12.0158 2.99985 12.1221 2.99985C12.2283 2.99985 12.3327 3.02807 12.4245 3.08163L19.1061 6.97925C19.3924 7.14626 19.4891 7.51375 19.3221 7.80006C19.1551 8.08636 18.7876 8.18307 18.5013 8.01606L12.6259 4.58874C12.3146 4.40712 11.9296 4.40711 11.6182 4.58872L6.0182 7.85506C5.71096 8.03426 5.52203 8.36318 5.52203 8.71886V15.2814C5.52203 15.637 5.71093 15.9659 6.01814 16.1451L11.6182 19.412C11.9296 19.5936 12.3146 19.5936 12.626 19.412L18.226 16.1451C18.5332 15.9659 18.7221 15.637 18.7221 15.2814V12.0001C18.7221 11.6687 18.9907 11.4001 19.3221 11.4001C19.6535 11.4001 19.9221 11.6687 19.9221 12.0001V16.2001C19.9222 16.305 19.8947 16.4081 19.8425 16.499C19.7903 16.59 19.7151 16.6657 19.6245 16.7185L12.4245 20.9185C12.3327 20.9721 12.2283 21.0002 12.1221 21.0001Z" fill="#758195"/>
</svg>
