<svg width="24" height="24" viewBox="0 0 24 24" fill="none" xmlns="http://www.w3.org/2000/svg">
<path d="M10.4062 5.08782C10.7656 5.2472 11 5.60657 11 6.00032V8.00032H14.5C17.5375 8.00032 20 10.4628 20 13.5003C20 17.0409 17.4531 18.6222 16.8687 18.9409C16.7906 18.9847 16.7031 19.0003 16.6156 19.0003C16.275 19.0003 16 18.7222 16 18.3847C16 18.1503 16.1344 17.9347 16.3062 17.7753C16.6 17.5003 17 16.9503 17 16.0034C17 14.3472 15.6562 13.0034 14 13.0034H11V15.0034C11 15.3972 10.7688 15.7566 10.4062 15.9159C10.0437 16.0753 9.625 16.0097 9.33125 15.7472L4.33125 11.2472C4.12188 11.0534 4 10.7847 4 10.5003C4 10.2159 4.12188 9.9472 4.33125 9.75657L9.33125 5.25657C9.625 4.99095 10.0469 4.92532 10.4062 5.08782Z" fill="#091E42"/>
</svg>
