<svg width="24" height="24" viewBox="0 0 24 24" fill="none" xmlns="http://www.w3.org/2000/svg">
<path d="M12.7962 16.859C12.9211 16.984 12.9912 17.1534 12.9912 17.33C12.9912 17.5067 12.9211 17.6761 12.7962 17.8011L11.9681 18.634C11.0923 19.509 9.90482 20.0004 8.66673 20C7.42865 19.9996 6.24143 19.5075 5.36624 18.6319C4.49106 17.7563 3.99961 16.569 4 15.3312C4.00039 14.0933 4.49259 12.9063 5.36833 12.0313L7.37774 10.0222C8.21891 9.18056 9.34998 8.69209 10.5395 8.65678C11.729 8.62148 12.8871 9.04201 13.7767 9.83233C13.8424 9.89052 13.8959 9.96107 13.9343 10.0399C13.9726 10.1188 13.9951 10.2045 14.0004 10.292C14.0056 10.3796 13.9936 10.4673 13.9649 10.5502C13.9363 10.6331 13.8916 10.7096 13.8334 10.7752C13.7752 10.8408 13.7046 10.8944 13.6257 10.9327C13.5468 10.9711 13.4611 10.9936 13.3736 10.9988C13.286 11.0041 13.1983 10.992 13.1153 10.9634C13.0324 10.9347 12.956 10.89 12.8903 10.8319C12.2549 10.2677 11.428 9.96756 10.5786 9.9928C9.72922 10.018 8.92156 10.3667 8.32081 10.9676L6.31139 12.9742C5.68632 13.5991 5.33516 14.4467 5.33516 15.3306C5.33516 16.2144 5.68632 17.062 6.31139 17.687C6.93645 18.3119 7.78423 18.663 8.6682 18.663C9.55218 18.663 10.4 18.3119 11.025 17.687L11.8531 16.859C11.915 16.7971 11.9885 16.7479 12.0694 16.7144C12.1503 16.6808 12.2371 16.6636 12.3246 16.6636C12.4122 16.6636 12.499 16.6808 12.5799 16.7144C12.6608 16.7479 12.7343 16.7971 12.7962 16.859ZM18.6345 5.36444C17.7586 4.4907 16.5719 4 15.3346 4C14.0973 4 12.9106 4.4907 12.0347 5.36444L11.2066 6.19321C11.0817 6.31825 11.0115 6.48779 11.0116 6.66453C11.0117 6.84128 11.082 7.01076 11.2071 7.13568C11.3321 7.26061 11.5017 7.33074 11.6785 7.33067C11.8552 7.33059 12.0247 7.2603 12.1497 7.13527L12.9778 6.30732C13.6029 5.68237 14.4506 5.33128 15.3346 5.33128C16.2186 5.33128 17.0664 5.68237 17.6914 6.30732C18.3165 6.93228 18.6676 7.77989 18.6676 8.66371C18.6676 9.54753 18.3165 10.3951 17.6914 11.0201L15.682 13.0308C15.0809 13.6313 14.2731 13.9796 13.4237 14.0044C12.5743 14.0291 11.7476 13.7286 11.1125 13.1641C10.9799 13.0466 10.8061 12.9865 10.6292 12.9971C10.4524 13.0077 10.287 13.0882 10.1694 13.2207C10.0519 13.3533 9.99182 13.5271 10.0024 13.7039C10.0131 13.8807 10.0935 14.0461 10.2261 14.1636C11.1155 14.9541 12.2734 15.375 13.463 15.34C14.6525 15.305 15.7837 14.8168 16.6251 13.9754L18.6345 11.9663C19.5089 11.0905 20 9.90366 20 8.66621C20 7.42876 19.5089 6.24187 18.6345 5.3661V5.36444Z" fill="#091E42"/>
</svg>
