<svg width="24" height="24" viewBox="0 0 24 24" fill="none" xmlns="http://www.w3.org/2000/svg">
<path d="M12 16.1905C11.6022 16.1905 11.2206 16.0299 10.9393 15.7442C10.658 15.4584 10.5 15.0708 10.5 14.6667C10.5 13.821 11.1675 13.1429 12 13.1429C12.3978 13.1429 12.7794 13.3034 13.0607 13.5892C13.342 13.8749 13.5 14.2625 13.5 14.6667C13.5 15.0708 13.342 15.4584 13.0607 15.7442C12.7794 16.0299 12.3978 16.1905 12 16.1905ZM16.5 18.4762V10.8571H7.5V18.4762H16.5ZM16.5 9.33333C16.8978 9.33333 17.2794 9.49388 17.5607 9.77965C17.842 10.0654 18 10.453 18 10.8571V18.4762C18 18.8803 17.842 19.2679 17.5607 19.5537C17.2794 19.8395 16.8978 20 16.5 20H7.5C7.10218 20 6.72064 19.8395 6.43934 19.5537C6.15804 19.2679 6 18.8803 6 18.4762V10.8571C6 10.0114 6.6675 9.33333 7.5 9.33333H8.25V7.80952C8.25 6.79918 8.64509 5.83021 9.34835 5.11578C10.0516 4.40136 11.0054 4 12 4C12.4925 4 12.9801 4.09854 13.4351 4.28998C13.89 4.48143 14.3034 4.76204 14.6517 5.11578C14.9999 5.46953 15.2761 5.88949 15.4645 6.35168C15.653 6.81387 15.75 7.30925 15.75 7.80952V9.33333H16.5ZM12 5.52381C11.4033 5.52381 10.831 5.76463 10.409 6.19328C9.98705 6.62193 9.75 7.20331 9.75 7.80952V9.33333H14.25V7.80952C14.25 7.20331 14.0129 6.62193 13.591 6.19328C13.169 5.76463 12.5967 5.52381 12 5.52381Z" fill="#091E42"/>
</svg>
