<svg width="6" height="11" viewBox="0 0 6 11" fill="none" xmlns="http://www.w3.org/2000/svg">
<path d="M0.564282 11C0.408899 11 0.27865 10.9474 0.173538 10.8423C0.0684254 10.7372 0.0158691 10.607 0.0158691 10.4516V1.67698C0.0158691 1.52159 0.0684254 1.39135 0.173538 1.28623C0.27865 1.18112 0.408899 1.12856 0.564282 1.12856H1.66111V0.0317383H3.85476V1.12856H4.95159C5.10697 1.12856 5.23722 1.18112 5.34233 1.28623C5.44744 1.39135 5.5 1.52159 5.5 1.67698V10.4516C5.5 10.607 5.44744 10.7372 5.34233 10.8423C5.23722 10.9474 5.10697 11 4.95159 11H0.564282ZM1.1127 8.80635H4.40317V2.22539H1.1127V8.80635Z" fill="#DE101A"/>
</svg>
