<svg width="24" height="24" viewBox="0 0 24 24" fill="none" xmlns="http://www.w3.org/2000/svg">
<path fill-rule="evenodd" clip-rule="evenodd" d="M20.3999 3.41306V7.33901C20.8726 7.33901 21.3408 7.43249 21.7776 7.61411C22.2144 7.79572 22.6112 8.06193 22.9455 8.39751C23.2798 8.7331 23.545 9.1315 23.726 9.56996C23.9069 10.0084 24 10.4784 24 10.953C24 11.4275 23.9069 11.8975 23.726 12.336C23.545 12.7744 23.2798 13.1728 22.9455 13.5084C22.6112 13.844 22.2144 14.1102 21.7776 14.2918C21.3408 14.4734 20.8726 14.5669 20.3999 14.5669V18.1809C20.3999 20.1661 18.1426 21.2997 16.5597 20.1083L14.0876 18.2459C12.7662 17.2513 11.2276 16.5872 9.59942 16.3088V19.7348C9.59955 20.5224 9.31608 21.2834 8.80127 21.8777C8.28646 22.4719 7.575 22.8593 6.79805 22.9685C6.0211 23.0776 5.23103 22.9012 4.57348 22.4716C3.91593 22.0421 3.43522 21.3884 3.21997 20.6311L1.33589 14.0104C0.657886 13.2066 0.216651 12.2289 0.0617848 11.1873C-0.0930816 10.1456 0.04456 9.08122 0.459238 8.11377C0.873915 7.14632 1.54919 6.31415 2.40915 5.7108C3.26912 5.10746 4.27968 4.75686 5.32725 4.69842L8.949 4.49604C10.721 4.39705 12.4443 3.87726 13.9772 2.97939L16.7901 1.33143C18.391 0.395416 20.3999 1.55308 20.3999 3.41306ZM4.36001 15.8655L5.52766 19.9698C5.58385 20.1684 5.70976 20.34 5.88212 20.4527C6.05449 20.5655 6.26167 20.6118 6.46541 20.5832C6.66916 20.5545 6.8557 20.4529 6.9906 20.297C7.1255 20.141 7.19964 19.9414 7.19933 19.7348V16.1089L5.32725 16.0041C5.00147 15.9859 4.67785 15.9396 4.36001 15.8655ZM17.9998 3.41306L15.1856 5.06223C13.476 6.06262 11.5697 6.6768 9.59942 6.86197V13.8718C11.7439 14.1682 13.7852 15.0078 15.5277 16.3185L17.9998 18.1809V3.41306ZM7.19933 7.00653L5.45926 7.1029C4.64976 7.14777 3.88643 7.49564 3.31995 8.07785C2.75347 8.66006 2.425 9.43429 2.39938 10.2477C2.37376 11.0612 2.65285 11.8547 3.18156 12.4716C3.71028 13.0886 4.45019 13.4842 5.25525 13.5803L5.45926 13.5984L7.19933 13.6947V7.00653ZM20.3999 9.74831V12.1576C20.7057 12.1573 20.9999 12.0397 21.2223 11.8289C21.4447 11.6181 21.5786 11.3301 21.5965 11.0236C21.6144 10.717 21.5151 10.4152 21.3188 10.1798C21.1225 9.94432 20.844 9.79301 20.5403 9.75674L20.3999 9.74831Z" fill="#091E42"/>
</svg>
