<svg width="24" height="24" viewBox="0 0 24 24" fill="none" xmlns="http://www.w3.org/2000/svg">
<path d="M10 5C9.73478 5 9.48043 5.10536 9.29289 5.29289C9.10536 5.48043 9 5.73478 9 6V6.5C9 6.63261 8.94732 6.75979 8.85355 6.85355C8.75979 6.94732 8.63261 7 8.5 7C8.36739 7 8.24021 6.94732 8.14645 6.85355C8.05268 6.75979 8 6.63261 8 6.5V6C8 5.46957 8.21071 4.96086 8.58579 4.58579C8.96086 4.21071 9.46957 4 10 4H10.5C10.6326 4 10.7598 4.05268 10.8536 4.14645C10.9473 4.24021 11 4.36739 11 4.5C11 4.63261 10.9473 4.75979 10.8536 4.85355C10.7598 4.94732 10.6326 5 10.5 5H10ZM9 14C9 14.2652 9.10536 14.5196 9.29289 14.7071C9.48043 14.8946 9.73478 15 10 15H10.5C10.6326 15 10.7598 15.0527 10.8536 15.1464C10.9473 15.2402 11 15.3674 11 15.5C11 15.6326 10.9473 15.7598 10.8536 15.8536C10.7598 15.9473 10.6326 16 10.5 16H10C9.46957 16 8.96086 15.7893 8.58579 15.4142C8.21071 15.0391 8 14.5304 8 14V13.5C8 13.3674 8.05268 13.2402 8.14645 13.1464C8.24021 13.0527 8.36739 13 8.5 13C8.63261 13 8.75979 13.0527 8.85355 13.1464C8.94732 13.2402 9 13.3674 9 13.5V14ZM9 8.5C9 8.36739 8.94732 8.24021 8.85355 8.14645C8.75979 8.05268 8.63261 8 8.5 8C8.36739 8 8.24021 8.05268 8.14645 8.14645C8.05268 8.24021 8 8.36739 8 8.5V11.5C8 11.6326 8.05268 11.7598 8.14645 11.8536C8.24021 11.9473 8.36739 12 8.5 12C8.63261 12 8.75979 11.9473 8.85355 11.8536C8.94732 11.7598 9 11.6326 9 11.5V8.5ZM18 5C18.2652 5 18.5196 5.10536 18.7071 5.29289C18.8946 5.48043 19 5.73478 19 6V6.5C19 6.63261 19.0527 6.75979 19.1464 6.85355C19.2402 6.94732 19.3674 7 19.5 7C19.6326 7 19.7598 6.94732 19.8536 6.85355C19.9473 6.75979 20 6.63261 20 6.5V6C20 5.46957 19.7893 4.96086 19.4142 4.58579C19.0391 4.21071 18.5304 4 18 4H17.5C17.3674 4 17.2402 4.05268 17.1464 4.14645C17.0527 4.24021 17 4.36739 17 4.5C17 4.63261 17.0527 4.75979 17.1464 4.85355C17.2402 4.94732 17.3674 5 17.5 5H18ZM18 15C18.2652 15 18.5196 14.8946 18.7071 14.7071C18.8946 14.5196 19 14.2652 19 14V13.5C19 13.3674 19.0527 13.2402 19.1464 13.1464C19.2402 13.0527 19.3674 13 19.5 13C19.6326 13 19.7598 13.0527 19.8536 13.1464C19.9473 13.2402 20 13.3674 20 13.5V14C20 14.5304 19.7893 15.0391 19.4142 15.4142C19.0391 15.7893 18.5304 16 18 16H17.5C17.3674 16 17.2402 15.9473 17.1464 15.8536C17.0527 15.7598 17 15.6326 17 15.5C17 15.3674 17.0527 15.2402 17.1464 15.1464C17.2402 15.0527 17.3674 15 17.5 15H18ZM19.5 8C19.3674 8 19.2402 8.05268 19.1464 8.14645C19.0527 8.24021 19 8.36739 19 8.5V11.5C19 11.6326 19.0527 11.7598 19.1464 11.8536C19.2402 11.9473 19.3674 12 19.5 12C19.6326 12 19.7598 11.9473 19.8536 11.8536C19.9473 11.7598 20 11.6326 20 11.5V8.5C20 8.36739 19.9473 8.24021 19.8536 8.14645C19.7598 8.05268 19.6326 8 19.5 8ZM12.5 4C12.3674 4 12.2402 4.05268 12.1464 4.14645C12.0527 4.24021 12 4.36739 12 4.5C12 4.63261 12.0527 4.75979 12.1464 4.85355C12.2402 4.94732 12.3674 5 12.5 5H15.5C15.6326 5 15.7598 4.94732 15.8536 4.85355C15.9473 4.75979 16 4.63261 16 4.5C16 4.36739 15.9473 4.24021 15.8536 4.14645C15.7598 4.05268 15.6326 4 15.5 4H12.5ZM12 15.5C12 15.3674 12.0527 15.2402 12.1464 15.1464C12.2402 15.0527 12.3674 15 12.5 15H15.5C15.6326 15 15.7598 15.0527 15.8536 15.1464C15.9473 15.2402 16 15.3674 16 15.5C16 15.6326 15.9473 15.7598 15.8536 15.8536C15.7598 15.9473 15.6326 16 15.5 16H12.5C12.3674 16 12.2402 15.9473 12.1464 15.8536C12.0527 15.7598 12 15.6326 12 15.5ZM6 8H7V9H6C5.73478 9 5.48043 9.10536 5.29289 9.29289C5.10536 9.48043 5 9.73478 5 10V16.5C5 17.163 5.26339 17.7989 5.73223 18.2678C6.20107 18.7366 6.83696 19 7.5 19H14C14.2652 19 14.5196 18.8946 14.7071 18.7071C14.8946 18.5196 15 18.2652 15 18V17H16V18C16 18.5304 15.7893 19.0391 15.4142 19.4142C15.0391 19.7893 14.5304 20 14 20H7.5C6.57174 20 5.6815 19.6313 5.02513 18.9749C4.36875 18.3185 4 17.4283 4 16.5V10C4 9.46957 4.21071 8.96086 4.58579 8.58579C4.96086 8.21071 5.46957 8 6 8Z" fill="black"/>
</svg>
