<svg width="12" height="13" viewBox="0 0 12 13" fill="none" xmlns="http://www.w3.org/2000/svg">
<mask id="mask0_18343_15380" style="mask-type:alpha" maskUnits="userSpaceOnUse" x="0" y="0" width="12" height="13">
<rect y="0.5" width="12" height="12" fill="#D9D9D9"/>
</mask>
<g mask="url(#mask0_18343_15380)">
<path d="M8.07501 10H2.50001C2.35834 10 2.23959 9.95208 2.14376 9.85625C2.04792 9.76042 2.00001 9.64167 2.00001 9.5C2.00001 9.35833 2.04792 9.23958 2.14376 9.14375C2.23959 9.04792 2.35834 9 2.50001 9H3.00001V5.5C3.00001 5.225 3.03542 4.95417 3.10626 4.6875C3.17709 4.42083 3.28334 4.16667 3.42501 3.925L4.17501 4.675C4.11667 4.80833 4.07292 4.94375 4.04376 5.08125C4.01459 5.21875 4.00001 5.35833 4.00001 5.5V9H7.10001L1.05001 2.95C0.958339 2.85833 0.912506 2.74167 0.912506 2.6C0.912506 2.45833 0.958339 2.34167 1.05001 2.25C1.14167 2.15833 1.25834 2.1125 1.40001 2.1125C1.54167 2.1125 1.65834 2.15833 1.75001 2.25L10.25 10.75C10.3417 10.8417 10.3896 10.9563 10.3938 11.0938C10.3979 11.2313 10.35 11.35 10.25 11.45C10.1583 11.5417 10.0417 11.5875 9.90001 11.5875C9.75834 11.5875 9.64167 11.5417 9.55001 11.45L8.07501 10ZM6.75001 2.6C7.41667 2.76667 7.95834 3.11875 8.37501 3.65625C8.79167 4.19375 9.00001 4.80833 9.00001 5.5V6.875C9.00001 7.04167 8.94792 7.16667 8.84376 7.25C8.73959 7.33333 8.62501 7.375 8.50001 7.375C8.37501 7.375 8.26042 7.33125 8.15626 7.24375C8.05209 7.15625 8.00001 7.02917 8.00001 6.8625V5.5C8.00001 4.95 7.80417 4.47917 7.41251 4.0875C7.02084 3.69583 6.55001 3.5 6.00001 3.5C5.86667 3.5 5.72501 3.51667 5.57501 3.55C5.42501 3.58333 5.29167 3.625 5.17501 3.675C5.03334 3.73333 4.89376 3.74583 4.75626 3.7125C4.61876 3.67917 4.51251 3.6 4.43751 3.475C4.37084 3.36667 4.34792 3.25208 4.36876 3.13125C4.38959 3.01042 4.45417 2.92083 4.56251 2.8625C4.67084 2.80417 4.78334 2.75417 4.90001 2.7125C5.01667 2.67083 5.13334 2.63333 5.25001 2.6V2.25C5.25001 2.04167 5.32292 1.86458 5.46876 1.71875C5.61459 1.57292 5.79167 1.5 6.00001 1.5C6.20834 1.5 6.38542 1.57292 6.53126 1.71875C6.67709 1.86458 6.75001 2.04167 6.75001 2.25V2.6ZM6.00001 11.5C5.75001 11.5 5.52709 11.4313 5.33126 11.2938C5.13542 11.1563 5.03751 10.9708 5.03751 10.7375C5.03751 10.6708 5.06459 10.6146 5.11876 10.5688C5.17292 10.5229 5.23334 10.5 5.30001 10.5H6.70001C6.76667 10.5 6.82709 10.5229 6.88126 10.5688C6.93542 10.6146 6.96251 10.6708 6.96251 10.7375C6.96251 10.9708 6.86459 11.1563 6.66876 11.2938C6.47292 11.4313 6.25001 11.5 6.00001 11.5Z" fill="#8590A2"/>
</g>
</svg>
