<svg width="25" height="24" viewBox="0 0 25 24" fill="none" xmlns="http://www.w3.org/2000/svg">
<path d="M19.1221 8C19.6744 8 20.1221 8.44772 20.1221 9V19C20.1221 19.5523 19.6744 20 19.1221 20H5.12207C4.56979 20 4.12207 19.5523 4.12207 19V9C4.12207 8.44771 4.56979 8 5.12207 8H8.16113C8.15072 7.91667 8.1429 7.83333 8.1377 7.75C8.13249 7.66667 8.12728 7.58333 8.12207 7.5C8.12207 7.01562 8.21322 6.5625 8.39551 6.14062C8.5778 5.71875 8.8278 5.34635 9.14551 5.02344C9.46322 4.70052 9.83301 4.45052 10.2549 4.27344C10.6768 4.09635 11.1325 4.00521 11.6221 4C12.1064 4 12.5596 4.09115 12.9814 4.27344C13.4033 4.45573 13.7757 4.70573 14.0986 5.02344C14.4215 5.34115 14.6715 5.71094 14.8486 6.13281C15.0257 6.55469 15.1169 7.01042 15.1221 7.5C15.1221 7.58333 15.1195 7.66667 15.1143 7.75C15.109 7.83333 15.0986 7.91667 15.083 8H19.1221ZM11.6221 5C11.2783 5 10.9554 5.0651 10.6533 5.19531C10.3512 5.32552 10.0856 5.50521 9.85645 5.73438C9.62728 5.96354 9.44759 6.22917 9.31738 6.53125C9.18717 6.83333 9.12207 7.15625 9.12207 7.5C9.12207 7.84375 9.18717 8.16667 9.31738 8.46875C9.44759 8.77083 9.62467 9.03646 9.84863 9.26562C10.0726 9.49479 10.3382 9.67448 10.6455 9.80469C10.9528 9.9349 11.2783 10 11.6221 10C11.9658 10 12.2887 9.9349 12.5908 9.80469C12.8929 9.67448 13.1559 9.4974 13.3799 9.27344C13.6038 9.04948 13.7835 8.78385 13.9189 8.47656C14.0544 8.16927 14.1221 7.84375 14.1221 7.5C14.1221 7.15625 14.057 6.83333 13.9268 6.53125C13.7965 6.22917 13.6169 5.96615 13.3877 5.74219C13.1585 5.51823 12.8929 5.33854 12.5908 5.20312C12.2887 5.06771 11.9658 5 11.6221 5ZM19.1221 10C19.1221 9.44772 18.6744 9 18.1221 9H14.7861C14.6559 9.27083 14.4945 9.52344 14.3018 9.75781C14.109 9.99219 13.8877 10.1927 13.6377 10.3594C14.1742 10.5677 14.6585 10.8438 15.0908 11.1875C15.5231 11.5312 15.8877 11.9271 16.1846 12.375C16.4814 12.8229 16.7132 13.3125 16.8799 13.8438C17.0465 14.375 17.1273 14.9271 17.1221 15.5C17.1221 15.7761 16.8982 16 16.6221 16C16.3459 16 16.1221 15.7761 16.1221 15.5C16.1221 14.8594 16.0075 14.2656 15.7783 13.7188C15.5492 13.1719 15.234 12.6953 14.833 12.2891C14.432 11.8828 13.958 11.5677 13.4111 11.3438C12.8643 11.1198 12.2679 11.0052 11.6221 11C11.0439 11 10.4971 11.099 9.98145 11.2969C9.46582 11.4948 9.00749 11.7734 8.60645 12.1328C8.2054 12.4922 7.87728 12.9141 7.62207 13.3984C7.53333 13.5669 7.4534 13.7413 7.38426 13.9217C7.17153 14.4767 7.64049 15 8.23494 15H12.208L10.7666 13.5586C10.5706 13.3626 10.5715 13.0445 10.7686 12.8496C10.9641 12.6562 11.2792 12.6571 11.4736 12.8516L13.415 14.7929C13.8055 15.1834 13.8055 15.8166 13.415 16.2071L11.4736 18.1484C11.2792 18.3429 10.9641 18.3438 10.7686 18.1504C10.5715 17.9555 10.5706 17.6374 10.7666 17.4414L12.208 16H6.62207C6.34593 16 6.12207 15.7761 6.12207 15.5C6.12207 14.9271 6.2028 14.3776 6.36426 13.8516C6.52572 13.3255 6.76009 12.8385 7.06738 12.3906C7.37467 11.9427 7.74186 11.5469 8.16895 11.2031C8.59603 10.8594 9.0778 10.5807 9.61426 10.3672C9.10384 10.0078 8.71842 9.55208 8.45801 9H6.12207C5.56979 9 5.12207 9.44772 5.12207 10V18C5.12207 18.5523 5.56979 19 6.12207 19H18.1221C18.6744 19 19.1221 18.5523 19.1221 18V10Z" fill="#091E42"/>
</svg>
