<svg width="25" height="24" viewBox="0 0 25 24" fill="none" xmlns="http://www.w3.org/2000/svg">
<path fill-rule="evenodd" clip-rule="evenodd" d="M17.8494 18.9992C18.1869 18.9992 18.5106 18.8651 18.7493 18.6264C18.988 18.3878 19.1221 18.0641 19.1221 17.7265V6.27265C19.1221 5.93513 18.988 5.61142 18.7493 5.37275C18.5106 5.13408 18.1869 5 17.8494 5H6.39553C6.058 5 5.73429 5.13408 5.49563 5.37275C5.25696 5.61142 5.12287 5.93513 5.12287 6.27265V10.7269C5.12287 10.8957 5.18992 11.0576 5.30925 11.1769C5.42858 11.2962 5.59044 11.3633 5.7592 11.3633C5.92797 11.3633 6.08982 11.2962 6.20915 11.1769C6.32849 11.0576 6.39553 10.8957 6.39553 10.7269V6.27265H17.8494V17.7265H13.3951C13.2264 17.7265 13.0645 17.7936 12.9452 17.9129C12.8258 18.0323 12.7588 18.1941 12.7588 18.3629C12.7588 18.5316 12.8258 18.6935 12.9452 18.8128C13.0645 18.9322 13.2264 18.9992 13.3951 18.9992H17.8494ZM14.0315 10.7269V14.5449C14.0315 14.7137 13.9644 14.8755 13.8451 14.9949C13.7257 15.1142 13.5639 15.1812 13.3951 15.1812C13.2264 15.1812 13.0645 15.1142 12.9452 14.9949C12.8258 14.8755 12.7588 14.7137 12.7588 14.5449V12.263L6.20972 18.8134C6.15056 18.8726 6.08032 18.9195 6.00302 18.9515C5.92572 18.9835 5.84287 19 5.7592 19C5.67553 19 5.59268 18.9835 5.51538 18.9515C5.43808 18.9195 5.36784 18.8726 5.30868 18.8134C5.24952 18.7542 5.20259 18.684 5.17057 18.6067C5.13855 18.5294 5.12207 18.4465 5.12207 18.3629C5.12207 18.2792 5.13855 18.1963 5.17057 18.119C5.20259 18.0417 5.24952 17.9715 5.30868 17.9123L11.859 11.3633H9.57716C9.4084 11.3633 9.24655 11.2962 9.12721 11.1769C9.00788 11.0576 8.94084 10.8957 8.94084 10.7269C8.94084 10.5582 9.00788 10.3963 9.12721 10.277C9.24655 10.1577 9.4084 10.0906 9.57716 10.0906H13.3951C13.4785 10.0903 13.561 10.1064 13.6382 10.138C13.7153 10.1696 13.7854 10.2161 13.8445 10.2749C13.9036 10.3336 13.9505 10.4035 13.9826 10.4804C14.0147 10.5573 14.0313 10.6398 14.0315 10.7231" fill="#B3B9C4"/>
</svg>
