<svg width="24" height="24" viewBox="0 0 24 24" fill="none" xmlns="http://www.w3.org/2000/svg">
<path d="M21.1425 15.7038L16.3219 13.5436C16.1035 13.45 15.8652 13.4123 15.6286 13.4341C15.3919 13.4558 15.1645 13.5362 14.9668 13.6681C14.9467 13.681 14.9277 13.6953 14.9096 13.7109L12.3902 15.8538C12.364 15.8681 12.3349 15.8761 12.3052 15.8771C12.2754 15.8782 12.2458 15.8723 12.2187 15.86C10.5993 15.0783 8.92167 13.4109 8.13695 11.8139C8.12389 11.7872 8.11709 11.7579 8.11709 11.7282C8.11709 11.6985 8.12389 11.6692 8.13695 11.6425L10.287 9.09136C10.3025 9.0725 10.3168 9.05273 10.3299 9.03217C10.4599 8.8337 10.5384 8.60598 10.5583 8.36956C10.5783 8.13315 10.5391 7.89549 10.4442 7.67804L8.2992 2.86562C8.17739 2.58154 7.96673 2.34462 7.69884 2.19044C7.43094 2.03625 7.12027 1.97311 6.81344 2.01049C5.47995 2.1858 4.25592 2.84066 3.37008 3.8527C2.48424 4.86474 1.99722 6.1647 2.00001 7.50967C2.00001 15.4998 8.50023 22 16.4903 22C17.8352 22.0026 19.135 21.5155 20.147 20.6297C21.159 19.7439 21.8139 18.52 21.9895 17.1865C22.0268 16.8812 21.9645 16.5719 21.8119 16.3047C21.6593 16.0376 21.4245 15.8268 21.1425 15.7038ZM16.4903 20.7755C9.17576 20.7755 3.22454 14.8242 3.22454 7.50967C3.22113 6.46262 3.59905 5.45014 4.28769 4.66141C4.97632 3.87268 5.92857 3.36165 6.96651 3.2238H6.98998C7.0311 3.22456 7.07103 3.23774 7.10453 3.26159C7.13804 3.28545 7.16355 3.31887 7.17774 3.35747L9.33087 8.16479C9.34315 8.19152 9.34951 8.22059 9.34951 8.25C9.34951 8.27941 9.34315 8.30848 9.33087 8.33521L7.17672 10.8924C7.16072 10.9108 7.14606 10.9302 7.13284 10.9506C6.99804 11.1564 6.91867 11.3935 6.9024 11.6389C6.88613 11.8844 6.93352 12.1299 7.03998 12.3517C7.94511 14.2048 9.81252 16.0579 11.6861 16.9631C11.9091 17.0689 12.1558 17.1152 12.4021 17.0973C12.6483 17.0794 12.8858 16.998 13.0912 16.861C13.1106 16.8478 13.13 16.8335 13.1483 16.8182L15.6668 14.6752C15.6917 14.6619 15.7191 14.654 15.7473 14.6523C15.7755 14.6505 15.8037 14.6549 15.8301 14.665L20.6517 16.8253C20.691 16.8421 20.7242 16.8708 20.7463 16.9074C20.7685 16.9441 20.7786 16.9867 20.7751 17.0294C20.638 18.0678 20.1275 19.0208 19.3389 19.7102C18.5503 20.3996 17.5377 20.7783 16.4903 20.7755Z" fill="#091E42"/>
</svg>
