<svg width="20" height="20" viewBox="0 0 20 20" fill="none" xmlns="http://www.w3.org/2000/svg">
<g id="do_not_disturb_on">
<mask id="mask0_4146_59229" style="mask-type:alpha" maskUnits="userSpaceOnUse" x="0" y="0" width="20" height="20">
<rect id="Bounding box" width="20" height="20" fill="#D9D9D9"/>
</mask>
<g mask="url(#mask0_4146_59229)">
<path id="do_not_disturb_on_2" d="M5.83073 10.8322H14.1641V9.16553H5.83073V10.8322ZM9.99739 18.3322C8.84462 18.3322 7.76128 18.1134 6.7474 17.6759C5.73351 17.2384 4.85156 16.6447 4.10156 15.8947C3.35156 15.1447 2.75781 14.2627 2.32031 13.2489C1.88281 12.235 1.66406 11.1516 1.66406 9.99886C1.66406 8.84608 1.88281 7.76275 2.32031 6.74886C2.75781 5.73497 3.35156 4.85303 4.10156 4.10303C4.85156 3.35303 5.73351 2.75928 6.7474 2.32178C7.76128 1.88428 8.84462 1.66553 9.99739 1.66553C11.1502 1.66553 12.2335 1.88428 13.2474 2.32178C14.2613 2.75928 15.1432 3.35303 15.8932 4.10303C16.6432 4.85303 17.237 5.73497 17.6745 6.74886C18.112 7.76275 18.3307 8.84608 18.3307 9.99886C18.3307 11.1516 18.112 12.235 17.6745 13.2489C17.237 14.2627 16.6432 15.1447 15.8932 15.8947C15.1432 16.6447 14.2613 17.2384 13.2474 17.6759C12.2335 18.1134 11.1502 18.3322 9.99739 18.3322ZM9.99739 16.6655C11.8585 16.6655 13.4349 16.0197 14.7266 14.728C16.0182 13.4364 16.6641 11.86 16.6641 9.99886C16.6641 8.13775 16.0182 6.56136 14.7266 5.26969C13.4349 3.97803 11.8585 3.33219 9.99739 3.33219C8.13628 3.33219 6.5599 3.97803 5.26823 5.26969C3.97656 6.56136 3.33073 8.13775 3.33073 9.99886C3.33073 11.86 3.97656 13.4364 5.26823 14.728C6.5599 16.0197 8.13628 16.6655 9.99739 16.6655Z" fill="#006BD3"/>
</g>
</g>
</svg>
