<svg width="24" height="24" viewBox="0 0 24 24" fill="none" xmlns="http://www.w3.org/2000/svg">
<path d="M6.31248 12C6.31364 10.9561 6.72885 9.95522 7.46702 9.21705C8.2052 8.47887 9.20604 8.06366 10.25 8.0625H16.194L15.6279 7.49703C15.5459 7.41494 15.4997 7.3036 15.4997 7.1875C15.4997 7.0714 15.5459 6.96006 15.6279 6.87797C15.71 6.79588 15.8214 6.74976 15.9375 6.74976C16.0536 6.74976 16.1649 6.79588 16.247 6.87797L17.5595 8.19047C17.6002 8.2311 17.6325 8.27935 17.6545 8.33246C17.6765 8.38557 17.6878 8.4425 17.6878 8.5C17.6878 8.55749 17.6765 8.61442 17.6545 8.66754C17.6325 8.72065 17.6002 8.7689 17.5595 8.80953L16.247 10.122C16.1649 10.2041 16.0536 10.2502 15.9375 10.2502C15.8214 10.2502 15.71 10.2041 15.6279 10.122C15.5459 10.0399 15.4997 9.9286 15.4997 9.8125C15.4997 9.6964 15.5459 9.58506 15.6279 9.50297L16.194 8.9375H10.25C9.43802 8.93837 8.65956 9.2613 8.08542 9.83544C7.51128 10.4096 7.18835 11.188 7.18748 12C7.18748 12.116 7.14138 12.2273 7.05934 12.3094C6.97729 12.3914 6.86601 12.4375 6.74998 12.4375C6.63395 12.4375 6.52267 12.3914 6.44062 12.3094C6.35857 12.2273 6.31248 12.116 6.31248 12ZM17.25 11.5625C17.1339 11.5625 17.0227 11.6086 16.9406 11.6906C16.8586 11.7727 16.8125 11.884 16.8125 12C16.8116 12.812 16.4887 13.5904 15.9145 14.1646C15.3404 14.7387 14.5619 15.0616 13.75 15.0625H7.80599L8.37201 14.497C8.41266 14.4564 8.4449 14.4081 8.4669 14.355C8.4889 14.3019 8.50022 14.245 8.50022 14.1875C8.50022 14.13 8.4889 14.0731 8.4669 14.02C8.4449 13.9669 8.41266 13.9186 8.37201 13.878C8.33136 13.8373 8.2831 13.8051 8.23 13.7831C8.17689 13.7611 8.11996 13.7498 8.06248 13.7498C8.00499 13.7498 7.94807 13.7611 7.89496 13.7831C7.84185 13.8051 7.79359 13.8373 7.75295 13.878L6.44045 15.1905C6.39977 15.2311 6.3675 15.2794 6.34548 15.3325C6.32347 15.3856 6.31213 15.4425 6.31213 15.5C6.31213 15.5575 6.32347 15.6144 6.34548 15.6675C6.3675 15.7206 6.39977 15.7689 6.44045 15.8095L7.75295 17.122C7.79359 17.1627 7.84185 17.1949 7.89496 17.2169C7.94807 17.2389 8.00499 17.2502 8.06248 17.2502C8.11996 17.2502 8.17689 17.2389 8.23 17.2169C8.2831 17.1949 8.33136 17.1627 8.37201 17.122C8.41266 17.0814 8.4449 17.0331 8.4669 16.98C8.4889 16.9269 8.50022 16.87 8.50022 16.8125C8.50022 16.755 8.4889 16.6981 8.4669 16.645C8.4449 16.5919 8.41266 16.5436 8.37201 16.503L7.80599 15.9375H13.75C14.7939 15.9363 15.7948 15.5211 16.5329 14.783C17.2711 14.0448 17.6863 13.0439 17.6875 12C17.6875 11.884 17.6414 11.7727 17.5593 11.6906C17.4773 11.6086 17.366 11.5625 17.25 11.5625Z" fill="#091E42"/>
</svg>
