<svg width="32" height="32" viewBox="0 0 32 32" fill="none" xmlns="http://www.w3.org/2000/svg">
<path d="M0 8C0 3.58172 3.58172 0 8 0H24C28.4183 0 32 3.58172 32 8V24C32 28.4183 28.4183 32 24 32H8C3.58172 32 0 28.4183 0 24V8Z" fill="#2C3E5D"/>
<mask id="path-2-inside-1_2094_5452" fill="white">
<path fill-rule="evenodd" clip-rule="evenodd" d="M19.8253 14.4156C18.7744 15.4666 17.4883 15.9993 16.0029 15.9993C14.518 15.9993 13.232 15.4665 12.1809 14.4157C11.1299 13.3649 10.597 12.0789 10.597 10.5934C10.597 9.10826 11.1299 7.82228 12.1808 6.7714C13.2317 5.72052 14.5175 5.1878 16.0029 5.1878C17.4881 5.1878 18.7741 5.72052 19.8251 6.77122C20.8762 7.82245 21.4089 9.10843 21.4089 10.5934C21.4089 12.0789 20.8762 13.3647 19.8253 14.4156ZM25.2306 22.01C25.3218 22.4794 25.3838 22.924 25.4144 23.3315C25.4326 23.5713 25.4455 23.3273 25.4528 23.1873C25.4577 23.0948 25.4602 23.0477 25.4602 23.2153C25.4602 24.3075 25.0839 25.1914 24.3417 25.8427C23.6086 26.4861 22.6392 26.8122 21.4599 26.8122H10.5404C9.36109 26.8122 8.39133 26.4859 7.65843 25.8427C6.91635 25.1909 6.54004 24.3072 6.54004 23.2155C6.54004 23.0497 6.54242 23.0957 6.54715 23.1872C6.5544 23.3272 6.56716 23.574 6.58537 23.332C6.61599 22.9235 6.67793 22.4788 6.76911 22.01C6.86116 21.5371 6.97968 21.0902 7.12138 20.6816C7.2681 20.2589 7.46741 19.842 7.71362 19.4423C7.96899 19.0276 8.26953 18.6665 8.60639 18.3691C8.95917 18.0578 9.39085 17.8078 9.88949 17.6257C10.3866 17.4442 10.9375 17.3521 11.5271 17.3521C11.7586 17.3521 11.9827 17.4397 12.4145 17.6993C12.6846 17.8616 12.996 18.0466 13.3402 18.2494C13.6369 18.424 14.0393 18.5875 14.5359 18.7355C15.0214 18.8802 15.5136 18.9536 15.9996 18.9536C16.4856 18.9536 16.978 18.8802 17.463 18.7355C17.9601 18.5874 18.3625 18.4238 18.6596 18.2493C19.007 18.0446 19.3183 17.8595 19.5844 17.6995C20.0167 17.4399 20.2406 17.3523 20.4721 17.3523C21.0616 17.3523 21.6127 17.4442 22.1099 17.6256C22.6089 17.8079 23.0404 18.058 23.3928 18.3689C23.7299 18.6662 24.0302 19.0274 24.286 19.4423C24.5323 19.842 24.7316 20.2591 24.8782 20.6814C25.0201 21.09 25.1386 21.5371 25.2306 22.01Z"/>
</mask>
<path fill-rule="evenodd" clip-rule="evenodd" d="M19.8253 14.4156C18.7744 15.4666 17.4883 15.9993 16.0029 15.9993C14.518 15.9993 13.232 15.4665 12.1809 14.4157C11.1299 13.3649 10.597 12.0789 10.597 10.5934C10.597 9.10826 11.1299 7.82228 12.1808 6.7714C13.2317 5.72052 14.5175 5.1878 16.0029 5.1878C17.4881 5.1878 18.7741 5.72052 19.8251 6.77122C20.8762 7.82245 21.4089 9.10843 21.4089 10.5934C21.4089 12.0789 20.8762 13.3647 19.8253 14.4156ZM25.2306 22.01C25.3218 22.4794 25.3838 22.924 25.4144 23.3315C25.4326 23.5713 25.4455 23.3273 25.4528 23.1873C25.4577 23.0948 25.4602 23.0477 25.4602 23.2153C25.4602 24.3075 25.0839 25.1914 24.3417 25.8427C23.6086 26.4861 22.6392 26.8122 21.4599 26.8122H10.5404C9.36109 26.8122 8.39133 26.4859 7.65843 25.8427C6.91635 25.1909 6.54004 24.3072 6.54004 23.2155C6.54004 23.0497 6.54242 23.0957 6.54715 23.1872C6.5544 23.3272 6.56716 23.574 6.58537 23.332C6.61599 22.9235 6.67793 22.4788 6.76911 22.01C6.86116 21.5371 6.97968 21.0902 7.12138 20.6816C7.2681 20.2589 7.46741 19.842 7.71362 19.4423C7.96899 19.0276 8.26953 18.6665 8.60639 18.3691C8.95917 18.0578 9.39085 17.8078 9.88949 17.6257C10.3866 17.4442 10.9375 17.3521 11.5271 17.3521C11.7586 17.3521 11.9827 17.4397 12.4145 17.6993C12.6846 17.8616 12.996 18.0466 13.3402 18.2494C13.6369 18.424 14.0393 18.5875 14.5359 18.7355C15.0214 18.8802 15.5136 18.9536 15.9996 18.9536C16.4856 18.9536 16.978 18.8802 17.463 18.7355C17.9601 18.5874 18.3625 18.4238 18.6596 18.2493C19.007 18.0446 19.3183 17.8595 19.5844 17.6995C20.0167 17.4399 20.2406 17.3523 20.4721 17.3523C21.0616 17.3523 21.6127 17.4442 22.1099 17.6256C22.6089 17.8079 23.0404 18.058 23.3928 18.3689C23.7299 18.6662 24.0302 19.0274 24.286 19.4423C24.5323 19.842 24.7316 20.2591 24.8782 20.6814C25.0201 21.09 25.1386 21.5371 25.2306 22.01Z" fill="#D5D9EB"/>
<path d="M19.8253 14.4156L18.4492 13.0395L18.4491 13.0396L19.8253 14.4156ZM12.1809 14.4157L10.805 15.7919L10.8051 15.7921L12.1809 14.4157ZM12.1808 6.7714L10.8047 5.39531V5.39531L12.1808 6.7714ZM19.8251 6.77122L21.2013 5.39525L21.201 5.39492L19.8251 6.77122ZM25.4144 23.3315L23.4738 23.4773L23.4739 23.479L25.4144 23.3315ZM25.2306 22.01L27.141 21.639L27.1409 21.6382L25.2306 22.01ZM25.4528 23.1873L27.3962 23.2895V23.2895L25.4528 23.1873ZM25.4602 23.2153H27.4063V23.2145L25.4602 23.2153ZM24.3417 25.8427L23.0581 24.38L23.058 24.38L24.3417 25.8427ZM7.65843 25.8427L6.37417 27.3049L6.3748 27.3054L7.65843 25.8427ZM6.54715 23.1872L8.49063 23.0866L8.49063 23.0866L6.54715 23.1872ZM6.58537 23.332L8.52596 23.4779L8.526 23.4775L6.58537 23.332ZM6.76911 22.01L4.85888 21.6382L4.85884 21.6385L6.76911 22.01ZM7.12138 20.6816L5.28292 20.0434L5.28272 20.044L7.12138 20.6816ZM7.71362 19.4423L9.37056 20.4629L9.37069 20.4627L7.71362 19.4423ZM8.60639 18.3691L7.31879 16.9099L7.31839 16.9103L8.60639 18.3691ZM9.88949 17.6257L10.5569 19.4538L10.5572 19.4537L9.88949 17.6257ZM12.4145 17.6993L11.4119 19.3672L11.4123 19.3674L12.4145 17.6993ZM13.3402 18.2494L12.3521 19.9261L12.3534 19.9268L13.3402 18.2494ZM14.5359 18.7355L15.0918 16.8705L15.0914 16.8704L14.5359 18.7355ZM17.463 18.7355L16.9074 16.8704L16.9065 16.8706L17.463 18.7355ZM18.6596 18.2493L19.6455 19.9272L19.6475 19.9259L18.6596 18.2493ZM19.5844 17.6995L18.5826 16.031L18.5814 16.0317L19.5844 17.6995ZM22.1099 17.6256L22.778 15.7978L22.7769 15.7974L22.1099 17.6256ZM23.3928 18.3689L22.1053 19.8282L22.1056 19.8285L23.3928 18.3689ZM24.286 19.4423L22.6293 20.4635L22.6293 20.4635L24.286 19.4423ZM24.8782 20.6814L23.0397 21.3193L23.0398 21.3197L24.8782 20.6814ZM16.0029 17.9454C18.0045 17.9454 19.7857 17.2076 21.2015 15.7915L18.4491 13.0396C17.7631 13.7257 16.972 14.0533 16.0029 14.0533V17.9454ZM10.8051 15.7921C12.2207 17.2072 14.0014 17.9454 16.0029 17.9454V14.0533C15.0346 14.0533 14.2433 13.7257 13.5568 13.0394L10.8051 15.7921ZM8.65093 10.5934C8.65093 12.5954 9.38911 14.3763 10.805 15.7919L13.5569 13.0396C12.8707 12.3534 12.5431 11.5624 12.5431 10.5934H8.65093ZM10.8047 5.39531C9.38913 6.81087 8.65093 8.59173 8.65093 10.5934H12.5431C12.5431 9.6248 12.8707 8.83368 13.5569 8.14748L10.8047 5.39531ZM16.0029 3.24172C14.0011 3.24172 12.2204 3.97964 10.8047 5.39531L13.5569 8.14748C14.2429 7.46139 15.0338 7.13388 16.0029 7.13388V3.24172ZM21.201 5.39492C19.7852 3.97964 18.0045 3.24172 16.0029 3.24172V7.13388C16.9717 7.13388 17.7629 7.46139 18.4493 8.14753L21.201 5.39492ZM23.355 10.5934C23.355 8.59195 22.617 6.81114 21.2013 5.39525L18.4489 8.1472C19.1354 8.83375 19.4628 9.62491 19.4628 10.5934H23.355ZM21.2014 15.7917C22.617 14.376 23.355 12.5953 23.355 10.5934H19.4628C19.4628 11.5625 19.1353 12.3534 18.4492 13.0395L21.2014 15.7917ZM27.355 23.1856C27.3178 22.6906 27.2442 22.17 27.141 21.639L23.3203 22.3811C23.3995 22.7888 23.4497 23.1573 23.4738 23.4773L27.355 23.1856ZM23.5094 23.085C23.5035 23.198 23.502 23.1948 23.5084 23.147C23.5104 23.1316 23.515 23.0981 23.5234 23.0543C23.5287 23.0264 23.5491 22.9182 23.5964 22.7837C23.6182 22.7213 23.6729 22.5737 23.7785 22.4038C23.8457 22.2957 24.1457 21.8188 24.7905 21.5945C25.6713 21.2881 26.4031 21.68 26.7557 22.0088C27.0391 22.273 27.1668 22.5533 27.2029 22.6338C27.2929 22.8347 27.3255 23.0043 27.3305 23.0284C27.3422 23.0854 27.3481 23.1286 27.3503 23.1455C27.355 23.181 27.356 23.199 27.3549 23.1839L23.4739 23.479C23.4773 23.5239 23.4827 23.5868 23.4916 23.6543C23.4959 23.6872 23.5039 23.7432 23.5176 23.8101C23.5246 23.8441 23.5592 24.0206 23.6512 24.2259C23.6883 24.3085 23.817 24.5903 24.1013 24.8554C24.4548 25.1851 25.1876 25.5773 26.0693 25.2706C26.715 25.0459 27.016 24.5681 27.0841 24.4585C27.1906 24.2872 27.2461 24.1376 27.2689 24.0727C27.3179 23.9331 27.3401 23.8178 27.3471 23.781C27.3571 23.7283 27.3634 23.6842 27.367 23.6566C27.3861 23.5118 27.3948 23.3165 27.3962 23.2895L23.5094 23.085ZM27.4063 23.2145C27.4063 23.1719 27.4061 23.1285 27.4055 23.0923C27.4053 23.0807 27.4046 23.0381 27.4015 22.9888C27.4014 22.9862 27.3964 22.8846 27.3745 22.7621C27.3679 22.7252 27.3541 22.6536 27.3287 22.5653C27.314 22.5145 27.2496 22.2854 27.0845 22.0343C26.9824 21.8792 26.2489 20.8692 24.9441 21.2268C24.4496 21.3623 24.1462 21.6517 24.0084 21.8057C23.8611 21.9702 23.7742 22.1242 23.7311 22.2071C23.645 22.373 23.6032 22.5137 23.5891 22.5622C23.5701 22.6276 23.5584 22.6811 23.552 22.7118C23.5394 22.7734 23.5324 22.8224 23.5295 22.8436C23.5233 22.8897 23.52 22.9266 23.5188 22.9394C23.5161 22.9705 23.5144 22.9976 23.5137 23.0087C23.5121 23.0347 23.5104 23.0658 23.5094 23.085L27.3962 23.2895C27.3968 23.2775 27.3973 23.2685 27.3977 23.2607C27.3979 23.257 27.3981 23.2542 27.3982 23.2521C27.3983 23.25 27.3984 23.2492 27.3984 23.2495C27.3984 23.2496 27.3982 23.2522 27.3979 23.2566C27.3976 23.2603 27.3969 23.27 27.3958 23.2833C27.395 23.2917 27.392 23.3252 27.3861 23.3687C27.3834 23.3886 27.3766 23.4366 27.3641 23.4974C27.3579 23.5277 27.3462 23.5809 27.3273 23.646C27.3133 23.6942 27.2716 23.8346 27.1855 24.0004C27.1425 24.0833 27.0556 24.2372 26.9084 24.4016C26.7706 24.5556 26.4673 24.845 25.9728 24.9805C24.668 25.3381 23.9346 24.3282 23.8326 24.1731C23.6676 23.9222 23.6032 23.6932 23.5886 23.6427C23.5633 23.5546 23.5495 23.4833 23.543 23.4468C23.5297 23.372 23.5238 23.313 23.5217 23.2916C23.519 23.2634 23.5175 23.2409 23.5167 23.2281C23.5152 23.2025 23.5145 23.1835 23.5143 23.1771C23.5141 23.1689 23.514 23.1634 23.514 23.1622C23.5139 23.1613 23.5141 23.175 23.5142 23.2161L27.4063 23.2145ZM25.6252 27.3055C26.8361 26.2429 27.4063 24.8011 27.4063 23.2153H23.5142C23.5142 23.8138 23.3317 24.1399 23.0581 24.38L25.6252 27.3055ZM21.4599 28.7583C23.0081 28.7583 24.4665 28.3224 25.6253 27.3054L23.058 24.38C22.7507 24.6497 22.2702 24.8661 21.4599 24.8661V28.7583ZM10.5404 28.7583H21.4599V24.8661H10.5404V28.7583ZM6.3748 27.3054C7.53345 28.3222 8.99216 28.7583 10.5404 28.7583V24.8661C9.73003 24.8661 9.24921 24.6496 8.94205 24.38L6.3748 27.3054ZM4.59396 23.2155C4.59396 24.8012 5.16434 26.2423 6.37417 27.3049L8.94269 24.3806C8.66836 24.1396 8.48612 23.8131 8.48612 23.2155H4.59396ZM8.49063 23.0866C8.48964 23.0675 8.48808 23.0369 8.48652 23.0113C8.48586 23.0005 8.48421 22.9737 8.48154 22.9431C8.48045 22.9306 8.4772 22.8938 8.47102 22.8479C8.46821 22.827 8.46129 22.7773 8.44849 22.7149C8.44213 22.6838 8.43008 22.6286 8.41035 22.5609C8.39638 22.5129 8.35156 22.3615 8.25646 22.1844C8.20931 22.0966 8.10947 21.9253 7.93634 21.7474C7.76898 21.5755 7.40782 21.2704 6.84231 21.182C5.52217 20.9756 4.90049 22.0564 4.86419 22.1181C4.72922 22.3476 4.67535 22.5507 4.66207 22.6001C4.64026 22.6813 4.62829 22.7472 4.62245 22.7818C4.60302 22.8969 4.59852 22.9919 4.59831 22.9955C4.59553 23.0429 4.59488 23.0838 4.59469 23.0954C4.59409 23.1308 4.59396 23.1733 4.59396 23.2155H8.48612C8.48612 23.1748 8.48629 23.1608 8.48628 23.1611C8.48627 23.1622 8.48618 23.1673 8.48594 23.1751C8.48576 23.1812 8.4852 23.1993 8.48378 23.2236C8.48306 23.2358 8.48169 23.2571 8.47926 23.2838C8.47738 23.3043 8.47216 23.3594 8.46036 23.4293C8.45458 23.4636 8.44267 23.5291 8.42093 23.61C8.40772 23.6592 8.35392 23.8621 8.21902 24.0915C8.18278 24.1531 7.56118 25.2338 6.24111 25.0274C5.67564 24.939 5.31452 24.634 5.14719 24.4621C4.9741 24.2843 4.87429 24.113 4.82718 24.0253C4.73215 23.8483 4.68741 23.6971 4.67351 23.6494C4.65387 23.582 4.6419 23.5271 4.63561 23.4964C4.62297 23.4347 4.6162 23.386 4.61357 23.3664C4.60772 23.323 4.60482 23.2896 4.6041 23.2813C4.60296 23.2682 4.60228 23.2586 4.60203 23.255C4.60173 23.2507 4.60157 23.2481 4.60157 23.248C4.60155 23.2478 4.6016 23.2485 4.60172 23.2507C4.60184 23.2528 4.60199 23.2555 4.60219 23.2592C4.6026 23.2669 4.60306 23.2759 4.60368 23.2877L8.49063 23.0866ZM4.64478 23.186C4.64361 23.2015 4.64453 23.184 4.64907 23.1492C4.65123 23.1327 4.65703 23.09 4.66848 23.0335C4.67325 23.01 4.70529 22.8414 4.79419 22.6412C4.82939 22.562 4.95636 22.2799 5.24023 22.0137C5.59551 21.6806 6.33764 21.2833 7.22649 21.6019C7.86947 21.8323 8.16493 22.3128 8.22876 22.4172C8.33189 22.5858 8.38512 22.7319 8.40638 22.7934C8.45235 22.9263 8.47225 23.033 8.47739 23.0604C8.48547 23.1035 8.48997 23.1365 8.49193 23.1515C8.49796 23.1978 8.49644 23.199 8.49063 23.0866L4.60368 23.2877C4.60511 23.3154 4.6136 23.51 4.63237 23.6542C4.63592 23.6814 4.64206 23.7252 4.65182 23.7773C4.65864 23.8136 4.68027 23.9275 4.72799 24.0655C4.75014 24.1295 4.80426 24.2776 4.90829 24.4478C4.97302 24.5536 5.26941 25.035 5.91331 25.2658C6.80309 25.5847 7.54615 25.1871 7.90237 24.8531C8.18719 24.586 8.31512 24.3025 8.35129 24.221C8.44211 24.0165 8.47614 23.8409 8.48292 23.8074C8.4964 23.741 8.50426 23.6854 8.50853 23.6527C8.51728 23.5856 8.52258 23.5229 8.52596 23.4779L4.64478 23.186ZM4.85884 21.6385C4.75556 22.1694 4.68193 22.6904 4.64474 23.1865L8.526 23.4775C8.55006 23.1566 8.60031 22.7882 8.67939 22.3816L4.85884 21.6385ZM5.28272 20.044C5.10776 20.5485 4.96654 21.0851 4.85888 21.6382L8.67935 22.3818C8.75578 21.9891 8.8516 21.6319 8.96004 21.3192L5.28272 20.044ZM6.05667 18.4216C5.74003 18.9357 5.47837 19.4803 5.28292 20.0434L8.95984 21.3197C9.05783 21.0375 9.1948 20.7483 9.37056 20.4629L6.05667 18.4216ZM7.31839 16.9103C6.82637 17.3446 6.40452 17.8568 6.05655 18.4218L9.37069 20.4627C9.53347 20.1984 9.71268 19.9884 9.89439 19.828L7.31839 16.9103ZM9.22207 15.7977C8.52481 16.0523 7.8755 16.4187 7.31879 16.9099L9.89399 19.8283C10.0428 19.697 10.2569 19.5633 10.5569 19.4538L9.22207 15.7977ZM11.5271 15.406C10.7355 15.406 9.95577 15.5297 9.22177 15.7978L10.5572 19.4537C10.8174 19.3586 11.1394 19.2982 11.5271 19.2982V15.406ZM13.4171 16.0314C12.9616 15.7575 12.336 15.406 11.5271 15.406V19.2982C11.4574 19.2982 11.3847 19.2911 11.3147 19.2769C11.2479 19.2633 11.2031 19.2471 11.1867 19.2407C11.1727 19.2352 11.182 19.2378 11.2231 19.2593C11.2641 19.2808 11.3243 19.3145 11.4119 19.3672L13.4171 16.0314ZM14.3282 16.5728C13.9876 16.3721 13.681 16.1899 13.4168 16.0311L11.4123 19.3674C11.6882 19.5332 12.0045 19.7212 12.3521 19.9261L14.3282 16.5728ZM15.0914 16.8704C14.6779 16.7472 14.4382 16.6376 14.3269 16.5721L12.3534 19.9268C12.8355 20.2104 13.4008 20.4279 13.9803 20.6005L15.0914 16.8704ZM15.9996 17.0075C15.7099 17.0075 15.4048 16.9638 15.0918 16.8705L13.98 20.6004C14.638 20.7966 15.3173 20.8996 15.9996 20.8996V17.0075ZM16.9065 16.8706C16.5946 16.9637 16.2895 17.0075 15.9996 17.0075V20.8996C16.6818 20.8996 17.3614 20.7966 18.0195 20.6003L16.9065 16.8706ZM17.6737 16.5714C17.5615 16.6373 17.3214 16.747 16.9074 16.8704L18.0186 20.6005C18.5988 20.4277 19.1635 20.2103 19.6455 19.9272L17.6737 16.5714ZM18.5814 16.0317C18.3214 16.1881 18.0153 16.3701 17.6716 16.5726L19.6475 19.9259C19.9987 19.719 20.3151 19.5309 20.5873 19.3672L18.5814 16.0317ZM20.4721 15.4062C19.6632 15.4062 19.0377 15.7578 18.5826 16.031L20.5861 19.3679C20.674 19.3151 20.7344 19.2813 20.7756 19.2597C20.8169 19.2381 20.8264 19.2354 20.8124 19.2409C20.7962 19.2473 20.7514 19.2634 20.6845 19.277C20.6145 19.2913 20.5419 19.2983 20.4721 19.2983V15.4062ZM22.7769 15.7974C22.0428 15.5296 21.2632 15.4062 20.4721 15.4062V19.2983C20.86 19.2983 21.1825 19.3588 21.4429 19.4538L22.7769 15.7974ZM24.6804 16.9097C24.1241 16.4188 23.4751 16.0526 22.778 15.7978L21.4419 19.4534C21.7427 19.5633 21.9567 19.6971 22.1053 19.8282L24.6804 16.9097ZM25.9426 18.4211C25.5949 17.8571 25.1734 17.3445 24.6801 16.9094L22.1056 19.8285C22.2864 19.9879 22.4656 20.1978 22.6293 20.4635L25.9426 18.4211ZM26.7167 20.0435C26.5215 19.4807 26.2597 18.9356 25.9426 18.4211L22.6293 20.4635C22.805 20.7484 22.9418 21.0374 23.0397 21.3193L26.7167 20.0435ZM27.1409 21.6382C27.0332 21.0853 26.892 20.5482 26.7166 20.0431L23.0398 21.3197C23.1482 21.6319 23.2439 21.9889 23.3204 22.3818L27.1409 21.6382Z" fill="#D5D9EB" mask="url(#path-2-inside-1_2094_5452)"/>
<rect x="17.0772" y="20.077" width="6.84554" height="1.84554" rx="0.922772" fill="#2C3E5D" stroke="#2C3E5D" stroke-width="0.154455"/>
</svg>
