<svg width="24" height="24" viewBox="0 0 24 24" fill="none" xmlns="http://www.w3.org/2000/svg">
<path fill-rule="evenodd" clip-rule="evenodd" d="M15.9604 11.5C15.9604 13.9968 13.9519 16 11.5001 16C9.04828 16 7.03979 13.9968 7.03979 11.5C7.03979 9.00315 9.04828 7 11.5001 7C13.9519 7 15.9604 9.00315 15.9604 11.5ZM15.3089 16.7507C14.2409 17.5363 12.9243 18 11.5001 18C7.93218 18 5.03979 15.0899 5.03979 11.5C5.03979 7.91015 7.93218 5 11.5001 5C15.068 5 17.9604 7.91015 17.9604 11.5C17.9604 12.933 17.4995 14.2577 16.7188 15.3322L18.6697 17.2951C19.059 17.6868 19.0571 18.3199 18.6654 18.7093C18.2736 19.0986 17.6405 19.0967 17.2512 18.7049L15.3089 16.7507Z" fill="#091E42"/>
</svg>
