<svg width="19" height="19" viewBox="0 0 19 19" fill="none" xmlns="http://www.w3.org/2000/svg">
<mask id="mask0_10331_60179" style="mask-type:alpha" maskUnits="userSpaceOnUse" x="0" y="0" width="19" height="19">
<rect x="0.109619" y="0.251343" width="18.2378" height="18.4973" fill="#D9D9D9"/>
</mask>
<g mask="url(#mask0_10331_60179)">
<path d="M3.66629 16.9703V3.50263C3.66629 3.09112 3.81281 2.73884 4.10586 2.44579C4.39891 2.15275 4.75118 2.00623 5.1627 2.00623H14.1411C14.5526 2.00623 14.9049 2.15275 15.198 2.44579C15.491 2.73884 15.6375 3.09112 15.6375 3.50263V16.9703H3.66629ZM5.1627 15.4739H14.1411V3.50263H5.1627V15.4739ZM12.2706 10.6106C12.5824 10.6106 12.8474 10.5014 13.0656 10.2832C13.2838 10.065 13.3929 9.8 13.3929 9.48825C13.3929 9.1765 13.2838 8.91151 13.0656 8.69329C12.8474 8.47506 12.5824 8.36595 12.2706 8.36595C11.9589 8.36595 11.6939 8.47506 11.4757 8.69329C11.2574 8.91151 11.1483 9.1765 11.1483 9.48825C11.1483 9.8 11.2574 10.065 11.4757 10.2832C11.6939 10.5014 11.9589 10.6106 12.2706 10.6106Z" fill="#091E42"/>
</g>
</svg>
