<svg width="24" height="24" viewBox="0 0 24 24" fill="none" xmlns="http://www.w3.org/2000/svg">
<path d="M14.75 9.84615H16.125C16.4897 9.84615 16.8394 9.98798 17.0973 10.2404C17.3551 10.4929 17.5 10.8353 17.5 11.1923V17.6538C17.5 18.0109 17.3551 18.3533 17.0973 18.6057C16.8394 18.8582 16.4897 19 16.125 19H7.875C7.51033 19 7.16059 18.8582 6.90273 18.6057C6.64487 18.3533 6.5 18.0109 6.5 17.6538V11.1923C6.5 10.8353 6.64487 10.4929 6.90273 10.2404C7.16059 9.98798 7.51033 9.84615 7.875 9.84615H9.25M14.75 7.69231L12 5M12 5L9.25 7.69231M12 5V14.1875" stroke="black" stroke-linecap="round" stroke-linejoin="round"/>
</svg>
