<svg width="24" height="24" viewBox="0 0 24 24" fill="none" xmlns="http://www.w3.org/2000/svg">
<path d="M11.1 17.625C11.1 18.6562 10.29 19.5 9.3 19.5C8.31 19.5 7.5 18.6562 7.5 17.625C7.5 16.5938 8.31 15.75 9.3 15.75C10.29 15.75 11.1 16.5938 11.1 17.625ZM9.3 10.125C8.31 10.125 7.5 10.9688 7.5 12C7.5 13.0312 8.31 13.875 9.3 13.875C10.29 13.875 11.1 13.0312 11.1 12C11.1 10.9688 10.29 10.125 9.3 10.125ZM9.3 4.5C8.31 4.5 7.5 5.34375 7.5 6.375C7.5 7.40625 8.31 8.25 9.3 8.25C10.29 8.25 11.1 7.40625 11.1 6.375C11.1 5.34375 10.29 4.5 9.3 4.5ZM14.7 8.25C15.69 8.25 16.5 7.40625 16.5 6.375C16.5 5.34375 15.69 4.5 14.7 4.5C13.71 4.5 12.9 5.34375 12.9 6.375C12.9 7.40625 13.71 8.25 14.7 8.25ZM14.7 10.125C13.71 10.125 12.9 10.9688 12.9 12C12.9 13.0312 13.71 13.875 14.7 13.875C15.69 13.875 16.5 13.0312 16.5 12C16.5 10.9688 15.69 10.125 14.7 10.125ZM14.7 15.75C13.71 15.75 12.9 16.5938 12.9 17.625C12.9 18.6562 13.71 19.5 14.7 19.5C15.69 19.5 16.5 18.6562 16.5 17.625C16.5 16.5938 15.69 15.75 14.7 15.75Z" fill="#091E42"/>
</svg>
