<svg width="24" height="24" viewBox="0 0 24 24" fill="none" xmlns="http://www.w3.org/2000/svg">
<path d="M4 17C4 16.4469 4.44687 16 5 16H6.70937C7.09375 15.1156 7.975 14.5 9 14.5C10.025 14.5 10.9062 15.1156 11.2906 16H19C19.5531 16 20 16.4469 20 17C20 17.5531 19.5531 18 19 18H11.2906C10.9062 18.8844 10.025 19.5 9 19.5C7.975 19.5 7.09375 18.8844 6.70937 18H5C4.44687 18 4 17.5531 4 17ZM10 17C10 16.4469 9.55312 16 9 16C8.44688 16 8 16.4469 8 17C8 17.5531 8.44688 18 9 18C9.55312 18 10 17.5531 10 17ZM16 12C16 11.4469 15.5531 11 15 11C14.4469 11 14 11.4469 14 12C14 12.5531 14.4469 13 15 13C15.5531 13 16 12.5531 16 12ZM15 9.5C16.025 9.5 16.9062 10.1156 17.2906 11H19C19.5531 11 20 11.4469 20 12C20 12.5531 19.5531 13 19 13H17.2906C16.9062 13.8844 16.025 14.5 15 14.5C13.975 14.5 13.0938 13.8844 12.7094 13H5C4.44687 13 4 12.5531 4 12C4 11.4469 4.44687 11 5 11H12.7094C13.0938 10.1156 13.975 9.5 15 9.5ZM10 6C9.44688 6 9 6.44687 9 7C9 7.55312 9.44688 8 10 8C10.5531 8 11 7.55312 11 7C11 6.44687 10.5531 6 10 6ZM12.2906 6H19C19.5531 6 20 6.44687 20 7C20 7.55312 19.5531 8 19 8H12.2906C11.9062 8.88438 11.025 9.5 10 9.5C8.975 9.5 8.09375 8.88438 7.70937 8H5C4.44687 8 4 7.55312 4 7C4 6.44687 4.44687 6 5 6H7.70937C8.09375 5.11563 8.975 4.5 10 4.5C11.025 4.5 11.9062 5.11563 12.2906 6Z" fill="#091E42"/>
</svg>
