<svg width="24" height="25" viewBox="0 0 24 25" fill="none" xmlns="http://www.w3.org/2000/svg">
<path d="M19.8901 11.4102L16.5481 14.3261L17.5492 18.6674C17.6022 18.8943 17.5871 19.1318 17.5057 19.3502C17.4244 19.5686 17.2805 19.7582 17.092 19.8953C16.9035 20.0324 16.6787 20.1109 16.4458 20.121C16.2129 20.131 15.9823 20.0723 15.7826 19.952L11.9953 17.6554L8.21605 19.952C8.0164 20.0723 7.7857 20.131 7.55282 20.121C7.31993 20.1109 7.09518 20.0324 6.90666 19.8953C6.71815 19.7582 6.57423 19.5686 6.49292 19.3502C6.4116 19.1318 6.39648 18.8943 6.44946 18.6674L7.44909 14.3305L4.10635 11.4102C3.92955 11.2578 3.8017 11.0565 3.73885 10.8317C3.67599 10.6069 3.68092 10.3686 3.75301 10.1466C3.82511 9.92457 3.96116 9.72878 4.14411 9.58377C4.32706 9.43876 4.54877 9.35098 4.78142 9.33143L9.18753 8.94991L10.9074 4.84868C10.9973 4.63348 11.1487 4.44966 11.3428 4.32036C11.5369 4.19106 11.765 4.12207 11.9982 4.12207C12.2315 4.12207 12.4595 4.19106 12.6536 4.32036C12.8477 4.44966 12.9992 4.63348 13.089 4.84868L14.8141 8.94991L19.2187 9.33143C19.4514 9.35098 19.6731 9.43876 19.856 9.58377C20.039 9.72878 20.175 9.92457 20.2471 10.1466C20.3192 10.3686 20.3241 10.6069 20.2613 10.8317C20.1984 11.0565 20.0706 11.2578 19.8938 11.4102H19.8901Z" fill="#091E42"/>
</svg>
