<svg width="24" height="25" viewBox="0 0 24 25" fill="none" xmlns="http://www.w3.org/2000/svg">
<path d="M20.2513 10.149C20.1889 9.951 20.0688 9.77618 19.9062 9.64702C19.7437 9.51787 19.5463 9.44029 19.3393 9.42426L14.8504 9.03622C14.8233 9.03356 14.7973 9.02358 14.7754 9.00736C14.7535 8.99115 14.7364 8.96929 14.7258 8.94412L12.9721 4.76476C12.8909 4.57411 12.7554 4.41153 12.5825 4.29726C12.4096 4.18299 12.207 4.12207 11.9998 4.12207C11.7925 4.12207 11.5899 4.18299 11.417 4.29726C11.2441 4.41153 11.1086 4.57411 11.0274 4.76476L9.27366 8.94412C9.26315 8.96929 9.24602 8.99115 9.22409 9.00736C9.20215 9.02358 9.17624 9.03356 9.14909 9.03622L4.66021 9.42426C4.45324 9.44029 4.25579 9.51787 4.09327 9.64702C3.93075 9.77618 3.81059 9.951 3.74824 10.149C3.6822 10.3473 3.67644 10.5607 3.73166 10.7623C3.78689 10.9638 3.90064 11.1445 4.05852 11.2814L7.46406 14.2521C7.48491 14.2706 7.5004 14.2944 7.5089 14.321C7.5174 14.3476 7.5186 14.3759 7.51238 14.4031L6.48868 18.8203C6.44096 19.0236 6.45457 19.2366 6.5278 19.4322C6.60103 19.6279 6.73059 19.7974 6.90012 19.9195C7.06702 20.0426 7.267 20.1129 7.47424 20.1212C7.68149 20.1296 7.88647 20.0756 8.06273 19.9663L11.9212 17.6259C11.9439 17.6119 11.9701 17.6045 11.9967 17.6045C12.0234 17.6045 12.0495 17.6119 12.0722 17.6259L15.9307 19.9663C16.1088 20.0753 16.3152 20.1291 16.5239 20.121C16.7325 20.1128 16.9341 20.043 17.1031 19.9205C17.2722 19.7979 17.4011 19.6279 17.4737 19.4321C17.5462 19.2363 17.5592 19.0234 17.5108 18.8203L16.4901 14.4016C16.4839 14.3744 16.4851 14.346 16.4936 14.3195C16.5021 14.2929 16.5176 14.2691 16.5385 14.2506L19.944 11.2799C20.1011 11.1427 20.2141 10.9622 20.2687 10.7609C20.3234 10.5597 20.3173 10.3468 20.2513 10.149ZM19.3453 10.5959L15.9398 13.5666C15.7947 13.6929 15.6868 13.8564 15.6277 14.0394C15.5686 14.2225 15.5607 14.4182 15.6046 14.6054L16.6253 19.0241C16.6328 19.0538 16.6312 19.0851 16.6205 19.1138C16.6099 19.1425 16.5907 19.1673 16.5656 19.1849C16.5429 19.2031 16.515 19.2135 16.486 19.2148C16.4569 19.216 16.4282 19.2079 16.4041 19.1917L12.5456 16.8514C12.3811 16.7514 12.1923 16.6985 11.9998 16.6985C11.8072 16.6985 11.6184 16.7514 11.4539 16.8514L7.59542 19.1917C7.57127 19.2079 7.54259 19.216 7.51353 19.2148C7.48447 19.2135 7.45656 19.2031 7.43386 19.1849C7.40878 19.1673 7.38965 19.1425 7.379 19.1138C7.36834 19.0851 7.36668 19.0538 7.37422 19.0241L8.3949 14.6054C8.43885 14.4182 8.43085 14.2225 8.37179 14.0394C8.31272 13.8564 8.20482 13.6929 8.05971 13.5666L4.65417 10.5959C4.63088 10.5761 4.61415 10.5497 4.6062 10.5202C4.59824 10.4907 4.59944 10.4594 4.60963 10.4306C4.61725 10.4019 4.63378 10.3763 4.65684 10.3576C4.6799 10.3389 4.70831 10.328 4.73797 10.3264L9.2276 9.93838C9.41981 9.922 9.60387 9.85334 9.75983 9.73982C9.9158 9.62631 10.0377 9.47227 10.1124 9.29441L11.8661 5.11506C11.8783 5.08912 11.8976 5.06718 11.9218 5.05182C11.946 5.03646 11.9741 5.0283 12.0028 5.0283C12.0314 5.0283 12.0595 5.03646 12.0837 5.05182C12.1079 5.06718 12.1272 5.08912 12.1394 5.11506L13.8871 9.29441C13.9615 9.47185 14.083 9.6256 14.2384 9.73908C14.3938 9.85256 14.5772 9.92147 14.7689 9.93838L19.2585 10.3264C19.2882 10.328 19.3166 10.3389 19.3396 10.3576C19.3627 10.3763 19.3792 10.4019 19.3869 10.4306C19.3974 10.4591 19.3991 10.4902 19.3917 10.5197C19.3842 10.5492 19.3681 10.5758 19.3453 10.5959Z" fill="#091E42"/>
</svg>
