<svg width="12" height="12" viewBox="0 0 12 12" fill="none" xmlns="http://www.w3.org/2000/svg">
<path d="M5.97 9.6C6.18 9.6 6.3575 9.5275 6.5025 9.3825C6.6475 9.2375 6.72 9.06 6.72 8.85C6.72 8.64 6.6475 8.4625 6.5025 8.3175C6.3575 8.1725 6.18 8.1 5.97 8.1C5.76 8.1 5.5825 8.1725 5.4375 8.3175C5.2925 8.4625 5.22 8.64 5.22 8.85C5.22 9.06 5.2925 9.2375 5.4375 9.3825C5.5825 9.5275 5.76 9.6 5.97 9.6ZM6 12C5.17 12 4.39 11.8425 3.66 11.5275C2.93 11.2125 2.295 10.785 1.755 10.245C1.215 9.705 0.7875 9.07 0.4725 8.34C0.1575 7.61 0 6.83 0 6C0 5.17 0.1575 4.39 0.4725 3.66C0.7875 2.93 1.215 2.295 1.755 1.755C2.295 1.215 2.93 0.7875 3.66 0.4725C4.39 0.1575 5.17 0 6 0C6.83 0 7.61 0.1575 8.34 0.4725C9.07 0.7875 9.705 1.215 10.245 1.755C10.785 2.295 11.2125 2.93 11.5275 3.66C11.8425 4.39 12 5.17 12 6C12 6.83 11.8425 7.61 11.5275 8.34C11.2125 9.07 10.785 9.705 10.245 10.245C9.705 10.785 9.07 11.2125 8.34 11.5275C7.61 11.8425 6.83 12 6 12ZM6 10.8C7.34 10.8 8.475 10.335 9.405 9.405C10.335 8.475 10.8 7.34 10.8 6C10.8 4.66 10.335 3.525 9.405 2.595C8.475 1.665 7.34 1.2 6 1.2C4.66 1.2 3.525 1.665 2.595 2.595C1.665 3.525 1.2 4.66 1.2 6C1.2 7.34 1.665 8.475 2.595 9.405C3.525 10.335 4.66 10.8 6 10.8ZM6.06 3.42C6.31 3.42 6.5275 3.5 6.7125 3.66C6.8975 3.82 6.99 4.02 6.99 4.26C6.99 4.48 6.9225 4.675 6.7875 4.845C6.6525 5.015 6.5 5.175 6.33 5.325C6.1 5.525 5.8975 5.745 5.7225 5.985C5.5475 6.225 5.46 6.495 5.46 6.795C5.46 6.935 5.5125 7.0525 5.6175 7.1475C5.7225 7.2425 5.845 7.29 5.985 7.29C6.135 7.29 6.2625 7.24 6.3675 7.14C6.4725 7.04 6.54 6.915 6.57 6.765C6.61 6.555 6.7 6.3675 6.84 6.2025C6.98 6.0375 7.13 5.88 7.29 5.73C7.52 5.51 7.7175 5.27 7.8825 5.01C8.0475 4.75 8.13 4.46 8.13 4.14C8.13 3.63 7.9225 3.2125 7.5075 2.8875C7.0925 2.5625 6.61 2.4 6.06 2.4C5.68 2.4 5.3175 2.48 4.9725 2.64C4.6275 2.8 4.365 3.045 4.185 3.375C4.115 3.495 4.0925 3.6225 4.1175 3.7575C4.1425 3.8925 4.21 3.995 4.32 4.065C4.46 4.145 4.605 4.17 4.755 4.14C4.905 4.11 5.03 4.025 5.13 3.885C5.24 3.735 5.3775 3.62 5.5425 3.54C5.7075 3.46 5.88 3.42 6.06 3.42Z" fill="#B3B9C4"/>
</svg>
