<svg width="19" height="18" viewBox="0 0 19 18" fill="none" xmlns="http://www.w3.org/2000/svg">
<path d="M14.7266 0C12.8539 0 11.3281 1.51523 11.3281 3.375C11.3281 5.23477 12.8539 6.75 14.7266 6.75C16.5992 6.75 18.125 5.23477 18.125 3.375C18.125 1.51523 16.5992 0 14.7266 0ZM14.7266 4.5C14.1 4.5 13.5938 3.99727 13.5938 3.375C13.5938 2.75273 14.1 2.25 14.7266 2.25C15.3531 2.25 15.8594 2.75273 15.8594 3.375C15.8594 3.99727 15.3531 4.5 14.7266 4.5ZM9.0625 3.9375C9.0625 1.76133 7.28894 0 5.09766 0C2.90637 0 1.13281 1.76133 1.13281 3.9375V9.79102C0.435425 10.6594 0 11.7422 0 12.9375C0 15.7324 2.28333 18 5.09766 18C7.91199 18 10.1953 15.7324 10.1953 12.9375C10.1953 11.7422 9.75989 10.6559 9.0625 9.79102V3.9375ZM5.09766 15.75C3.5365 15.75 2.26562 14.4879 2.26562 12.9375C2.26562 12.041 2.69751 11.2184 3.39844 10.6945V3.9375C3.39844 3.00586 4.15955 2.25 5.09766 2.25C6.03577 2.25 6.79688 3.00586 6.79688 3.9375V10.6945C7.4978 11.2148 7.92969 12.041 7.92969 12.9375C7.92969 14.4879 6.65881 15.75 5.09766 15.75ZM5.66406 11.352V10.6875C5.66406 10.3781 5.40918 10.125 5.09766 10.125C4.78613 10.125 4.53125 10.3781 4.53125 10.6875V11.352C3.8728 11.584 3.39844 12.2027 3.39844 12.9375C3.39844 13.8691 4.15955 14.625 5.09766 14.625C6.03577 14.625 6.79688 13.8691 6.79688 12.9375C6.79688 12.2027 6.32251 11.584 5.66406 11.352Z" fill="#2C3E5D"/>
</svg>
