<svg width="25" height="24" viewBox="0 0 25 24" fill="none" xmlns="http://www.w3.org/2000/svg">
<path d="M20.8862 5.34906H3.35812C2.01774 5.34906 0.931152 6.48947 0.931152 7.89623V16.1038C0.931152 17.5105 2.01774 18.6509 3.35812 18.6509H20.8862C22.2266 18.6509 23.3132 17.5105 23.3132 16.1038V7.89623C23.3132 6.48947 22.2266 5.34906 20.8862 5.34906Z" stroke="#091E42"/>
<path d="M3.95459 9.52508H6.1368V15.8098H7.40544V9.52508H9.58763V8.39984H3.95459V9.52508ZM11.0554 15.8894C11.4622 15.8894 11.8103 15.5348 11.8138 15.0934C11.8103 14.6592 11.4622 14.3046 11.0554 14.3046C10.6348 14.3046 10.2935 14.6592 10.2969 15.0934C10.2935 15.5348 10.6348 15.8894 11.0554 15.8894ZM13.8711 15.8894C14.2779 15.8894 14.626 15.5348 14.6295 15.0934C14.626 14.6592 14.2779 14.3046 13.8711 14.3046C13.4504 14.3046 13.1091 14.6592 13.1126 15.0934C13.1091 15.5348 13.4504 15.8894 13.8711 15.8894ZM16.6866 15.8894C17.0934 15.8894 17.4417 15.5348 17.4451 15.0934C17.4417 14.6592 17.0934 14.3046 16.6866 14.3046C16.2661 14.3046 15.9248 14.6592 15.9282 15.0934C15.9248 15.5348 16.2661 15.8894 16.6866 15.8894Z" fill="#091E42"/>
</svg>
