<svg width="24" height="24" viewBox="0 0 24 24" fill="none" xmlns="http://www.w3.org/2000/svg">
<path d="M12 5C11.6022 5 11.2206 5.15804 10.9393 5.43934C10.658 5.72064 10.5 6.10218 10.5 6.5C10.5 6.89782 10.658 7.27936 10.9393 7.56066C11.2206 7.84196 11.6022 8 12 8C12.3978 8 12.7794 7.84196 13.0607 7.56066C13.342 7.27936 13.5 6.89782 13.5 6.5C13.5 6.10218 13.342 5.72064 13.0607 5.43934C12.7794 5.15804 12.3978 5 12 5ZM9.5 6.5C9.5 5.83696 9.76339 5.20107 10.2322 4.73223C10.7011 4.26339 11.337 4 12 4C12.663 4 13.2989 4.26339 13.7678 4.73223C14.2366 5.20107 14.5 5.83696 14.5 6.5C14.5 7.16304 14.2366 7.79893 13.7678 8.26777C13.2989 8.73661 12.663 9 12 9C11.337 9 10.7011 8.73661 10.2322 8.26777C9.76339 7.79893 9.5 7.16304 9.5 6.5ZM17.5 6C17.2348 6 16.9804 6.10536 16.7929 6.29289C16.6054 6.48043 16.5 6.73478 16.5 7C16.5 7.26522 16.6054 7.51957 16.7929 7.70711C16.9804 7.89464 17.2348 8 17.5 8C17.7652 8 18.0196 7.89464 18.2071 7.70711C18.3946 7.51957 18.5 7.26522 18.5 7C18.5 6.73478 18.3946 6.48043 18.2071 6.29289C18.0196 6.10536 17.7652 6 17.5 6ZM15.5 7C15.5 6.46957 15.7107 5.96086 16.0858 5.58579C16.4609 5.21071 16.9696 5 17.5 5C18.0304 5 18.5391 5.21071 18.9142 5.58579C19.2893 5.96086 19.5 6.46957 19.5 7C19.5 7.53043 19.2893 8.03914 18.9142 8.41421C18.5391 8.78929 18.0304 9 17.5 9C16.9696 9 16.4609 8.78929 16.0858 8.41421C15.7107 8.03914 15.5 7.53043 15.5 7ZM5.5 7C5.5 6.73478 5.60536 6.48043 5.79289 6.29289C5.98043 6.10536 6.23478 6 6.5 6C6.76522 6 7.01957 6.10536 7.20711 6.29289C7.39464 6.48043 7.5 6.73478 7.5 7C7.5 7.26522 7.39464 7.51957 7.20711 7.70711C7.01957 7.89464 6.76522 8 6.5 8C6.23478 8 5.98043 7.89464 5.79289 7.70711C5.60536 7.51957 5.5 7.26522 5.5 7ZM6.5 5C5.96957 5 5.46086 5.21071 5.08579 5.58579C4.71071 5.96086 4.5 6.46957 4.5 7C4.5 7.53043 4.71071 8.03914 5.08579 8.41421C5.46086 8.78929 5.96957 9 6.5 9C7.03043 9 7.53914 8.78929 7.91421 8.41421C8.28929 8.03914 8.5 7.53043 8.5 7C8.5 6.46957 8.28929 5.96086 7.91421 5.58579C7.53914 5.21071 7.03043 5 6.5 5ZM7.1 16.998C6.82923 17.0116 6.55854 16.9699 6.30436 16.8756C6.05018 16.7813 5.81783 16.6363 5.62141 16.4495C5.425 16.2626 5.26863 16.0377 5.16181 15.7886C5.05498 15.5394 4.99993 15.2711 5 15V11.25C5 11.1837 5.02634 11.1201 5.07322 11.0732C5.12011 11.0263 5.1837 11 5.25 11H7.014C7.054 10.633 7.184 10.292 7.379 10H5.25C4.56 10 4 10.56 4 11.25V15C3.99995 15.4281 4.09154 15.8513 4.2686 16.2411C4.44566 16.6309 4.7041 16.9782 5.02655 17.2599C5.34901 17.5415 5.728 17.7508 6.13807 17.8738C6.54813 17.9968 6.97978 18.0307 7.404 17.973C7.26941 17.6593 7.16754 17.3326 7.1 16.998ZM16.596 17.973C17.0202 18.0307 17.4519 17.9968 17.8619 17.8738C18.272 17.7508 18.651 17.5415 18.9734 17.2599C19.2959 16.9782 19.5543 16.6309 19.7314 16.2411C19.9085 15.8513 20 15.4281 20 15V11.25C20 10.56 19.44 10 18.75 10H16.621C16.817 10.292 16.946 10.633 16.986 11H18.75C18.8163 11 18.8799 11.0263 18.9268 11.0732C18.9737 11.1201 19 11.1837 19 11.25V15C19.0001 15.2711 18.945 15.5394 18.8382 15.7886C18.7314 16.0377 18.575 16.2626 18.3786 16.4495C18.1822 16.6363 17.9498 16.7813 17.6956 16.8756C17.4415 16.9699 17.1708 17.0116 16.9 16.998C16.8324 17.3326 16.7306 17.6593 16.596 17.973ZM9.25 10C8.56 10 8 10.56 8 11.25V16C8 17.0609 8.42143 18.0783 9.17157 18.8284C9.92172 19.5786 10.9391 20 12 20C13.0609 20 14.0783 19.5786 14.8284 18.8284C15.5786 18.0783 16 17.0609 16 16V11.25C16 10.56 15.44 10 14.75 10H9.25ZM9 11.25C9 11.1837 9.02634 11.1201 9.07322 11.0732C9.12011 11.0263 9.1837 11 9.25 11H14.75C14.8163 11 14.8799 11.0263 14.9268 11.0732C14.9737 11.1201 15 11.1837 15 11.25V16C15 16.7956 14.6839 17.5587 14.1213 18.1213C13.5587 18.6839 12.7956 19 12 19C11.2044 19 10.4413 18.6839 9.87868 18.1213C9.31607 17.5587 9 16.7956 9 16V11.25Z" fill="#091E42"/>
</svg>
