<svg width="60" height="44" viewBox="0 0 60 44" fill="none" xmlns="http://www.w3.org/2000/svg">
<path d="M27.943 21.7821C28.9536 21.9993 29.9698 22.2007 30.9747 22.4384C32.2594 22.7423 33.4927 23.1562 34.6991 23.6569C35.6528 24.0521 36.5347 24.5229 37.3103 25.1307C38.2165 25.8402 38.7497 26.7072 38.5241 27.8175C38.2146 28.5736 37.6608 29.1646 36.9421 29.6596C35.5707 30.6021 33.9859 31.1801 32.3423 31.6136C30.1161 32.2009 27.8396 32.6149 25.5183 32.8218C23.3703 33.0129 21.2178 33.1015 19.0578 33.0763C16.2545 33.0437 13.468 32.8395 10.7169 32.3762C8.30143 31.9688 5.92792 31.4384 3.70357 30.4679C2.7564 30.0549 1.8978 29.5673 1.11284 28.9567C0.660699 28.6043 0.43323 28.1214 0.0659224 27.7215C-0.185786 26.5105 0.293392 25.5708 1.33099 24.7401C2.5597 23.7566 4.05782 23.2756 5.56341 22.7749C5.80207 22.6957 6.03886 22.6137 6.27751 22.5326C6.47049 22.4981 6.66626 22.4748 6.85551 22.4291C9.37445 21.8231 11.9326 21.384 14.5429 21.247C16.5761 21.1398 18.6121 21.0074 20.6528 21.1444C22.288 21.2544 23.9269 21.3206 25.5565 21.5006C26.3526 21.5873 27.1338 21.7774 27.943 21.7821ZM5.10474 28.2109C5.75918 28.4654 6.4304 28.7386 7.14171 28.9287C9.64015 29.5972 12.2113 29.9151 14.803 30.1118C17.0916 30.2861 19.3868 30.3234 21.6848 30.2665C25.1118 30.1817 28.5098 29.916 31.8147 29.0686C32.5428 28.8821 33.2448 28.6155 33.8731 28.2351C34.81 27.6683 34.8212 27.0148 33.9906 26.3464C33.3846 25.8588 32.6323 25.6472 31.8995 25.4235C29.4906 24.6879 26.9763 24.3728 24.448 24.164C22.0093 23.9626 19.563 23.8759 17.1112 23.944C13.5062 24.0437 9.92169 24.26 6.46303 25.2463C5.68181 25.4692 4.93507 25.7637 4.33004 26.2765C3.89002 26.6494 3.82476 27.0978 4.20232 27.5164C4.44657 27.7886 4.74676 28.0123 5.10474 28.2109Z" fill="#FFCF85"/>
<path d="M0.0644296 27.7203C0.431737 28.1193 0.659206 28.6031 1.11135 28.9555C1.89537 29.5661 2.75491 30.0537 3.70208 30.4667C5.92643 31.4372 8.29994 31.9676 10.7154 32.375C13.4674 32.8393 16.253 33.0425 19.0563 33.0751C21.2163 33.1003 23.3679 33.0127 25.5168 32.8206C27.8381 32.6137 30.1146 32.1997 32.3408 31.6124C33.9844 31.1789 35.5692 30.6009 36.9406 29.6584C37.6593 29.1643 38.2131 28.5724 38.5226 27.8163C38.517 29.1522 38.5189 30.4881 38.5021 31.824C38.4946 32.4132 38.5711 33.0099 38.2765 33.5757C37.9987 34.1099 37.6174 34.5593 37.0897 34.935C36.4027 35.4244 35.6876 35.8616 34.8682 36.1637C34.8831 35.7675 34.9055 35.3722 34.9101 34.976C34.9139 34.6469 35.036 34.2283 34.8523 34.012C34.6323 33.7529 34.1149 33.9468 33.7308 33.902C33.6861 33.8964 33.6395 33.902 33.5947 33.8955C33.3635 33.8629 33.2582 33.9393 33.2591 34.15C33.2619 35.0329 33.2554 35.9157 33.2526 36.7995C31.8626 37.2945 30.3859 37.5089 28.9381 37.8175C28.9391 37.3048 28.9307 36.7911 28.9419 36.2783C28.9614 35.3601 28.9661 35.3601 27.9276 35.3219C27.8064 35.3172 27.6852 35.3107 27.5631 35.3116C27.385 35.3125 27.2824 35.3759 27.2834 35.5493C27.2871 36.3921 27.2843 37.2348 27.2843 38.0785C25.8636 38.2892 24.4335 38.4281 22.9913 38.4589C22.9176 37.8016 22.9726 37.1435 22.9801 36.4862C22.9866 35.9287 22.9988 35.9278 22.3853 35.9064C22.128 35.898 21.8698 35.8999 21.6125 35.8943C21.4251 35.8905 21.3254 35.966 21.33 36.131C21.3543 36.9337 21.2415 37.7373 21.3412 38.5391C20.6364 38.5624 19.8981 38.5689 19.128 38.5549C18.3664 38.5409 17.6355 38.5074 16.94 38.4589C16.9867 37.178 17.0165 36.2522 17.023 36.0835C17.024 36.0565 17.0267 35.98 16.9783 35.9222C16.9345 35.8709 16.858 35.8467 16.7452 35.8486C16.3844 35.8542 16.0945 35.7805 15.6992 35.8374C15.6657 35.8421 15.5967 35.8532 15.5585 35.9054C15.5062 35.9763 15.5389 36.0798 15.5445 36.1003C15.5808 36.2355 15.5463 36.8414 15.3571 38.389C14.6532 38.3517 13.913 38.2929 13.1402 38.2081C12.3944 38.1251 11.684 38.0254 11.0119 37.9126C11.0314 37.3337 11.0557 36.7547 11.0687 36.1758C11.092 35.0757 11.0892 35.0785 9.81392 35.1251C9.66382 35.1307 9.55755 35.1447 9.49415 35.21C9.41305 35.293 9.42237 35.4207 9.4233 35.4626C9.43449 35.7255 9.38601 36.5077 9.30211 37.6413C8.55724 37.4893 7.77788 37.3094 6.96775 37.0941C6.30119 36.9169 5.66446 36.7296 5.0585 36.5356C5.07342 36.3268 5.15825 35.1568 5.1424 34.3048C5.13961 34.1724 5.13215 33.9431 4.97553 33.7874C4.7984 33.6121 4.51407 33.6074 4.35465 33.6046C4.15888 33.6019 4.03116 33.6475 3.98641 33.6662C3.98641 33.6662 3.89412 33.7035 3.80928 33.7631C3.63029 33.889 3.483 34.7373 3.49418 35.8961C3.06535 35.7227 1.92986 35.238 1.07033 34.5136C0.703021 34.2032 0.501655 33.9468 0.356224 33.6969C0.152993 33.3473 0.064429 33.0201 0.0215454 32.8001C0.0355292 31.1062 0.0504458 29.4132 0.0644296 27.7203Z" fill="#FFA81E"/>
<path d="M5.10382 28.2099C4.74584 28.0123 4.44565 27.7876 4.2014 27.5173C4.03173 27.3289 3.95156 27.135 3.95436 26.9449C3.95436 26.9449 3.95808 26.6102 4.32912 26.2774C7.81015 23.1515 18.9757 23.1599 18.9757 23.1599C18.9757 23.1599 30.1245 23.1683 33.9896 26.3463C34.1584 26.4853 34.6264 26.8712 34.5928 27.342C34.5704 27.6552 34.3336 27.9554 33.8722 28.2351C33.2438 28.6145 32.5419 28.8811 31.8138 29.0685C28.5089 29.9159 25.1109 30.1816 21.6839 30.2665C19.3868 30.3233 17.0907 30.286 14.802 30.1117C12.2104 29.915 9.63923 29.5971 7.14079 28.9287C6.42948 28.7376 5.75826 28.4644 5.10382 28.2099Z" fill="#FFA81E"/>
<path d="M18.2831 26.3178C18.038 26.3178 17.7984 26.3001 17.5933 26.2665C17.3891 26.233 17.2288 26.1863 17.1337 26.1313L14.8366 24.8085L16.2751 24.8113C16.441 24.8113 16.6032 24.8243 16.7393 24.8476C16.8754 24.8709 16.9799 24.9036 17.0377 24.9418L18.2915 25.7724L19.5119 24.9614C19.5762 24.9194 19.6927 24.8831 19.8447 24.8569C19.9966 24.8308 20.1784 24.8178 20.3639 24.8178L21.7343 24.8197L19.427 26.1351C19.3319 26.1891 19.1725 26.2357 18.9683 26.2684C18.766 26.301 18.5265 26.3187 18.2831 26.3178Z" fill="#FFA81E"/>
<path d="M19.5518 28.0768C19.7802 28.0572 20.0281 28.0544 20.264 28.0684C20.4999 28.0824 20.7143 28.1132 20.8802 28.157L24.8992 29.2114L23.5483 29.3288C23.3917 29.3428 23.222 29.3438 23.0608 29.3335C22.9004 29.3232 22.7559 29.3009 22.6487 29.2692L20.3097 28.5905L20.3078 29.4566C20.3069 29.5022 20.25 29.5461 20.1428 29.5824C20.0356 29.6197 19.8855 29.6477 19.7102 29.6626L18.4219 29.7745L18.736 28.3434C18.7491 28.2838 18.833 28.2269 18.9784 28.1803C19.1229 28.1328 19.3224 28.0964 19.5518 28.0768Z" fill="#FFA81E"/>
<path d="M17.0079 28.0738C17.2372 28.0943 17.4367 28.1307 17.5812 28.1791C17.7267 28.2267 17.8106 28.2845 17.8227 28.3432L18.1294 29.7751L16.7795 29.654C16.6238 29.64 16.4896 29.6139 16.3954 29.5803C16.3003 29.5467 16.249 29.5076 16.249 29.4675L16.2379 28.5847L13.9371 29.2438C13.8168 29.2783 13.6555 29.3025 13.4765 29.3137C13.2966 29.3249 13.1074 29.3221 12.9321 29.3072L11.6447 29.1906L15.6692 28.1493C15.8361 28.1064 16.0533 28.0757 16.291 28.0626C16.5278 28.0486 16.7776 28.0523 17.0079 28.0738Z" fill="#FFA81E"/>
<path d="M21.5223 27.676C21.6444 27.6248 21.8262 27.5837 22.0444 27.5576C22.2625 27.5315 22.5086 27.5213 22.751 27.5287L28.599 27.7124L27.8793 28.0144C27.7964 28.0499 27.6705 28.0778 27.5195 28.0946C27.3685 28.1114 27.1997 28.117 27.0347 28.1105L23.4586 27.9538L25.7445 28.6213C25.8638 28.6558 25.9365 28.6987 25.9524 28.7444C25.9682 28.7891 25.9272 28.8348 25.834 28.874L25.1488 29.162L21.6053 28.0107C21.458 27.9632 21.3722 27.9063 21.3573 27.8466C21.3433 27.786 21.4002 27.7273 21.5223 27.676Z" fill="#FFA81E"/>
<path d="M15.0374 27.6658C15.1595 27.7171 15.2173 27.7767 15.2024 27.8355C15.1875 27.8951 15.1017 27.9511 14.9544 27.9986L11.4128 29.1388L10.694 28.8349C10.611 28.7994 10.5747 28.7593 10.5887 28.7183C10.6026 28.6782 10.6679 28.64 10.7742 28.6083L13.1002 27.9334L9.59209 28.0779C9.4075 28.0853 9.21826 28.0797 9.04859 28.0601C8.87892 28.0406 8.73815 28.0089 8.64492 27.9688L7.95972 27.6798L13.8087 27.5148C14.051 27.5083 14.2972 27.5185 14.5153 27.5455C14.7335 27.5717 14.9152 27.6136 15.0374 27.6658Z" fill="#FFA81E"/>
<path d="M21.916 27.0625C21.8731 27.0037 21.902 26.9441 21.9999 26.8891C22.0968 26.835 22.2581 26.7884 22.4632 26.7567L27.4069 25.9829L27.6558 26.3278C27.6838 26.3679 27.6614 26.4089 27.5915 26.4453C27.5216 26.4817 27.4069 26.5124 27.2634 26.5329L24.1245 26.972L27.6316 27.1286C27.8143 27.137 27.983 27.1585 28.1136 27.1911C28.2441 27.2237 28.3326 27.2648 28.3643 27.3086L28.603 27.6367L22.8603 27.3039C22.6226 27.2899 22.4063 27.2601 22.2385 27.2172C22.0707 27.1753 21.9588 27.1212 21.916 27.0625Z" fill="#FFA81E"/>
<path d="M14.6459 27.0496C14.604 27.1084 14.4921 27.1624 14.3243 27.2053C14.1565 27.2482 13.9402 27.278 13.7016 27.2911L7.95703 27.6043L8.20781 27.2603C8.23577 27.2202 8.31408 27.1839 8.43155 27.155C8.54901 27.1261 8.70004 27.1074 8.86411 27.1L12.4402 26.949L9.35914 26.5136C9.19879 26.4903 9.07014 26.4567 8.99183 26.4148C8.91352 26.3738 8.88835 26.3281 8.92005 26.2833L9.15777 25.9533L14.1006 26.7429C14.3047 26.7756 14.466 26.8222 14.563 26.8762C14.659 26.9312 14.6879 26.9918 14.6459 27.0496Z" fill="#FFA81E"/>
<path d="M20.697 26.5112C20.5096 26.473 20.3735 26.4217 20.3045 26.3648C20.2355 26.308 20.2364 26.2474 20.3082 26.1905L22.0329 24.822L23.1329 25.0504C23.2597 25.0765 23.352 25.111 23.3968 25.1501C23.4415 25.1893 23.4368 25.2303 23.3828 25.2685L22.1447 26.0973L25.2296 25.6694C25.3908 25.647 25.5773 25.6377 25.7619 25.6414C25.9474 25.6461 26.1236 25.6638 26.2662 25.6927L27.3141 25.909L22.0608 26.5513C21.8436 26.5774 21.5984 26.5886 21.3551 26.5811C21.1127 26.5737 20.8834 26.5494 20.697 26.5112Z" fill="#FFA81E"/>
<path d="M15.8679 26.5014C15.6806 26.5397 15.4522 26.563 15.2088 26.5695C14.9665 26.576 14.7213 26.5648 14.5041 26.5378L9.25269 25.8787L10.3546 25.6559C10.4823 25.6298 10.6408 25.6139 10.8067 25.6111C10.9736 25.6074 11.1405 25.6167 11.285 25.6372L14.4332 26.081L13.2185 25.2653C13.1551 25.2224 13.1467 25.1767 13.1942 25.1329C13.2418 25.0891 13.3434 25.0509 13.4851 25.021L14.5395 24.8085L16.2642 26.1826C16.335 26.2395 16.3341 26.3001 16.2642 26.3569C16.1942 26.4138 16.0563 26.4642 15.8679 26.5014Z" fill="#FFA81E"/>
<path d="M19.4647 26.1194C19.1971 26.1194 18.9352 26.1017 18.7124 26.0681C18.4895 26.0345 18.3143 25.9879 18.2108 25.9329L15.704 24.6091L17.2739 24.6119C17.4557 24.6119 17.6319 24.625 17.781 24.6483C17.9302 24.6716 18.043 24.7042 18.1064 24.7424L19.4759 25.574L20.8081 24.763C20.878 24.721 21.0048 24.6846 21.1716 24.6585C21.3376 24.6334 21.5361 24.6194 21.7384 24.6194L23.2338 24.6222L20.7148 25.9376C20.6104 25.9917 20.437 26.0383 20.2142 26.0709C19.9914 26.1035 19.7304 26.1203 19.4647 26.1194Z" fill="#FFDCA2"/>
<path d="M20.8502 27.8802C21.1001 27.8607 21.3704 27.8579 21.6277 27.8718C21.886 27.8858 22.119 27.9166 22.3008 27.9604L26.6871 29.0157L25.2132 29.1332C25.0426 29.1472 24.8571 29.1481 24.6809 29.1378C24.5056 29.1276 24.348 29.1052 24.2306 29.0735L21.6771 28.3948L21.6753 29.2609C21.6743 29.3066 21.6119 29.3504 21.4954 29.3867C21.3788 29.424 21.2138 29.452 21.0236 29.4669L19.6178 29.5788L19.9599 28.1478C19.9739 28.0881 20.0662 28.0322 20.2238 27.9846C20.3822 27.9362 20.6004 27.9007 20.8502 27.8802Z" fill="#FFDCA2"/>
<path d="M18.0739 27.8742C18.3237 27.8947 18.5418 27.932 18.7003 27.9795C18.8588 28.0271 18.9502 28.0849 18.9642 28.1436L19.2988 29.5755L17.8249 29.4534C17.6553 29.4385 17.5089 29.4133 17.4054 29.3798C17.302 29.3462 17.246 29.3071 17.2451 29.267L17.232 28.3841L14.7215 29.0442C14.59 29.0787 14.4148 29.1029 14.2181 29.1141C14.0223 29.1253 13.8144 29.1225 13.6242 29.1076L12.2184 28.991L16.6102 27.9497C16.7929 27.9068 17.0288 27.8761 17.2889 27.863C17.5499 27.849 17.8231 27.8537 18.0739 27.8742Z" fill="#FFDCA2"/>
<path d="M23.002 27.4789C23.1353 27.4277 23.3339 27.3866 23.5716 27.3605C23.8103 27.3344 24.0778 27.3242 24.3426 27.3326L30.7257 27.5172L29.9398 27.8192C29.8494 27.8546 29.7124 27.8826 29.5474 27.8994C29.3823 27.9162 29.1978 27.9218 29.0188 27.9152L25.1154 27.7577L27.6111 28.4252C27.7416 28.4597 27.8199 28.5026 27.8376 28.5482C27.8553 28.593 27.8106 28.6387 27.709 28.6778L26.9613 28.9649L23.0934 27.8127C22.933 27.7651 22.8389 27.7083 22.823 27.6486C22.8072 27.5889 22.8678 27.5293 23.002 27.4789Z" fill="#FFDCA2"/>
<path d="M15.9223 27.4675C16.0557 27.5187 16.1181 27.5784 16.1023 27.6371C16.0864 27.6968 15.9923 27.7527 15.8319 27.8003L11.9659 28.9395L11.1818 28.6356C11.0914 28.6001 11.0513 28.5601 11.0672 28.519C11.083 28.479 11.1539 28.4407 11.2695 28.409L13.808 27.7341L9.97924 27.8776C9.77788 27.8851 9.57092 27.8795 9.3854 27.8599C9.19988 27.8404 9.04606 27.8087 8.94444 27.7686L8.19678 27.4796L14.5808 27.3155C14.8456 27.309 15.1141 27.3192 15.3527 27.3463C15.5914 27.3742 15.79 27.4162 15.9223 27.4675Z" fill="#FFDCA2"/>
<path d="M23.4314 26.8649C23.3848 26.8061 23.4165 26.7465 23.5227 26.6915C23.629 26.6374 23.8052 26.5908 24.0289 26.5591L29.4248 25.7863L29.697 26.1312C29.7278 26.1713 29.7036 26.2123 29.6271 26.2487C29.5507 26.285 29.4257 26.3158 29.2691 26.3363L25.8431 26.7754L29.6709 26.9329C29.8704 26.9413 30.0541 26.9628 30.1977 26.9954C30.3412 27.028 30.4363 27.069 30.4717 27.1138L30.7318 27.4419L24.4634 27.1082C24.2042 27.0942 23.9674 27.0644 23.7847 27.0206C23.6001 26.9777 23.478 26.9236 23.4314 26.8649Z" fill="#FFDCA2"/>
<path d="M15.4972 26.8531C15.4516 26.9118 15.3294 26.9659 15.1458 27.0078C14.9621 27.0507 14.7263 27.0806 14.4662 27.0927L8.19678 27.405L8.46993 27.061C8.50069 27.0209 8.58646 26.9845 8.71418 26.9556C8.84283 26.9267 9.0069 26.9081 9.18683 26.9006L13.0902 26.7505L9.7266 26.3142C9.55134 26.2909 9.4115 26.2564 9.32573 26.2154C9.23997 26.1744 9.21293 26.1287 9.24743 26.084L9.50659 25.754L14.9015 26.5445C15.1243 26.5771 15.3005 26.6238 15.4059 26.6778C15.5122 26.7347 15.5439 26.7944 15.4972 26.8531Z" fill="#FFDCA2"/>
<path d="M22.1007 26.3119C21.8966 26.2736 21.7474 26.2224 21.6719 26.1655C21.5964 26.1086 21.5982 26.048 21.6766 25.9912L23.5578 24.6226L24.7586 24.851C24.8975 24.8771 24.9972 24.9116 25.0457 24.9508C25.0942 24.9899 25.0886 25.0309 25.0308 25.0692L23.68 25.8979L27.0463 25.471C27.2225 25.4486 27.4258 25.4393 27.6281 25.443C27.8303 25.4477 28.0224 25.4654 28.1781 25.4943L29.3219 25.7106L23.5886 26.3519C23.3509 26.378 23.0833 26.3883 22.8186 26.3818C22.5547 26.3743 22.3049 26.3501 22.1007 26.3119Z" fill="#FFDCA2"/>
<path d="M16.8294 26.304C16.6253 26.3422 16.3754 26.3655 16.1107 26.3711C15.8459 26.3767 15.5784 26.3664 15.3406 26.3385L9.60822 25.6784L10.8118 25.4556C10.9516 25.4295 11.1241 25.4137 11.3058 25.4109C11.4876 25.4071 11.6694 25.4165 11.8279 25.437L15.2642 25.8817L13.9385 25.065C13.8695 25.0221 13.8602 24.9764 13.9124 24.9326C13.9646 24.8888 14.0746 24.8506 14.2294 24.8217L15.3807 24.6091L17.2639 25.9833C17.3403 26.0401 17.3403 26.1007 17.2639 26.1576C17.1856 26.2154 17.0345 26.2657 16.8294 26.304Z" fill="#FFDCA2"/>
<path d="M33.7063 14.6667C34.7169 14.884 35.7331 15.0853 36.738 15.323C38.0227 15.627 39.256 16.0409 40.4624 16.5415C41.4161 16.9368 42.298 17.4076 43.0736 18.0154C43.9798 18.7248 44.513 19.5918 44.2874 20.7021C43.9779 21.4582 43.4241 22.0492 42.7054 22.5443C41.334 23.4868 39.7492 24.0648 38.1056 24.4983C35.8794 25.0856 33.6029 25.4995 31.2816 25.7065C29.1337 25.8976 26.9811 25.9861 24.8211 25.961C22.0178 25.9283 19.2313 25.7242 16.4802 25.2608C14.0647 24.8535 11.6912 24.323 9.46687 23.3525C8.51971 22.9395 7.6611 22.452 6.87615 21.8413C6.424 21.489 6.19654 21.0061 5.82923 20.6061C5.57752 19.3951 6.0567 18.4554 7.09429 17.6248C8.323 16.6413 9.82113 16.1602 11.3267 15.6596C11.5654 15.5803 11.8022 15.4983 12.0408 15.4172C12.2338 15.3827 12.4296 15.3594 12.6188 15.3137C15.1378 14.7078 17.6959 14.2687 20.3062 14.1316C22.3394 14.0244 24.3754 13.892 26.4161 14.0291C28.0513 14.1391 29.6902 14.2053 31.3198 14.3852C32.1159 14.471 32.8972 14.6621 33.7063 14.6667ZM10.868 21.0946C11.5225 21.3491 12.1937 21.6223 12.905 21.8124C15.4035 22.4809 17.9746 22.7988 20.5663 22.9955C22.8549 23.1698 25.1501 23.2071 27.4481 23.1502C30.8751 23.0654 34.2732 22.7997 37.578 21.9523C38.3061 21.7658 39.0081 21.4992 39.6364 21.1189C40.5733 20.552 40.5845 19.8985 39.7539 19.2301C39.1479 18.7425 38.3956 18.5309 37.6628 18.3072C35.2539 17.5716 32.7396 17.2565 30.2113 17.0477C27.7726 16.8463 25.3263 16.7596 22.8745 16.8277C19.2695 16.9275 15.685 17.1437 12.2263 18.1301C11.4451 18.3529 10.6984 18.6475 10.0933 19.1602C9.65332 19.5331 9.58807 19.9815 9.96563 20.4001C10.2099 20.6732 10.511 20.897 10.868 21.0946Z" fill="#FFCF85"/>
<path d="M5.77314 20.4999C6.02112 20.8402 6.39961 21.3073 6.93193 21.7855C7.23957 22.0615 7.94062 22.6497 9.46579 23.3508C11.1513 24.1255 12.5758 24.4648 14.0553 24.793C14.8561 24.9701 15.6653 25.122 16.4791 25.2591C19.2311 25.7233 22.0167 25.9266 24.82 25.9592C26.98 25.9844 29.1316 25.8967 31.2805 25.7047C33.6018 25.4977 35.8783 25.0838 38.1046 24.4965C39.7481 24.063 41.3329 23.485 42.7043 22.5425C43.4231 22.0484 43.9768 21.4564 44.2863 20.7004C44.2807 22.0363 44.2826 23.3722 44.2658 24.7081C44.2584 25.2973 44.3348 25.8939 44.0402 26.4598C43.7624 26.994 43.3811 27.4433 42.8535 27.819C42.1664 28.3085 41.4513 28.7457 40.6319 29.0478C40.6468 28.6515 40.6692 28.2563 40.6738 27.8601C40.6776 27.531 40.7997 27.1124 40.616 26.8961C40.396 26.637 39.8786 26.8309 39.4945 26.7861C39.4498 26.7805 39.4032 26.7861 39.3584 26.7796C39.1272 26.747 39.0219 26.8234 39.0228 27.0341C39.0256 27.9169 39.0191 28.7998 39.0163 29.6835C37.6263 30.1786 36.1496 30.393 34.7018 30.7016C34.7028 30.1888 34.6944 29.6752 34.7056 29.1624C34.7251 28.2442 34.7298 28.2442 33.6913 28.2059C33.5701 28.2013 33.4489 28.1947 33.3268 28.1957C33.1487 28.1966 33.0462 28.26 33.0471 28.4334C33.0508 29.2762 33.048 30.1189 33.048 30.9626C31.6273 31.1733 30.1972 31.3122 28.755 31.343C28.6814 30.6857 28.7364 30.0275 28.7438 29.3703C28.7503 28.8128 28.7625 28.8119 28.149 28.7905C27.8917 28.7821 27.6335 28.7839 27.3753 28.7783C27.2643 28.7765 27.1842 28.8016 27.1375 28.8576C27.09 28.9144 27.0919 28.989 27.0928 29.0151C27.0993 29.292 27.5207 31.2805 27.5393 31.3672C26.7115 31.4203 25.8268 31.4483 24.8908 31.439C24.1189 31.4315 23.3843 31.3998 22.6879 31.3504C22.7429 30.062 22.7793 29.1261 22.7849 28.9676C22.7858 28.9377 22.7877 28.8622 22.7401 28.8063C22.6963 28.755 22.6199 28.7308 22.5071 28.7327C22.1584 28.7373 21.8097 28.7103 21.4611 28.7215C21.4331 28.7224 21.3734 28.7243 21.3278 28.7653C21.2578 28.8287 21.269 28.9452 21.2709 28.975C21.2839 29.1578 21.2215 30.0369 21.1217 31.2852C20.4188 31.2357 19.6898 31.1705 18.9384 31.0866C18.1898 31.0036 17.4673 30.9067 16.7728 30.8013C16.7784 30.0695 16.8054 29.4775 16.8296 29.0589C16.8595 28.5434 16.8818 28.2964 16.7103 28.123C16.5612 27.9719 16.2423 27.9841 15.5748 28.0083C15.4247 28.0139 15.3185 28.0279 15.2551 28.0931C15.174 28.177 15.1833 28.3038 15.1842 28.3467C15.1954 28.6096 15.1441 29.3955 15.0565 30.5366C14.2007 30.3716 13.288 30.1562 12.3315 29.8775C11.8067 29.7246 11.3042 29.5624 10.8259 29.3946C10.9593 28.6627 10.866 27.9235 10.9033 27.1888C10.9378 26.5148 10.9126 26.512 10.1156 26.4887C9.91886 26.4831 9.72122 26.4952 9.52545 26.4831C9.30171 26.4691 9.25044 26.5465 9.25137 26.7376C9.25603 27.4089 9.23459 28.0801 9.2234 28.7504C8.34895 28.4008 7.52018 27.9626 6.83031 27.3967C5.94654 26.6714 5.79644 26.0925 5.74051 25.8175C5.71441 25.687 5.70508 25.576 5.70135 25.4996C5.71907 24.2457 5.73771 22.9918 5.75543 21.738C5.76475 21.325 5.76941 20.9129 5.77314 20.4999Z" fill="#FFA81E"/>
<path d="M10.8698 21.0946C10.5118 20.897 10.2116 20.6723 9.96739 20.402C9.79772 20.2136 9.71755 20.0197 9.72035 19.8296C9.72035 19.8296 9.72408 19.4949 10.0951 19.1621C13.5761 16.0362 24.7417 16.0446 24.7417 16.0446C24.7417 16.0446 35.8905 16.053 39.7556 19.2311C39.9244 19.37 40.3924 19.7559 40.3588 20.2267C40.3364 20.5399 40.0996 20.8401 39.6382 21.1198C39.0098 21.4992 38.3078 21.7658 37.5798 21.9532C34.2749 22.8006 30.8769 23.0663 27.4499 23.1512C25.1528 23.208 22.8567 23.1707 20.568 22.9964C17.9764 22.7997 15.4052 22.4818 12.9068 21.8134C12.1955 21.6223 11.5243 21.3501 10.8698 21.0946Z" fill="#FFA81E"/>
<path d="M24.0502 19.2012C23.8051 19.2012 23.5655 19.1835 23.3604 19.1499C23.1562 19.1164 22.9959 19.0698 22.9008 19.0148L20.6037 17.6919L22.0422 17.6947C22.2081 17.6947 22.3703 17.7077 22.5064 17.7311C22.6425 17.7544 22.7469 17.787 22.8047 17.8252L24.0586 18.6558L25.2789 17.8448C25.3433 17.8028 25.4598 17.7665 25.6118 17.7404C25.7637 17.7143 25.9455 17.7012 26.131 17.7012L27.5014 17.7031L25.1941 19.0185C25.099 19.0726 24.9396 19.1192 24.7354 19.1518C24.5331 19.1844 24.2945 19.2012 24.0502 19.2012Z" fill="#FFA81E"/>
<path d="M25.3189 20.9602C25.5473 20.9407 25.7952 20.9379 26.0311 20.9519C26.267 20.9658 26.4814 20.9966 26.6473 21.0404L30.6663 22.0948L29.3154 22.2123C29.1588 22.2262 28.9891 22.2272 28.8278 22.2169C28.6675 22.2067 28.523 22.1843 28.4158 22.1526L26.0768 21.4739L26.0749 22.34C26.074 22.3857 26.0171 22.4295 25.9099 22.4658C25.8027 22.5031 25.6526 22.5311 25.4773 22.546L24.189 22.6579L24.5031 21.2269C24.5162 21.1672 24.6001 21.1103 24.7455 21.0637C24.891 21.0162 25.0905 20.9808 25.3189 20.9602Z" fill="#FFA81E"/>
<path d="M22.7777 20.9571C23.007 20.9777 23.2065 21.014 23.351 21.0625C23.4964 21.11 23.5803 21.1678 23.5925 21.2266L23.8992 22.6585L22.5493 22.5373C22.3936 22.5233 22.2593 22.4972 22.1652 22.4637C22.0701 22.4301 22.0188 22.391 22.0188 22.3509L22.0076 21.468L19.7068 22.1271C19.5866 22.1616 19.4253 22.1859 19.2463 22.197C19.0664 22.2082 18.8771 22.2054 18.7019 22.1905L17.4144 22.074L21.439 21.0327C21.6058 20.9898 21.823 20.959 22.0608 20.946C22.2985 20.932 22.5474 20.9357 22.7777 20.9571Z" fill="#FFA81E"/>
<path d="M27.2923 20.5594C27.4145 20.5081 27.5963 20.4671 27.8144 20.441C28.0325 20.4149 28.2787 20.4046 28.521 20.4121L34.3691 20.5958L33.6494 20.8978C33.5664 20.9332 33.4405 20.9612 33.2895 20.978C33.1385 20.9948 32.9698 21.0004 32.8047 20.9938L29.2286 20.8372L31.5145 21.5047C31.6338 21.5392 31.7066 21.5821 31.7224 21.6278C31.7382 21.6725 31.6972 21.7182 31.604 21.7573L30.9188 22.0454L27.3753 20.8941C27.228 20.8465 27.1422 20.7897 27.1273 20.73C27.1124 20.6694 27.1693 20.6107 27.2923 20.5594Z" fill="#FFA81E"/>
<path d="M20.8045 20.5492C20.9266 20.6005 20.9844 20.6602 20.9695 20.7189C20.9546 20.7786 20.8688 20.8345 20.7215 20.882L17.1799 22.0222L16.4611 21.7183C16.3781 21.6828 16.3418 21.6428 16.3558 21.6017C16.3697 21.5617 16.435 21.5234 16.5413 21.4917L18.8672 20.8168L15.3592 20.9613C15.1746 20.9687 14.9853 20.9631 14.8157 20.9436C14.646 20.924 14.5052 20.8923 14.412 20.8522L13.7268 20.5632L19.5758 20.3982C19.8181 20.3917 20.0643 20.4019 20.2824 20.429C20.5005 20.456 20.6823 20.498 20.8045 20.5492Z" fill="#FFA81E"/>
<path d="M27.6857 19.9458C27.6428 19.8871 27.6718 19.8274 27.7696 19.7724C27.8666 19.7184 28.0279 19.6717 28.233 19.64L33.1767 18.8663L33.4256 19.2112C33.4536 19.2513 33.4312 19.2923 33.3613 19.3287C33.2914 19.365 33.1767 19.3958 33.0331 19.4163L29.8942 19.8554L33.4014 20.012C33.5841 20.0204 33.7528 20.0418 33.8833 20.0745C34.0148 20.1071 34.1024 20.1481 34.1341 20.1919L34.3728 20.5201L28.6301 20.1873C28.3924 20.1733 28.1761 20.1435 28.0083 20.1006C27.8396 20.0586 27.7277 20.0036 27.6857 19.9458Z" fill="#FFA81E"/>
<path d="M20.4157 19.9357C20.3738 19.9944 20.2619 20.0485 20.0941 20.0914C19.9263 20.1343 19.71 20.1641 19.4713 20.1771L13.7268 20.4904L13.9776 20.1464C14.0055 20.1063 14.0839 20.0699 14.2013 20.041C14.3188 20.0121 14.4698 19.9935 14.6339 19.986L18.21 19.835L15.1289 19.3996C14.9686 19.3763 14.8399 19.3428 14.7616 19.3008C14.6833 19.2598 14.6581 19.2141 14.6898 19.1694L14.9275 18.8394L19.8703 19.629C20.0745 19.6616 20.2358 19.7082 20.3327 19.7623C20.4297 19.8173 20.4586 19.8769 20.4157 19.9357Z" fill="#FFA81E"/>
<path d="M26.4667 19.3946C26.2793 19.3563 26.1432 19.3051 26.0743 19.2482C26.0053 19.1913 26.0062 19.1307 26.078 19.0739L27.8026 17.7053L28.9027 17.9337C29.0295 17.9598 29.1218 17.9943 29.1665 18.0335C29.2113 18.0726 29.2066 18.1136 29.1525 18.1519L27.9145 18.9806L30.9993 18.5527C31.1606 18.5304 31.3471 18.521 31.5317 18.5248C31.7172 18.5294 31.8934 18.5471 32.036 18.576L33.0839 18.7923L27.8306 19.4346C27.6134 19.4608 27.3682 19.4719 27.1249 19.4645C26.8825 19.457 26.6541 19.4328 26.4667 19.3946Z" fill="#FFA81E"/>
<path d="M21.6377 19.3858C21.4503 19.424 21.2219 19.4473 20.9786 19.4538C20.7362 19.4604 20.491 19.4492 20.2738 19.4222L15.0225 18.7631L16.1244 18.5402C16.2521 18.5141 16.4106 18.4983 16.5765 18.4955C16.7434 18.4918 16.9103 18.5011 17.0548 18.5216L20.203 18.9654L18.9892 18.1487C18.9258 18.1058 18.9174 18.0601 18.965 18.0163C19.0125 17.9725 19.1141 17.9343 19.2558 17.9044L20.3102 17.6919L22.0349 19.066C22.1057 19.1229 22.1048 19.1835 22.0349 19.2404C21.964 19.2972 21.826 19.3476 21.6377 19.3858Z" fill="#FFA81E"/>
<path d="M25.2318 19.0055C24.9642 19.0055 24.7023 18.9878 24.4794 18.9542C24.2566 18.9207 24.0814 18.874 23.9779 18.819L21.4711 17.4952L23.041 17.498C23.2228 17.498 23.399 17.5111 23.5481 17.5344C23.6973 17.5577 23.8101 17.5903 23.8735 17.6286L25.243 18.4601L26.5751 17.6491C26.6451 17.6071 26.7719 17.5708 26.9387 17.5446C27.1047 17.5195 27.3032 17.5055 27.5055 17.5055L29.0009 17.5083L26.4819 18.8237C26.3775 18.8778 26.2041 18.9244 25.9813 18.957C25.7585 18.9887 25.4984 19.0055 25.2318 19.0055Z" fill="#FFDCA2"/>
<path d="M26.6174 20.7636C26.8672 20.744 27.1376 20.7412 27.3949 20.7552C27.6531 20.7692 27.8862 20.7999 28.068 20.8438L32.4542 21.8991L30.9803 22.0165C30.8097 22.0305 30.6242 22.0315 30.448 22.0212C30.2727 22.0109 30.1152 21.9886 29.9977 21.9569L27.4443 21.2782L27.4424 22.1443C27.4415 22.1899 27.379 22.2338 27.2625 22.2701C27.146 22.3074 26.981 22.3354 26.7908 22.3503L25.3849 22.4622L25.7271 21.0311C25.7411 20.9715 25.8334 20.9155 25.9909 20.868C26.1503 20.8195 26.3675 20.7832 26.6174 20.7636Z" fill="#FFDCA2"/>
<path d="M23.8419 20.7581C24.0917 20.7786 24.3099 20.8159 24.4683 20.8634C24.6268 20.911 24.7182 20.9688 24.7322 21.0275L25.0669 22.4594L23.593 22.3373C23.4233 22.3224 23.2769 22.2972 23.1735 22.2637C23.07 22.2301 23.014 22.191 23.0131 22.1509L23.0001 21.268L20.4886 21.9271C20.3571 21.9616 20.1819 21.9859 19.9852 21.997C19.7894 22.0082 19.5815 22.0054 19.3913 21.9905L17.9855 21.874L22.3773 20.8327C22.56 20.7898 22.7959 20.759 23.056 20.746C23.3189 20.7329 23.5911 20.7366 23.8419 20.7581Z" fill="#FFDCA2"/>
<path d="M28.7691 20.3624C28.9024 20.3111 29.101 20.2701 29.3387 20.244C29.5773 20.2179 29.8449 20.2076 30.1097 20.216L36.4928 20.4006L35.7069 20.7026C35.6165 20.7381 35.4794 20.766 35.3144 20.7828C35.1494 20.7996 34.9648 20.8052 34.7858 20.7987L30.8825 20.6411L33.3781 21.3086C33.5086 21.3431 33.587 21.386 33.6047 21.4317C33.6224 21.4764 33.5776 21.5221 33.476 21.5612L32.7284 21.8484L28.8604 20.6961C28.7001 20.6486 28.6059 20.5917 28.5901 20.532C28.5742 20.4724 28.6358 20.4136 28.7691 20.3624Z" fill="#FFDCA2"/>
<path d="M21.6894 20.3508C21.8227 20.4021 21.8852 20.4618 21.8694 20.5205C21.8535 20.5802 21.7594 20.6361 21.599 20.6836L17.733 21.8228L16.9489 21.5189C16.8585 21.4835 16.8184 21.4434 16.8343 21.4024C16.8501 21.3623 16.921 21.3241 17.0366 21.2924L19.5751 20.6174L15.7463 20.761C15.545 20.7685 15.338 20.7629 15.1525 20.7433C14.967 20.7237 14.8131 20.692 14.7115 20.6519L13.9639 20.3629L20.3479 20.1989C20.6127 20.1923 20.8812 20.2026 21.1198 20.2296C21.3576 20.2567 21.5561 20.2986 21.6894 20.3508Z" fill="#FFDCA2"/>
<path d="M29.1985 19.751C29.1518 19.6922 29.1835 19.6326 29.2898 19.5776C29.3961 19.5235 29.5723 19.4769 29.796 19.4452L35.1919 18.6724L35.4641 19.0173C35.4949 19.0574 35.4706 19.0984 35.3942 19.1348C35.3178 19.1711 35.1928 19.2019 35.0362 19.2224L31.6102 19.6615L35.438 19.819C35.6375 19.8274 35.8212 19.8489 35.9647 19.8815C36.1083 19.9141 36.2034 19.9551 36.2388 19.9999L36.4989 20.328L30.2305 19.9943C29.9713 19.9803 29.7345 19.9505 29.5518 19.9067C29.3672 19.8638 29.2451 19.8088 29.1985 19.751Z" fill="#FFDCA2"/>
<path d="M21.2643 19.7365C21.2186 19.7952 21.0965 19.8493 20.9129 19.8912C20.7292 19.9341 20.4934 19.9639 20.2333 19.976L13.9639 20.2883L14.237 19.9443C14.2678 19.9043 14.3535 19.8679 14.4813 19.839C14.6099 19.8101 14.774 19.7915 14.9539 19.784L18.8573 19.6339L15.4937 19.1976C15.3184 19.1743 15.1786 19.1398 15.0928 19.0988C15.0071 19.0578 14.98 19.0121 15.0145 18.9673L15.2737 18.6373L20.6686 19.4279C20.8914 19.4605 21.0676 19.5071 21.173 19.5612C21.2792 19.6181 21.3109 19.6787 21.2643 19.7365Z" fill="#FFDCA2"/>
<path d="M27.8678 19.198C27.6637 19.1597 27.5145 19.1085 27.439 19.0516C27.3635 18.9947 27.3653 18.9341 27.4436 18.8773L29.3249 17.5087L30.5257 17.7371C30.6646 17.7632 30.7643 17.7977 30.8128 17.8369C30.8613 17.876 30.8557 17.9171 30.7979 17.9553L29.4471 18.784L32.8134 18.3571C32.9896 18.3347 33.1928 18.3254 33.3951 18.3291C33.5974 18.3338 33.7895 18.3515 33.9452 18.3804L35.089 18.5967L29.3557 19.2381C29.118 19.2642 28.8504 19.2744 28.5857 19.2679C28.3218 19.2604 28.072 19.2362 27.8678 19.198Z" fill="#FFDCA2"/>
<path d="M22.5993 19.1874C22.3951 19.2256 22.1453 19.2489 21.8805 19.2545C21.6157 19.261 21.3482 19.2498 21.1105 19.2219L15.3781 18.5618L16.5816 18.339C16.7214 18.3129 16.8939 18.2971 17.0757 18.2943C17.2575 18.2906 17.4393 18.2999 17.5977 18.3204L21.034 18.7651L19.7084 17.9484C19.6394 17.9055 19.6301 17.8599 19.6823 17.816C19.7345 17.7722 19.8445 17.734 19.9992 17.7051L21.1506 17.4926L23.0337 18.8667C23.1101 18.9236 23.1101 18.9842 23.0337 19.041C22.9545 19.0998 22.8044 19.1501 22.5993 19.1874Z" fill="#FFDCA2"/>
<path d="M31.8915 7.46484C32.9021 7.68205 33.9182 7.88342 34.9232 8.12114C36.2079 8.42506 37.4412 8.83898 38.6476 9.3396C39.6012 9.73487 40.4832 10.2057 41.2588 10.8135C42.1649 11.5229 42.6982 12.3899 42.4726 13.5002C42.1631 14.2563 41.6093 14.8473 40.8906 15.3424C39.5192 16.2849 37.9344 16.8629 36.2908 17.2964C34.0646 17.8837 31.788 18.2976 29.4667 18.5046C27.3188 18.6957 25.1663 18.7842 23.0062 18.7591C20.203 18.7264 17.4165 18.5223 14.6654 18.0589C12.2499 17.6516 9.87641 17.1211 7.65205 16.1506C6.70489 15.7376 5.84628 15.2501 5.06133 14.6394C4.60919 14.2871 4.38172 13.8041 4.01441 13.4042C3.7627 12.1932 4.24188 11.2535 5.27947 10.4229C6.50818 9.43935 8.00631 8.95831 9.5119 8.45769C9.75055 8.37844 9.98734 8.29641 10.226 8.2153C10.419 8.18081 10.6147 8.1575 10.804 8.11182C13.3229 7.50586 15.881 7.06677 18.4913 6.92973C20.5246 6.82252 22.5606 6.69014 24.6013 6.82718C26.2365 6.93718 27.8754 7.00337 29.505 7.1833C30.3011 7.26906 31.0823 7.46018 31.8915 7.46484ZM9.05323 13.8936C9.70767 14.1481 10.3789 14.4213 11.0902 14.6115C13.5886 15.2799 16.1598 15.5978 18.7514 15.7945C21.0401 15.9688 23.3353 16.0061 25.6333 15.9493C29.0603 15.8644 32.4583 15.5987 35.7632 14.7513C36.4913 14.5649 37.1932 14.2982 37.8216 13.9179C38.7585 13.3511 38.7697 12.6976 37.939 12.0291C37.3331 11.5416 36.5808 11.33 35.848 11.1062C33.4391 10.3707 30.9248 10.0556 28.3965 9.84674C25.9577 9.64537 23.5115 9.55868 21.0597 9.62673C17.4547 9.72648 13.8702 9.94276 10.4115 10.9291C9.63029 11.1519 8.88356 11.4465 8.27853 11.9592C7.8385 12.3321 7.77325 12.7805 8.15081 13.1991C8.39413 13.4713 8.69524 13.6951 9.05323 13.8936Z" fill="#FFCF85"/>
<path d="M4.01312 13.4031C4.38043 13.8021 4.6079 14.2859 5.06004 14.6383C5.84407 15.2489 6.7036 15.7365 7.65077 16.1495C9.87512 17.12 12.2486 17.6504 14.6641 18.0578C17.4161 18.5221 20.2017 18.7253 23.005 18.7579C25.165 18.7831 27.3166 18.6955 29.4655 18.5034C31.7868 18.2965 34.0633 17.8825 36.2895 17.2952C37.9331 16.8617 39.5179 16.2837 40.8893 15.3412C41.608 14.8471 42.1618 14.2552 42.4713 13.4991C42.4657 14.835 42.4676 16.1709 42.4508 17.5068C42.4433 18.096 42.5198 18.6927 42.2252 19.2585C41.9474 19.7927 41.5661 20.2421 41.0384 20.6178C40.3514 21.1072 39.6363 21.5444 38.8169 21.8465C38.8318 21.4503 38.8542 21.055 38.8588 20.6588C38.8626 20.3297 38.9847 19.9111 38.801 19.6948C38.581 19.4357 38.0636 19.6296 37.6795 19.5848C37.6348 19.5792 37.5882 19.5848 37.5434 19.5783C37.3122 19.5457 37.2069 19.6221 37.2078 19.8328C37.2106 20.7157 37.2041 21.5985 37.2013 22.4823C35.8113 22.9773 34.3346 23.1917 32.8868 23.5003C32.8878 22.9876 32.8794 22.4739 32.8906 21.9611C32.9101 21.0429 32.9148 21.0429 31.8763 21.0047C31.7551 21 31.6339 20.9935 31.5118 20.9944C31.3337 20.9953 31.2311 21.0587 31.2321 21.2321C31.2358 22.0749 31.233 22.9176 31.233 23.7613C29.8123 23.972 28.3822 24.1109 26.94 24.1417C26.8663 23.4844 26.9213 22.8263 26.9288 22.169C26.9353 21.6116 26.9474 21.6106 26.334 21.5892C26.0767 21.5808 25.8185 21.5827 25.5612 21.5771C25.3738 21.5733 25.2741 21.6488 25.2787 21.8139C25.303 22.6165 25.1902 23.4201 25.2899 24.2219C24.5553 24.1995 23.8207 24.1762 23.087 24.1529C22.3589 24.1296 21.6299 24.1053 20.9018 24.0811C20.94 22.8487 20.9652 21.9509 20.9717 21.7672C20.9726 21.7402 20.9754 21.6638 20.927 21.606C20.8832 21.5547 20.8067 21.5304 20.6939 21.5323C20.3452 21.537 19.9947 21.5435 19.6479 21.5211C19.5165 21.5127 19.4335 21.5295 19.3841 21.5789C19.3188 21.6442 19.3244 21.7467 19.3254 21.7812C19.3337 22.0022 19.3291 22.8496 19.3226 24.0196C18.6523 24.0121 17.9158 23.9739 17.1252 23.8862C16.3422 23.8005 15.6215 23.6784 14.9699 23.5422C14.9745 22.8207 14.9969 22.2464 15.0165 21.8586C15.0435 21.3235 15.0631 21.0904 14.8972 20.9226C14.748 20.7716 14.4292 20.7837 13.7617 20.808C13.6116 20.8135 13.5053 20.8275 13.4419 20.8928C13.3599 20.9767 13.3692 21.1053 13.3711 21.1454C13.3832 21.4111 13.3394 22.1914 13.2648 23.2784C12.7493 23.215 12.3064 23.1367 11.9531 23.0659C11.4739 22.9689 11.1318 22.8785 10.7132 22.7675C10.0401 22.5904 9.7474 22.4869 9.58985 22.4282C9.34747 22.3387 9.14983 22.2548 9.01279 22.1933C8.93914 21.0932 9.06779 20.4285 9.09017 19.9876C9.12466 19.3136 9.09949 19.3108 8.30241 19.2874C8.02274 19.2791 7.7356 19.2138 7.7123 19.2819C7.70577 19.3014 7.72535 19.3136 7.72908 19.3555C7.73747 19.4515 7.64704 19.5317 7.63492 19.5438C7.55941 19.6193 7.47923 20.1218 7.41025 21.5491C6.86395 21.2759 6.4146 21.0242 6.07806 20.8257C5.50939 20.491 5.27073 20.3148 5.04233 20.1078C4.72909 19.8226 4.55849 19.597 4.5212 19.5466C4.27695 19.2138 4.14084 18.8959 4.06346 18.6722C4.0616 17.3344 4.05041 15.9863 4.03084 14.6281C4.02711 14.2179 4.02058 13.8105 4.01312 13.4031Z" fill="#FFA81E"/>
<path d="M30.6057 23.7096C30.6057 22.8668 30.6095 22.0241 30.6048 21.1804C30.6039 21.007 30.7064 20.9436 30.8845 20.9427C31.0057 20.9417 31.1269 20.9483 31.249 20.9529C32.2866 20.9911 32.2819 20.9911 32.2633 21.9094C32.253 22.4221 32.2605 22.9349 32.2596 23.4485C31.7226 23.6042 31.1623 23.648 30.6057 23.7096Z" fill="#BE7C13"/>
<path d="M36.5739 22.4324C36.5767 21.5495 36.5823 20.6667 36.5804 19.7829C36.5795 19.5722 36.6849 19.4958 36.9161 19.5284C36.9608 19.5349 37.0074 19.5303 37.0522 19.5349C37.4362 19.5797 37.9536 19.3858 38.1737 19.6449C38.3573 19.8612 38.2352 20.2798 38.2315 20.6089C38.2268 21.0051 38.2044 21.4004 38.1895 21.7966C37.7066 22.1163 37.1361 22.2646 36.5739 22.4324Z" fill="#BE7C13"/>
<path d="M24.6614 24.172C24.5617 23.3694 24.6745 22.5667 24.6502 21.764C24.6456 21.599 24.7453 21.5235 24.9327 21.5272C25.19 21.5328 25.4482 21.531 25.7065 21.5394C26.3199 21.5599 26.3078 21.5617 26.3013 22.1192C26.2938 22.7764 26.2388 23.4346 26.3124 24.0919C25.7661 24.1851 25.2124 24.1562 24.6614 24.172Z" fill="#BE7C13"/>
<path d="M21.6044 11.9526C21.3593 11.9526 21.1197 11.9348 20.9146 11.9013C20.7104 11.8677 20.5501 11.8211 20.455 11.7661L18.1579 10.4432L19.5964 10.446C19.7623 10.446 19.9245 10.4591 20.0606 10.4824C20.1967 10.5057 20.3011 10.5383 20.3589 10.5765L21.6128 11.4072L22.8331 10.5961C22.8975 10.5542 23.014 10.5178 23.166 10.4917C23.3179 10.4656 23.4997 10.4526 23.6852 10.4526L25.0556 10.4544L22.7483 11.7698C22.6532 11.8239 22.4938 11.8705 22.2896 11.9031C22.0873 11.9358 21.8487 11.9526 21.6044 11.9526Z" fill="#FFA81E"/>
<path d="M22.8703 13.7117C23.0987 13.6921 23.3467 13.6893 23.5825 13.7033C23.8184 13.7172 24.0328 13.748 24.1988 13.7918L28.2177 14.8462L26.8669 14.9637C26.7103 14.9776 26.5406 14.9786 26.3793 14.9683C26.219 14.9581 26.0745 14.9357 25.9672 14.904L23.6282 14.2253L23.6264 15.0914C23.6254 15.1371 23.5686 15.1809 23.4614 15.2172C23.3541 15.2545 23.2041 15.2825 23.0288 15.2974L21.7404 15.4093L22.0546 13.9783C22.0676 13.9186 22.1515 13.8617 22.297 13.8151C22.4424 13.7676 22.641 13.7312 22.8703 13.7117Z" fill="#FFA81E"/>
<path d="M20.3291 13.7059C20.5585 13.7264 20.758 13.7627 20.9025 13.8112C21.0479 13.8588 21.1318 13.9166 21.1439 13.9753L21.4506 15.4072L20.1007 15.286C19.945 15.2721 19.8108 15.2459 19.7166 15.2124C19.6215 15.1788 19.5703 15.1397 19.5703 15.0996L19.5591 14.2167L17.2583 14.8758C17.138 14.9103 16.9767 14.9346 16.7978 14.9458C16.6178 14.957 16.4286 14.9542 16.2533 14.9392L14.9659 14.8227L18.9904 13.7814C19.1573 13.7385 19.3745 13.7077 19.6122 13.6947C19.849 13.6807 20.0989 13.6844 20.3291 13.7059Z" fill="#FFA81E"/>
<path d="M24.8436 13.3081C24.9657 13.2568 25.1475 13.2158 25.3657 13.1897C25.5838 13.1636 25.8299 13.1534 26.0723 13.1608L31.9203 13.3445L31.2006 13.6465C31.1177 13.6819 30.9918 13.7099 30.8408 13.7267C30.6897 13.7435 30.521 13.7491 30.356 13.7425L26.7799 13.5859L29.0658 14.2534C29.1851 14.2879 29.2578 14.3308 29.2737 14.3765C29.2895 14.4212 29.2485 14.4669 29.1553 14.5061L28.4701 14.7941L24.9266 13.6428C24.7793 13.5953 24.6935 13.5384 24.6786 13.4787C24.6646 13.4181 24.7215 13.3594 24.8436 13.3081Z" fill="#FFA81E"/>
<path d="M18.3587 13.2979C18.4808 13.3492 18.5386 13.4089 18.5237 13.4676C18.5088 13.5273 18.423 13.5832 18.2757 13.6308L14.7341 14.7709L14.0153 14.467C13.9323 14.4316 13.896 14.3915 13.91 14.3505C13.9239 14.3104 13.9892 14.2721 14.0955 14.2405L16.4214 13.5655L12.9134 13.71C12.7288 13.7175 12.5395 13.7119 12.3699 13.6923C12.2002 13.6727 12.0594 13.641 11.9662 13.6009L11.281 13.3119L17.13 13.1469C17.3723 13.1404 17.6185 13.1507 17.8366 13.1777C18.0547 13.2047 18.2365 13.2467 18.3587 13.2979Z" fill="#FFA81E"/>
<path d="M25.2372 12.6972C25.1943 12.6385 25.2232 12.5788 25.3211 12.5238C25.418 12.4698 25.5793 12.4231 25.7844 12.3914L30.7281 11.6177L30.9771 11.9626C31.005 12.0027 30.9827 12.0437 30.9127 12.0801C30.8428 12.1164 30.7281 12.1472 30.5846 12.1677L27.4457 12.6068L30.9528 12.7634C31.1355 12.7718 31.3043 12.7932 31.4348 12.8259C31.5653 12.8585 31.6539 12.8995 31.6856 12.9433L31.9242 13.2715L26.1816 12.9387C25.9438 12.9247 25.7275 12.8949 25.5597 12.852C25.3919 12.81 25.2801 12.756 25.2372 12.6972Z" fill="#FFA81E"/>
<path d="M17.9672 12.6844C17.9253 12.7431 17.8134 12.7972 17.6456 12.8401C17.4778 12.883 17.2615 12.9128 17.0229 12.9259L11.2783 13.2391L11.5291 12.8951C11.5571 12.855 11.6354 12.8186 11.7528 12.7897C11.8703 12.7608 12.0213 12.7422 12.1854 12.7347L15.7615 12.5837L12.6804 12.1484C12.5201 12.1251 12.3914 12.0915 12.3131 12.0495C12.2348 12.0085 12.2096 11.9628 12.2413 11.9181L12.4791 11.5881L17.4219 12.3777C17.626 12.4103 17.7873 12.4569 17.8843 12.511C17.9803 12.566 18.0101 12.6257 17.9672 12.6844Z" fill="#FFA81E"/>
<path d="M24.0182 12.1433C23.8308 12.1051 23.6947 12.0538 23.6257 11.9969C23.5567 11.9401 23.5577 11.8795 23.6294 11.8226L25.3541 10.454L26.4542 10.6824C26.5809 10.7085 26.6732 10.743 26.718 10.7822C26.7627 10.8213 26.7581 10.8624 26.704 10.9006L25.466 11.7294L28.5508 11.3015C28.7121 11.2791 28.8985 11.2698 29.0831 11.2735C29.2686 11.2782 29.4448 11.2959 29.5875 11.3248L30.6353 11.541L25.3821 12.1834C25.1649 12.2095 24.9197 12.2207 24.6764 12.2132C24.434 12.2057 24.2046 12.1815 24.0182 12.1433Z" fill="#FFA81E"/>
<path d="M19.1892 12.1362C19.0018 12.1744 18.7734 12.1977 18.5301 12.2043C18.2877 12.2108 18.0425 12.1996 17.8253 12.1726L12.5739 11.5135L13.6758 11.2907C13.8036 11.2646 13.962 11.2487 14.128 11.2459C14.2948 11.2422 14.4617 11.2515 14.6062 11.272L17.7544 11.7158L16.5397 10.9C16.4763 10.8572 16.4679 10.8115 16.5155 10.7677C16.563 10.7238 16.6646 10.6856 16.8063 10.6558L17.8607 10.4432L19.5854 11.8174C19.6562 11.8742 19.6553 11.9348 19.5854 11.9917C19.5155 12.0476 19.3775 12.098 19.1892 12.1362Z" fill="#FFA81E"/>
<path d="M22.7859 11.7542C22.5184 11.7542 22.2564 11.7365 22.0336 11.7029C21.8108 11.6694 21.6355 11.6228 21.532 11.5678L19.0252 10.244L20.5951 10.2468C20.7769 10.2468 20.9531 10.2598 21.1023 10.2831C21.2514 10.3064 21.3642 10.339 21.4276 10.3773L22.7971 11.2088L24.1293 10.3978C24.1992 10.3558 24.326 10.3195 24.4929 10.2934C24.6588 10.2682 24.8574 10.2542 25.0597 10.2542L26.555 10.257L24.0361 11.5724C23.9316 11.6265 23.7582 11.6731 23.5354 11.7057C23.3126 11.7374 23.0525 11.7542 22.7859 11.7542Z" fill="#FFDCA2"/>
<path d="M24.1688 13.5123C24.4187 13.4927 24.689 13.4899 24.9463 13.5039C25.2046 13.5179 25.4376 13.5487 25.6194 13.5925L30.0057 14.6478L28.5318 14.7653C28.3612 14.7792 28.1757 14.7802 27.9995 14.7699C27.8242 14.7597 27.6666 14.7373 27.5492 14.7056L24.9957 14.0269L24.9939 14.893C24.9929 14.9387 24.9305 14.9825 24.814 15.0188C24.6974 15.0561 24.5324 15.0841 24.3422 15.099L22.9364 15.2109L23.2785 13.7799C23.2925 13.7202 23.3848 13.6643 23.5424 13.6167C23.7008 13.5682 23.919 13.5319 24.1688 13.5123Z" fill="#FFDCA2"/>
<path d="M21.3961 13.5095C21.6459 13.53 21.8641 13.5673 22.0226 13.6148C22.181 13.6624 22.2724 13.7202 22.2864 13.7789L22.6211 15.2108L21.1472 15.0887C20.9775 15.0738 20.8311 15.0486 20.7277 15.0151C20.6242 14.9815 20.5682 14.9424 20.5673 14.9023L20.5543 14.0194L18.0428 14.6785C17.9113 14.713 17.7361 14.7373 17.5394 14.7484C17.3436 14.7596 17.1357 14.7568 16.9455 14.7419L15.5397 14.6254L19.9324 13.5841C20.1152 13.5412 20.351 13.5104 20.6111 13.4974C20.8722 13.4843 21.1453 13.488 21.3961 13.5095Z" fill="#FFDCA2"/>
<path d="M26.3233 13.1111C26.4566 13.0598 26.6552 13.0188 26.8929 12.9927C27.1316 12.9666 27.3991 12.9563 27.6639 12.9647L34.047 13.1493L33.2611 13.4514C33.1707 13.4868 33.0337 13.5147 32.8686 13.5315C32.7036 13.5483 32.5191 13.5539 32.3401 13.5474L28.4367 13.3898L30.9324 14.0573C31.0629 14.0918 31.1412 14.1347 31.1589 14.1804C31.1766 14.2251 31.1319 14.2708 31.0302 14.31L30.2826 14.5971L26.4147 13.4448C26.2543 13.3973 26.1602 13.3404 26.1443 13.2808C26.1285 13.2211 26.1891 13.1624 26.3233 13.1111Z" fill="#FFDCA2"/>
<path d="M19.2436 13.0995C19.3769 13.1508 19.4393 13.2105 19.4235 13.2692C19.4077 13.3289 19.3135 13.3848 19.1531 13.4324L15.2871 14.5716L14.5031 14.2677C14.4126 14.2322 14.3726 14.1921 14.3884 14.1511C14.4043 14.111 14.4751 14.0728 14.5907 14.0411L17.1292 13.3662L13.3005 13.5097C13.0991 13.5172 12.8921 13.5116 12.7066 13.492C12.5211 13.4724 12.3673 13.4407 12.2657 13.4007L11.518 13.1117L17.9021 12.9476C18.1668 12.9411 18.4353 12.9513 18.674 12.9783C18.9126 13.0054 19.1112 13.0473 19.2436 13.0995Z" fill="#FFDCA2"/>
<path d="M26.7527 12.4997C26.706 12.441 26.7377 12.3813 26.844 12.3263C26.9503 12.2722 27.1265 12.2256 27.3502 12.1939L32.7461 11.4211L33.0183 11.766C33.0491 11.8061 33.0248 11.8471 32.9484 11.8835C32.872 11.9198 32.747 11.9506 32.5904 11.9711L29.1644 12.4102L32.9922 12.5678C33.1917 12.5761 33.3754 12.5976 33.5189 12.6302C33.6625 12.6628 33.7576 12.7039 33.793 12.7486L34.0531 13.0768L27.7847 12.743C27.5255 12.729 27.2887 12.6992 27.106 12.6554C26.9214 12.6125 26.7993 12.5575 26.7527 12.4997Z" fill="#FFDCA2"/>
<path d="M18.8185 12.4852C18.7728 12.5439 18.6507 12.598 18.467 12.6399C18.2834 12.6828 18.0475 12.7126 17.7874 12.7248L11.518 13.0371L11.7912 12.6931C11.8219 12.653 11.9077 12.6166 12.0354 12.5877C12.1641 12.5588 12.3281 12.5402 12.5081 12.5327L16.4114 12.3826L13.0478 11.9463C12.8726 11.923 12.7327 11.8885 12.647 11.8475C12.5612 11.8065 12.5342 11.7608 12.5687 11.7161L12.8278 11.386L18.2228 12.1766C18.4456 12.2092 18.6218 12.2558 18.7271 12.3099C18.8334 12.3668 18.8651 12.4274 18.8185 12.4852Z" fill="#FFDCA2"/>
<path d="M25.422 11.9466C25.2179 11.9084 25.0687 11.8571 24.9932 11.8003C24.9177 11.7434 24.9195 11.6828 24.9978 11.6259L26.8791 10.2574L28.0799 10.4858C28.2188 10.5119 28.3185 10.5464 28.367 10.5855C28.4155 10.6247 28.4099 10.6657 28.3521 10.7039L27.0013 11.5327L30.3676 11.1057C30.5438 11.0834 30.747 11.074 30.9493 11.0778C31.1516 11.0824 31.3437 11.1001 31.4994 11.129L32.6432 11.3453L26.9099 11.9867C26.6722 12.0128 26.4046 12.0231 26.1399 12.0165C25.876 12.0091 25.6262 11.9848 25.422 11.9466Z" fill="#FFDCA2"/>
<path d="M20.1507 11.9388C19.9466 11.977 19.6967 12.0003 19.432 12.0059C19.1672 12.0124 18.8996 12.0013 18.6619 11.9733L12.9295 11.3133L14.133 11.0904C14.2729 11.0643 14.4453 11.0485 14.6271 11.0457C14.8089 11.042 14.9907 11.0513 15.1492 11.0718L18.5855 11.5165L17.2598 10.6998C17.1908 10.6569 17.1815 10.6113 17.2337 10.5674C17.2859 10.5236 17.3959 10.4854 17.5507 10.4565L18.702 10.244L20.5852 11.6181C20.6616 11.675 20.6616 11.7356 20.5852 11.7924C20.5087 11.8493 20.3558 11.9015 20.1507 11.9388Z" fill="#FFDCA2"/>
<path d="M35.1627 0.685334C35.7817 0.784153 36.2432 0.882972 36.6077 0.961281C36.8706 1.01815 37.4738 1.15053 38.1944 1.34164C39.2553 1.62318 40.4588 1.95413 41.9187 2.56009C42.8724 2.95537 43.7543 3.42615 44.53 4.03398C45.4361 4.74343 45.9694 5.61042 45.7438 6.72073C45.4343 7.47679 44.8805 8.06783 44.1617 8.56286C42.7904 9.50537 41.2056 10.0834 39.562 10.5169C37.3358 11.1042 35.0592 11.5181 32.7379 11.7251C30.6553 11.9106 29.1693 11.9451 26.2774 11.9796C23.9785 12.0066 22.7964 12.0169 21.2339 11.8854C20.0705 11.7875 18.7588 11.5684 16.1373 11.1321C14.6867 10.8907 13.7908 10.7182 12.66 10.3164C12.179 10.1458 11.4192 9.84937 10.5391 9.37299C9.79614 8.97118 9.08577 8.58057 8.33251 7.85901C7.85053 7.39661 7.50933 6.95193 7.28559 6.62378C7.03388 5.41278 7.51306 4.47307 8.55065 3.64244C9.75046 2.68222 11.0323 2.22728 12.7831 1.67725C13.0805 1.58402 13.3284 1.51224 13.5 1.46376C13.6743 1.42368 13.8775 1.37707 14.0752 1.33139C15.2051 1.07129 15.77 0.941703 16.0105 0.890429C16.8561 0.710504 17.4937 0.618211 18.2545 0.507273C18.715 0.440151 19.3554 0.347859 20.2057 0.267685C20.6858 0.222005 21.0447 0.197766 21.7616 0.149289C22.197 0.119457 22.6761 0.0877609 23.3147 0.0579288C23.6261 0.0439451 24.0764 0.0234346 24.6749 0.0103831C24.9835 0.00385734 25.5335 -0.00453167 26.2252 0.00292634C27.0782 0.0122489 27.7205 0.040216 27.8725 0.047674C28.4104 0.0719126 28.843 0.101745 29.4499 0.143696C29.6438 0.156747 29.8591 0.172596 30.2908 0.205225C30.9499 0.253702 31.388 0.28633 31.9651 0.333875C32.2699 0.359045 32.4788 0.375826 32.7761 0.403793C33.204 0.442948 33.6012 0.479306 34.0999 0.539903C34.3591 0.569735 34.7106 0.612618 35.1627 0.685334ZM12.3244 7.11414C12.9788 7.36865 13.6501 7.6418 14.3614 7.83197C16.8598 8.5004 19.431 8.8183 22.0226 9.015C24.3113 9.18933 26.6065 9.22662 28.9045 9.16975C32.3315 9.08492 35.7295 8.81923 39.0343 7.97181C39.7624 7.78536 40.4644 7.51874 41.0928 7.13838C42.0297 6.57157 42.0409 5.91806 41.2102 5.24964C40.6043 4.76207 39.8519 4.55045 39.1192 4.32671C36.7102 3.59116 34.196 3.27606 31.6677 3.06724C29.2289 2.86587 26.7827 2.77917 24.3309 2.84723C20.7259 2.94698 17.1414 3.16326 13.6827 4.14958C12.9015 4.37239 12.1547 4.66698 11.5497 5.17972C11.1097 5.55262 11.0444 6.00103 11.422 6.41961C11.6653 6.69183 11.9664 6.91557 12.3244 7.11414Z" fill="#FFCF85"/>
<path d="M7.2547 6.43243C7.41971 6.77364 7.6015 7.0384 7.75159 7.22764C7.82244 7.31714 8.00609 7.54275 8.28577 7.79166C8.45358 7.94082 8.60833 8.05735 8.73325 8.14311C9.24133 8.47313 9.98433 8.92061 10.9222 9.36903C12.0465 9.90693 13.856 10.5893 17.9355 11.2773C20.6875 11.7416 23.4731 11.9448 26.2764 11.9775C28.4364 12.0026 30.588 11.915 32.7369 11.723C35.0582 11.516 37.3347 11.1021 39.5609 10.5148C41.2045 10.0813 42.7893 9.50327 44.1607 8.56076C44.8794 8.06667 45.4332 7.47469 45.7427 6.71863C45.7371 8.05455 45.739 9.39047 45.7222 10.7264C45.7147 11.3156 45.7912 11.9122 45.4966 12.4781C45.2188 13.0123 44.8375 13.4616 44.3098 13.8373C43.6228 14.3267 42.9077 14.764 42.0883 15.066C42.0417 14.9252 41.9811 14.7127 41.9466 14.4498C41.8291 13.5548 42.1405 13.0551 41.8953 12.8678C41.7098 12.7261 41.3192 12.8491 40.9509 12.8044C40.8931 12.7978 40.867 12.8053 40.8148 12.7978C40.5836 12.7652 40.4783 12.8417 40.4792 13.0524C40.482 13.9352 40.4755 14.818 40.4727 15.7018C39.0827 16.1968 37.606 16.4113 36.1582 16.7198C36.1592 16.2071 36.1508 15.6934 36.162 15.1807C36.1815 14.2624 36.1862 14.2624 35.1477 14.2242C35.0265 14.2195 34.9053 14.213 34.7832 14.2139C34.6051 14.2149 34.5025 14.2783 34.5035 14.4517C34.5072 15.2944 34.5044 16.1372 34.5044 16.9809C33.0837 17.1916 31.6536 17.3305 30.2114 17.3612C30.1377 16.704 30.1927 16.0458 30.2002 15.3886C30.2067 14.8311 30.2189 14.8302 29.6054 14.8087C29.3481 14.8003 29.0899 14.8022 28.8317 14.7966C28.6443 14.7929 28.5445 14.8684 28.5492 15.0334C28.5734 15.8361 28.4606 16.6397 28.5604 17.4414C27.0837 17.4955 25.6098 17.4619 24.1378 17.3454C24.2347 16.5613 24.217 15.7727 24.2422 14.9858C24.2478 14.8218 24.1592 14.7491 23.9644 14.7518C23.6157 14.7565 23.2652 14.763 22.9184 14.7407C22.676 14.7248 22.5958 14.7957 22.5958 15.0008C22.5958 15.7643 22.5837 16.5287 22.5763 17.2922C21.1108 17.2503 19.676 16.9986 18.231 16.8149C18.2506 16.236 18.2748 15.6571 18.2879 15.0781C18.3112 13.9781 18.3084 13.9809 17.0331 14.0275C16.883 14.0331 16.7767 14.0471 16.7133 14.1123C16.6313 14.1962 16.6415 14.3249 16.6425 14.365C16.6527 14.6213 16.5791 15.3755 16.4402 16.5352C15.9228 16.4448 15.4902 16.3497 15.1695 16.2724C14.6158 16.14 14.1944 16.015 13.7898 15.8948C13.6201 15.8444 13.25 15.7335 12.7783 15.5788C12.5807 15.5135 12.4119 15.4566 12.2842 15.4128C12.2105 14.3128 12.3392 13.6481 12.3616 13.2071C12.3961 12.5331 12.3709 12.5303 11.5738 12.507C11.3771 12.5014 11.1795 12.5135 10.9837 12.5014C10.76 12.4874 10.7087 12.5648 10.7096 12.7559C10.7143 13.4271 10.6928 14.0983 10.6817 14.7686C9.94518 14.4321 9.13039 13.9921 8.28857 13.415C7.92312 13.1642 7.58565 12.9097 7.27614 12.6589C7.27055 10.5837 7.26216 8.50763 7.2547 6.43243Z" fill="#FFA81E"/>
<path d="M16.44 16.5363C16.4745 15.6348 16.509 14.7333 16.5435 13.8318C17.1392 13.9204 17.7349 14.0099 18.3306 14.0985C18.3036 15.0037 18.2765 15.9098 18.2495 16.8151C17.6473 16.7218 17.0441 16.6295 16.44 16.5363Z" fill="#BE7C13"/>
<path d="M10.6433 14.7377C10.6797 13.8539 10.716 12.9701 10.7524 12.0864C11.3127 12.2616 11.872 12.4369 12.4323 12.6122C12.3838 13.5453 12.3353 14.4795 12.2859 15.4126C11.7387 15.188 11.1915 14.9624 10.6433 14.7377Z" fill="#BE7C13"/>
<path d="M40.4306 15.679C40.4306 14.6871 40.4296 13.6961 40.4296 12.7042C40.9974 12.5336 41.5651 12.3621 42.1319 12.1915C42.1263 13.1349 42.1207 14.0793 42.1151 15.0227C41.6127 15.3537 41.0169 15.5075 40.4306 15.679Z" fill="#BE7C13"/>
<path d="M22.5196 17.2905C22.5513 16.3648 22.5821 15.4391 22.6138 14.5134C23.1796 14.5516 23.7464 14.5907 24.3123 14.629C24.2778 15.5407 24.2443 16.4525 24.2098 17.3642C23.6458 17.339 23.0827 17.3148 22.5196 17.2905Z" fill="#BE7C13"/>
<path d="M12.3235 7.11336C11.9655 6.91572 11.6653 6.69105 11.4211 6.4207C11.2514 6.23238 11.1712 6.03848 11.174 5.8483C11.174 5.8483 11.1778 5.51362 11.5488 5.1808C15.0298 2.05496 26.1954 2.06335 26.1954 2.06335C26.1954 2.06335 37.3442 2.07174 41.2093 5.24979C41.378 5.3887 41.846 5.77465 41.8125 6.24544C41.7901 6.55867 41.5533 6.85886 41.0918 7.13853C40.4635 7.51796 39.7615 7.78458 39.0334 7.97196C35.7286 8.81938 32.3305 9.08507 28.9036 9.16991C26.6065 9.22678 24.3104 9.18949 22.0217 9.01515C19.43 8.81845 16.8589 8.50055 14.3605 7.83213C13.6491 7.64008 12.977 7.36787 12.3235 7.11336Z" fill="#FFA81E"/>
<path d="M13.1861 23.2731C13.2206 22.3716 13.2551 21.4702 13.2896 20.5687C13.8853 20.6572 14.481 20.7467 15.0767 20.8353C15.0497 21.7405 15.0226 22.6467 14.9956 23.5519C14.3924 23.4586 13.7893 23.3663 13.1861 23.2731Z" fill="#BE7C13"/>
<path d="M7.3786 21.5257C7.41496 20.6419 7.45132 19.7582 7.48767 18.8744C8.04796 19.0497 8.60731 19.2249 9.16759 19.4002C9.11911 20.3334 9.07064 21.2675 9.02123 22.2007C8.474 21.9751 7.92583 21.7504 7.3786 21.5257Z" fill="#BE7C13"/>
<path d="M19.2629 24.0247C19.2946 23.099 19.3254 22.1732 19.3571 21.2475C19.923 21.2857 20.4898 21.3249 21.0557 21.3631C21.0212 22.2748 20.9876 23.1866 20.9531 24.0983C20.39 24.0741 19.827 24.0489 19.2629 24.0247Z" fill="#BE7C13"/>
<path d="M25.5021 5.21848C25.257 5.21848 25.0174 5.20077 24.8123 5.16721C24.6081 5.13365 24.4478 5.08704 24.3527 5.03203L22.0556 3.70917L23.4941 3.71196C23.66 3.71196 23.8222 3.72502 23.9583 3.74832C24.0944 3.77163 24.1988 3.80426 24.2566 3.84248L25.5105 4.67312L26.7308 3.86206C26.7952 3.82011 26.9117 3.78375 27.0637 3.75764C27.2156 3.73154 27.3974 3.71849 27.5829 3.71849L28.9533 3.72036L26.646 5.03576C26.5509 5.08983 26.3915 5.13645 26.1873 5.16907C25.985 5.2017 25.7464 5.21848 25.5021 5.21848Z" fill="#FFA81E"/>
<path d="M26.7707 6.97752C26.9991 6.95794 27.2471 6.95514 27.4829 6.96913C27.7188 6.98311 27.9332 7.01388 28.0992 7.05769L32.1181 8.11207L30.7673 8.22953C30.6106 8.24352 30.441 8.24445 30.2797 8.23419C30.1193 8.22394 29.9748 8.20157 29.8676 8.16987L27.5286 7.49119L27.5268 8.35725C27.5258 8.40293 27.469 8.44675 27.3617 8.48311C27.2545 8.5204 27.1044 8.54836 26.9292 8.56328L25.6408 8.67515L25.955 7.24414C25.968 7.18448 26.0519 7.12761 26.1974 7.081C26.3419 7.03345 26.5414 6.9971 26.7707 6.97752Z" fill="#FFA81E"/>
<path d="M24.2268 6.97422C24.4562 6.99473 24.6557 7.03109 24.8002 7.07957C24.9456 7.12711 25.0295 7.18491 25.0416 7.24364L25.3483 8.67558L23.9984 8.55439C23.8427 8.54041 23.7085 8.5143 23.6143 8.48074C23.5193 8.44718 23.468 8.40803 23.468 8.36794L23.4568 7.4851L21.156 8.1442C21.0357 8.17869 20.8745 8.20293 20.6955 8.21412C20.5155 8.22531 20.3263 8.22251 20.151 8.20759L18.8636 8.09106L22.8881 7.04974C23.055 7.00685 23.2722 6.97609 23.5099 6.96304C23.7477 6.94905 23.9975 6.95371 24.2268 6.97422Z" fill="#FFA81E"/>
<path d="M28.7415 6.57673C28.8637 6.52546 29.0454 6.48444 29.2636 6.45834C29.4817 6.43223 29.7279 6.42198 29.9702 6.42944L35.8183 6.61309L35.0986 6.91514C35.0156 6.95057 34.8897 6.97853 34.7387 6.99531C34.5877 7.01209 34.4189 7.01769 34.2539 7.01116L30.6778 6.85454L32.9637 7.52203C33.083 7.55653 33.1557 7.59941 33.1716 7.64509C33.1874 7.68984 33.1464 7.73552 33.0532 7.77468L32.368 8.06274L28.8245 6.91141C28.6772 6.86387 28.5914 6.807 28.5765 6.74733C28.5616 6.68674 28.6194 6.62801 28.7415 6.57673Z" fill="#FFA81E"/>
<path d="M22.2564 6.5665C22.3785 6.61778 22.4363 6.67744 22.4214 6.73617C22.4065 6.79584 22.3207 6.85177 22.1734 6.89932L18.6318 8.03946L17.913 7.73554C17.83 7.70012 17.7937 7.66003 17.8077 7.61901C17.8216 7.57893 17.8869 7.5407 17.9932 7.50901L20.3191 6.83406L16.8111 6.97856C16.6265 6.98601 16.4373 6.98042 16.2676 6.96084C16.0979 6.94127 15.9571 6.90957 15.8639 6.86948L15.1787 6.58049L21.0277 6.41548C21.27 6.40895 21.5162 6.41921 21.7343 6.44624C21.9534 6.47328 22.1352 6.51523 22.2564 6.5665Z" fill="#FFA81E"/>
<path d="M29.1349 5.96315C29.092 5.90442 29.1209 5.84476 29.2188 5.78975C29.3157 5.73568 29.477 5.68907 29.6821 5.65737L34.6259 4.88361L34.8748 5.22854C34.9027 5.26863 34.8804 5.30964 34.8104 5.346C34.7405 5.38236 34.6259 5.41312 34.4823 5.43363L31.3434 5.87273L34.8505 6.02934C35.0332 6.03773 35.202 6.05917 35.3325 6.0918C35.4639 6.12443 35.5516 6.16545 35.5833 6.20927L35.8219 6.53742L30.0793 6.20461C29.8415 6.19062 29.6253 6.16079 29.4575 6.11791C29.2896 6.07595 29.1778 6.02188 29.1349 5.96315Z" fill="#FFA81E"/>
<path d="M21.8676 5.95027C21.8257 6.009 21.7138 6.06307 21.546 6.10596C21.3782 6.14884 21.1619 6.17867 20.9232 6.19172L15.1787 6.50496L15.4295 6.16096C15.4575 6.12087 15.5358 6.08451 15.6532 6.05562C15.7707 6.02672 15.9217 6.00807 16.0858 6.00061L19.6619 5.84959L16.5808 5.41423C16.4205 5.39092 16.2918 5.35736 16.2135 5.31541C16.1352 5.27439 16.11 5.22871 16.1417 5.18396L16.3795 4.85394L21.3222 5.64356C21.5264 5.67619 21.6877 5.7228 21.7846 5.77687C21.8807 5.83188 21.9096 5.89247 21.8676 5.95027Z" fill="#FFA81E"/>
<path d="M27.9159 5.41183C27.7285 5.37361 27.5924 5.32234 27.5234 5.26547C27.4544 5.2086 27.4554 5.14801 27.5271 5.09114L29.2518 3.7226L30.3519 3.951C30.4787 3.9771 30.5709 4.01159 30.6157 4.05075C30.6604 4.0899 30.6558 4.13092 30.6017 4.16914L29.3637 4.99791L32.4485 4.57001C32.6098 4.54764 32.7962 4.53831 32.9808 4.54204C33.1663 4.54671 33.3425 4.56442 33.4852 4.59332L34.533 4.8096L29.2798 5.45192C29.0626 5.47802 28.8174 5.48921 28.5741 5.48175C28.3317 5.47523 28.1023 5.45099 27.9159 5.41183Z" fill="#FFA81E"/>
<path d="M23.0869 5.40214C22.8995 5.44036 22.6711 5.46366 22.4278 5.47019C22.1854 5.47672 21.9402 5.46553 21.723 5.43849L16.4716 4.77939L17.5735 4.55659C17.7013 4.53048 17.8597 4.51463 18.0257 4.51184C18.1926 4.50811 18.3594 4.51743 18.5039 4.53794L21.6521 4.98169L20.4374 4.16597C20.374 4.12309 20.3656 4.07741 20.4132 4.03359C20.4607 3.98978 20.5623 3.95155 20.704 3.92172L21.7584 3.70917L23.4831 5.08331C23.5539 5.14017 23.553 5.20077 23.4831 5.25764C23.4122 5.31357 23.2752 5.36391 23.0869 5.40214Z" fill="#FFA81E"/>
<path d="M26.6836 5.02183C26.4161 5.02183 26.1541 5.00411 25.9313 4.97055C25.7085 4.93699 25.5332 4.89038 25.4297 4.83538L22.9229 3.51251L24.4928 3.51531C24.6746 3.51531 24.8508 3.52836 25 3.55167C25.1491 3.57497 25.2619 3.6076 25.3253 3.64582L26.6948 4.47739L28.027 3.66633C28.0969 3.62438 28.2237 3.58802 28.3906 3.56192C28.5565 3.53675 28.7551 3.52277 28.9574 3.52277L30.4527 3.52556L27.9338 4.84097C27.8294 4.89504 27.656 4.94165 27.4331 4.97428C27.2113 5.00505 26.9502 5.02276 26.6836 5.02183Z" fill="#FFDCA2"/>
<path d="M28.0692 6.78086C28.3191 6.76129 28.5894 6.75849 28.8467 6.77247C29.105 6.78646 29.338 6.81722 29.5198 6.86104L33.9061 7.91634L32.4322 8.03381C32.2616 8.04779 32.076 8.04872 31.8999 8.03847C31.7246 8.02821 31.567 8.00584 31.4496 7.97415L28.8961 7.29547L28.8943 8.16153C28.8933 8.20721 28.8309 8.25102 28.7143 8.28738C28.5978 8.32467 28.4328 8.35264 28.2426 8.36756L26.8368 8.47943L27.1789 7.04842C27.1929 6.98875 27.2852 6.93282 27.4428 6.88527C27.6012 6.8368 27.8194 6.80137 28.0692 6.78086Z" fill="#FFDCA2"/>
<path d="M25.2938 6.7751C25.5436 6.79561 25.7618 6.8329 25.9203 6.88045C26.0787 6.92799 26.1701 6.98579 26.1841 7.04453L26.5188 8.47646L25.0449 8.35434C24.8752 8.33942 24.7288 8.31425 24.6254 8.28069C24.5219 8.24713 24.4659 8.20798 24.465 8.16789L24.452 7.28505L21.9405 7.94415C21.809 7.97864 21.6338 8.00288 21.4371 8.01407C21.2413 8.02525 21.0334 8.02246 20.8432 8.00754L19.4374 7.89101L23.8292 6.84969C24.0119 6.8068 24.2478 6.77604 24.5079 6.76298C24.7699 6.74993 25.043 6.7546 25.2938 6.7751Z" fill="#FFDCA2"/>
<path d="M30.221 6.37964C30.3543 6.32836 30.5529 6.28734 30.7906 6.26124C31.0292 6.23514 31.2968 6.22488 31.5616 6.23327L37.9447 6.41786L37.1588 6.71991C37.0684 6.75533 36.9313 6.7833 36.7663 6.80008C36.6013 6.81686 36.4167 6.82246 36.2377 6.81593L32.3344 6.65838L34.83 7.32587C34.9606 7.36036 35.0389 7.40325 35.0566 7.44893C35.0743 7.49368 35.0295 7.53936 34.9279 7.57851L34.1803 7.86565L30.3123 6.71338C30.152 6.66584 30.0578 6.60897 30.042 6.54931C30.0261 6.48964 30.0877 6.43091 30.221 6.37964Z" fill="#FFDCA2"/>
<path d="M23.1413 6.36809C23.2746 6.41937 23.3371 6.47903 23.3212 6.53776C23.3054 6.59743 23.2112 6.65336 23.0509 6.70091L19.1848 7.84012L18.4008 7.53621C18.3104 7.50078 18.2703 7.46069 18.2861 7.41967C18.302 7.37959 18.3728 7.34136 18.4884 7.30967L21.0269 6.63472L17.1982 6.77828C16.9968 6.78574 16.7898 6.78015 16.6043 6.76057C16.4188 6.74099 16.265 6.7093 16.1634 6.66921L15.4157 6.38021L21.7998 6.21614C22.0645 6.20961 22.333 6.21987 22.5717 6.2469C22.8103 6.27394 23.008 6.31589 23.1413 6.36809Z" fill="#FFDCA2"/>
<path d="M30.6504 5.76557C30.6038 5.70683 30.6354 5.64717 30.7417 5.59217C30.848 5.5381 31.0242 5.49148 31.2479 5.45979L36.6438 4.68695L36.916 5.03188C36.9468 5.07197 36.9226 5.11299 36.8461 5.14935C36.7697 5.18571 36.6447 5.21647 36.4881 5.23698L33.0621 5.67607L36.8899 5.83362C37.0894 5.84201 37.2731 5.86345 37.4166 5.89608C37.5602 5.92871 37.6553 5.96973 37.6907 6.01448L37.9508 6.34263L31.6824 6.00888C31.4232 5.9949 31.1864 5.96507 31.0037 5.92125C30.8191 5.87837 30.696 5.8243 30.6504 5.76557Z" fill="#FFDCA2"/>
<path d="M22.7162 5.75373C22.6705 5.81246 22.5484 5.86653 22.3647 5.90848C22.1811 5.95136 21.9452 5.9812 21.6851 5.99332L15.4157 6.30562L15.6889 5.96162C15.7196 5.92153 15.8054 5.88517 15.9331 5.85627C16.0618 5.82737 16.2258 5.80873 16.4058 5.80127L20.3091 5.65118L16.9455 5.21488C16.7703 5.19158 16.6304 5.15709 16.5447 5.11607C16.4589 5.07505 16.4319 5.02937 16.4664 4.98462L16.7255 4.6546L22.1205 5.44515C22.3433 5.47778 22.5195 5.52439 22.6248 5.57846C22.7311 5.6344 22.7628 5.69499 22.7162 5.75373Z" fill="#FFDCA2"/>
<path d="M29.3197 5.21524C29.1156 5.17702 28.9664 5.12574 28.8909 5.06888C28.8154 5.01201 28.8172 4.95141 28.8956 4.89455L30.7768 3.526L31.9776 3.7544C32.1165 3.78051 32.2162 3.815 32.2647 3.85415C32.3132 3.89331 32.3076 3.93433 32.2498 3.97255L30.899 4.80132L34.2653 4.37435C34.4415 4.35198 34.6447 4.34265 34.847 4.34638C35.0493 4.35104 35.2414 4.36876 35.3971 4.39766L36.5409 4.61394L30.8076 5.25533C30.5699 5.28143 30.3023 5.29168 30.0376 5.28516C29.7737 5.2777 29.5239 5.25346 29.3197 5.21524Z" fill="#FFDCA2"/>
<path d="M24.0484 5.20466C23.8443 5.24288 23.5944 5.26619 23.3297 5.27178C23.0649 5.27831 22.7973 5.26712 22.5596 5.23915L16.8272 4.57912L18.0307 4.35631C18.1706 4.33021 18.343 4.31436 18.5248 4.31156C18.7066 4.30783 18.8884 4.31716 19.0469 4.33767L22.4832 4.78235L21.1575 3.9657C21.0885 3.92281 21.0792 3.87713 21.1314 3.83332C21.1836 3.7895 21.2936 3.75128 21.4484 3.72238L22.5997 3.50983L24.4829 4.88397C24.5593 4.94083 24.5593 5.00143 24.4829 5.0583C24.4046 5.1161 24.2535 5.16644 24.0484 5.20466Z" fill="#FFDCA2"/>
<path d="M27.2406 16.143C26.0706 17.9003 24.8997 19.6585 23.7297 21.4158C23.6869 21.6852 23.6309 22.1187 23.6263 22.6548C23.6169 23.7632 23.8332 24.7505 24.2406 25.8981C24.7198 27.2471 26.3401 30.7346 29.794 33.9397C31.17 35.2663 35.1144 38.8228 41.0193 40.816C45.7076 42.3989 48.0858 41.7995 49.4096 41.2038C49.6706 41.0863 49.8803 40.9735 50.0211 40.8943C51.4428 39.275 52.8645 37.6566 54.2862 36.0373C52.8412 36.7094 50.4667 37.5913 47.4481 37.7144C47.4481 37.7144 41.8397 37.9465 36.6703 34.6883C27.7058 29.037 27.2639 17.1974 27.2406 16.143Z" fill="#FFA81E"/>
<path d="M54.4053 35.8605C57.4952 31.5542 53.8884 23.6779 46.3493 18.2683C38.8101 12.8587 30.1935 11.9642 27.1036 16.2705C24.0137 20.5768 27.6205 28.4531 35.1596 33.8628C42.6988 39.2724 51.3154 40.1668 54.4053 35.8605Z" fill="#FFCF85"/>
<path d="M51.3543 33.5345C53.8347 30.215 51.0844 23.9664 45.2114 19.578C39.3384 15.1895 32.5666 14.3229 30.0862 17.6424C27.6058 20.9619 30.3561 27.2104 36.2291 31.5989C42.1021 35.9874 48.8739 36.8539 51.3543 33.5345Z" fill="#FFA81E"/>
<path d="M27.7761 28.5365C27.337 29.0455 26.8979 29.5545 26.4597 30.0635C26.7869 30.5036 27.1142 30.9436 27.4404 31.3836C27.8497 30.8634 28.258 30.3432 28.6673 29.8239C28.3699 29.3942 28.0725 28.9653 27.7761 28.5365Z" fill="#BE7C13"/>
<path d="M40.4209 38.511C40.241 38.7609 40.061 39.0117 39.8811 39.2643C39.6695 39.5608 39.4597 39.8572 39.2518 40.1527C39.4728 40.2432 39.7002 40.3327 39.9333 40.4212C40.1999 40.5219 40.4619 40.617 40.7183 40.7056C40.8786 40.48 41.0399 40.2469 41.2002 40.0073C41.4081 39.6969 41.6048 39.392 41.7922 39.0918C41.3354 38.8979 40.8777 38.705 40.4209 38.511Z" fill="#BE7C13"/>
<path d="M25.1106 23.504C25.1013 23.4695 25.078 23.3614 25.0323 23.2187C24.9764 23.0453 24.9167 22.9083 24.8748 22.8179C24.5028 23.2719 24.1299 23.725 23.7579 24.179C23.8036 24.4307 23.8642 24.7001 23.9425 24.9854C24.0404 25.3415 24.1523 25.664 24.266 25.9512C24.4795 25.7032 24.6948 25.444 24.9121 25.1737C25.0966 24.9434 25.2728 24.7159 25.4416 24.4913C25.2971 24.1668 25.1983 23.8144 25.1106 23.504Z" fill="#BE7C13"/>
<path d="M47.2075 40.1791C46.9045 40.1698 46.5819 40.1493 46.2416 40.1129C45.9918 40.0859 45.7541 40.0523 45.5275 40.0141C45.3747 40.2714 45.2208 40.5427 45.0661 40.828C44.9048 41.1253 44.7547 41.4162 44.6149 41.6996C45.1509 41.7444 45.687 41.7891 46.2221 41.8329C46.5512 41.282 46.8793 40.731 47.2075 40.1791Z" fill="#BE7C13"/>
<path d="M35.551 36.0706C35.3431 36.3447 35.1342 36.629 34.9245 36.9246C34.7595 37.1567 34.601 37.387 34.449 37.6144C34.6541 37.7524 34.8695 37.8922 35.0951 38.0311C35.3347 38.1794 35.5696 38.3173 35.798 38.446C35.9779 38.1673 36.4655 37.4121 36.6454 37.1334C36.6557 37.1166 36.8272 36.8518 36.8384 36.8351C36.4086 36.5796 35.9798 36.3251 35.551 36.0706Z" fill="#BE7C13"/>
<path d="M31.3873 32.6362C30.9808 33.1984 30.5753 33.7615 30.1688 34.3236C30.5557 34.662 30.9435 35.0004 31.3304 35.3388C31.7136 34.7879 32.0958 34.2378 32.4789 33.6869C32.3074 33.5452 32.1293 33.3886 31.9476 33.2152C31.7397 33.0175 31.5541 32.8227 31.3873 32.6362Z" fill="#BE7C13"/>
<path d="M41.9812 23.6758C41.7705 23.5266 41.5869 23.3467 41.4545 23.1603C41.3221 22.9738 41.2466 22.7892 41.2373 22.6289L41.0107 18.7693L42.246 19.6513C42.3886 19.7529 42.5117 19.8759 42.5974 20.0027C42.6841 20.1295 42.7298 20.2535 42.7298 20.3598L42.7102 22.6699L44.8358 21.9064C44.9476 21.8672 45.0959 21.87 45.2609 21.9157C45.4259 21.9614 45.6002 22.0462 45.7596 22.1599L46.9371 22.9999L43.2081 24.0375C43.0542 24.0804 42.8547 24.0701 42.6366 24.0058C42.4194 23.9396 42.191 23.8259 41.9812 23.6758Z" fill="#FFDCA2"/>
<path d="M40.7488 27.7171C40.9716 27.8196 41.1888 27.966 41.3734 28.1366C41.558 28.3072 41.7016 28.4946 41.7874 28.6773L43.8523 33.0887L42.5341 32.4828C42.3812 32.4129 42.233 32.3112 42.108 32.1938C41.9841 32.0763 41.889 31.9467 41.8377 31.8237L40.7209 29.136L39.5733 30.7451C39.5127 30.829 39.4045 30.8756 39.2637 30.8793C39.123 30.883 38.9561 30.8429 38.7855 30.7646L37.5279 30.1866L39.6926 27.718C39.7821 27.6155 39.9294 27.5614 40.1177 27.5614C40.306 27.5605 40.5251 27.6146 40.7488 27.7171Z" fill="#FFDCA2"/>
<path d="M38.5626 26.16C38.7323 26.338 38.8563 26.5282 38.9178 26.7053C38.9793 26.8825 38.9756 27.041 38.9085 27.1584L37.277 30.0074L36.2749 28.9577C36.1602 28.8355 36.0781 28.7069 36.0409 28.5866C36.0036 28.4664 36.011 28.362 36.0642 28.2864L37.2229 26.6373L34.3684 26.4592C34.2192 26.449 34.0486 26.3968 33.879 26.3082C33.7093 26.2196 33.5489 26.0994 33.4194 25.9633L32.4638 24.962L37.3087 25.4804C37.5101 25.5018 37.7366 25.5773 37.9594 25.6985C38.1822 25.8216 38.392 25.981 38.5626 26.16Z" fill="#FFDCA2"/>
<path d="M42.9774 28.1759C43.1508 28.1554 43.3615 28.1899 43.5843 28.2738C43.8071 28.3587 44.0318 28.4901 44.2304 28.6514L49.024 32.5603L48.0041 32.6824C47.8857 32.6964 47.7412 32.6722 47.5883 32.6116C47.4354 32.551 47.2826 32.4578 47.1502 32.345L44.2779 29.8717L45.363 32.5072C45.4199 32.6442 45.4255 32.7682 45.3798 32.8624C45.3341 32.9556 45.2391 33.0143 45.1076 33.0302L44.1371 33.1467L42.6092 28.8453C42.5458 28.6672 42.5467 28.5088 42.612 28.3894C42.6763 28.271 42.804 28.1964 42.9774 28.1759Z" fill="#FFDCA2"/>
<path d="M37.4049 24.1982C37.4422 24.3688 37.4133 24.5133 37.322 24.6139C37.2306 24.7146 37.0814 24.7678 36.8922 24.7659L32.3335 24.7239L32.1172 23.7208C32.093 23.6043 32.1144 23.5064 32.1806 23.4402C32.2468 23.374 32.3531 23.3423 32.4854 23.3489L35.382 23.5129L32.1694 21.641C32.0007 21.5431 31.845 21.4154 31.7247 21.2755C31.6045 21.1357 31.5252 20.9912 31.4973 20.8607L31.2894 19.9061L36.5445 23.1671C36.7626 23.3023 36.9603 23.4719 37.1131 23.6556C37.267 23.8392 37.3676 24.0276 37.4049 24.1982Z" fill="#FFDCA2"/>
<path d="M44.125 27.2767C44.166 27.1416 44.2704 27.0474 44.4261 27.0064C44.5818 26.9644 44.7813 26.9775 45.0003 27.0428L50.2815 28.6201L50.0401 29.4125C50.0112 29.5039 49.9375 29.5664 49.8294 29.5915C49.7203 29.6167 49.5814 29.6036 49.4313 29.5542L46.1461 28.456L48.9596 30.8864C49.106 31.0132 49.2225 31.1558 49.2924 31.2957C49.3623 31.4355 49.3838 31.5651 49.3521 31.6677L49.1228 32.4237L44.6172 28.3022C44.4307 28.1316 44.2844 27.9433 44.1967 27.7606C44.1091 27.5807 44.0839 27.4119 44.125 27.2767Z" fill="#FFDCA2"/>
<path d="M37.8804 22.8207C37.7667 22.9036 37.5989 22.9353 37.3975 22.913C37.1961 22.8906 36.9705 22.8132 36.7487 22.692L31.3864 19.7713L32.0576 19.2846C32.135 19.2278 32.2515 19.2063 32.3904 19.225C32.5293 19.2436 32.685 19.2995 32.836 19.3872L36.1157 21.288L34.0377 18.5994C33.9295 18.4587 33.8643 18.317 33.8512 18.192C33.8382 18.068 33.8773 17.9674 33.9631 17.904L34.6036 17.436L37.8161 21.9182C37.9494 22.1038 38.0258 22.2883 38.037 22.4487C38.0492 22.609 37.9942 22.7386 37.8804 22.8207Z" fill="#FFDCA2"/>
<path d="M43.8087 25.5066C43.6987 25.321 43.6483 25.143 43.6642 24.9947C43.68 24.8465 43.7611 24.7346 43.8982 24.6731L47.1937 23.1815L47.8388 24.2769C47.9134 24.4028 47.9469 24.523 47.9339 24.6228C47.9208 24.7225 47.8621 24.7962 47.7661 24.8335L45.6023 25.6194L48.8251 26.7064C48.9939 26.7632 49.1663 26.8593 49.3201 26.9795C49.474 27.1007 49.6017 27.2415 49.6865 27.3822L50.3037 28.4236L44.9302 26.4127C44.7074 26.3297 44.4827 26.1992 44.2832 26.0379C44.0837 25.8767 43.9187 25.6921 43.8087 25.5066Z" fill="#FFDCA2"/>
<path d="M39.6586 22.5461C39.447 22.5022 39.2186 22.4062 39.0014 22.2701C38.7842 22.134 38.5875 21.9634 38.4365 21.7807L34.7858 17.3525L36.0303 17.6107C36.1748 17.6405 36.3314 17.7077 36.4797 17.8028C36.627 17.8978 36.7593 18.0172 36.8563 18.143L38.98 20.8885L39.0145 18.6306C39.0163 18.5131 39.0704 18.4218 39.1683 18.3705C39.2671 18.3183 39.406 18.308 39.5664 18.3407L40.7559 18.5886L40.4231 22.1946C40.4082 22.3438 40.328 22.4566 40.1919 22.519C40.0558 22.5815 39.8703 22.5908 39.6586 22.5461Z" fill="#FFDCA2"/>
<path d="M15.0171 30.5325C15.0516 29.631 15.0861 28.7296 15.1206 27.8281C15.7163 27.9166 16.312 28.0061 16.9077 28.0947C16.8807 28.9999 16.8536 29.9061 16.8266 30.8113C16.2244 30.718 15.6212 30.6258 15.0171 30.5325Z" fill="#BE7C13"/>
<path d="M9.17188 28.7637C9.2073 27.8623 9.24179 26.9598 9.27722 26.0583C9.85055 26.2383 10.4239 26.4191 10.9972 26.5991C10.9497 27.5518 10.9021 28.5046 10.8546 29.4573C10.2943 29.2261 9.73309 28.9949 9.17188 28.7637Z" fill="#BE7C13"/>
<path d="M21.0939 31.2867C21.1256 30.361 21.1564 29.4352 21.1881 28.5095C21.754 28.5477 22.3208 28.5869 22.8867 28.6251C22.8522 29.5369 22.8186 30.4486 22.7841 31.3603C22.2201 31.3352 21.657 31.3109 21.0939 31.2867Z" fill="#BE7C13"/>
<path d="M9.28497 37.6437C9.31947 36.7422 9.35396 35.8408 9.38845 34.9393C9.98416 35.0278 10.5799 35.1173 11.1756 35.2059C11.1485 36.1111 11.1215 37.0173 11.0945 37.9225C10.4913 37.8293 9.88814 37.736 9.28497 37.6437Z" fill="#BE7C13"/>
<path d="M3.47748 35.8936C3.51384 35.0099 3.55019 34.1261 3.58655 33.2423C4.14683 33.4176 4.70619 33.5928 5.26647 33.7681C5.21799 34.7013 5.16951 35.6354 5.1201 36.5686C4.57287 36.3439 4.02471 36.1183 3.47748 35.8936Z" fill="#BE7C13"/>
<path d="M15.3619 38.3953C15.3936 37.4696 15.4243 36.5438 15.456 35.6181C16.0219 35.6563 16.5887 35.6955 17.1546 35.7337C17.1201 36.6454 17.0865 37.5572 17.0521 38.4689C16.489 38.4438 15.925 38.4195 15.3619 38.3953Z" fill="#BE7C13"/>
<path d="M21.3239 38.5421C21.3146 37.6331 21.3053 36.7251 21.296 35.8161C21.8684 35.7872 22.4398 35.7574 23.0122 35.7285C23.0104 36.6431 23.0085 37.5567 23.0057 38.4712C22.4464 38.4954 21.8851 38.5187 21.3239 38.5421Z" fill="#BE7C13"/>
<path d="M27.2679 38.0946C27.2669 37.1828 27.266 36.272 27.2651 35.3603C27.8272 35.2885 28.3884 35.2158 28.9506 35.144C28.9478 36.0361 28.945 36.9274 28.9422 37.8195C28.3838 37.9109 27.8263 38.0023 27.2679 38.0946Z" fill="#BE7C13"/>
</svg>
