<svg width="12" height="13" viewBox="0 0 12 13" fill="none" xmlns="http://www.w3.org/2000/svg">
<path d="M6.00293 11.9963C9.31563 11.9963 12.0011 9.31087 12.0011 5.99817C12.0011 2.68547 9.31563 0 6.00293 0C2.69023 0 0.00476074 2.68547 0.00476074 5.99817C0.00476074 9.31087 2.69023 11.9963 6.00293 11.9963Z" fill="#FFCF85"/>
<path d="M5.96021 10.8442C8.6263 10.8442 10.7876 8.68294 10.7876 6.01685C10.7876 3.35075 8.6263 1.18945 5.96021 1.18945C3.29411 1.18945 1.13281 3.35075 1.13281 6.01685C1.13281 8.68294 3.29411 10.8442 5.96021 10.8442Z" fill="#FFA91F"/>
<path d="M5.92355 4.80129C5.83609 4.80173 5.75039 4.77615 5.67737 4.72783C5.60434 4.67951 5.54706 4.61064 5.51295 4.52975L4.69177 2.58655H5.20534C5.26459 2.58677 5.32253 2.60491 5.37128 2.63902C5.42004 2.67313 5.4572 2.72123 5.47775 2.77698L5.92639 3.99782L6.36168 2.79993C6.38464 2.7374 6.42618 2.68362 6.4804 2.64536C6.53484 2.60732 6.59956 2.58677 6.6658 2.58655H7.15532L6.33217 4.52975C6.29828 4.61021 6.24122 4.67907 6.16863 4.72717C6.09605 4.77571 6.01078 4.80129 5.92355 4.80129Z" fill="#DD9219"/>
<path d="M6.37301 7.385C6.45456 7.35548 6.54311 7.35067 6.6275 7.371C6.71189 7.39134 6.78841 7.43616 6.84766 7.49978L8.28364 9.04332L7.80133 9.21954C7.74537 9.23987 7.6848 9.24249 7.6273 9.22719C7.5698 9.21189 7.51843 9.17931 7.47995 9.13383L6.64412 8.14015V9.41565C6.6439 9.48233 6.62335 9.54727 6.5853 9.60192C6.54726 9.65658 6.49326 9.69812 6.43095 9.72108L5.97095 9.88855L6.08201 7.78028C6.0866 7.69305 6.11656 7.60909 6.16837 7.53891C6.22019 7.46851 6.29124 7.41517 6.37301 7.385Z" fill="#DD9219"/>
<path d="M5.46434 7.38629C5.54611 7.41624 5.61738 7.46959 5.66942 7.53998C5.72123 7.61017 5.7514 7.69434 5.756 7.78157L5.86662 9.88984L5.38432 9.71406C5.32879 9.69329 5.28091 9.65591 5.24702 9.60715C5.21313 9.5584 5.19477 9.50024 5.19455 9.44077L5.18974 8.13991L4.36856 9.11632C4.32549 9.16704 4.2682 9.20334 4.20393 9.22039C4.13987 9.23744 4.07187 9.23438 4.00956 9.21165L3.54956 9.04352L4.98597 7.49998C5.04566 7.43592 5.12284 7.39088 5.2081 7.37054C5.29293 7.35043 5.38213 7.3559 5.46434 7.38629Z" fill="#DD9219"/>
<path d="M7.07841 6.79304C7.12214 6.71739 7.18686 6.65618 7.26491 6.61726C7.34296 6.57834 7.43063 6.56304 7.51699 6.57353L9.6058 6.83021L9.34891 7.27643C9.31917 7.32825 9.27435 7.36979 9.22057 7.39515C9.16679 7.42073 9.10623 7.42904 9.04741 7.4192L7.76995 7.19685L8.58698 8.17436C8.62961 8.22552 8.65541 8.28826 8.66131 8.35473C8.66721 8.42119 8.65235 8.48766 8.61933 8.54516L8.3749 8.9704L7.10837 7.28343C7.0559 7.21369 7.02507 7.12995 7.0196 7.04272C7.01436 6.95548 7.03491 6.86869 7.07841 6.79304Z" fill="#DD9219"/>
<path d="M4.76491 6.79339C4.80864 6.86904 4.82919 6.95584 4.82394 7.04307C4.81869 7.1303 4.78787 7.21404 4.73539 7.28378L3.47126 8.97075L3.21437 8.52452C3.18486 8.4727 3.17152 8.41302 3.17677 8.35333C3.1818 8.29386 3.20497 8.23724 3.24301 8.19111L4.07338 7.1913L2.82061 7.41212C2.75481 7.42415 2.68703 7.41518 2.62647 7.38698C2.56591 7.35877 2.5154 7.31221 2.48217 7.25405L2.2373 6.83034L4.32611 6.57367C4.41269 6.56295 4.50058 6.57804 4.57864 6.61696C4.65625 6.65631 4.72118 6.71753 4.76491 6.79339Z" fill="#DD9219"/>
<path d="M7.21918 5.88759C7.20387 5.80145 7.21415 5.7129 7.24891 5.63266C7.28367 5.55242 7.34117 5.48421 7.41442 5.43677L9.17943 4.28589L9.26863 4.7929C9.27869 4.85171 9.27082 4.91205 9.24568 4.96627C9.22053 5.02049 9.17987 5.06553 9.12849 5.0957L8.00756 5.75029L9.26033 5.97263C9.3257 5.98422 9.38582 6.01592 9.43261 6.06293C9.47939 6.10994 9.51088 6.1705 9.52225 6.23587L9.60773 6.71904L7.55653 6.24286C7.4717 6.22341 7.3943 6.17946 7.33418 6.11606C7.27427 6.05309 7.23426 5.97351 7.21918 5.88759Z" fill="#DD9219"/>
<path d="M4.62066 5.88715C4.60579 5.97329 4.56578 6.05309 4.50588 6.11649C4.44597 6.1799 4.36858 6.22428 4.28375 6.24374L2.23254 6.71948L2.32175 6.21247C2.3318 6.15344 2.35979 6.099 2.40176 6.05637C2.44374 6.01374 2.49774 5.9851 2.55634 5.97438L3.83337 5.74351L2.73256 5.10969C2.67506 5.07624 2.62936 5.02596 2.60116 4.96562C2.57295 4.90527 2.56399 4.83772 2.57536 4.77213L2.65975 4.28589L4.42564 5.43677C4.49866 5.48443 4.55616 5.55242 4.59071 5.63244C4.62547 5.71246 4.63597 5.80101 4.62066 5.88715Z" fill="#DD9219"/>
<path d="M6.78088 5.0772C6.71398 5.02102 6.66523 4.94646 6.64052 4.86251C6.61582 4.77877 6.61625 4.68935 6.64183 4.60583L7.25663 2.58655L7.64973 2.91974C7.6952 2.95779 7.728 3.00873 7.74396 3.06579C7.75992 3.12285 7.75817 3.18363 7.73915 3.2396L7.29773 4.46372L8.39898 3.82663C8.4567 3.7934 8.52294 3.77875 8.58919 3.78465C8.65543 3.79034 8.71818 3.81635 8.76934 3.85899L9.14386 4.17469L7.26821 5.13274C7.1906 5.17231 7.10293 5.18805 7.01635 5.17821C6.92933 5.16859 6.84757 5.13339 6.78088 5.0772Z" fill="#DD9219"/>
<path d="M5.05838 5.07742C4.99148 5.13361 4.90971 5.16881 4.82314 5.17865C4.73656 5.18849 4.64889 5.17275 4.57127 5.13317L2.69519 4.17513L3.08873 3.84412C3.13442 3.80564 3.19083 3.78225 3.2503 3.77678C3.30977 3.77153 3.36945 3.78465 3.42105 3.8146L4.54569 4.46066L4.11127 3.26168C4.08853 3.19915 4.08569 3.13138 4.10253 3.0671C4.11958 3.00282 4.15565 2.94532 4.20616 2.90225L4.58264 2.58655L5.19984 4.60583C5.22498 4.68957 5.22498 4.77899 5.19984 4.86294C5.17492 4.9469 5.1255 5.02145 5.05838 5.07742Z" fill="#DD9219"/>
<path d="M1.30854 4.72949C1.18851 4.82613 1.06651 4.92298 0.942986 5.01984C0.628374 5.26623 0.316386 5.50192 0.00745929 5.72733C-0.00653316 6.00565 -0.00303508 6.32747 0.0369746 6.68231C0.101471 7.25338 0.24074 7.73262 0.379134 8.09971C0.440132 8.05489 0.487575 8.01969 0.519933 7.99586C0.549011 7.97421 0.568469 7.95978 0.582461 7.94929C0.599296 7.93661 0.619629 7.92152 0.652424 7.89681C0.822082 7.76913 1.04181 7.6021 1.30045 7.40052C1.31007 7.39287 1.31947 7.38543 1.32909 7.37778C1.24251 7.08591 1.16118 6.70964 1.13801 6.26757C1.10477 5.62698 1.20666 5.09548 1.30854 4.72949Z" fill="#FFE7C1"/>
<path d="M7.38457 0.155762C6.91801 0.498795 6.45167 0.841829 5.98511 1.18486C6.296 1.18639 6.70572 1.21831 7.17053 1.33812C7.62375 1.45487 7.98996 1.61928 8.25954 1.76446C8.43488 1.63852 8.57852 1.5362 8.67931 1.46493C8.80174 1.37813 8.85815 1.33856 8.96594 1.2616C9.12029 1.15141 9.24557 1.06068 9.32865 1.00012C9.09515 0.838768 8.80043 0.661676 8.44428 0.503168C8.0479 0.326513 7.68344 0.220914 7.38457 0.155762Z" fill="#FFE7C1"/>
<path d="M10.7661 2.34518C10.5135 2.01417 10.2577 1.74941 10.0319 1.54346C9.86312 1.66502 9.69258 1.78679 9.52052 1.90879C9.34824 2.03079 9.17683 2.15147 9.00586 2.27063C9.23367 2.45493 9.5074 2.71008 9.77413 3.05027C10.0667 3.42326 10.2593 3.78181 10.3859 4.06538C10.577 3.93289 10.772 3.79209 10.9698 3.64232C11.1098 3.53651 11.2449 3.43091 11.3752 3.32596C11.2328 3.03868 11.0363 2.69958 10.7661 2.34518Z" fill="#FFDCA2"/>
<path d="M2.15897 8.99001C1.9259 8.6894 1.76455 8.40146 1.65327 8.16577C1.51072 8.27837 1.36686 8.39118 1.22191 8.504C1.05947 8.63036 0.897679 8.75542 0.736328 8.87873C0.864446 9.10917 1.02623 9.36541 1.23 9.6317C1.48121 9.95965 1.73613 10.2242 1.96373 10.4328C2.26916 10.1964 2.57437 9.9603 2.8798 9.72396C2.66729 9.55299 2.40952 9.31293 2.15897 8.99001Z" fill="#FFDCA2"/>
<path d="M5.96126 4.52761C5.87381 4.52805 5.78811 4.50247 5.71509 4.45415C5.64206 4.40583 5.58478 4.33696 5.55067 4.25607L4.72949 2.31287H5.24306C5.30231 2.31308 5.36025 2.33123 5.409 2.36534C5.45776 2.39944 5.49492 2.44754 5.51547 2.50329L5.96411 3.72414L6.3994 2.52625C6.42236 2.46372 6.4639 2.40994 6.51812 2.37168C6.57256 2.33364 6.63728 2.31308 6.70352 2.31287H7.19304L6.36989 4.25607C6.336 4.33652 6.27894 4.40539 6.20635 4.45349C6.13377 4.50181 6.0485 4.52761 5.96126 4.52761Z" fill="#FFDCA2"/>
<path d="M6.42035 7.11595C6.5019 7.08644 6.59045 7.08163 6.67484 7.10196C6.75923 7.12229 6.83575 7.16711 6.895 7.23074L8.33097 8.77428L7.84867 8.95049C7.7927 8.97083 7.73214 8.97345 7.67464 8.95815C7.61714 8.94284 7.56576 8.91027 7.52728 8.86479L6.69123 7.87111V9.14661C6.69102 9.21329 6.67046 9.27822 6.63242 9.33288C6.59438 9.38754 6.54038 9.42908 6.47807 9.45204L6.01807 9.61951L6.12913 7.51124C6.13372 7.42401 6.16368 7.34005 6.21549 7.26987C6.26731 7.19947 6.33858 7.14612 6.42035 7.11595Z" fill="#FFDCA2"/>
<path d="M5.51146 7.11248C5.59323 7.14244 5.6645 7.19578 5.71654 7.26618C5.76835 7.33636 5.79852 7.42054 5.80311 7.50777L5.91374 9.61604L5.43144 9.44026C5.37591 9.41949 5.32803 9.3821 5.29414 9.33335C5.26025 9.28459 5.24189 9.22644 5.24167 9.16697L5.23686 7.86611L4.41568 8.84252C4.3726 8.89324 4.31532 8.92953 4.25105 8.94659C4.18699 8.96364 4.11899 8.96058 4.05668 8.93784L3.59668 8.76971L5.03309 7.22617C5.09278 7.16211 5.16996 7.11707 5.25522 7.09674C5.34027 7.07663 5.42947 7.08209 5.51146 7.11248Z" fill="#FFDCA2"/>
<path d="M7.1209 6.51936C7.16463 6.44371 7.22934 6.38249 7.30739 6.34358C7.38545 6.30466 7.47312 6.28936 7.55948 6.29985L9.64829 6.55652L9.39139 7.00275C9.36166 7.05457 9.31684 7.09611 9.26306 7.12147C9.20927 7.14705 9.14871 7.15536 9.0899 7.14552L7.81243 6.92317L8.62946 7.90067C8.6721 7.95183 8.69789 8.01458 8.7038 8.08105C8.7097 8.14751 8.69483 8.21397 8.66182 8.27147L8.41739 8.69671L7.15085 7.00975C7.09838 6.94001 7.06755 6.85627 7.06209 6.76904C7.05684 6.6818 7.07717 6.595 7.1209 6.51936Z" fill="#FFDCA2"/>
<path d="M4.80739 6.51971C4.85112 6.59536 4.87167 6.68215 4.86642 6.76939C4.86117 6.85662 4.83035 6.94036 4.77787 7.0101L3.51374 8.69707L3.25685 8.25084C3.22734 8.19902 3.214 8.13934 3.21925 8.07965C3.22428 8.02018 3.24745 7.96356 3.28549 7.91743L4.11586 6.91762L2.8631 7.13844C2.79729 7.15046 2.72951 7.1415 2.66895 7.1133C2.60839 7.08509 2.55789 7.03852 2.52465 6.98037L2.27979 6.55666L4.3686 6.29999C4.45517 6.28927 4.54306 6.30436 4.62112 6.34327C4.69895 6.38263 4.76388 6.44384 4.80739 6.51971Z" fill="#FFDCA2"/>
<path d="M7.26166 5.61378C7.24635 5.52764 7.25663 5.4391 7.29139 5.35886C7.32615 5.27862 7.38365 5.21041 7.4569 5.16296L9.22191 4.01208L9.31111 4.51909C9.32117 4.5779 9.3133 4.63825 9.28816 4.69247C9.26323 4.74647 9.22235 4.79173 9.17097 4.8219L8.05004 5.47648L9.30281 5.69883C9.36818 5.71042 9.4283 5.74212 9.47509 5.78913C9.52188 5.83613 9.55336 5.89669 9.56473 5.96206L9.65021 6.44524L7.59901 5.96906C7.51418 5.9496 7.43678 5.90566 7.37666 5.84225C7.31675 5.77929 7.27674 5.69971 7.26166 5.61378Z" fill="#FFDCA2"/>
<path d="M4.6679 5.60859C4.65304 5.69473 4.61303 5.77453 4.55312 5.83793C4.49322 5.90133 4.41582 5.94572 4.33099 5.96517L2.27979 6.44092L2.36899 5.93391C2.37904 5.87488 2.40703 5.82044 2.44901 5.77781C2.49098 5.73517 2.54499 5.70653 2.60358 5.69582L3.88061 5.46494L2.7798 4.83113C2.7223 4.79768 2.6766 4.74739 2.6484 4.68705C2.62041 4.62671 2.61123 4.55915 2.6226 4.49356L2.70699 4.00732L4.47288 5.1582C4.54591 5.20587 4.60341 5.27386 4.63795 5.35388C4.67271 5.43412 4.68299 5.52266 4.6679 5.60859Z" fill="#FFDCA2"/>
<path d="M6.828 4.80352C6.7611 4.74733 6.71235 4.67278 6.68764 4.58883C6.66294 4.50509 6.66337 4.41567 6.68895 4.33215L7.30375 2.31287L7.69685 2.64606C7.74232 2.6841 7.77512 2.73504 7.79108 2.79211C7.80704 2.84917 7.80529 2.90995 7.78627 2.96592L7.34485 4.19004L8.4461 3.55295C8.50382 3.51972 8.57006 3.50507 8.63631 3.51097C8.70255 3.51665 8.7653 3.54267 8.81646 3.5853L9.19098 3.90101L7.31533 4.85905C7.23772 4.89863 7.15005 4.91437 7.06347 4.90453C6.97667 4.89469 6.8949 4.85971 6.828 4.80352Z" fill="#FFDCA2"/>
<path d="M5.10086 4.80374C5.03396 4.85993 4.95219 4.89513 4.86562 4.90497C4.77904 4.91481 4.69137 4.89906 4.61375 4.85949L2.73767 3.90145L3.13121 3.57044C3.1769 3.53196 3.23331 3.50856 3.29278 3.5031C3.35225 3.49785 3.41193 3.51097 3.46353 3.54092L4.58817 4.18698L4.15375 2.988C4.13101 2.92547 4.12817 2.8577 4.14501 2.79342C4.16206 2.72914 4.19813 2.67164 4.24864 2.62857L4.62512 2.31287L5.24232 4.33215C5.26746 4.41589 5.26746 4.50531 5.24232 4.58926C5.21718 4.67322 5.16798 4.74777 5.10086 4.80374Z" fill="#FFDCA2"/>
<path d="M10.5935 7.37362C10.4688 7.83777 10.1706 8.69175 9.42772 9.4668C8.38594 10.5538 6.73811 11.2051 5.02622 10.8719C4.91756 10.8507 2.5513 10.3477 1.5386 8.07477C0.957477 6.77085 1.12735 5.56946 1.22005 5.09766C0.933865 7.69216 2.69866 10.056 5.14494 10.5105C7.408 10.9316 9.73818 9.62246 10.5935 7.37362Z" fill="#FFF3DF"/>
<path d="M0.245483 7.69849C1.04808 10.3037 3.4808 12.0619 6.15008 11.9961C8.67222 11.934 10.9171 10.2552 11.7197 7.81305C11.5719 8.39855 11.0785 10.0212 9.52532 11.2471C9.07428 11.6033 7.91182 12.4942 6.20146 12.5375C4.72023 12.5751 3.65199 11.9561 3.19658 11.6841C1.10449 10.4351 0.419733 8.31262 0.245483 7.69849Z" fill="#EA8D00"/>
</svg>
