<svg width="24" height="24" viewBox="0 0 24 24" fill="none" xmlns="http://www.w3.org/2000/svg">
<path d="M16.1667 20H7.83333C7.39131 20 6.96738 19.8314 6.65482 19.5314C6.34226 19.2313 6.16667 18.8243 6.16667 18.4V8H4.5V6.4H7.83333V5.6C7.83333 5.17565 8.00893 4.76869 8.32149 4.46863C8.63405 4.16857 9.05797 4 9.5 4H14.5C14.942 4 15.3659 4.16857 15.6785 4.46863C15.9911 4.76869 16.1667 5.17565 16.1667 5.6V6.4H19.5V8H17.8333V18.4C17.8333 18.8243 17.6577 19.2313 17.3452 19.5314C17.0326 19.8314 16.6087 20 16.1667 20ZM7.83333 18.4H12H16.1667L12 18.5L7.83333 18.4ZM9.5 5.6V6.4H14.5V5.6H9.5Z" fill="#2C3E5D"/>
</svg>
