<svg width="25" height="24" viewBox="0 0 25 24" fill="none" xmlns="http://www.w3.org/2000/svg">
<path d="M18.9792 12.4285C18.9792 12.4285 16.122 12.4285 15.8363 12.4285C15.5506 12.4285 15.2648 12.1428 15.2648 11.8571C15.2648 11.6922 15.2648 11.1462 15.2648 10.7142C15.2648 10.3979 15.5506 10.1428 15.8363 10.1428C16.122 10.1428 17.7923 10.1428 17.7923 10.1428M17.8363 15.5714H18.4077C18.6986 15.5714 18.9792 15.2908 18.9792 15C18.9792 15 18.9792 12.7522 18.9792 12.2528C18.9792 11.7531 18.5752 11.1874 18.5752 11.1874L17.3966 9.61534C17.1554 9.32477 16.7949 8.99991 16.4077 8.99991H14.122C13.8311 8.99991 13.5505 9.28077 13.5505 9.57134V15C13.5505 15.2897 13.8328 15.5691 14.122 15.5714H14.6934H17.8363Z" stroke="#091E42" stroke-width="1.24675" stroke-miterlimit="10"/>
<path d="M10.1221 15.5715H13.0233C13.3136 15.5715 13.5507 15.3353 13.5507 15.0452V7.54458C13.5507 7.25486 13.3233 7 13.033 7H5.79233C5.50175 7 5.26489 7.23657 5.26489 7.52601V15.0015C5.26489 15.2915 5.54575 15.5715 5.83633 15.5715H7.26492" stroke="#091E42" stroke-width="1.24488" stroke-miterlimit="10"/>
<path d="M8.69373 14.1427C8.31484 14.1427 7.95147 14.2932 7.68356 14.5612C7.41565 14.8291 7.26514 15.1924 7.26514 15.5713C7.26514 15.9502 7.41565 16.3136 7.68356 16.5815C7.95147 16.8494 8.31484 16.9999 8.69373 16.9999C9.07261 16.9999 9.43598 16.8494 9.70389 16.5815C9.97181 16.3136 10.1223 15.9502 10.1223 15.5713C10.1223 15.1924 9.97181 14.8291 9.70389 14.5612C9.43598 14.2932 9.07261 14.1427 8.69373 14.1427ZM16.1224 14.1427C15.7435 14.1427 15.3801 14.2932 15.1122 14.5612C14.8443 14.8291 14.6938 15.1924 14.6938 15.5713C14.6938 15.9502 14.8443 16.3136 15.1122 16.5815C15.3801 16.8494 15.7435 16.9999 16.1224 16.9999C16.5013 16.9999 16.8646 16.8494 17.1326 16.5815C17.4005 16.3136 17.551 15.9502 17.551 15.5713C17.551 15.1924 17.4005 14.8291 17.1326 14.5612C16.8646 14.2932 16.5013 14.1427 16.1224 14.1427Z" fill="#091E42" stroke="#091E42" stroke-width="1.24675" stroke-miterlimit="10"/>
</svg>
