<svg width="12" height="14" viewBox="0 0 12 14" fill="none" xmlns="http://www.w3.org/2000/svg">
<path d="M6 0C5.23002 0 4.49157 0.335648 3.94711 0.933106C3.40265 1.53056 3.09677 2.34089 3.09677 3.18582C3.09677 4.03076 3.40265 4.84108 3.94711 5.43854C4.49157 6.036 5.23002 6.37165 6 6.37165C6.76998 6.37165 7.50843 6.036 8.05289 5.43854C8.59735 4.84108 8.90323 4.03076 8.90323 3.18582C8.90323 2.34089 8.59735 1.53056 8.05289 0.933106C7.50843 0.335648 6.76998 0 6 0ZM2.90323 8.07076C2.13324 8.07076 1.3948 8.4064 0.850335 9.00386C0.305875 9.60132 0 10.4116 0 11.2566V12.2658C0 12.9064 0.42271 13.4518 0.99871 13.5546C4.31071 14.1485 7.68929 14.1485 11.0013 13.5546C11.2799 13.5043 11.5331 13.3472 11.716 13.1112C11.8989 12.8752 11.9995 12.5756 12 12.2658V11.2566C12 10.4116 11.6941 9.60132 11.1497 9.00386C10.6052 8.4064 9.86676 8.07076 9.09677 8.07076H8.83355C8.68903 8.07132 8.54865 8.09568 8.41239 8.14382L7.74194 8.38424C6.61004 8.78973 5.38996 8.78973 4.25806 8.38424L3.58761 8.14382C3.45172 8.09599 3.30994 8.07134 3.16723 8.07076H2.90323Z" fill="#091E42"/>
</svg>
