<svg width="24" height="24" viewBox="0 0 24 24" fill="none" xmlns="http://www.w3.org/2000/svg">
<mask id="path-1-inside-1_1896_6830" fill="white">
<path fill-rule="evenodd" clip-rule="evenodd" d="M14.8306 10.8275C14.053 11.6052 13.1013 11.9994 12.0022 11.9994C10.9034 11.9994 9.95187 11.6051 9.17414 10.8276C8.39642 10.05 8.00211 9.09847 8.00211 7.99929C8.00211 6.90037 8.39642 5.9488 9.17402 5.1712C9.95161 4.3936 10.9031 3.99942 12.0022 3.99942C13.1012 3.99942 14.0527 4.3936 14.8305 5.17108C15.6082 5.94893 16.0024 6.90049 16.0024 7.99929C16.0024 9.09847 15.6082 10.0499 14.8306 10.8275ZM18.8301 16.4472C18.8976 16.7945 18.9434 17.1235 18.9661 17.425C18.9796 17.6025 18.9891 17.4219 18.9945 17.3183C18.9981 17.2499 18.9999 17.215 19 17.3391C19 18.1472 18.7215 18.8013 18.1723 19.2832C17.6299 19.7592 16.9126 20.0006 16.0399 20.0006H7.96006C7.08744 20.0006 6.36986 19.7591 5.82755 19.2832C5.27845 18.8009 5 18.147 5 17.3392C5 17.2165 5.00176 17.2505 5.00526 17.3182C5.01063 17.4219 5.02007 17.6044 5.03354 17.4254C5.0562 17.1231 5.10204 16.7941 5.1695 16.4472C5.23761 16.0973 5.32531 15.7666 5.43016 15.4642C5.53873 15.1514 5.68621 14.8429 5.86839 14.5472C6.05736 14.2404 6.27973 13.9732 6.529 13.7531C6.79004 13.5228 7.10946 13.3378 7.47843 13.203C7.84624 13.0687 8.25387 13.0006 8.69018 13.0006C8.86148 13.0006 9.02727 13.0654 9.34682 13.2575C9.54666 13.3775 9.77711 13.5145 10.0318 13.6646C10.2513 13.7937 10.5491 13.9147 10.9165 14.0242C11.2758 14.1313 11.64 14.1856 11.9996 14.1856C12.3592 14.1856 12.7236 14.1313 13.0824 14.0242C13.4503 13.9146 13.748 13.7936 13.9679 13.6644C14.2249 13.513 14.4553 13.376 14.6522 13.2576C14.9721 13.0655 15.1378 13.0007 15.3091 13.0007C15.7452 13.0007 16.153 13.0687 16.5209 13.2029C16.8902 13.3379 17.2094 13.5229 17.4702 13.753C17.7196 13.9729 17.9419 14.2402 18.1311 14.5472C18.3134 14.8429 18.4609 15.1516 18.5693 15.4641C18.6743 15.7664 18.762 16.0973 18.8301 16.4472Z"/>
</mask>
<path d="M14.8306 10.8275L13.982 9.97898L13.982 9.97905L14.8306 10.8275ZM9.17414 10.8276L8.32568 11.6762L8.32575 11.6763L9.17414 10.8276ZM9.17402 5.1712L8.32549 4.32267L8.32549 4.32267L9.17402 5.1712ZM14.8305 5.17108L15.679 4.32262L15.6788 4.32241L14.8305 5.17108ZM18.9661 17.425L17.7694 17.5149L17.7695 17.516L18.9661 17.425ZM18.8301 16.4472L20.0081 16.2184L20.008 16.2179L18.8301 16.4472ZM18.9945 17.3183L20.1929 17.3813V17.3813L18.9945 17.3183ZM19 17.3391H20.2V17.3386L19 17.3391ZM18.1723 19.2832L17.3808 18.3812L17.3808 18.3813L18.1723 19.2832ZM5.82755 19.2832L5.03564 20.1848L5.03604 20.1852L5.82755 19.2832ZM5.00526 17.3182L3.80687 17.3802L5.00526 17.3182ZM5.03354 17.4254L6.23016 17.5154L6.23018 17.5151L5.03354 17.4254ZM5.1695 16.4472L3.99161 16.2179L3.99158 16.2181L5.1695 16.4472ZM5.43016 15.4642L4.29652 15.0707L4.2964 15.071L5.43016 15.4642ZM5.86839 14.5472L6.8901 15.1766L6.89018 15.1764L5.86839 14.5472ZM6.529 13.7531L5.73503 12.8533L5.73478 12.8535L6.529 13.7531ZM7.47843 13.203L7.88998 14.3303L7.89016 14.3302L7.47843 13.203ZM9.34682 13.2575L8.72857 14.286L8.7288 14.2861L9.34682 13.2575ZM10.0318 13.6646L9.42251 14.6984L9.4233 14.6989L10.0318 13.6646ZM10.9165 14.0242L11.2593 12.8742L11.2591 12.8741L10.9165 14.0242ZM13.0824 14.0242L12.7399 12.8741L12.7393 12.8743L13.0824 14.0242ZM13.9679 13.6644L14.5758 14.6991L14.5771 14.6983L13.9679 13.6644ZM14.6522 13.2576L14.0345 12.2288L14.0337 12.2292L14.6522 13.2576ZM16.5209 13.2029L16.9329 12.0758L16.9322 12.0756L16.5209 13.2029ZM17.4702 13.753L16.6763 14.6528L16.6765 14.653L17.4702 13.753ZM18.1311 14.5472L17.1096 15.1769L17.1096 15.1769L18.1311 14.5472ZM18.5693 15.4641L17.4356 15.8575L17.4357 15.8577L18.5693 15.4641ZM12.0022 13.1994C13.4196 13.1994 14.6766 12.6787 15.6792 11.676L13.982 9.97905C13.4294 10.5317 12.7829 10.7994 12.0022 10.7994V13.1994ZM8.32575 11.6763C9.32827 12.6785 10.5849 13.1994 12.0022 13.1994V10.7994C11.222 10.7994 10.5755 10.5317 10.0225 9.97897L8.32575 11.6763ZM6.80211 7.99929C6.80211 9.41695 7.323 10.6737 8.32568 11.6762L10.0226 9.97904C9.46983 9.42636 9.20211 8.77999 9.20211 7.99929H6.80211ZM8.32549 4.32267C7.32302 5.32514 6.80211 6.58186 6.80211 7.99929H9.20211C9.20211 7.21888 9.46981 6.57246 10.0225 6.01973L8.32549 4.32267ZM12.0022 2.79942C10.5846 2.79942 9.32802 3.32014 8.32549 4.32267L10.0225 6.01973C10.5752 5.46707 11.2215 5.19942 12.0022 5.19942V2.79942ZM15.6788 4.32241C14.6762 3.32013 13.4196 2.79942 12.0022 2.79942V5.19942C12.7827 5.19942 13.4292 5.46707 13.9821 6.01974L15.6788 4.32241ZM17.2024 7.99929C17.2024 6.58202 16.6816 5.32533 15.679 4.32262L13.9819 6.01954C14.5348 6.57252 14.8024 7.21897 14.8024 7.99929H17.2024ZM15.6791 11.676C16.6816 10.6735 17.2024 9.41688 17.2024 7.99929H14.8024C14.8024 8.78006 14.5347 9.42632 13.982 9.97898L15.6791 11.676ZM20.1627 17.3351C20.136 16.9796 20.0829 16.6038 20.0081 16.2184L17.6521 16.676C17.7122 16.9853 17.7508 17.2674 17.7694 17.5149L20.1627 17.3351ZM17.7962 17.2553C17.7921 17.3336 17.7905 17.3434 17.7936 17.3199C17.7948 17.3112 17.7976 17.2912 17.8026 17.2647C17.8058 17.2481 17.8183 17.1818 17.8473 17.0991C17.8607 17.0608 17.8943 16.97 17.9594 16.8653C18.0008 16.7987 18.1857 16.5047 18.5833 16.3664C19.1263 16.1775 19.5775 16.4191 19.7949 16.6218C19.9696 16.7847 20.0483 16.9574 20.0705 17.0069C20.1259 17.1306 20.1459 17.2347 20.1488 17.2489C20.1559 17.2835 20.1594 17.3093 20.1606 17.3188C20.1633 17.3387 20.1636 17.347 20.1626 17.334L17.7695 17.516C17.7719 17.5474 17.7755 17.5889 17.7812 17.6325C17.784 17.6538 17.7891 17.6891 17.7977 17.731C17.8021 17.7525 17.8236 17.8618 17.8804 17.9886C17.9033 18.0398 17.9828 18.2136 18.1582 18.3771C18.3763 18.5805 18.8281 18.8223 19.3718 18.6331C19.7701 18.4946 19.9557 18.1999 19.9977 18.1323C20.0635 18.0265 20.0978 17.9341 20.1118 17.894C20.1422 17.8076 20.156 17.736 20.1604 17.7128C20.1667 17.6798 20.1706 17.6519 20.173 17.6342C20.1856 17.5389 20.1915 17.4066 20.1929 17.3813L17.7962 17.2553ZM20.2 17.3386C20.2 17.3071 20.1999 17.2769 20.1994 17.2523C20.1993 17.2441 20.1988 17.2171 20.1969 17.1862C20.1968 17.1844 20.1937 17.1216 20.1802 17.0459C20.1761 17.0232 20.1676 16.979 20.152 16.9246C20.1429 16.8932 20.1032 16.752 20.0014 16.5972C19.9386 16.5017 19.4865 15.8787 18.6818 16.099C18.3767 16.1825 18.1896 16.361 18.1046 16.456C18.0138 16.5575 17.9601 16.6524 17.9336 16.7036C17.8804 16.8059 17.8546 16.8927 17.846 16.9226C17.8343 16.9629 17.827 16.9959 17.8231 17.0149C17.8153 17.053 17.811 17.0833 17.8092 17.0964C17.8053 17.1249 17.8032 17.1479 17.8025 17.1561C17.8008 17.1758 17.7997 17.1932 17.7992 17.201C17.7981 17.2189 17.7969 17.2405 17.7962 17.2553L20.1929 17.3813C20.1939 17.3619 20.1943 17.3535 20.1946 17.3495C20.1948 17.3463 20.1943 17.3548 20.1931 17.3681C20.1927 17.3731 20.1909 17.3935 20.1873 17.4202C20.1856 17.4323 20.1814 17.4619 20.1737 17.4993C20.1699 17.518 20.1627 17.5508 20.151 17.5909C20.1424 17.6206 20.1167 17.7072 20.0636 17.8094C20.0371 17.8605 19.9835 17.9554 19.8927 18.0569C19.8077 18.1518 19.6206 18.3303 19.3156 18.4138C18.5109 18.6341 18.0588 18.0112 17.9961 17.9157C17.8944 17.7611 17.8547 17.6199 17.8457 17.5888C17.8301 17.5345 17.8216 17.4905 17.8176 17.4681C17.8094 17.422 17.8058 17.3857 17.8045 17.3726C17.8029 17.3553 17.8019 17.3415 17.8015 17.3337C17.8005 17.3182 17.8001 17.3068 17.8 17.3032C17.7999 17.2985 17.7998 17.2956 17.7998 17.2954C17.7998 17.2951 17.7999 17.2982 17.7999 17.3066C17.8 17.3146 17.8 17.3254 17.8 17.3395L20.2 17.3386ZM18.9638 20.1852C19.802 19.4497 20.2 18.4516 20.2 17.3391H17.8C17.8 17.8428 17.6411 18.1529 17.3808 18.3812L18.9638 20.1852ZM16.0399 21.2006C17.1401 21.2006 18.1589 20.8916 18.9638 20.1851L17.3808 18.3813C17.1009 18.6269 16.6851 18.8006 16.0399 18.8006V21.2006ZM7.96006 21.2006H16.0399V18.8006H7.96006V21.2006ZM5.03604 20.1852C5.84087 20.8915 6.85995 21.2006 7.96006 21.2006V18.8006C7.31494 18.8006 6.89885 18.6268 6.61907 18.3813L5.03604 20.1852ZM3.8 17.3392C3.8 18.4516 4.19812 19.4492 5.03564 20.1848L6.61946 18.3816C6.35879 18.1527 6.2 17.8423 6.2 17.3392H3.8ZM6.20366 17.2562C6.20291 17.2416 6.20181 17.2203 6.20074 17.2027C6.20028 17.1951 6.19921 17.1779 6.19752 17.1585C6.19682 17.1505 6.1948 17.1276 6.19097 17.0991C6.18923 17.0862 6.18495 17.0555 6.17705 17.0169C6.17312 16.9978 6.16568 16.9637 6.15352 16.9219C6.1449 16.8923 6.11726 16.799 6.05862 16.6898C6.02955 16.6356 5.96799 16.53 5.86125 16.4203C5.75807 16.3143 5.5354 16.1262 5.18672 16.0716C4.37265 15.9443 3.98924 16.6108 3.96684 16.6489C3.8836 16.7904 3.85037 16.9156 3.84218 16.9461C3.82873 16.9962 3.82134 17.0368 3.81773 17.0582C3.80574 17.1293 3.80295 17.188 3.8028 17.1905C3.80106 17.2202 3.80064 17.2462 3.8005 17.2543C3.8001 17.2784 3.8 17.3081 3.8 17.3392H6.2C6.2 17.3251 6.20003 17.3144 6.20007 17.3064C6.20011 17.298 6.20016 17.2948 6.20016 17.2949C6.20016 17.295 6.20011 17.2977 6.19998 17.3022C6.19988 17.3055 6.19955 17.3163 6.19868 17.3311C6.19824 17.3385 6.19741 17.3516 6.19592 17.3679C6.19477 17.3805 6.19155 17.4144 6.18429 17.4575C6.18073 17.4786 6.17339 17.519 6.15998 17.5689C6.15184 17.5991 6.11867 17.7243 6.03548 17.8657C6.01312 17.9037 5.62977 18.5702 4.81575 18.4428C4.4671 18.3882 4.24446 18.2002 4.1413 18.0942C4.03459 17.9845 3.97306 17.879 3.94402 17.8249C3.88543 17.7157 3.85785 17.6225 3.84928 17.5931C3.83718 17.5516 3.8298 17.5177 3.82593 17.4988C3.81814 17.4609 3.81398 17.4309 3.81237 17.4189C3.80878 17.3922 3.80702 17.3718 3.8066 17.367C3.80545 17.3539 3.80499 17.3455 3.80518 17.3487C3.80543 17.3527 3.80587 17.361 3.80687 17.3802L6.20366 17.2562ZM3.83692 17.3353C3.83592 17.3486 3.83622 17.3407 3.83876 17.3212C3.83996 17.312 3.84341 17.2864 3.85035 17.2522C3.85316 17.2384 3.8728 17.1348 3.9275 17.0117C3.94914 16.9629 4.02738 16.7891 4.20235 16.625C4.42135 16.4197 4.8789 16.1747 5.42693 16.3711C5.82337 16.5132 6.00551 16.8094 6.04482 16.8737C6.10835 16.9775 6.14112 17.0675 6.15418 17.1053C6.18241 17.1869 6.19458 17.2523 6.19765 17.2686C6.20253 17.2946 6.2052 17.3143 6.20631 17.3228C6.20924 17.3453 6.20769 17.3342 6.20366 17.2562L3.80687 17.3802C3.8082 17.4059 3.81405 17.5379 3.82641 17.6328C3.82641 17.6328 3.83935 17.7548 3.886 17.8897C3.89971 17.9293 3.93314 18.0208 3.99734 18.1258C4.03732 18.1912 4.22014 18.4881 4.61725 18.6304C5.16598 18.827 5.62421 18.5818 5.84392 18.3758C6.01959 18.2111 6.09853 18.0362 6.12089 17.9858C6.17702 17.8595 6.19812 17.7507 6.20243 17.7294C6.21086 17.6879 6.21584 17.6528 6.2186 17.6316C6.22425 17.5883 6.22779 17.5469 6.23016 17.5154L3.83692 17.3353ZM3.99158 16.2181C3.91665 16.6033 3.86361 16.9794 3.8369 17.3356L6.23018 17.5151C6.24879 17.2669 6.28742 16.9848 6.34743 16.6763L3.99158 16.2181ZM4.2964 15.071C4.17104 15.4325 4.06934 15.8185 3.99161 16.2179L6.3474 16.6765C6.40589 16.376 6.47958 16.1006 6.56393 15.8574L4.2964 15.071ZM4.84668 13.9178C4.62106 14.2841 4.43513 14.6714 4.29652 15.0707L6.5638 15.8577C6.64232 15.6315 6.75136 15.4018 6.8901 15.1766L4.84668 13.9178ZM5.73478 12.8535C5.38985 13.1581 5.09266 13.5184 4.8466 13.918L6.89018 15.1764C7.02205 14.9623 7.16962 14.7883 7.32321 14.6527L5.73478 12.8535ZM7.06688 12.0758C6.57544 12.2552 6.12182 12.512 5.73503 12.8533L7.32297 14.6529C7.45826 14.5335 7.64348 14.4203 7.88998 14.3303L7.06688 12.0758ZM8.69018 11.8006C8.12934 11.8006 7.5806 11.8882 7.0667 12.0759L7.89016 14.3302C8.11188 14.2492 8.3784 14.2006 8.69018 14.2006V11.8006ZM9.96506 12.229C9.6309 12.0281 9.21754 11.8006 8.69018 11.8006V14.2006C8.65432 14.2006 8.61661 14.1969 8.58089 14.1896C8.5471 14.1827 8.52728 14.1751 8.52574 14.1745C8.52565 14.1745 8.54072 14.1804 8.57659 14.1992C8.61241 14.218 8.66124 14.2455 8.72857 14.286L9.96506 12.229ZM10.641 12.6307C10.3885 12.4819 10.1611 12.3468 9.96483 12.2289L8.7288 14.2861C8.93224 14.4083 9.16571 14.5471 9.42251 14.6984L10.641 12.6307ZM11.2591 12.8741C10.9428 12.7799 10.7454 12.6922 10.6402 12.6302L9.4233 14.6989C9.75718 14.8953 10.1553 15.0496 10.574 15.1742L11.2591 12.8741ZM11.9996 12.9856C11.761 12.9856 11.5122 12.9495 11.2593 12.8742L10.5737 15.1742C11.0394 15.313 11.519 15.3856 11.9996 15.3856V12.9856ZM12.7393 12.8743C12.4872 12.9495 12.2383 12.9856 11.9996 12.9856V15.3856C12.4802 15.3856 12.96 15.313 13.4256 15.1741L12.7393 12.8743ZM13.3599 12.6298C13.2541 12.692 13.0564 12.7798 12.7399 12.8741L13.425 15.1742C13.8441 15.0494 14.242 14.8952 14.5758 14.6991L13.3599 12.6298ZM14.0337 12.2292C13.8406 12.3454 13.6134 12.4805 13.3587 12.6306L14.5771 14.6983C14.8364 14.5455 15.0699 14.4066 15.2706 14.2859L14.0337 12.2292ZM15.3091 11.8007C14.7817 11.8007 14.3684 12.0283 14.0345 12.2288L15.2699 14.2864C15.3374 14.2459 15.3863 14.2183 15.4223 14.1995C15.4583 14.1807 15.4735 14.1747 15.4734 14.1747C15.472 14.1752 15.4522 14.1828 15.4184 14.1897C15.3827 14.197 15.3449 14.2007 15.3091 14.2007V11.8007ZM16.9322 12.0756C16.4183 11.8881 15.8695 11.8007 15.3091 11.8007V14.2007C15.6209 14.2007 15.8877 14.2493 16.1096 14.3302L16.9322 12.0756ZM18.2642 12.8532C17.8777 12.5121 17.4243 12.2555 16.9329 12.0758L16.109 14.33C16.356 14.4203 16.5412 14.5336 16.6763 14.6528L18.2642 12.8532ZM19.1526 13.9175C18.9067 13.5186 18.6097 13.1579 18.264 12.853L16.6765 14.653C16.8295 14.788 16.9771 14.9619 17.1096 15.1769L19.1526 13.9175ZM19.703 15.0707C19.5645 14.6716 19.3785 14.284 19.1526 13.9175L17.1096 15.1769C17.2483 15.4019 17.3572 15.6315 17.4356 15.8575L19.703 15.0707ZM20.008 16.2179C19.9303 15.8186 19.8286 15.4323 19.7029 15.0705L17.4357 15.8577C17.52 16.1006 17.5937 16.3759 17.6522 16.6765L20.008 16.2179Z" fill="#091E42" mask="url(#path-1-inside-1_1896_6830)"/>
</svg>
