<svg width="72" height="24" viewBox="0 0 72 24" fill="none" xmlns="http://www.w3.org/2000/svg">
<g clip-path="url(#clip0_1034_7612)">
<path d="M7.99941 12.8511C7.80951 12.8521 7.62356 12.7962 7.46498 12.6904C7.30641 12.5846 7.1823 12.4337 7.10829 12.2566L5.32605 8H6.44072C6.56952 8.00032 6.69515 8.04044 6.80082 8.11499C6.90649 8.18955 6.98717 8.29499 7.03206 8.41721L8.00559 11.0915L8.95029 8.46728C9.00011 8.33047 9.09009 8.21238 9.20813 8.12885C9.32617 8.04532 9.46663 8.00036 9.61064 8H10.6728L8.88641 12.2566C8.81268 12.433 8.6892 12.5835 8.53144 12.6892C8.37367 12.795 8.18862 12.8513 7.99941 12.8511Z" fill="#BABFFD"/>
<path d="M8.98537 18.5158C9.16256 18.4511 9.35458 18.4405 9.53768 18.4852C9.72078 18.5298 9.88693 18.6279 10.0156 18.7672L13.1319 22.1486L12.0852 22.5346C11.9639 22.579 11.8321 22.5848 11.7075 22.5513C11.5828 22.5177 11.4713 22.4464 11.3878 22.3468L9.57361 20.17V22.9643C9.57318 23.1102 9.52862 23.2525 9.44592 23.372C9.36323 23.4916 9.24637 23.5826 9.11105 23.6329L8.11279 24L8.35386 19.3815C8.36375 19.1904 8.42888 19.0065 8.54115 18.8526C8.65343 18.6987 8.8079 18.5816 8.98537 18.5158Z" fill="#7D85FE"/>
<path d="M7.0147 18.5157C7.19237 18.5813 7.34706 18.6983 7.45953 18.8522C7.572 19.0062 7.63728 19.1902 7.64725 19.3814L7.88728 23.9999L6.8406 23.615C6.72004 23.5693 6.61606 23.4876 6.54246 23.3806C6.46887 23.2737 6.42913 23.1466 6.42852 23.0163L6.41822 20.1668L4.63598 22.306C4.54269 22.4171 4.41807 22.4966 4.27885 22.5339C4.13964 22.5712 3.99248 22.5645 3.85715 22.5146L2.85889 22.1464L5.97626 18.7649C6.10581 18.6244 6.27351 18.5257 6.45827 18.4814C6.64303 18.437 6.83662 18.449 7.0147 18.5157Z" fill="#7D85FE"/>
<path d="M10.5132 17.2121C10.6079 17.0463 10.7486 16.9124 10.9178 16.8269C11.087 16.7414 11.2773 16.7082 11.4651 16.7312L15.998 17.2934L15.4406 18.2708C15.3762 18.3843 15.2789 18.4751 15.162 18.531C15.045 18.587 14.914 18.6053 14.7864 18.5837L12.0142 18.0966L13.7871 20.2379C13.8796 20.3498 13.9359 20.4877 13.9484 20.633C13.9609 20.7783 13.9291 20.924 13.8572 21.0504L13.3267 21.9818L10.5781 18.2864C10.4641 18.1336 10.3971 17.9502 10.3856 17.7591C10.374 17.5681 10.4184 17.3778 10.5132 17.2121Z" fill="#7D85FE"/>
<path d="M5.4858 17.2119C5.58071 17.3774 5.62527 17.5677 5.61391 17.7588C5.60255 17.9499 5.53577 18.1333 5.42193 18.2862L2.67851 21.9816L2.12118 21.0043C2.0569 20.8907 2.02837 20.7599 2.03942 20.6295C2.05046 20.499 2.10055 20.3751 2.18299 20.2742L3.9848 18.0838L1.26611 18.5678C1.12335 18.5939 0.976097 18.5747 0.844578 18.5127C0.713059 18.4506 0.603723 18.3489 0.531582 18.2215L0 17.2932L4.53287 16.731C4.7208 16.7075 4.91143 16.7405 5.08092 16.826C5.25041 16.9115 5.39124 17.0458 5.4858 17.2119Z" fill="#5560F1"/>
<path d="M10.8171 15.2324C10.7838 15.0438 10.8063 14.8495 10.8816 14.6738C10.9569 14.4981 11.0818 14.3488 11.2405 14.2446L15.0708 11.7236L15.2645 12.8345C15.2864 12.9632 15.2691 13.0957 15.2148 13.2142C15.1605 13.3327 15.0718 13.4316 14.9606 13.4978L12.5283 14.932L15.247 15.4191C15.3887 15.4446 15.5193 15.5137 15.621 15.6168C15.7227 15.72 15.7906 15.8523 15.8156 15.9959L16.0011 17.0545L11.5496 16.0115C11.3653 15.969 11.1975 15.8725 11.0672 15.7339C10.9369 15.5953 10.8499 15.4208 10.8171 15.2324Z" fill="#BABFFD"/>
<path d="M5.18292 15.2313C5.15057 15.42 5.06389 15.5948 4.93376 15.7338C4.80363 15.8728 4.63585 15.9698 4.45148 16.0125L0 17.0545L0.193677 15.9437C0.21558 15.8145 0.276127 15.6952 0.367138 15.6019C0.45815 15.5087 0.575241 15.4459 0.702595 15.4222L3.47383 14.9163L1.0848 13.5281C0.960182 13.4548 0.860708 13.3447 0.799748 13.2125C0.738789 13.0803 0.719265 12.9323 0.743803 12.7886L0.927178 11.7236L4.75951 14.2446C4.91799 14.3488 5.04265 14.498 5.11794 14.6734C5.19324 14.8489 5.21584 15.0429 5.18292 15.2313Z" fill="#5560F1"/>
<path d="M9.87144 13.4561C9.72644 13.333 9.62047 13.1695 9.56678 12.9858C9.51309 12.8022 9.51407 12.6066 9.56959 12.4235L10.9037 8L11.7567 8.73012C11.8552 8.81342 11.9264 8.925 11.961 9.05013C11.9956 9.17527 11.9919 9.30807 11.9504 9.43103L10.9923 12.1126L13.3824 10.7171C13.5074 10.6445 13.6515 10.6124 13.7951 10.6251C13.9387 10.6378 14.0751 10.6946 14.1859 10.788L14.9987 11.4795L10.9284 13.5781C10.7598 13.6648 10.5697 13.6995 10.3818 13.6778C10.1939 13.6561 10.0164 13.579 9.87144 13.4561Z" fill="#BABFFD"/>
<path d="M6.12869 13.4561C5.98369 13.579 5.80621 13.6561 5.6183 13.6778C5.43039 13.6995 5.24032 13.6648 5.07171 13.5781L1.00037 11.4795L1.8544 10.7546C1.95355 10.6703 2.07591 10.6189 2.20491 10.6073C2.3339 10.5957 2.46329 10.6246 2.57554 10.69L5.01608 12.1053L4.07345 9.47901C4.0243 9.34215 4.0177 9.19334 4.05453 9.05257C4.09137 8.91179 4.16986 8.78581 4.27949 8.69153L5.09643 8L6.43569 12.4235C6.49035 12.6071 6.49038 12.8029 6.43578 12.9866C6.38119 13.1702 6.27438 13.3335 6.12869 13.4561Z" fill="#5560F1"/>
</g>
<path d="M71.9067 10.5615V0.999512H70.0933C69.5135 0.999782 68.9574 1.2517 68.5474 1.6999C68.1374 2.1481 67.907 2.75591 67.9067 3.38976V23.9995H70.3676C70.775 23.9995 71.1658 23.8226 71.4539 23.5076C71.7421 23.1926 71.9039 22.7654 71.9039 22.32L71.9067 10.5615Z" fill="#5560F1"/>
<path d="M54.8903 10.4592V0.999512H52.7188C52.0891 0.999512 51.4851 1.24861 51.0397 1.69205C50.5944 2.13548 50.344 2.73694 50.3438 3.36419V23.7534H53.4237C54.3454 23.7534 54.8903 23.0089 54.8903 22.0919L54.3758 15.357L54.8903 10.4592Z" fill="#5560F1"/>
<path d="M65.9068 16.1814C65.8896 14.1719 65.0897 12.2476 63.6758 10.8141C62.2619 9.38062 60.3444 8.54998 58.3276 8.4973C56.3107 8.44461 54.3522 9.174 52.8648 10.5317C51.3774 11.8894 50.4773 13.7693 50.3544 15.7751C50.2315 17.7809 50.8953 19.7559 52.2059 21.2837C53.5165 22.8115 55.3715 23.7727 57.3798 23.9647C59.3881 24.1567 61.3928 23.5645 62.9712 22.313C64.5497 21.0614 65.5785 19.2482 65.8409 17.2558C65.8814 16.9547 65.9034 16.6515 65.9068 16.3478V16.1773V16.1814ZM61.742 16.2762C61.7417 16.4247 61.7315 16.5729 61.7117 16.7201C61.5904 17.6436 61.1133 18.484 60.3813 19.0635C59.6492 19.643 58.7195 19.9162 57.7889 19.8253C56.8582 19.7344 55.9996 19.2865 55.3945 18.5763C54.7894 17.8662 54.4853 16.9495 54.5466 16.0201C54.6078 15.0907 55.0296 14.2214 55.7227 13.5962C56.4158 12.9709 57.3259 12.6387 58.2605 12.6697C59.1951 12.7007 60.0809 13.0926 60.7306 13.7625C61.3804 14.4323 61.7431 15.3276 61.742 16.2591V16.2762Z" fill="#5560F1"/>
<path d="M41.8704 23.9995C40.1382 23.9995 38.5278 23.5129 37.3365 22.6333C36.0894 21.7085 35.3988 20.4159 35.34 18.8963V18.7912H38.8086C39.0338 18.7918 39.2545 18.8556 39.4463 18.9758C39.6382 19.096 39.7936 19.2678 39.8956 19.4722C40.0824 19.84 40.5718 20.4559 41.7403 20.4559C42.9089 20.4559 43.7018 19.9304 43.7018 19.1864C43.7018 18.6315 43.3167 18.3635 42.1171 18.085L40.1299 17.547C35.596 16.2995 35.596 13.5535 35.596 12.5215C35.596 11.4097 36.2154 10.2821 37.2931 9.42979C38.4596 8.5071 40.0381 7.99951 41.7393 7.99951C43.7678 7.99951 45.6281 8.67104 46.7151 9.79761C47.511 10.6215 47.925 11.6787 47.9467 12.9419V13.047H44.6721C44.4048 13.0416 44.1431 12.9677 43.9113 12.8322C43.6794 12.6966 43.4849 12.5038 43.3456 12.2714C43.0658 11.8269 42.5301 11.582 41.8374 11.582C40.8453 11.582 40.229 12.0024 40.229 12.6855C40.229 13.5672 41.2727 13.832 41.6154 13.9192L44.2623 14.6549C46.1205 15.173 48.34 16.3721 48.34 19.1475C48.34 21.0759 47.2044 22.2109 46.2536 22.8257C45.0933 23.5697 43.4953 23.9995 41.8704 23.9995Z" fill="#5560F1"/>
<path d="M26.0006 23.9995C25.3642 24.0006 24.7416 23.8158 24.2105 23.4681C23.6794 23.1204 23.2633 22.6252 23.0142 22.0443L17 8.00731H20.75C21.1836 8.00784 21.6067 8.13935 21.963 8.38434C22.3194 8.62934 22.592 8.97618 22.7447 9.37871L26.0197 18.1998L29.2014 9.54247C29.3685 9.0908 29.6712 8.70076 30.0685 8.42489C30.4659 8.14902 30.939 8.00057 31.424 7.99951H35L28.9858 22.0443C28.7367 22.625 28.3208 23.1201 27.79 23.4678C27.2591 23.8155 26.6367 24.0004 26.0006 23.9995Z" fill="#5560F1"/>
<defs>
<clipPath id="clip0_1034_7612">
<rect width="16" height="16" fill="white" transform="translate(0 8)"/>
</clipPath>
</defs>
</svg>
