<svg width="55" height="23" viewBox="0 0 55 23" fill="none" xmlns="http://www.w3.org/2000/svg">
<path d="M54.9067 9.56151V-0.000488281H53.0933C52.5135 -0.00021804 51.9574 0.251698 51.5474 0.699897C51.1374 1.1481 50.907 1.75591 50.9067 2.38976V22.9995H53.3676C53.775 22.9995 54.1658 22.8226 54.4539 22.5076C54.7421 22.1926 54.9039 21.7654 54.9039 21.32L54.9067 9.56151Z" fill="#5560F1"/>
<path d="M37.8903 9.45922V-0.000488281H35.7188C35.0891 -0.000488338 34.4851 0.248614 34.0397 0.692048C33.5944 1.13548 33.344 1.73694 33.3438 2.36419V22.7534H36.4237C37.3454 22.7534 37.8903 22.0089 37.8903 21.0919L37.3758 14.357L37.8903 9.45922Z" fill="#5560F1"/>
<path d="M48.9068 15.1814C48.8896 13.1719 48.0897 11.2476 46.6758 9.8141C45.2619 8.38062 43.3444 7.54998 41.3276 7.4973C39.3107 7.44461 37.3522 8.174 35.8648 9.5317C34.3774 10.8894 33.4773 12.7693 33.3544 14.7751C33.2315 16.7809 33.8953 18.7559 35.2059 20.2837C36.5165 21.8115 38.3715 22.7727 40.3798 22.9647C42.3881 23.1567 44.3928 22.5645 45.9712 21.313C47.5497 20.0614 48.5785 18.2482 48.8409 16.2558C48.8814 15.9547 48.9034 15.6515 48.9068 15.3478V15.1773V15.1814ZM44.742 15.2762C44.7417 15.4247 44.7315 15.5729 44.7117 15.7201C44.5904 16.6436 44.1133 17.484 43.3813 18.0635C42.6492 18.643 41.7195 18.9162 40.7889 18.8253C39.8582 18.7344 38.9996 18.2865 38.3945 17.5763C37.7894 16.8662 37.4853 15.9495 37.5466 15.0201C37.6078 14.0907 38.0296 13.2214 38.7227 12.5962C39.4158 11.9709 40.3259 11.6387 41.2605 11.6697C42.1951 11.7007 43.0809 12.0926 43.7306 12.7625C44.3804 13.4323 44.7431 14.3276 44.742 15.2591V15.2762Z" fill="#5560F1"/>
<path d="M24.8704 22.9995C23.1382 22.9995 21.5278 22.5129 20.3365 21.6333C19.0894 20.7085 18.3988 19.4159 18.34 17.8963V17.7912H21.8086C22.0338 17.7918 22.2545 17.8556 22.4463 17.9758C22.6382 18.096 22.7936 18.2678 22.8956 18.4722C23.0824 18.84 23.5718 19.4559 24.7403 19.4559C25.9089 19.4559 26.7018 18.9304 26.7018 18.1864C26.7018 17.6315 26.3167 17.3635 25.1171 17.085L23.1299 16.547C18.596 15.2995 18.596 12.5535 18.596 11.5215C18.596 10.4097 19.2154 9.28207 20.2931 8.42979C21.4596 7.5071 23.0381 6.99951 24.7393 6.99951C26.7678 6.99951 28.6281 7.67104 29.7151 8.79761C30.511 9.62152 30.925 10.6787 30.9467 11.9419V12.047H27.6721C27.4048 12.0416 27.1431 11.9677 26.9113 11.8322C26.6794 11.6966 26.4849 11.5038 26.3456 11.2714C26.0658 10.8269 25.5301 10.582 24.8374 10.582C23.8453 10.582 23.229 11.0024 23.229 11.6855C23.229 12.5672 24.2727 12.832 24.6154 12.9192L27.2623 13.6549C29.1205 14.173 31.34 15.3721 31.34 18.1475C31.34 20.0759 30.2044 21.2109 29.2536 21.8257C28.0933 22.5697 26.4953 22.9995 24.8704 22.9995Z" fill="#5560F1"/>
<path d="M9.00056 22.9995C8.36421 23.0006 7.74162 22.8158 7.21052 22.4681C6.67942 22.1204 6.26334 21.6252 6.01423 21.0443L0 7.00731H3.75005C4.18361 7.00784 4.60672 7.13935 4.96305 7.38434C5.31938 7.62934 5.59202 7.97618 5.74468 8.37871L9.01965 17.1998L12.2014 8.54247C12.3685 8.0908 12.6712 7.70076 13.0685 7.42489C13.4659 7.14902 13.939 7.00057 14.424 6.99951H18L11.9858 21.0443C11.7367 21.625 11.3208 22.1201 10.79 22.4678C10.2591 22.8155 9.63672 23.0004 9.00056 22.9995Z" fill="#5560F1"/>
</svg>
