<svg width="25" height="24" viewBox="0 0 25 24" fill="none" xmlns="http://www.w3.org/2000/svg">
<path d="M19.8935 17.1271L13.6473 4.97764C13.4913 4.67999 13.2684 4.43318 13.001 4.2617C12.7335 4.09021 12.4306 4 12.1224 4C11.8142 4 11.5114 4.09021 11.2439 4.2617C10.9764 4.43318 10.7536 4.67999 10.5975 4.97764L4.3514 17.1271C4.20122 17.415 4.12207 17.7425 4.12207 18.0759C4.12207 18.4094 4.20122 18.7368 4.3514 19.0247C4.50548 19.3242 4.72793 19.5723 4.99591 19.7437C5.26389 19.9151 5.56775 20.0035 5.87632 19.9999H18.3685C18.6769 20.0032 18.9804 19.9146 19.2481 19.7433C19.5158 19.5719 19.7381 19.3239 19.892 19.0247C20.0424 18.7369 20.1218 18.4096 20.1221 18.0761C20.1223 17.7427 20.0434 17.4152 19.8935 17.1271ZM18.9028 18.3839C18.8483 18.4879 18.7702 18.5739 18.6763 18.6329C18.5824 18.692 18.4762 18.722 18.3685 18.7199H5.87632C5.76866 18.722 5.66245 18.692 5.56857 18.6329C5.47469 18.5739 5.39651 18.4879 5.34206 18.3839C5.29274 18.2904 5.26672 18.1837 5.26672 18.0751C5.26672 17.9665 5.29274 17.8598 5.34206 17.7663L11.5882 5.61684C11.6437 5.5133 11.7222 5.42762 11.8161 5.36814C11.91 5.30866 12.016 5.2774 12.1239 5.2774C12.2317 5.2774 12.3377 5.30866 12.4316 5.36814C12.5255 5.42762 12.604 5.5133 12.6595 5.61684L18.9057 17.7663C18.9545 17.8601 18.9801 17.9669 18.9796 18.0756C18.9791 18.1842 18.9525 18.2907 18.9028 18.3839ZM11.551 13.6V10.4C11.551 10.2303 11.6112 10.0675 11.7184 9.94745C11.8255 9.82742 11.9709 9.76 12.1224 9.76C12.274 9.76 12.4193 9.82742 12.5265 9.94745C12.6336 10.0675 12.6938 10.2303 12.6938 10.4V13.6C12.6938 13.7697 12.6336 13.9325 12.5265 14.0525C12.4193 14.1725 12.274 14.24 12.1224 14.24C11.9709 14.24 11.8255 14.1725 11.7184 14.0525C11.6112 13.9325 11.551 13.7697 11.551 13.6ZM12.9795 16.4799C12.9795 16.6698 12.9293 16.8554 12.8351 17.0133C12.7409 17.1711 12.607 17.2942 12.4504 17.3668C12.2938 17.4395 12.1215 17.4585 11.9552 17.4215C11.789 17.3844 11.6362 17.293 11.5164 17.1587C11.3965 17.0245 11.3149 16.8534 11.2818 16.6672C11.2487 16.481 11.2657 16.288 11.3306 16.1126C11.3954 15.9371 11.5053 15.7872 11.6462 15.6817C11.7872 15.5762 11.9529 15.5199 12.1224 15.5199C12.3497 15.5199 12.5677 15.6211 12.7285 15.8011C12.8892 15.9811 12.9795 16.2253 12.9795 16.4799Z" fill="#091E42"/>
</svg>
