<svg width="25" height="24" viewBox="0 0 25 24" fill="none" xmlns="http://www.w3.org/2000/svg">
<path d="M19.8935 17.1271L13.6473 4.97764C13.4913 4.67999 13.2684 4.43318 13.001 4.2617C12.7335 4.09021 12.4306 4 12.1224 4C11.8142 4 11.5114 4.09021 11.2439 4.2617C10.9764 4.43318 10.7536 4.67999 10.5975 4.97764L4.3514 17.1271C4.20122 17.415 4.12207 17.7425 4.12207 18.0759C4.12207 18.4094 4.20122 18.7368 4.3514 19.0247C4.50548 19.3242 4.72793 19.5723 4.99591 19.7437C5.26389 19.9151 5.56775 20.0035 5.87632 19.9999H18.3685C18.6769 20.0032 18.9804 19.9146 19.2481 19.7433C19.5158 19.5719 19.7381 19.3239 19.892 19.0247C20.0424 18.7369 20.1218 18.4096 20.1221 18.0761C20.1223 17.7427 20.0434 17.4152 19.8935 17.1271ZM11.551 10.4C11.551 10.2303 11.6112 10.0675 11.7184 9.94745C11.8255 9.82742 11.9709 9.76 12.1224 9.76C12.274 9.76 12.4193 9.82742 12.5265 9.94745C12.6336 10.0675 12.6938 10.2303 12.6938 10.4V13.6C12.6938 13.7697 12.6336 13.9325 12.5265 14.0525C12.4193 14.1725 12.274 14.24 12.1224 14.24C11.9709 14.24 11.8255 14.1725 11.7184 14.0525C11.6112 13.9325 11.551 13.7697 11.551 13.6V10.4ZM12.1224 17.4399C11.9529 17.4399 11.7872 17.3836 11.6462 17.2781C11.5053 17.1726 11.3954 17.0227 11.3306 16.8473C11.2657 16.6719 11.2487 16.4789 11.2818 16.2926C11.3149 16.1064 11.3965 15.9354 11.5164 15.8011C11.6362 15.6669 11.789 15.5754 11.9552 15.5384C12.1215 15.5013 12.2938 15.5204 12.4504 15.593C12.607 15.6657 12.7409 15.7887 12.8351 15.9466C12.9293 16.1045 12.9795 16.2901 12.9795 16.4799C12.9795 16.7345 12.8892 16.9787 12.7285 17.1587C12.5677 17.3388 12.3497 17.4399 12.1224 17.4399Z" fill="#091E42"/>
</svg>
