<svg width="24" height="24" viewBox="0 0 24 24" fill="none" xmlns="http://www.w3.org/2000/svg">
<path fill-rule="evenodd" clip-rule="evenodd" d="M19.6578 5.40289C19.9507 5.11 19.9507 4.63512 19.6578 4.34223C19.3649 4.04934 18.89 4.04934 18.5971 4.34223L12 10.9393L5.4029 4.34223C5.11001 4.04934 4.63514 4.04934 4.34224 4.34223C4.04935 4.63512 4.04935 5.11 4.34224 5.40289L10.9394 12L4.34223 18.5971C4.04934 18.89 4.04934 19.3649 4.34223 19.6578C4.63512 19.9507 5.11 19.9507 5.40289 19.6578L12 13.0607L18.5971 19.6578C18.89 19.9507 19.3649 19.9507 19.6578 19.6578C19.9507 19.3649 19.9507 18.89 19.6578 18.5971L13.0607 12L19.6578 5.40289Z" fill="#15161A"/>
</svg>
