<svg width="24" height="24" viewBox="0 0 24 24" fill="none" xmlns="http://www.w3.org/2000/svg">
<rect x="1.83163" y="5.83163" width="20.3367" height="12.3367" rx="1.66837" stroke="#091E42" stroke-width="0.663265"/>
<path d="M5.42367 9.17939C5.29084 8.98653 5.0304 8.94233 4.84288 9.08028C4.65536 9.21823 4.61238 9.48475 4.74651 9.67761L6.75193 12.5665V14.5714C6.75193 14.8085 6.93815 15 7.16864 15C7.39913 15 7.58535 14.8085 7.58535 14.5714V12.5665L9.59077 9.67761C9.7249 9.48475 9.68062 9.21689 9.4944 9.08028C9.30819 8.94367 9.04644 8.98653 8.91361 9.17939L7.16864 11.6906L5.42367 9.17939Z" fill="#091E42"/>
<rect x="11.6685" y="7.35712" width="0.663265" height="9.28571" rx="0.331633" fill="#091E42"/>
<path d="M14.6063 9.02559C14.7716 8.96399 14.9565 9.01622 15.0685 9.15416L18.4982 13.3874V9.4287C18.4982 9.19165 18.6844 9.00015 18.9149 9.00015C19.1453 9.00015 19.3315 9.19165 19.3315 9.4287V14.5713C19.3315 14.7521 19.2222 14.9128 19.0568 14.9744C18.8914 15.036 18.7065 14.9838 18.5946 14.8458L15.1649 10.6126V14.5713C15.1649 14.8083 14.9787 14.9999 14.7482 14.9999C14.5177 14.9999 14.3315 14.8083 14.3315 14.5713V9.4287C14.3315 9.2479 14.4409 9.0872 14.6063 9.02559Z" fill="#091E42"/>
</svg>
